<svg xmlns="http://www.w3.org/2000/svg" viewBox="0 0 498.32 425.76">
<defs><style>
    #hand1:hover {fill: #ffe5b4; transition: fill 0.3s ease-in-out;}
    #hand2:hover {fill: #ffe5b4; transition: fill 0.3s ease-in-out;}
    svg{cursor: pointer;}
</style></defs>
<title>adamIcon</title><g id="hand1"><g id="Adam"><g id="arm"><path d="M11.4,425.24c4.56-14.17,10.5-27.46,16.82-40.51S41.46,359,48.66,346.59l5.45-9.29c1.88-3.06,3.61-6.16,5.5-9.19s3.67-6.11,5.34-9l1.28-2.2c.33-.64.64-1.27,1-1.9.18-.33.36-.6.53-1l.54-1.24,1.07-2.51c.7-1.68,1.48-3.36,2.26-5.06s1.59-3.41,2.48-5.09a91.9,91.9,0,0,1,5.84-9.81A117.83,117.83,0,0,1,94.4,273.24l.85.52c-3.72,6.19-7.34,12.45-10.47,18.93a144.69,144.69,0,0,0-7.84,20.09l-.85,2.57-.42,1.29c-.16.43-.34.86-.52,1.29L74.1,320.5,72.91,323c-1.56,3.3-3.31,6.46-5,9.68q-5.19,9.54-10.6,18.95C50,364.09,42.59,376.49,35.09,388.86L23.78,407.38,12.25,425.76Z"/></g><g id="handBack"><path d="M0,276.62c4.79-4.88,9.42-9.92,14-14.9,2.26-2.5,4.53-5.07,6.42-7.63.21-.32.48-.65.66-1l.55-.89c.39-.69.78-1.39,1.18-2.14l2.43-4.54a123.08,123.08,0,0,1,11.56-17.74A122.41,122.41,0,0,1,51.69,212.4l.31-.27.7-.38a113.48,113.48,0,0,1,13.2-5.9c4.36-1.68,8.72-3.23,13.09-4.74l6.57-2.21,1.65-.54.84-.26.42-.17,3.14-1.22,12.63-5c8.41-3.3,16.78-6.69,25-10.27,4.11-1.79,8.2-3.63,12.22-5.5s8-3.76,11.81-5.74l1.85-.95,2.19,0c1.07,0,2.13-.06,3.49-.13a47,47,0,0,1,4.77,0,32,32,0,0,1,5.21.79,46.34,46.34,0,0,1,4.59,1.34c2.84,1,5.41,2.12,7.9,3.27,1.24.57,2.43,1.17,3.66,1.76l3.55,1.8-3.18-1,1,.05.25,0h1c.82,0,1.76,0,2.69,0,1.86-.06,3.82-.14,5.78-.27,3.92-.25,7.91-.61,11.9-1s8-.88,11.9-1.42l2.86-.43c.48-.07.94-.14,1.31-.22l.6-.1h0l0,0v0l.07,0,.33-.1c.22-.06.45-.12.68-.16a8,8,0,0,1,1.37-.18,10.06,10.06,0,0,1,1.23,0l.3,0,.16,0,.34,0c.2,0,.5.07.62.1l.45.09.74.18c.87.24,1.52.46,2.12.67,1.2.43,2.25.85,3.28,1.28,4.07,1.71,7.84,3.45,11.6,5.27s7.43,3.72,11.11,5.6c7.36,3.78,14.63,7.6,21.93,11.5l.74.4.4.31.32.26.21.17.35.32c.23.21.44.42.65.63a16.86,16.86,0,0,1,1.2,1.4,13.13,13.13,0,0,1,2.06,4,11,11,0,0,1,.21,5.92,11.31,11.31,0,0,1-2.5,4.76,12.5,12.5,0,0,1-1.48,1.45c-.49.41-.92.7-1.4,1s-.87.52-1.31.78-.81.41-1.23.61a29.42,29.42,0,0,1-4.48,1.6,60.43,60.43,0,0,1-8,1.56c-2.59.35-5.1.54-7.62.72l-1.89.14-1.36-.6c-5.59-2.47-11.05-5-16.55-7.65-2.73-1.35-5.45-2.76-8.19-4.26-1.35-.74-2.82-1.58-4.07-2.36l-.24-.15-.05,0h0s-.05,0-.11-.07a3.45,3.45,0,0,0-.43-.2l-.51-.16-.24-.06-.1,0h.06l1.69-.27c-6,1.61-12,3.3-18,4.88s-12,3.17-17.95,4.83l-4.43,1.28c-1.53.44-3.1.85-4.65,1.22l-2.24.51a11.23,11.23,0,0,0-1.8.56,14.88,14.88,0,0,0-1.78.95l-.47.29c-.14.09-.2.15-.31.23s-.2.13-.31.22l-.33.34a22.51,22.51,0,0,0-2.56,3.4c-.81,1.25-1.58,2.57-2.32,3.92-1.47,2.69-2.83,5.48-4.09,8.31l-1-.32c1-3,2.11-5.86,3.35-8.73q.92-2.16,2-4.24a24.1,24.1,0,0,1,2.54-4,5.54,5.54,0,0,1,.85-.9,6.55,6.55,0,0,1,.95-.77,17.29,17.29,0,0,1,2-1.3,25.11,25.11,0,0,1,4.46-1.64c3-.9,5.82-2.07,8.77-3.08,11.74-4.08,23.54-7.92,35.34-11.78l.11,0h.09a10.36,10.36,0,0,1,4.62,1.23c1.31.73,2.63,1.4,4,2.05,2.68,1.31,5.4,2.55,8.14,3.75,5.47,2.41,11,4.72,16.55,6.94l-.35-.05c2.37-.25,4.73-.51,7.07-.91a56.26,56.26,0,0,0,6.88-1.56,22.75,22.75,0,0,0,3.23-1.25,8.13,8.13,0,0,0,2.65-1.88,2.53,2.53,0,0,0,.59-2.58,5.62,5.62,0,0,0-1.83-2.44l.12.07q-11-5.53-22-10.91c-7.38-3.55-14.78-7.13-22.3-10.24-.95-.38-1.89-.75-2.83-1.08-.48-.16-1-.31-1.4-.43a5,5,0,0,0-.64-.14l-.21,0s.08,0,0,0l-.21.05a16.26,16.26,0,0,1-1.6.36l-1.53.27-3.06.48c-4.07.61-8.15,1.12-12.23,1.58s-8.18.86-12.29,1.16a83.33,83.33,0,0,1-12.46.2l-.18,0-.17-.09c-2.26-1.18-4.52-2.34-6.81-3.43s-4.6-2.1-6.95-2.95a27.27,27.27,0,0,0-7.19-1.66c-2.44-.17-5,.1-7.6.09l.43-.11c-8.16,4.17-16.56,7.77-25,11.22s-17,6.67-25.54,9.8q-6.42,2.34-12.88,4.6l-3.23,1.11c-1.17.39-2.21.64-3.32,1l-6.54,1.93c-4.35,1.32-8.69,2.7-13,4.17a121.24,121.24,0,0,0-12.62,5l.11-.08A116.72,116.72,0,0,0,41,231.48q-3.35,3.83-6.38,7.92c-2,2.73-3.91,5.55-5.72,8.43l-2.69,4.34c-.45.73-.92,1.46-1.39,2.18a25.73,25.73,0,0,1-1.63,2c-2.27,2.61-4.73,5-7.21,7.34-5,4.69-10.1,9.2-15.29,13.64Z"/></g><g id="indexMiddle"><path d="M192.29,231.5a74,74,0,0,1,14.2-4.14c.64-.1,1.28-.2,2-.27a9.3,9.3,0,0,1,2.69,0,11.09,11.09,0,0,1,1.39.41l.38.1.82.22,1.72.46c2.28.67,4.6,1.32,6.89,2.11,1.15.39,2.31.78,3.48,1.22s2.32.91,3.7,1.58l.58.3a5.36,5.36,0,0,1,.75.45c.36.25.71.52,1,.8a4.77,4.77,0,0,1,.44.39l.37.37a9.41,9.41,0,0,1,.7.74l.5.62c.37.46.55.73.8,1.08a28.06,28.06,0,0,0,1.92,2.51,12.38,12.38,0,0,0,1.44,1.34,10.92,10.92,0,0,0,1.64,1,22.66,22.66,0,0,0,4.4,1.74l-3.91-.38,2.1-.45c.75-.18,1.46-.38,2.09-.59a10.34,10.34,0,0,0,1.52-.62c.33-.13.48-.3.06.11l4.16-2.36a18.55,18.55,0,0,1,7-.31,16.81,16.81,0,0,1,3.37.85c.55.2,1.09.43,1.64.69.28.13.55.27.85.43l.46.26.27.17.43.28-2.75-1.22c-.13,0,.1,0,.2.06l.4.1.85.15c.56.08,1.07.1,1.4.13s.57,0,.4.14a3.27,3.27,0,0,0-1,1l-.77,1.26a2.24,2.24,0,0,0,0,.93c.08.28.21.3.21.06a9.32,9.32,0,0,0-1.25-3.19l-1.27-2.29c-.52-.9-.95-1.71-1.39-2.54-.88-1.64-1.66-3.31-2.49-5-1.59-3.32-3.14-6.64-4.6-10-.77-1.67-1.43-3.41-2.19-5.08s-1.43-3.41-2.32-5l.62-.79a31.63,31.63,0,0,1,3.82,4.06c1.17,1.41,2.3,2.85,3.41,4.3,2.23,2.89,4.39,5.84,6.5,8.81s4.2,5.91,6.42,8.84a21.25,21.25,0,0,1,2.83,4.92,8.47,8.47,0,0,1,.55,3,7,7,0,0,1-.71,3l0,.07-.05.06a6.78,6.78,0,0,1-2.67,2,10.28,10.28,0,0,1-3.11.77,17.85,17.85,0,0,1-3.1,0,20.55,20.55,0,0,1-3.06-.45l-.12,0-.17-.1a7.26,7.26,0,0,0-1.43-.64,7.82,7.82,0,0,0-1.59-.37,8.32,8.32,0,0,0-3.22.18l.46-.26a10.74,10.74,0,0,1-2.71,1.84,20.67,20.67,0,0,1-2.91,1.11,30.45,30.45,0,0,1-3,.77c-1,.21-2,.39-3,.53l-.22,0-.2-.07a28.86,28.86,0,0,1-6.55-3.16,18.78,18.78,0,0,1-5.21-5.15c-.69-1-1.28-2.06-1.88-3a7.82,7.82,0,0,0-.93-1.31,3.27,3.27,0,0,0-.51-.48,6,6,0,0,0-.67-.44c-2-1.17-4.08-2.21-6.17-3.26L212.77,234l-1.59-.76-.79-.38-.41-.2-.27-.08a22.53,22.53,0,0,0-3.33-.32c-4.64-.13-9.35,0-14,.22Z"/></g><g id="ring"><path d="M210.38,218.5a20.17,20.17,0,0,1,3.71-1.87,24.19,24.19,0,0,1,3.78-1.15,22.1,22.1,0,0,1,4-.49,14.47,14.47,0,0,1,2.16.08l1.19.16c.44.08.87.21,1.31.33a34.68,34.68,0,0,1,4.51,2.12c.55.3,1.13.6,1.64.93l1.52,1c1,.66,1.89,1.37,2.85,2.06s1.77,1.45,2.61,2.22a47.16,47.16,0,0,1,8.65,10.57,42.72,42.72,0,0,1,3.14,6.44,32,32,0,0,1,1.94,7.64l-.69.72-5-4.46-4.93-4.5c-3.29-3-6.53-6-9.84-9-1.64-1.5-3.28-3-4.95-4.45-.83-.73-1.67-1.45-2.52-2.14a27.26,27.26,0,0,0-2.53-1.87,28.66,28.66,0,0,0-6.14-2c-2.14-.52-4.32-.95-6.5-1.29Z"/></g><g id="thumb"><path d="M74.75,241.74c2,2.2,3.88,4.41,5.88,6.55s3.93,4.3,6,6.36,4.06,4.06,6.14,6a43.11,43.11,0,0,0,6.37,4.9c1,.61,2.25,1.33,3.41,1.91a34,34,0,0,0,3.56,1.61,30.5,30.5,0,0,0,7.18,1.89,38.82,38.82,0,0,0,7.33.21,53.73,53.73,0,0,0,7.66-1.14l-2.37.81c2.33-1.45,4.65-2.76,7-4s4.7-2.41,7.1-3.51,4.85-2.16,7.41-3.15c.63-.25,1.29-.5,2-.72s1.37-.46,2.08-.68l1.14-.33c.41-.1.76-.21,1.22-.31l1.45-.28c.61-.09,1.41-.16,2.1-.19l-1.64.16c.58-.09,1.16-.17,1.75-.23l.88-.08h.56c.72,0,1.54,0,2.19,0,1.29,0,2.6.09,3.79.19s2.43.19,3.61.33,2.36.28,3.52.43c4.67.64,9.28,1.37,13.87,2.37s9.16,2.16,13.77,3.58a73.84,73.84,0,0,1,14.13,5.92l-2.68-1a18.12,18.12,0,0,0,6.73,0,15.29,15.29,0,0,0,3.26-.95,11.4,11.4,0,0,0,2.23-1.2c.16-.11.25-.2.07.1a.94.94,0,0,0-.1.28,2.68,2.68,0,0,0-.2.53,2.54,2.54,0,0,0,0,.29c0,.09-.07.34-.07.51a4.67,4.67,0,0,0,0,.83c.11.73.16.48,0,.21a8.75,8.75,0,0,0-.57-1.25,30,30,0,0,0-4.94-6.31,31.89,31.89,0,0,0-6.4-4.94,16.75,16.75,0,0,0-1.59-.79c-.26-.12-.5-.19-.76-.3s-.57-.17-.87-.26a30.87,30.87,0,0,0-4.26-.86,89.31,89.31,0,0,0-9.64-.67c-3.3-.13-6.74-.14-10-.06l-1.26,0-.35-.08c-.37-.09-.61-.16-.88-.24l-.77-.24c-.51-.16-1-.32-1.49-.5-1-.33-1.92-.71-2.87-1.08s-1.87-.77-2.78-1.19-1.82-.87-2.7-1.34a76.66,76.66,0,0,1-10.11-6.34,64.47,64.47,0,0,1-8.77-7.88c-.65-.73-1.36-1.39-1.95-2.17l-1.81-2.29c-1.21-1.5-2.22-3.17-3.28-4.76l.77-.64a68.72,68.72,0,0,0,8,7.83c1.4,1.24,2.94,2.3,4.43,3.42.76.54,1.55,1,2.33,1.55l1.17.76,1.21.71a71.11,71.11,0,0,0,10,5,63.58,63.58,0,0,0,10.61,3.33h-.23c3.48-.38,7-.65,10.43-.8a94.15,94.15,0,0,1,10.49,0,40.72,40.72,0,0,1,5.26.69,21.41,21.41,0,0,1,5.12,1.65,36,36,0,0,1,8.81,5.93,37.73,37.73,0,0,1,6.92,8.07,17.86,17.86,0,0,1,1.26,2.42,8.5,8.5,0,0,1,.75,2.79,3.73,3.73,0,0,1-.19,1.59c-.08.24-.15.5-.25.73l-.37.66a9.19,9.19,0,0,1-1.85,2.19,18.28,18.28,0,0,1-4.64,2.89,24.9,24.9,0,0,1-5.12,1.66,26.86,26.86,0,0,1-10.72.2l-.14,0-.15-.08a65.29,65.29,0,0,0-12.24-5c-4.23-1.34-8.55-2.47-12.89-3.45s-8.74-1.8-13.15-2.47c-1.1-.17-2.2-.34-3.31-.47s-2.2-.28-3.31-.38-2.2-.19-3.3-.26a19.06,19.06,0,0,0-3.14.06h-.18a17.19,17.19,0,0,0-3.46.66c-1.19.33-2.37.71-3.55,1.11-2.36.81-4.7,1.71-7,2.66a140.09,140.09,0,0,0-13.57,6.4l-.14.07-.14,0a47,47,0,0,1-17.73-.25,42.45,42.45,0,0,1-15.92-7.8,51,51,0,0,1-6.37-6.18c-2-2.21-3.82-4.48-5.58-6.83-3.55-4.68-6.85-9.51-9.95-14.5Z"/></g></g></g><g id="hand2"><g id="handBack2"><path d="M497.32,0q-7.4,7.05-14.88,14c-5,4.66-10,9.26-15,13.86L460,34.76l-7.53,6.88-15,13.78Q422.31,69.1,407.52,83q-3.69,3.48-7.3,7c-2.39,2.35-4.8,4.71-7,7.08-.57.6-1.09,1.18-1.58,1.76-.24.29-.54.6-.73.87l-.62.81-3,4.09-6.09,8.26.26-.38c-.93,1.5-1.79,2.79-2.72,4.14s-1.88,2.63-2.85,3.93a96.22,96.22,0,0,1-6.28,7.47,67.85,67.85,0,0,1-7.29,6.84,50.37,50.37,0,0,1-4.19,3l-2.29,1.37c-.74.41-1.45.76-2.19,1.15a128.29,128.29,0,0,1-17.9,7.21c-6,2-12.2,3.57-18.25,5l.63-.2-.42.19c-.18.09-.37.18-.56.29-.38.2-.76.43-1.14.66a21.57,21.57,0,0,0-4.13,3.38c-.32.32-.58.66-.88,1l-.94,1.19-7.89,10.55c-2.66,3.55-5.4,7.06-8.26,10.55-1.44,1.74-2.91,3.47-4.5,5.19-.8.86-1.61,1.72-2.56,2.58-.22.21-.47.43-.73.65s-.52.44-.83.67l-.44.33-.55.37a10,10,0,0,1-1.44.74l1.77-6.31c1.4,2,2.29,3.07,3.59,3.72a9.75,9.75,0,0,0,5,.86,33.25,33.25,0,0,0,6.28-1.12c1.07-.3,2.14-.65,3.22-1l3.22-1.19-.53.28c7.93-4.79,15.9-9.62,24-14.3q6.06-3.51,12.32-6.73c2.08-1.08,4.19-2.12,6.36-3.09a27.35,27.35,0,0,1,7-2.36l-.19,0c2.16-.49,4.26-.79,6.38-1.06s4.22-.51,6.33-.71c4.23-.36,8.44-.69,12.67-.88-4.16.77-8.32,1.52-12.44,2.4q-3.11.61-6.18,1.32c-2,.48-4.08,1-6,1.63l-.19,0c-.47.16-.93.28-1.41.46l-1.5.66c-1,.5-2,1-3,1.54-2,1.1-3.95,2.28-5.9,3.5-3.91,2.44-7.74,5-11.58,7.6s-7.66,5.19-11.47,7.83l-11.47,7.93-.2.14-.32.14-3.46,1.45c-1.2.44-2.38.89-3.59,1.29a39.44,39.44,0,0,1-7.78,1.73c-.71.05-1.43.08-2.14.11s-1.49-.07-2.24-.11-1.54-.24-2.31-.42a16.46,16.46,0,0,1-2.32-.83c-3.13-1.32-5.42-4.1-6.81-5.93l1.77-6.31s-.13.06,0-.06l.13-.09.2-.18a4.84,4.84,0,0,0,.44-.4c.16-.14.32-.29.48-.46.66-.65,1.35-1.42,2-2.19,1.35-1.57,2.68-3.24,4-4.95,2.63-3.41,5.16-7,7.72-10.51l7.7-10.81,1.08-1.43c.41-.51.82-1,1.27-1.52a28.24,28.24,0,0,1,2.84-2.74,30.14,30.14,0,0,1,3.15-2.33c.55-.36,1.11-.7,1.7-1,.29-.17.59-.32.9-.48l.49-.23a6.47,6.47,0,0,1,.6-.27l.27-.11.36-.09c6-1.52,11.78-3.15,17.5-5a120.86,120.86,0,0,0,16.49-6.72l1.93-1,1.7-1c1.12-.76,2.26-1.5,3.34-2.4a59,59,0,0,0,6.27-5.83c2-2.13,3.9-4.37,5.72-6.69.91-1.17,1.8-2.35,2.65-3.56s1.72-2.46,2.44-3.58l.17-.26.09-.12L379.59,99,382.72,95l.95-1.2c.32-.4.63-.7.94-1.06.63-.69,1.25-1.37,1.87-2,5-5.06,10-9.56,15.17-14.12s10.31-9,15.53-13.34l15.69-13.08c5.27-4.31,10.59-8.57,15.89-12.83l8-6.37,8.05-6.29c5.36-4.2,10.73-8.37,16.17-12.47S491.82,4,497.32,0Z"/></g><g id="thumb2"><path d="M389.32,125a83.19,83.19,0,0,1,1,17.3,77.53,77.53,0,0,1-2.67,17.4,61.22,61.22,0,0,1-3.05,8.47,52.22,52.22,0,0,1-4.53,8,45.58,45.58,0,0,1-6.17,7,44.86,44.86,0,0,1-7.7,5.53l.4-.23a10.12,10.12,0,0,0-2.7,3.7,7.67,7.67,0,0,0-.78,4.17,1.91,1.91,0,0,0,.38.93,2.42,2.42,0,0,0,.9.54,11.45,11.45,0,0,0,4.58.38h.6a16.33,16.33,0,0,0,5.53-.73,22.16,22.16,0,0,0,5.29-2.55,37.92,37.92,0,0,0,9.18-8.87,70.17,70.17,0,0,0,7-11.58,99.78,99.78,0,0,0,5.17-12.84L402,161l.2-.33a41.38,41.38,0,0,1,6.13-8,50.62,50.62,0,0,1,7.55-6.28,88.27,88.27,0,0,1,16.66-8.69l2.11-.85a13.39,13.39,0,0,0,1.64-.8,34.5,34.5,0,0,0,3.43-2.16,32.67,32.67,0,0,0,6-5.61,28.89,28.89,0,0,0,4.14-7.09l.71-2,.51-2c.09-.35.18-.69.26-1l.13-1,.28-2.12,0,.24c-.21-3-.45-5.93-.84-8.86a36.18,36.18,0,0,0-.81-4.32A19.09,19.09,0,0,0,448.32,96a17.36,17.36,0,0,1,2.62,3.73,30.35,30.35,0,0,1,1.65,4.27c.89,2.9,1.62,5.83,2.31,8.76l0,.07V113l0,2.38,0,1.19c0,.4-.08.8-.11,1.2-.09.79-.15,1.6-.27,2.4l-.52,2.37a31.48,31.48,0,0,1-3.87,9,36.25,36.25,0,0,1-6.39,7.43,38,38,0,0,1-3.91,3,21.21,21.21,0,0,1-2.3,1.36l-2,1c-2.62,1.35-5.18,2.72-7.64,4.21a74.6,74.6,0,0,0-7,4.78,37.71,37.71,0,0,0-10.5,12l.39-.92a97.81,97.81,0,0,1-5.32,14.34,74.18,74.18,0,0,1-7.95,13.38,45.77,45.77,0,0,1-11.78,11.18,29.79,29.79,0,0,1-7.87,3.58,26.31,26.31,0,0,1-8.89,1h.6a25.61,25.61,0,0,1-4.25-.14,16,16,0,0,1-4.67-1.25,11.34,11.34,0,0,1-4.52-3.56,11.19,11.19,0,0,1-2.06-5.41,14.11,14.11,0,0,1,.38-4.93,19.32,19.32,0,0,1,1.58-4.18,20.63,20.63,0,0,1,2.42-3.65,15.69,15.69,0,0,1,3.51-3.16l.25-.16.14-.07a37.06,37.06,0,0,0,6.51-4,40.2,40.2,0,0,0,5.59-5.41,49.89,49.89,0,0,0,4.57-6.54,63.74,63.74,0,0,0,3.58-7.33,87,87,0,0,0,4.67-16.05c.56-2.76,1-5.57,1.31-8.39S389.22,127.87,389.32,125Z"/></g><g id="palm"><path d="M498.32,98q-2.46,2.07-4.93,4.09l-4.92,4c-1.63,1.33-3.24,2.67-4.78,4-.76.68-1.53,1.36-2.19,2a10.14,10.14,0,0,0-1.56,1.81l.59-1.32c-.06,1-.13,2.12-.23,3.29s-.22,2.36-.35,3.55c-.33,2.38-.72,4.76-1.28,7.11A77,77,0,0,1,474,140.28a90,90,0,0,1-7.1,12.55c-.66,1-1.4,1.94-2.11,2.91s-1.4,1.94-2.18,2.84-1.52,1.84-2.3,2.75c-.39.45-.77.91-1.16,1.35l-1.21,1.26c-1.63,1.71-3.11,3.32-5,5.15a27.28,27.28,0,0,1-6.55,4.61,17.53,17.53,0,0,1-1.81.85,18.21,18.21,0,0,1-1.85.73,30.26,30.26,0,0,1-3.78,1c-.63.12-1.26.28-1.89.37l-1.9.2a31.8,31.8,0,0,1-3.76.16,49.66,49.66,0,0,1-14.25-2.42A66.46,66.46,0,0,1,404.3,169c4.62.56,9.12,1.3,13.6,1.52a60.84,60.84,0,0,0,13-.39,28.46,28.46,0,0,0,11.15-4,22.9,22.9,0,0,0,4.33-3.65c.32-.32.66-.74,1-1.14l1.05-1.25,2.21-2.54,1.11-1.26c.35-.43.67-.86,1-1.29.67-.87,1.36-1.71,2.05-2.56,1.35-1.71,2.56-3.51,3.85-5.26s2.45-3.58,3.5-5.46c.55-.93,1.16-1.83,1.66-2.78l1.54-2.85a92.9,92.9,0,0,0,5.16-11.85c.75-2,1.35-4.11,1.94-6.21.28-1.06.57-2.11.81-3.2s.5-2.18.84-3.47l.26-1,.34-.36a15.66,15.66,0,0,1,3-2.54c1-.66,1.92-1.19,2.87-1.75,1.9-1.09,3.85-2,5.78-3A111.69,111.69,0,0,1,498.32,98Z"/></g><g id="middle"><path d="M374.93,202.57c.39,2.45.74,4.88,1.07,7.29l.54,3.59a24,24,0,0,0,.71,3.27c0,.08.07.26.1.25h0l.45.57,1.1,1.37,2.28,2.77c1.55,1.84,3.1,3.68,4.66,5.49s3.14,3.6,4.72,5.37l2.39,2.61c.4.43.8.86,1.21,1.28l.6.63.31.32.15.16.11.08a5.41,5.41,0,0,0,3.55,1.51,5.56,5.56,0,0,0,3.62-1.33,4.73,4.73,0,0,0,1.73-3.27,11.55,11.55,0,0,0,.06-1.25l0-.65c0-.15,0-.31-.05-.47a5.59,5.59,0,0,0-.68-1.86,5.45,5.45,0,0,0-.6-.85,4.59,4.59,0,0,0-.37-.39l-.09-.1-.2-.17-.39-.36a25.6,25.6,0,0,1-2.89-3.15,20.5,20.5,0,0,1-2.35-3.85,17.34,17.34,0,0,1-.82-2.23c-.16-.65-.34-1.3-.47-1.93a92.67,92.67,0,0,1-1.8-14.89c-.09-2.49-.1-5,0-7.47a36.83,36.83,0,0,1,1.09-7.39A117.77,117.77,0,0,0,398,201.7c1.29,4.62,2.66,9.27,4.23,13.61.19.55.41,1.05.6,1.56a12.35,12.35,0,0,0,.61,1.12,14.08,14.08,0,0,0,1.71,2.18,21.83,21.83,0,0,0,2.24,2l.3.24.4.32a11.3,11.3,0,0,1,1,.86,13.55,13.55,0,0,1,3.79,6.81,11.9,11.9,0,0,1,.22,1.33l.07.67,0,.5a19.13,19.13,0,0,1,0,2.39,13.68,13.68,0,0,1-4.75,9.35,14.33,14.33,0,0,1-9.84,3.33,13.91,13.91,0,0,1-9.34-4.5l-.22-.23-.15-.19-.3-.36-.61-.73c-.4-.48-.79-1-1.18-1.47-.8-1-1.53-2-2.28-3-1.48-2-2.87-4.06-4.22-6.14s-2.63-4.19-3.85-6.35c-.6-1.09-1.22-2.16-1.79-3.28l-.85-1.7-.22-.45-.25-.56a7.8,7.8,0,0,1-.26-.86,4.5,4.5,0,0,1-.08-.63,23.41,23.41,0,0,1,.11-4c.13-1.25.27-2.48.47-3.71C373.87,207.4,374.35,205,374.93,202.57Z"/></g><g id="ring2"><path d="M408.78,235.46a13.07,13.07,0,0,0,5.41-3,5.86,5.86,0,0,0,1.5-4.29,19.27,19.27,0,0,0-.84-5.2c-.26-.9-.53-1.81-.87-2.7l-.52-1.34c-.16-.41-.38-.93-.52-1.19l.21.46a33.82,33.82,0,0,1-2.69-5.83A34.17,34.17,0,0,1,409,206.2a38.4,38.4,0,0,1,.3-12.31,42.9,42.9,0,0,1,3.75-11.3A34.57,34.57,0,0,1,419.8,173c-.42,3.91-.86,7.59-1.17,11.21s-.53,7.13-.54,10.55a58.31,58.31,0,0,0,.76,9.92,39.07,39.07,0,0,0,2.65,9.12l.21.46c.25.76.38,1.29.55,1.93s.28,1.21.39,1.83a33.09,33.09,0,0,1,.44,3.75,19.83,19.83,0,0,1-1.07,7.91,11.24,11.24,0,0,1-2.27,3.76,8.83,8.83,0,0,1-3.64,2.38,9.5,9.5,0,0,1-3.86.46A12.67,12.67,0,0,1,408.78,235.46Z"/></g><g id="pinky"><path d="M440.87,171.52c.19,2.85.35,5.67.58,8.41.14,1.36.26,2.72.49,4a15.71,15.71,0,0,0,.42,1.73c.13.54.44.86.42.73l.49,1.64a.16.16,0,0,0,.06-.09s0,0,0,0l0,0,.19.31.25.42.32.47c.43.64.92,1.32,1.42,2,1,1.36,2.12,2.74,3.22,4.11l3.36,4.1a12.41,12.41,0,0,1,2,3.57c.26.73.38,1.21.54,1.8s.25,1.14.34,1.73a16.16,16.16,0,0,1-.54,7.5,13.15,13.15,0,0,1-.75,1.88,11.86,11.86,0,0,1-1.11,1.86,12.51,12.51,0,0,1-3.13,3.07,13.23,13.23,0,0,1-8.1,2.34,14.26,14.26,0,0,1-4.13-.8,12.69,12.69,0,0,1-1.91-.87l-.46-.26a3.76,3.76,0,0,1-.36-.23l-.69-.46a31.59,31.59,0,0,1-8.64-9,44.75,44.75,0,0,1-5.06-10.6c-.64-1.82-1.07-3.68-1.53-5.52s-.73-3.7-.92-5.57a57.94,57.94,0,0,1-.3-11.17c3,6.81,5.71,13.46,9.21,19.38a56.86,56.86,0,0,0,5.7,8.21,36.39,36.39,0,0,0,3.28,3.39,27.08,27.08,0,0,0,3.57,2.66l.46.27a1.64,1.64,0,0,0,.22.12l.14.06c.18.1.38.15.56.23a4.77,4.77,0,0,0,1.18.19,4.08,4.08,0,0,0,2.16-.6,2.49,2.49,0,0,0,.75-.69.86.86,0,0,0,.15-.22c0-.08.11-.12.16-.23s.21-.41.3-.62a7.79,7.79,0,0,0,.44-3.22c0-.31-.05-.63-.09-1s-.13-.7-.15-.83a4.39,4.39,0,0,0-.48-1.21c-1-1.57-2-3.15-2.9-4.78s-1.81-3.28-2.64-5c-.41-.88-.81-1.77-1.17-2.76l-.27-.75-.25-.84c-.09-.27-.17-.66-.24-1,0-.09,0-.15-.05-.27l0-.38c0-.26,0-.51,0-.76l.5,1.64a7,7,0,0,1-.79-3.23,13.68,13.68,0,0,1,.11-2.43,33.14,33.14,0,0,1,.84-4.35c.36-1.4.78-2.77,1.25-4.12S440.28,172.83,440.87,171.52Z"/></g></g></svg>