<svg id="full" xmlns="http://www.w3.org/2000/svg" viewBox="0 0 559 155.61"><defs><style>.cls-1{fill:#2e442a;}.cls-2{fill:#272d26;}.cls-3{fill:#8f918c;}.cls-4{fill:#333;}.cls-5{fill:#b2a546;}.cls-6{fill:#962222;}.cls-7{fill:#acafb5;}.cls-8{fill:#416e47;}.cls-9{fill:#1b4241;}.cls-10{fill:#b58f4b;}.cls-11{fill:none;stroke:#000;stroke-miterlimit:10;}</style></defs><title>barIcon</title><path class="cls-1" d="M150.16,112.41a1.34,1.34,0,0,1,0,.2H137.44c-1-10.23-2.33-24.22-2.94-28.5-.82-5.77-4.36-20.36-7.26-27,0,0,11.94,1,14.1-2.51,2.76,7.46,5.79,21.62,6.46,27.38C148.34,86.55,149.42,101.6,150.16,112.41Z"/><path class="cls-2" d="M548.5,112.11v.5h-9.3c-.3-16.53-.7-39.59-.7-41.5,0-2.81-.88-3.87-1-4,1,1,5.1.13,5.1.13a2.88,2.88,0,0,1-.11.86c-1,8,4,18,5,20C548.41,89.93,548.49,108.78,548.5,112.11Z"/><path class="cls-3" d="M507.58,118l-.08,10.14s5,7,20,6c7.41,0,10.62-2.67,12-4.71h0a6.12,6.12,0,0,0,1-2.28s5,3,8-1v-13.5h10v42.5H1v-40.5s2.83-.77,6.13-1.4h0c2.59-.33,5.36-.66,7.13-.78h.2v1.69s-1,6,3,8c4,3,21,2,24-2a4.2,4.2,0,0,0,1.85-1.49h0c1.86,13.5,29.14,5.49,29.14,5.49,15,12,30,2,30,2s1,6,15,7c26,1,21-9,21-9,6,4,12.45,0,12.45,0s-.32-4.94-.78-11.49H322a5,5,0,0,0,1.5.5,7.74,7.74,0,0,1,1,3s2,6,0,6a2,2,0,0,0-2,2s-3,3,0,4a1,1,0,0,1,1,.67,1.66,1.66,0,0,1,0,.33,14.39,14.39,0,0,0-3,2c-1,0-11,3-5,6,6,1,30,2,32-2-1-3-10-7-10-7s0-3-1-3a2.38,2.38,0,0,0,.27-1,2.33,2.33,0,0,0-1.27-2s1-5,0-6a13.08,13.08,0,0,0,3.37-3.5H446.28c.28,5.59,2.72,11.82,10.22,16.5,0,0-7,5,6,9a88.57,88.57,0,0,0,23-3s4-4-1-6a21.33,21.33,0,0,0,7-9c6,2,14,0,14,0,1.5-.75,2-1.5,2.07-2.14Z"/><polygon class="cls-3" points="558.5 155.11 558.5 112.61 559 112.61 559 155.61 1 155.61 1 155.11 558.5 155.11"/><path class="cls-3" d="M7.17,113.2a36.39,36.39,0,0,1,7.13-.78C12.53,112.54,9.76,112.87,7.17,113.2Z"/><path class="cls-2" d="M548.5,112.61v13.5c-3,4-8,1-8,1a6.12,6.12,0,0,1-1,2.28c0-.34-.14-7.54-.3-16.78Z"/><path class="cls-4" d="M542.61,67.25s-4.09.86-5.1-.13h0s-1-2,2-2C542.09,65.11,542.58,66.36,542.61,67.25Z"/><path class="cls-2" d="M507.58,118h0a2.36,2.36,0,0,0-1.07-1.86s0-1.28.05-3.5H539.2c.16,9.24.29,16.44.3,16.78h0c-1.38,2-4.59,4.71-12,4.71-15,1-20-6-20-6Z"/><path class="cls-2" d="M539.2,112.61H506.55c.14-8.82.52-32.43.75-48.29h.28s4.92-6.21,6.92-7.21c0-1.85-.86-9.7-.19-14.82a52.73,52.73,0,0,0,20.19,0V59.11s1,6,5,6c-3,0-2,2-2,2h0c.11.12,1,1.18,1,4C538.5,73,538.9,96.08,539.2,112.61Z"/><path class="cls-4" d="M519.55,20.34c6.89-1.35,17.66-1.23,16,4.77a6.93,6.93,0,0,1-3,4,41.09,41.09,0,0,1-17,0s-5-6,1-8A23.69,23.69,0,0,1,519.55,20.34Z"/><path class="cls-2" d="M534.5,41.11v1.18a52.73,52.73,0,0,1-20.19,0c.05-.42.12-.81.19-1.18a75,75,0,0,0,1-12,41.09,41.09,0,0,0,17,0S532.5,37.11,534.5,41.11Z"/><path class="cls-5" d="M519.5,20.11l0,.23a23.69,23.69,0,0,0-3,.77c-6,2-1,8-1,8a75,75,0,0,1-1,12c-.07.37-.14.76-.19,1.18-.67,5.12.19,13,.19,14.82-2,1-6.92,7.21-6.92,7.21h-.28c.12-8,.2-14.06.2-15.21,0-1.85-1.92-3.91-4-5.59,0,0,2-2.41,2-8.41v-10s-3-5-1-10,1-6,1-6,5-7,11,0c4,4,3,6,3,6v5Z"/><path class="cls-6" d="M506.5,116.11a2.36,2.36,0,0,1,1.07,1.86c-.05.64-.57,1.39-2.07,2.14,0,0-8.08,2-14,0a13.56,13.56,0,0,0,1-5,20.11,20.11,0,0,0-.16-2.5h14.21C506.52,114.83,506.5,116.11,506.5,116.11Z"/><path class="cls-6" d="M507.5,49.11c0,1.15-.08,7.19-.2,15.21-.23,15.86-.61,39.47-.75,48.29H492.34a34.48,34.48,0,0,0-9.84-19.5c-1.39-2.09-2.78-6.1-4-10.46V50.11c0-2,2-9,8-9,0-1.34-.45-4.49-.44-7.32a20.11,20.11,0,0,0,12.44.32v6a39.6,39.6,0,0,1,5,3.41C505.58,45.2,507.5,47.26,507.5,49.11Z"/><path class="cls-7" d="M499.5,14.11s0,3-1,3c0,.61-.09,1.76-.19,3.17-1.2,2.18-11,4.48-11,4.48.2-2.89.2-5.65.2-5.65s-6-10,4-10C496.5,8.11,499.5,10.11,499.5,14.11Z"/><path class="cls-7" d="M498.5,30.11v4a20.11,20.11,0,0,1-12.44-.32,12.21,12.21,0,0,1,.44-3.68,13,13,0,0,0,.48-2.28s8.76-1.28,11.14,0A9.89,9.89,0,0,0,498.5,30.11Z"/><path class="cls-5" d="M498.31,20.28a57.91,57.91,0,0,0-.19,7.55c-2.38-1.28-11.14,0-11.14,0,.14-.95.24-2,.32-3.07C487.3,24.76,497.11,22.46,498.31,20.28Z"/><path class="cls-8" d="M492.34,112.61a20.11,20.11,0,0,1,.16,2.5,13.56,13.56,0,0,1-1,5,21.33,21.33,0,0,1-7,9c5,2,1,6,1,6a88.57,88.57,0,0,1-23,3c-13-4-6-9-6-9-7.5-4.68-9.94-10.91-10.22-16.5Z"/><path class="cls-8" d="M478.5,82.65c1.22,4.36,2.61,8.37,4,10.46a34.48,34.48,0,0,1,9.84,19.5H446.28a25.3,25.3,0,0,1,3.22-13.5c2-1,6-9,7-12,5-5,4-18,4-20v-38s4.54,1,12.77,0a9.34,9.34,0,0,1,.23,2l1,34S476.2,74.48,478.5,82.65Z"/><path class="cls-9" d="M472.5,28.11c.39,0,.62.45.77,1-8.23,1-12.77,0-12.77,0v-8a4.87,4.87,0,0,1-.05-1s4.05,1,12.05,0Z"/><path class="cls-9" d="M472.5,19.11v1c-8,1-12.05,0-12.05,0,.06-1.51.78-4.25,5.05-5C471.5,14.11,472.5,19.11,472.5,19.11Z"/><path class="cls-1" d="M150.17,112.61c.46,6.55.78,11.49.78,11.49s-6.45,4-12.45,0c0,0-.45-5-1.06-11.5Z"/><path class="cls-10" d="M139.14,50.23a14.55,14.55,0,0,1,2.2,4.37c-2.16,3.5-14.1,2.51-14.1,2.51a10.61,10.61,0,0,0-1.74-3c-1-3-3-28-3-28,4.62-6.93,2.23-12.53-1.19-15.82h0C121.14.46,128.82.57,128.82.57c3.18-1,16.63,7.78,7.91,20.17C136.73,20.74,138.17,47.05,139.14,50.23Z"/><path class="cls-1" d="M138.5,124.11s5,10-21,9c-14-1-15-7-15-7s-.23-6.33-.46-13.5h35.4C138.05,119.12,138.5,124.11,138.5,124.11Z"/><path class="cls-1" d="M137.44,112.61H102c-.26-7.92-.54-16.88-.54-19.5a189.12,189.12,0,0,1,2.32-20.72c1-5.91,2.11-11.33,3.28-13.63a5.79,5.79,0,0,1,.4-.65s12.47,2,19.74-1c2.9,6.64,6.44,21.23,7.26,27C135.11,88.39,136.47,102.38,137.44,112.61Z"/><path class="cls-10" d="M125.5,54.11a10.61,10.61,0,0,1,1.74,3c-7.27,3-19.74,1-19.74,1a12.13,12.13,0,0,1,1-5s1-7,1-9,0-14,1-16c0,0-10-13,4-21,1.27-.42,4.32.76,6.81,3.17h0c3.42,3.29,5.81,8.89,1.19,15.82C122.5,26.11,124.5,51.11,125.5,54.11Z"/><path class="cls-5" d="M105.5,52.11s2.21,3.31,1.6,6.65c-1.17,2.3-2.33,7.72-3.28,13.63h0c-.42-1.68-2.74-9.82-5.16-16.49-1.48-4.1-3-7.65-4.15-8.79-1-4-1-24-1-24s1,0,1-4c0-6.95-1.72-10.2-3.83-11.71,0,0,1.83-6.29,7.83-3.29s4,12,4,12,0,7-1,9S105.5,52.11,105.5,52.11Z"/><path class="cls-1" d="M103.81,72.39h0a189.12,189.12,0,0,0-2.32,20.72c0,2.62.28,11.58.54,19.5H73c-3.89-13.08,2.55-54.5,2.55-54.5s.77-2.06,1.66-4.21A20.34,20.34,0,0,0,88.5,57.11c7,0,10.15-1.21,10.15-1.21C101.07,62.57,103.39,70.71,103.81,72.39Z"/><path class="cls-1" d="M102,112.61c.23,7.17.46,13.5.46,13.5s-15,10-30-2c0,0-1-7,1-10a11.82,11.82,0,0,1-.55-1.5Z"/><path class="cls-10" d="M98.65,55.9S95.5,57.11,88.5,57.11A20.34,20.34,0,0,1,77.16,53.9a24.68,24.68,0,0,1,2.34-4.79,56.38,56.38,0,0,1,1-7s1-13,1-16a7.74,7.74,0,0,1-1-3s-6-13,4-17c1.51,0,4-.25,6.17,1.29s3.83,4.76,3.83,11.71c0,4-1,4-1,4s0,20,1,24C95.64,48.25,97.17,51.8,98.65,55.9Z"/><path class="cls-2" d="M67.5,53.11c5,0,8,5,8,5S69.06,99.53,73,112.61H42.55c.17-10.19.64-40.13.85-55,0,0,7.1-8.46,10.1-7.46,0-3-2-9-2-9s0-16,1-18A5,5,0,0,1,51.27,21s7.57,1.86,14.4,0a2,2,0,0,1-1.17,1.15c-1,2,2,14,2,14S68.5,50.11,67.5,53.11Z"/><path class="cls-2" d="M73,112.61a11.82,11.82,0,0,0,.55,1.5c-2,3-1,10-1,10s-27.28,8-29.14-5.49h0c.82-1.4-.85-2.51-.85-2.51s0-1.28,0-3.5Z"/><path class="cls-4" d="M63.5,14.11c1.63-.82,3.27,4.38,2.17,6.85-6.83,1.86-14.4,0-14.4,0a6.07,6.07,0,0,1,1.23-5.85S61.5,15.11,63.5,14.11Z"/><path class="cls-6" d="M42.5,116.11s1.67,1.11.85,2.51a4.2,4.2,0,0,1-1.85,1.49c-3,4-20,5-24,2-4-2-3-8-3-8v-1.69a8.61,8.61,0,0,1,1.5.19H42.55C42.52,114.83,42.5,116.11,42.5,116.11Z"/><path class="cls-6" d="M43.5,49.11c0,.8,0,3.94-.1,8.46-.21,14.91-.68,44.85-.85,55H16a8.61,8.61,0,0,0-1.5-.19v-3.31c1,0,0-2,0-2v-57c0-2,2-9,8-9,0-1.81-.82-6.91-.23-10.08,0,0,7.23.92,12.23,0v9.08S43.5,45.11,43.5,49.11Z"/><path class="cls-7" d="M35.5,14.11s0,3-1,3c0,.92-.21,3.11-.34,5.5a69.92,69.92,0,0,1-10.74,0c.08-2,.08-3.5.08-3.5s-6-10,4-10C32.5,8.11,35.5,10.11,35.5,14.11Z"/><path class="cls-5" d="M34.5,30.11V31c-5,.92-12.23,0-12.23,0a7.27,7.27,0,0,1,.23-.92,34.57,34.57,0,0,0,.92-7.5,69.92,69.92,0,0,0,10.74,0C34,25.41,34,28.49,34.5,30.11Z"/><path class="cls-11" d="M121.31,10.28C121.14.46,128.82.57,128.82.57c3.18-1,16.63,7.78,7.91,20.17,0,0,1.44,26.31,2.41,29.49a14.55,14.55,0,0,1,2.2,4.37c2.76,7.46,5.79,21.62,6.46,27.38.54,4.57,1.62,19.62,2.36,30.43a1.34,1.34,0,0,1,0,.2c.46,6.55.78,11.49.78,11.49s-6.45,4-12.45,0"/><path class="cls-11" d="M23.42,22.61c.08-2,.08-3.5.08-3.5s-6-10,4-10c5-1,8,1,8,5,0,0,0,3-1,3,0,.92-.21,3.11-.34,5.5-.16,2.8-.2,5.88.34,7.5v10s9,5,9,9c0,.8,0,3.94-.1,8.46-.21,14.91-.68,44.85-.85,55,0,2.22,0,3.5,0,3.5s1.67,1.11.85,2.51a4.2,4.2,0,0,1-1.85,1.49c-3,4-20,5-24,2-4-2-3-8-3-8v-5c1,0,0-2,0-2v-57c0-2,2-9,8-9,0-1.81-.82-6.91-.23-10.08a7.27,7.27,0,0,1,.23-.92A34.57,34.57,0,0,0,23.42,22.61Z"/><path class="cls-11" d="M491.46,120.11c6,2,14,0,14,0,1.5-.75,2-1.5,2.07-2.14a2.36,2.36,0,0,0-1.07-1.86s0-1.28.05-3.5c.14-8.82.52-32.43.75-48.29.12-8,.2-14.06.2-15.21,0-1.85-1.92-3.91-4-5.59a39.6,39.6,0,0,0-5-3.41v-10a9.89,9.89,0,0,1-.38-2.28,57.91,57.91,0,0,1,.19-7.55c.1-1.41.19-2.56.19-3.17,1,0,1-3,1-3,0-4-3-6-8-5-10,0-4,10-4,10s0,2.76-.2,5.65c-.08,1-.18,2.12-.32,3.07a13,13,0,0,1-.48,2.28,12.21,12.21,0,0,0-.44,3.68c0,2.83.44,6,.44,7.32-6,0-8,7-8,9V82.65"/><path class="cls-11" d="M43.4,57.57s7.1-8.46,10.1-7.46c0-3-2-9-2-9s0-16,1-18A5,5,0,0,1,51.27,21a6.07,6.07,0,0,1,1.23-5.85s9,0,11-1c1.63-.82,3.27,4.38,2.17,6.85a2,2,0,0,1-1.17,1.15c-1,2,2,14,2,14s2,14,1,17c5,0,8,5,8,5S69.06,99.53,73,112.61a11.82,11.82,0,0,0,.55,1.5c-2,3-1,10-1,10s-27.28,8-29.14-5.49"/><path class="cls-11" d="M107.5,58.11a12.13,12.13,0,0,1,1-5s1-7,1-9,0-14,1-16c0,0-10-13,4-21,1.27-.42,4.32.76,6.81,3.17h0c3.42,3.29,5.81,8.89,1.19,15.82,0,0,2,25,3,28a10.61,10.61,0,0,1,1.74,3c2.9,6.64,6.44,21.23,7.26,27,.61,4.28,2,18.27,2.94,28.5.61,6.51,1.06,11.5,1.06,11.5s5,10-21,9c-14-1-15-7-15-7s-.23-6.33-.46-13.5c-.26-7.92-.54-16.88-.54-19.5a189.12,189.12,0,0,1,2.32-20.72c1-5.91,2.11-11.33,3.28-13.63A5.79,5.79,0,0,1,107.5,58.11Z"/><path class="cls-11" d="M75.5,58.11s.77-2.06,1.66-4.21a24.68,24.68,0,0,1,2.34-4.79,56.38,56.38,0,0,1,1-7s1-13,1-16a7.74,7.74,0,0,1-1-3s-6-13,4-17c1.51,0,4-.25,6.17,1.29s3.83,4.76,3.83,11.71c0,4-1,4-1,4s0,20,1,24c1.14,1.14,2.67,4.69,4.15,8.79,2.42,6.67,4.74,14.81,5.16,16.49"/><path class="cls-11" d="M102.5,126.11s-15,10-30-2"/><path class="cls-11" d="M77.16,53.9A20.34,20.34,0,0,0,88.5,57.11c7,0,10.15-1.21,10.15-1.21"/><path class="cls-11" d="M107.5,58.11s12.47,2,19.74-1c0,0,11.94,1,14.1-2.51"/><path class="cls-11" d="M90.67,7.4S92.5,1.11,98.5,4.11s4,12,4,12,0,7-1,9,4,27,4,27,2.21,3.31,1.6,6.65"/><path class="cls-11" d="M323.46,128.78a1.66,1.66,0,0,1,0,.33,14.39,14.39,0,0,0-3,2c-1,0-11,3-5,6,6,1,30,2,32-2-1-3-10-7-10-7s0-3-1-3a2.38,2.38,0,0,0,.27-1,2.33,2.33,0,0,0-1.27-2s1-5,0-6a13.08,13.08,0,0,0,3.37-3.5l.15-.2c1.8-2.48,3.48-5.56,3.48-7.3,0-3,1-20-1-24-2-1-13-1-24,0-1,3-1,14-1,17,0,2.66.79,11.61,5.15,14.3l.35.2a5,5,0,0,0,1.5.5,7.74,7.74,0,0,1,1,3s2,6,0,6a2,2,0,0,0-2,2s-3,3,0,4A1,1,0,0,1,323.46,128.78Z"/><path class="cls-11" d="M322.5,124.11s8,2,14,0"/><path class="cls-11" d="M323.46,128.78s8,1.33,14-.67"/><path class="cls-11" d="M446.28,112.61c.28,5.59,2.72,11.82,10.22,16.5,0,0-7,5,6,9a88.57,88.57,0,0,0,23-3s4-4-1-6a21.33,21.33,0,0,0,7-9,13.56,13.56,0,0,0,1-5,20.11,20.11,0,0,0-.16-2.5,34.48,34.48,0,0,0-9.84-19.5c-1.39-2.09-2.78-6.1-4-10.46-2.3-8.17-4-17.54-4-17.54l-1-34a9.34,9.34,0,0,0-.23-2c-.15-.55-.38-1-.77-1v-9s-1-5-7-4c-4.27.71-5,3.45-5.05,5a4.87,4.87,0,0,0,.05,1v46c0,2,1,15-4,20-1,3-5,11-7,12A25.3,25.3,0,0,0,446.28,112.61Z"/><path class="cls-11" d="M460.5,29.11s4.54,1,12.77,0"/><path class="cls-11" d="M460.45,20.07s4.05,1,12.05,0"/><path class="cls-11" d="M503.51,43.52s2-2.41,2-8.41v-10s-3-5-1-10,1-6,1-6,5-7,11,0c4,4,3,6,3,6v5"/><path class="cls-11" d="M539.5,129.4c-1.38,2-4.59,4.71-12,4.71-15,1-20-6-20-6l.08-10.14v0"/><path class="cls-11" d="M507.58,64.32s4.92-6.21,6.92-7.21c0-1.85-.86-9.7-.19-14.82.05-.42.12-.81.19-1.18a75,75,0,0,0,1-12s-5-6,1-8a23.69,23.69,0,0,1,3-.77c6.89-1.35,17.66-1.23,16,4.77a6.93,6.93,0,0,1-3,4s0,8,2,12v18s1,6,5,6c2.59,0,3.08,1.25,3.11,2.14a2.88,2.88,0,0,1-.11.86c-1,8,4,18,5,20,.91,1.82,1,20.67,1,24v14c-3,4-8,1-8,1a6.12,6.12,0,0,1-1,2.28"/><path class="cls-11" d="M537.51,67.12c.11.12,1,1.18,1,4,0,1.91.4,25,.7,41.5.16,9.24.29,16.44.3,16.78h0"/><path class="cls-11" d="M539.5,65.11c-3,0-2,2-2,2"/><path class="cls-11" d="M542.61,67.25s-4.09.86-5.1-.13h0"/><path class="cls-11" d="M23.42,22.61a69.92,69.92,0,0,0,10.74,0"/><path class="cls-11" d="M22.27,31S29.5,32,34.5,31"/><path class="cls-11" d="M51.27,21s7.57,1.86,14.4,0"/><path class="cls-11" d="M487.3,24.76s9.81-2.3,11-4.48"/><path class="cls-11" d="M487,27.83s8.76-1.28,11.14,0"/><path class="cls-11" d="M486.06,33.79a20.11,20.11,0,0,0,12.44.32"/><path class="cls-11" d="M515.5,29.11a41.09,41.09,0,0,0,17,0"/><path class="cls-11" d="M514.31,42.29a52.73,52.73,0,0,0,20.19,0"/><line class="cls-11" x1="150.16" y1="112.41" x2="321.65" y2="112.41"/><line class="cls-11" x1="339.02" y1="112.41" x2="446.25" y2="112.41"/><path class="cls-11" d="M548.5,112.11h10v43H.5v-41s3.15-.45,6.63-.9h0c2.59-.33,5.36-.66,7.13-.78h.09"/></svg>