<svg id="americangothic" xmlns="http://www.w3.org/2000/svg" viewBox="0 0 688 916.85"><defs><style>.cls-1{fill:none;stroke:#000;stroke-miterlimit:10;stroke-width:3px;}</style></defs><title>gothicamerica</title><path id="woman" class="cls-1" d="M22.92,915.35a3,3,0,0,1-3-3.28,39.84,39.84,0,0,1,1.61-7.68,122.48,122.48,0,0,0,3.37-14.45,1.55,1.55,0,0,0,0-.31c.09-1.81.93-19.41-1.05-24.11-2.08-4.93-5-45.34,1.24-59.77a3.19,3.19,0,0,0,.11-.33c3-10.78,9.37-47.49,2-70.66-6.21-19.39-14.72-40.13-11.63-55a3,3,0,0,0,.06-.79c-.65-10.12-2.32-15.37-2.79-16.68a3.06,3.06,0,0,1-.15-.73c-.16-2-.79-10.63-.06-15.3a3.14,3.14,0,0,0,0-1.06c-1.29-6.36-2.52-17.15-1.55-22.13a2.88,2.88,0,0,0,.05-.88c-.59-5.39-3.87-18.43-3.87-21.86,0-3.26-3.52-17.06-4-19.11a2.43,2.43,0,0,1-.08-.53c-.26-4.2-3.41-56.7-.23-68.24a3.07,3.07,0,0,1,.73-1.26c3.27-3.39,10.2-9.73,17.27-11.51a3.11,3.11,0,0,0,1.33-.73c3.77-3.53,11.3-7.53,11.3-7.53s6.11-3,6.62-6.69a2.82,2.82,0,0,1,.77-1.5c3.6-3.83,19-14.6,20.31-15.49l.17-.13c1.46-1.19,22-18.24,25.54-36.84a2.88,2.88,0,0,1,.25-.75c2.52-4.89,10.4-17.59,14.79-22.66a3,3,0,0,0,.48-.75c2.39-5.25,4.25-6.56,4.38-24.24.13-18.13-.13-40.43-1.57-44.47-.84-2.39-5.73-9.72-9.59-15.33a3,3,0,0,0-5.42,2.21v.07c.52,2.34,10,19,9.4,27.46v.13a25.82,25.82,0,0,1-1.92,12.63,1.08,1.08,0,0,0-.08.19c-.68,1.83-9.46,26.34,3.16,37.42,1,.93-.32,2.59-1.39,1.68a4.63,4.63,0,0,1-.56-.59c-2-2.48-7.43-10.31-7.82-16.83a77.48,77.48,0,0,1,2.73-25.3c1.43-5.45,2.86-17.2-5.06-26.05a3,3,0,0,1-.27-.35c-3.19-5-6.55-13-6.23-27.63a5.07,5.07,0,0,0-1.44-3.7C75.71,298.82,66.37,282,66,265.79c-.29-13.28-1.36-28.25-1.69-35.57A8.65,8.65,0,0,1,67,223.64,8,8,0,0,0,69.67,219c.26-2.93.88-17.26,2.37-21.36a4.21,4.21,0,0,0,.16-.61,31,31,0,0,1,2.94-8.41,3,3,0,0,0,.23-.59c.48-1.83,3-11.24,4.87-16.64,2.05-5.91,5-14.86,9.2-20.55a2.73,2.73,0,0,0,.32-.55c1.43-3.32,3.08-6.69,3.61-7.77a2.86,2.86,0,0,1,.44-.65c3.19-3.59,34.52-37.77,65.59-29.51a4.76,4.76,0,0,1,.53.19l2.48,1.12a2.94,2.94,0,0,0,2.29.05,5.46,5.46,0,0,0,1.37-.78,3,3,0,0,1,1.81-.63c7.5-.33,43.45,2.2,63,66.13a1.82,1.82,0,0,1,.07.25c1.1,5.25,10.5,47.3,6.43,81.07A47.84,47.84,0,0,1,234,274a3.25,3.25,0,0,0-.21.87c-.22,2.54-1.57,15.09-7.52,20.86a2.75,2.75,0,0,0-.83,1.47c-1.61,8.4-10.84,57.68-22.75,68.68a3.54,3.54,0,0,0-.75,1.05,2.48,2.48,0,0,1-.17.29,2.94,2.94,0,0,0-.57,1.69c-.06,5.79-.26,30.3.46,38.44a3,3,0,0,0,2,2.5c1.86.71,4.85,2.55,6.8,7.26,2.05,3.9,12.8,24.34,17.62,29.62a3,3,0,0,1,.75,1.9c0,.4,0,.76,0,1.06a3,3,0,0,0,1,2.11c4.93,4.4,28,24.85,35.51,29.9a3,3,0,0,1,1.3,2.57c-.31,7.35-3.95,31.68-10.29,45.54-4.7,10.17-17.22,41.73-16.44,67.3,0,16.7-7.3,51.91-10.43,65.74s-19.83,60.26-24.53,65.22-7.15,23-.58,31.86a2.89,2.89,0,0,1,.54,1.93c-.46,7-4.23,23.57,3.77,34.66a2.9,2.9,0,0,1,.57,1.46c1.27,14.35,21.11,90.86,38.82,112.5a3,3,0,0,1-2.32,4.89Z"/><path id="man" class="cls-1" d="M266.6,482.47c1.47-4.3,3.62-19.56,3.62-19.56,2.31-16.31,15.58-48.34,17.93-53.94a4.3,4.3,0,0,0,.35-1.77c0-7.27-.35-55.31,0-63.35.24-5.32,1.65-4.94,2.71-3.84a4.49,4.49,0,0,1,1.22,3c.1,3.88.6,15.12,1.08,25.52a4.61,4.61,0,0,0,8.55,2.16c7.39-12,16-14.64,19.74-15.05a4.62,4.62,0,0,0,2.32-.88c7.82-6.08,53.48-23.2,63.43-27.35a4.8,4.8,0,0,1,1.63-.34c11.07-.3,17.31-3.91,19.09-4.41a20.08,20.08,0,0,1,3.63-.64l.34,0c10.22-1.57,19.46-8.69,23.73-12.69a4.73,4.73,0,0,0,.8-1c2.86-4.91,8.18-9.36,10.92-11.46a4.57,4.57,0,0,0,1.8-3.58c.06-6.74-.16-25.66-.76-33.61a4.47,4.47,0,0,0-.62-1.94c-6.67-11.56-12.85-33.84-15.59-44.54A6.45,6.45,0,0,0,426,208.3a14.42,14.42,0,0,1-4.95-.7,4.56,4.56,0,0,1-2.18-1.53c-10.62-13.68-21.49-35.68-25.76-52.18A5.8,5.8,0,0,1,393,153c-1.42-17.34,5.86-19.24,11.34-18.33a4.6,4.6,0,0,0,5.28-4.51c.13-9.64,1.54-26.28,1.88-26.68s.08-30.47,0-36.6a7.34,7.34,0,0,1,.31-2.19c1.4-4.59,7.17-22.41,15.85-32.64a7.54,7.54,0,0,1,.55-.58c12.05-11.59,49.59-32,72.5-29.85C522.41,3.42,542,13.59,553.52,22c25.05,16.44,25.63,49.5,25.63,51.66s3,15.58,3.32,22.17a3.72,3.72,0,0,0,.08.66A74.47,74.47,0,0,1,584,117a4.57,4.57,0,0,0,5.52,4.8l.17,0a5,5,0,0,1,.76-.1c14.8-.58,7.77,23.61,6.11,30.74a4.29,4.29,0,0,0-.1.94c-.08,9.19-2.22,14.49-2.79,18.62a4.44,4.44,0,0,1-.4,1.39c-9.11,18.64-14.86,24.15-18.37,25.75a4.55,4.55,0,0,0-2.75,4.15c0,10.78-1.45,30-3,35.49a4.61,4.61,0,0,1-1.19,2c-6.91,7-8.41,20.92-9.18,25.11-.68,3.76.33,21.1.6,25.38a4.45,4.45,0,0,0,.67,2.13c.3.48.65.92.95.92,7.65.65,19.66,13.52,23.4,19.06.06.08.1.16.15.24,8.74,15.43,39,25.19,45.39,27a4.57,4.57,0,0,0,.9.15c21.87,1.33,45.74,13.54,53.25,17.66a4.64,4.64,0,0,1,2.39,4.05V910.74a4.6,4.6,0,0,1-4.61,4.61H253.59"/><path id="pitchfork" class="cls-1" d="M403.85,833.57s-1.37-88.44-5.68-109.76c-3.64-18.07-5.32-22.38-5.75-23.27a1.06,1.06,0,0,1-.11-.49c0-1.19.12-5.78.07-8a1.07,1.07,0,0,1,1.11-1.11c5.78.13,31.41-.23,47.53-16.35,7.79-7.06,14.91-22.08,15.82-24.05a1.08,1.08,0,0,0,.09-.44c0-9.47,0-306.59-.78-308.9,0,0-2.48-2.61-2.48,1.43S451.2,637,450.15,642s-2.22,41.74-57.85,42.52c0,0-4.89,1.18-6.65-9s-12.29-307.92-10.18-327a1.34,1.34,0,0,0,0-.2c-.33-5.3-4.49-14.69-4.49-1.66s1,314.39,5.8,331a1.18,1.18,0,0,1,0,.46c-.19,1.29-1.31,7.24-5.84,7.59-5.08.39-35.56,5.66-56.1-20.09a.71.71,0,0,1-.1-.14c-11.71-20.3-18.93-28.38-19.91-92.67s-.13-178.09-.45-184.9c0,0-1.25-12.87-.4-17.39"/><path id="hand_fork" data-name="hand/fork" class="cls-1" d="M288.51,408.12l2.25,195.75s1.83,103.83,82.44,87.92c0,0,2.85-2.73,1.44,9.45a.53.53,0,0,0,0,.13c.05,2.91,1.84,106.56-.25,120.06a1.09,1.09,0,0,1-1.36.88c-6.8-1.77-43-9.49-38.62,28.8a1,1,0,0,1-.23.81c-2.44,3.05-20,25.19-20.45,34.29a.82.82,0,0,1-.08.35c-3.07,7.2-6.44,15-6.44,15s-3.67,8-.62,13.28a1.08,1.08,0,0,0,.93.51H423.08a1.09,1.09,0,0,0,1.09-1.24,17.9,17.9,0,0,0-4.06-9.17,1.07,1.07,0,0,1,.11-1.51c3.18-2.81,13-11.32,2.63-24.15a1.08,1.08,0,0,1-.08-1.28c2.19-3.35,7.22-10.67,4.08-19.14a1.09,1.09,0,0,1,1.08-1.49c5.71.36,19.15.31,19.06-12.26,0-7.12-4.55-10.17-10.75-9.43a1,1,0,0,1-.59-.09c-1.13-.53-5.32-2.69-7.43-6.43a1.07,1.07,0,0,0-.68-.53c-2-.45-7.74-.37-9-.35a1.18,1.18,0,0,1-.46-.09c-1.37-.61-8.77-4-11.08-6.37a1.1,1.1,0,0,0-.63-.35c-1.58-.26-2.8-.42-2.8-.42"/><path id="frame" class="cls-1" d="M20,915.35H2.59a1.09,1.09,0,0,1-1.09-1.09V2.59A1.09,1.09,0,0,1,2.59,1.5H685.41a1.09,1.09,0,0,1,1.09,1.09V359.7"/></svg>