<?xml version="1.0" encoding="utf-8"?>
<!-- Generator: Adobe Illustrator 23.0.6, SVG Export Plug-In . SVG Version: 6.00 Build 0)  -->
<svg version="1.1" id="americangothic" xmlns="http://www.w3.org/2000/svg" xmlns:xlink="http://www.w3.org/1999/xlink" x="0px"
	 y="0px" viewBox="0 0 688 916.8" style="enable-background:new 0 0 688 916.8;" xml:space="preserve">
<style type="text/css">
	.st0{fill:white;}
	.st1{fill:white;}
	.st0:hover{fill:#FFBA7B; transition: fill 0.2s ease-in-out;}
	.st1:hover{fill:#FFBA7B; transition: fill 0.2s ease-in-out;}
	.st2{fill:none;stroke:#000000;stroke-width:3;stroke-miterlimit:10;}
	.st3{fill:none;}
</style>
<title>gothicamerica</title>
<g id="XMLID_1_">
	<g>
		<path class="st0" d="M590.5,121.7c14.8-0.6,7.8,23.6,6.1,30.7c-0.1,0.3-0.1,0.6-0.1,0.9c-0.1,9.2-2.2,14.5-2.8,18.6
			c-0.1,0.5-0.2,0.9-0.4,1.4c-9.1,18.6-14.9,24.1-18.4,25.8c-1.7,0.7-2.7,2.3-2.8,4.1c0,10.8-1.5,30-3,35.5c-0.2,0.8-0.6,1.4-1.2,2
			c-6.9,7-8.4,20.9-9.2,25.1c-0.7,3.8,0.3,21.1,0.6,25.4c0,0.8,0.3,1.5,0.7,2.1l-112.4,3.5c1.1-0.9,1.8-2.2,1.8-3.6
			c0.1-6.7-0.2-25.7-0.8-33.6c-0.1-0.7-0.3-1.4-0.6-1.9c-6.7-11.6-12.8-33.8-15.6-44.5c-0.7-3-3.5-5-6.5-4.9c-1.7,0.1-3.4-0.2-5-0.7
			c-0.9-0.3-1.6-0.8-2.2-1.5c-10.6-13.7-21.5-35.7-25.8-52.2c-0.1-0.3-0.1-0.6-0.1-0.9c-1.4-17.3,5.9-19.2,11.3-18.3
			c2.5,0.4,4.9-1.4,5.2-3.9c0-0.2,0-0.4,0-0.6c0.1-9.6,1.5-26.3,1.9-26.7c0.3-0.4,0.1-30.5,0-36.6c0-0.7,0.1-1.5,0.3-2.2
			c1.4-4.6,7.2-22.4,15.9-32.6c0.2-0.2,0.4-0.4,0.5-0.6c11.1-10.7,44.1-29,67.1-30h3.7c0.6,0,1.2,0.1,1.7,0.1
			c21.7,1.8,41.3,12,52.8,20.4c25,16.4,25.6,49.5,25.6,51.7c0,2.2,3,15.6,3.3,22.2c0,0.2,0,0.4,0.1,0.7c1.4,6.7,1.9,13.6,1.5,20.5
			c-0.2,2.5,1.7,4.7,4.2,4.9c0.4,0,0.9,0,1.3-0.1h0.2C589.9,121.8,590.2,121.7,590.5,121.7z"/>
		<path class="st1" d="M230.9,178.7c1.1,5.3,10.5,47.3,6.4,81.1c-0.4,4.9-1.5,9.7-3.4,14.2c-0.1,0.3-0.2,0.6-0.2,0.9
			c-0.2,2.5-1.6,15.1-7.5,20.9c-0.4,0.4-0.7,0.9-0.8,1.5c-1.6,8.4-10.8,57.7-22.8,68.7c-0.3,0.3-0.6,0.7-0.8,1
			c-0.1,0.1-0.1,0.2-0.2,0.3c-0.4,0.5-0.6,1.1-0.6,1.7c-0.1,4.9-0.2,23.3,0.2,33.8h0c-34.2,16.7-94.2,0-94.2,0s-2.9,0.4-2.4-1.3
			c1.2-3.2,1.9-7.9,2-19.1c0.1-18.1-0.1-40.4-1.6-44.5c-0.8-2.4-5.7-9.7-9.6-15.3c-1-1.4-2.8-1.7-4.2-0.8c-1,0.7-1.4,1.8-1.2,3v0.1
			c0.5,2.3,10,19,9.4,27.5v0.1c0.4,4.3-0.2,8.6-1.9,12.6c0,0.1-0.1,0.1-0.1,0.2c-0.7,1.8-9.5,26.3,3.2,37.4c0.4,0.4,0.4,0.8,0.3,1.2
			c-0.3,0.6-1,1-1.7,0.5c-0.2-0.2-0.4-0.4-0.6-0.6c-2-2.5-7.4-10.3-7.8-16.8c-0.5-8.5,0.4-17.1,2.7-25.3c1.4-5.5,2.9-17.2-5.1-26.1
			c-0.1-0.1-0.2-0.2-0.3-0.4c-3.2-5-6.6-13-6.2-27.6c0-1.4-0.5-2.7-1.4-3.7c-5.1-5.1-14.5-21.9-14.8-38.1
			c-0.3-13.3-1.4-28.3-1.7-35.6c-0.1-2.5,0.9-4.9,2.7-6.6c1.4-1.2,2.3-2.8,2.7-4.6c0.3-2.9,0.9-17.3,2.4-21.4
			c0.1-0.2,0.1-0.4,0.2-0.6c0.6-2.9,1.6-5.8,2.9-8.4c0.1-0.2,0.2-0.4,0.2-0.6c0.5-1.8,3-11.2,4.9-16.6c2.1-5.9,5-14.9,9.2-20.6
			c0.1-0.2,0.2-0.3,0.3-0.6c1.4-3.3,3.1-6.7,3.6-7.8c0.1-0.2,0.3-0.4,0.4-0.7c3.2-3.6,34.5-37.8,65.6-29.5c0.2,0.1,0.4,0.1,0.5,0.2
			l2.5,1.1c0.7,0.3,1.6,0.3,2.3,0.1c0.5-0.2,0.9-0.5,1.4-0.8c0.5-0.4,1.1-0.6,1.8-0.6c7.5-0.3,43.4,2.2,63,66.1
			C230.9,178.5,230.9,178.6,230.9,178.7z"/>
	</g>
	<g>
		<path class="st2" d="M266.2,482.7c0.3,0.5,0.4,1,0.4,1.6c-0.3,7.4-4,31.7-10.3,45.5c-4.7,10.2-17.2,41.7-16.4,67.3
			c0,16.7-7.3,51.9-10.4,65.7c-3.1,13.8-19.8,60.3-24.5,65.2s-7.1,23-0.6,31.9c0.4,0.6,0.6,1.2,0.5,1.9c-0.5,7-4.2,23.6,3.8,34.7
			c0.3,0.4,0.5,0.9,0.6,1.5c1.3,14.4,21.1,90.9,38.8,112.5c1,1.3,0.8,3.2-0.4,4.2c-0.5,0.4-1.2,0.7-1.9,0.7l-222.8,0
			c-0.8,0-1.6-0.3-2.1-0.9c-0.6-0.5-0.9-1.3-0.9-2.1c0-0.1,0-0.2,0-0.3c0.3-2.6,0.8-5.2,1.6-7.7c1.4-4.7,2.5-9.6,3.4-14.5
			c0-0.1,0-0.2,0-0.3c0.1-1.8,0.9-19.4-1-24.1c-2.1-4.9-5-45.3,1.2-59.8c0-0.1,0.1-0.2,0.1-0.3c3-10.8,9.4-47.5,2-70.7
			c-6.2-19.4-14.7-40.1-11.6-55c0.1-0.3,0.1-0.5,0.1-0.8c-0.7-10.1-2.3-15.4-2.8-16.7c-0.1-0.2-0.1-0.5-0.2-0.7
			c-0.2-2-0.8-10.6-0.1-15.3c0.1-0.4,0.1-0.7,0-1.1c-1.3-6.4-2.5-17.2-1.6-22.1c0.1-0.3,0.1-0.6,0.1-0.9c-0.6-5.4-3.9-18.4-3.9-21.9
			c0-3.3-3.5-17.1-4-19.1c0-0.2-0.1-0.3-0.1-0.5c-0.2-2.8-1.6-27.2-1.6-46.6c0-9.6,0.4-17.9,1.4-21.7c0.1-0.5,0.4-0.9,0.7-1.3
			c3.3-3.4,10.2-9.7,17.3-11.5c0.5-0.1,0.9-0.4,1.3-0.7c3.8-3.5,11.3-7.5,11.3-7.5s6.1-3,6.6-6.7c0.1-0.6,0.4-1.1,0.8-1.5
			c3.6-3.8,19-14.6,20.3-15.5l0.2-0.1c1.5-1.2,22-18.2,25.5-36.8c0.1-0.3,0.1-0.5,0.3-0.8c2.5-4.9,10.4-17.6,14.8-22.7
			c0.2-0.2,0.4-0.5,0.5-0.8c0.4-1,0.9-1.8,1.3-2.7c0.4-0.8,0.7-1.6,1.1-2.5c1.2-3.2,1.9-7.9,2-19.1c0.1-18.1-0.1-40.4-1.6-44.5
			c-0.8-2.4-5.7-9.7-9.6-15.3c-1-1.4-2.8-1.7-4.2-0.8c-1,0.7-1.4,1.8-1.2,3v0.1c0.5,2.3,10,19,9.4,27.5v0.1
			c0.4,4.3-0.2,8.6-1.9,12.6c0,0.1-0.1,0.1-0.1,0.2c-0.7,1.8-9.5,26.3,3.2,37.4c0.4,0.4,0.4,0.8,0.3,1.2c-0.3,0.6-1,1-1.7,0.5
			c-0.2-0.2-0.4-0.4-0.6-0.6c-2-2.5-7.4-10.3-7.8-16.8c-0.5-8.5,0.4-17.1,2.7-25.3c1.4-5.5,2.9-17.2-5.1-26.1
			c-0.1-0.1-0.2-0.2-0.3-0.4c-3.2-5-6.6-13-6.2-27.6c0-1.4-0.5-2.7-1.4-3.7c-5.1-5.1-14.5-21.9-14.8-38.1
			c-0.3-13.3-1.4-28.3-1.7-35.6c-0.1-2.5,0.9-4.9,2.7-6.6c1.4-1.2,2.3-2.8,2.7-4.6c0.3-2.9,0.9-17.3,2.4-21.4
			c0.1-0.2,0.1-0.4,0.2-0.6c0.6-2.9,1.6-5.8,2.9-8.4c0.1-0.2,0.2-0.4,0.2-0.6c0.5-1.8,3-11.2,4.9-16.6c2.1-5.9,5-14.9,9.2-20.6
			c0.1-0.2,0.2-0.3,0.3-0.6c1.4-3.3,3.1-6.7,3.6-7.8c0.1-0.2,0.3-0.4,0.4-0.7c3.2-3.6,34.5-37.8,65.6-29.5c0.2,0.1,0.4,0.1,0.5,0.2
			l2.5,1.1c0.7,0.3,1.6,0.3,2.3,0.1c0.5-0.2,0.9-0.5,1.4-0.8c0.5-0.4,1.1-0.6,1.8-0.6c7.5-0.3,43.4,2.2,63,66.1c0,0.1,0,0.2,0.1,0.3
			c1.1,5.3,10.5,47.3,6.4,81.1c-0.4,4.9-1.5,9.7-3.4,14.2c-0.1,0.3-0.2,0.6-0.2,0.9c-0.2,2.5-1.6,15.1-7.5,20.9
			c-0.4,0.4-0.7,0.9-0.8,1.5c-1.6,8.4-10.8,57.7-22.8,68.7c-0.3,0.3-0.6,0.7-0.8,1c-0.1,0.1-0.1,0.2-0.2,0.3
			c-0.4,0.5-0.6,1.1-0.6,1.7c-0.1,4.9-0.2,23.3,0.2,33.8c0.1,1.9,0.2,3.4,0.3,4.7c0.1,1.1,0.9,2.1,2,2.5c1.9,0.7,4.8,2.5,6.8,7.3
			c2,3.9,12.8,24.3,17.6,29.6c0.5,0.5,0.7,1.2,0.8,1.9c0,0.4,0,0.8,0,1.1c0,0.8,0.4,1.6,1,2.1c4.9,4.4,28,24.9,35.5,29.9
			C265.7,482,266,482.3,266.2,482.7z"/>
		<line class="st2" x1="307.5" y1="915.3" x2="253.6" y2="915.3"/>
		<path class="st2" d="M266.6,482.5c1.5-4.3,3.6-19.6,3.6-19.6c2.3-16.3,15.6-48.3,17.9-53.9c0.1-0.3,0.2-0.6,0.3-0.9
			c0.1-0.3,0.1-0.6,0.1-0.9c0-7.3-0.4-55.3,0-63.4c0.2-5.3,1.6-4.9,2.7-3.8c0.8,0.8,1.2,1.9,1.2,3c0.1,3.9,0.6,15.1,1.1,25.5
			c0,0.7,0.2,1.4,0.5,2c0.8,1.5,2.5,2.5,4.3,2.4c1.5-0.1,2.9-0.9,3.7-2.2c7.4-12,16-14.6,19.7-15c0.8-0.1,1.6-0.4,2.3-0.9
			c7.8-6.1,53.5-23.2,63.4-27.4c0.5-0.2,1.1-0.3,1.6-0.3c11.1-0.3,17.3-3.9,19.1-4.4c1.2-0.3,2.4-0.5,3.6-0.6h0.3
			c10.2-1.6,19.5-8.7,23.7-12.7c0.3-0.3,0.6-0.6,0.8-1c2.9-4.9,8.2-9.4,10.9-11.5c1.1-0.9,1.8-2.2,1.8-3.6
			c0.1-6.7-0.2-25.7-0.8-33.6c-0.1-0.7-0.3-1.4-0.6-1.9c-6.7-11.6-12.8-33.8-15.6-44.5c-0.7-3-3.5-5-6.5-4.9c-1.7,0.1-3.4-0.2-5-0.7
			c-0.9-0.3-1.6-0.8-2.2-1.5c-10.6-13.7-21.5-35.7-25.8-52.2c-0.1-0.3-0.1-0.6-0.1-0.9c-1.4-17.3,5.9-19.2,11.3-18.3
			c2.5,0.4,4.9-1.4,5.2-3.9c0-0.2,0-0.4,0-0.6c0.1-9.6,1.5-26.3,1.9-26.7c0.3-0.4,0.1-30.5,0-36.6c0-0.7,0.1-1.5,0.3-2.2
			c1.4-4.6,7.2-22.4,15.9-32.6c0.2-0.2,0.4-0.4,0.5-0.6c11.1-10.7,44.1-29,67.1-30c1.3,0,2.5,0,3.7,0c0.6,0,1.2,0.1,1.7,0.1
			c21.7,1.8,41.3,12,52.8,20.4c25,16.4,25.6,49.5,25.6,51.7c0,2.2,3,15.6,3.3,22.2c0,0.2,0,0.4,0.1,0.7c1.4,6.7,1.9,13.6,1.5,20.5
			c-0.2,2.5,1.7,4.7,4.2,4.9c0.4,0,0.9,0,1.3-0.1h0.2c0.3-0.1,0.5-0.1,0.8-0.1c14.8-0.6,7.8,23.6,6.1,30.7c-0.1,0.3-0.1,0.6-0.1,0.9
			c-0.1,9.2-2.2,14.5-2.8,18.6c-0.1,0.5-0.2,0.9-0.4,1.4c-9.1,18.6-14.9,24.1-18.4,25.8c-1.7,0.7-2.7,2.3-2.8,4.1
			c0,10.8-1.5,30-3,35.5c-0.2,0.8-0.6,1.4-1.2,2c-6.9,7-8.4,20.9-9.2,25.1c-0.7,3.8,0.3,21.1,0.6,25.4c0,0.8,0.3,1.5,0.7,2.1
			c0.3,0.5,0.7,0.9,1,0.9c7.7,0.6,19.7,13.5,23.4,19.1c0.1,0.1,0.1,0.2,0.1,0.2c8.7,15.4,39,25.2,45.4,27c0.3,0.1,0.6,0.1,0.9,0.1
			c21.9,1.3,45.7,13.5,53.3,17.7c0.7,0.4,1.3,1,1.8,1.7c0.4,0.7,0.6,1.5,0.6,2.4v548.3c0,2.5-2,4.6-4.6,4.6c0,0,0,0,0,0H423.1"/>
		<path class="st2" d="M403.9,833.6c0,0-0.1-4.8-0.2-12.5c-0.6-25.2-2.1-80.9-5.4-97.3c-3.6-18.1-5.3-22.4-5.8-23.3
			c-0.1-0.1-0.1-0.3-0.1-0.5c0-1.2,0.1-5.8,0.1-8c0-0.6,0.4-1.1,1-1.1c0,0,0,0,0.1,0c5.8,0.1,31.4-0.2,47.5-16.3
			c7.8-7.1,14.9-22.1,15.8-24.1c0.1-0.1,0.1-0.3,0.1-0.4c0-9.5,0-306.6-0.8-308.9c0,0-2.5-2.6-2.5,1.4S451.2,637,450.1,642
			c-1,5-2.2,41.7-57.9,42.5c0,0-4.9,1.2-6.6-9c-1.8-10.2-12.3-307.9-10.2-327c0-0.1,0-0.1,0-0.2c-0.3-5.3-4.5-14.7-4.5-1.7
			s1,314.4,5.8,331c0,0.2,0,0.3,0,0.5c-0.2,1.3-1.3,7.2-5.8,7.6c-5.1,0.4-35.6,5.7-56.1-20.1c0,0-0.1-0.1-0.1-0.1
			c-11.7-20.3-18.9-28.4-19.9-92.7c-1-64.3-0.1-178.1-0.4-184.9c0,0-1.3-12.9-0.4-17.4"/>
		<path class="st2" d="M288.5,408.1l2.3,195.8c0,0,1.8,103.8,82.4,87.9c0,0,2.8-2.7,1.4,9.5c0,0,0,0.1,0,0.1
			c0,2.9,1.8,106.6-0.3,120.1c-0.1,0.6-0.7,1-1.3,0.9c0,0-0.1,0-0.1,0c-6.8-1.8-43-9.5-38.6,28.8c0,0.3,0,0.6-0.2,0.8
			c-2.4,3-20,25.2-20.4,34.3c0,0.1,0,0.2-0.1,0.3c-3.1,7.2-6.4,15-6.4,15s-3.7,8-0.6,13.3c0.2,0.3,0.6,0.5,0.9,0.5h115.6
			c0,0,0,0,0,0c0.6,0,1.1-0.5,1.1-1.1c0-0.1,0-0.1,0-0.2c-0.5-3.4-1.9-6.6-4.1-9.2c-0.4-0.5-0.3-1.1,0.1-1.5c2.1-1.9,7.3-6.3,7.3-13
			c0-3.2-1.2-7-4.6-11.2c-0.3-0.4-0.3-0.9-0.1-1.3c2.2-3.3,7.2-10.7,4.1-19.1c-0.2-0.6,0-1.2,0.6-1.4c0.1,0,0.3-0.1,0.5-0.1
			c5.7,0.4,19.1,0.3,19.1-12.3c0-7.1-4.5-10.2-10.8-9.4c-0.2,0-0.4,0-0.6-0.1c-1.1-0.5-5.3-2.7-7.4-6.4c-0.1-0.3-0.4-0.5-0.7-0.5
			c-2-0.5-7.7-0.4-9-0.3c-0.2,0-0.3,0-0.5-0.1c-1.4-0.6-8.8-4-11.1-6.4c-0.2-0.2-0.4-0.3-0.6-0.4c-1.4-0.2-2.5-0.4-2.8-0.4
			c0,0,0,0,0,0"/>
		<path class="st2" d="M20,915.3H2.6c-0.6,0-1.1-0.5-1.1-1.1V534.1V2.6C1.5,2,2,1.5,2.6,1.5h492.7h3.7h186.4c0.6,0,1.1,0.5,1.1,1.1
			v357.1"/>
		<path class="st2" d="M201.4,402.7c-34.2,16.7-94.2,0-94.2,0s-2.9,0.4-2.4-1.3"/>
	</g>
</g>
<path class="st3" d="M559.2,288.8"/>
<path class="st3" d="M449.5,289.8"/>
<path class="st2" d="M449.5,293.3c0,0,55.2,7.6,110.4-3"/>
</svg>
