<svg id="_1808" data-name="1808" xmlns="http://www.w3.org/2000/svg" viewBox="0 0 390.24 506.52">
<defs><style>
.cls-1{fill: white;}
.cls-1:hover{fill:#d8bf30; transition: fill 0.2s ease-in-out;}
.cls-2{fill:none;stroke:#000;stroke-miterlimit:10;}
</style></defs>
<title>goyIcon</title><g id="full"><g id="shirttop"><path d="M233.83,149a51,51,0,0,1,4.13,8.14,54.23,54.23,0,0,1,2.67,8.75,39.52,39.52,0,0,1,.94,9.14l-.06,2.31-.27,2.3-.13,1.15-.25,1.13-.48,2.27v-.07a89,89,0,0,0-.71,14.89c.1,5,.4,10,.92,14.92l.72,6.8-2.3-6.45a257.91,257.91,0,0,0-11.48-26.66,221.67,221.67,0,0,0-14.4-25.21c-2.69-4-5.5-8-8.52-11.75A115.23,115.23,0,0,0,195,139.78a94.32,94.32,0,0,0-11-9.47A70.42,70.42,0,0,0,171.45,123l0-.09a77.73,77.73,0,0,1,23.92,16.42,116.56,116.56,0,0,1,9.81,10.79c3.07,3.76,5.95,7.69,8.65,11.73a223.77,223.77,0,0,1,14.56,25.26,246.22,246.22,0,0,1,11.45,26.81l-.16,0c-.51-5-.79-10-.87-15a90.78,90.78,0,0,1,.88-15h0l.5-2.21.26-1.11.14-1.13.29-2.26L241,175a41.54,41.54,0,0,0-.79-9,53.26,53.26,0,0,0-2.5-8.75,50.51,50.51,0,0,0-3.95-8.18Z"/></g><g id="face"><path d="M270.84,105a78.93,78.93,0,0,0,2.41,8.07,11.33,11.33,0,0,1,.48,4.35c0,.37-.05.73-.08,1.09a3.43,3.43,0,0,1-.36,1.21,3.32,3.32,0,0,1-1.92,1.6,7.13,7.13,0,0,1-1.13.33,9.09,9.09,0,0,0-1,.14,4.35,4.35,0,0,0-1.63.73,1.11,1.11,0,0,0-.56,1.09,1,1,0,0,0,.09.34l.06.18.13.28a3.48,3.48,0,0,1,.23,1.36c-.1.81-.24,1.47-.36,2.22a3.45,3.45,0,0,1-2.69,2.79,4.06,4.06,0,0,1-.69.08h0c.26-.65-.61,1.44.59-1.44h0l0,0,.05.05.1.1.19.21a8.88,8.88,0,0,1,.75.91,2.71,2.71,0,0,1,.36.71,1.67,1.67,0,0,1,.05.38,1.17,1.17,0,0,1-.21.63,1.19,1.19,0,0,1-.54.37,2.63,2.63,0,0,1-.39.06l.61-.25-1.85,1.88c-.45.42-.73.6-1.08.89l-1,.82a11.92,11.92,0,0,0-1.71,1.69c0,.06-.1.14-.1.16l0,0a.13.13,0,0,0,0-.09l0,.7a4.58,4.58,0,0,1-.34,1.57,4.32,4.32,0,0,1-.92,1.33,5.48,5.48,0,0,0-.47.92,8.57,8.57,0,0,1-1.55,2.42A7.41,7.41,0,0,1,254,146.6a10.63,10.63,0,0,1-2.7.82c-.46.06-.92.13-1.37.17l-1.36.06a3.28,3.28,0,0,1-1.59-.36c-.4-.21-.77-.41-1.16-.6a13.58,13.58,0,0,0-4.78-1.5,3.85,3.85,0,0,0-2.26.48,3.19,3.19,0,0,0-.85.79,4.73,4.73,0,0,0-.53,1.11l-.19.6a6.37,6.37,0,0,0-.1.63l-.1.64a4,4,0,0,1-.12.68c-.34.86-.73,1.61-1.1,2.42l-.09,0c.32-.81.7-1.62,1-2.43a15.59,15.59,0,0,1,.4-2.6,5,5,0,0,1,.51-1.22,3.65,3.65,0,0,1,.93-.95,4.21,4.21,0,0,1,2.54-.67,13.94,13.94,0,0,1,5,1.43,5.07,5.07,0,0,0,2.43.82l1.31-.08,1.29-.19a7.15,7.15,0,0,0,5.95-4.5,4.81,4.81,0,0,1,.63-1.18,3.42,3.42,0,0,0,.73-1.05,3.82,3.82,0,0,0,.25-1.26V138a1.37,1.37,0,0,1,.28-.65,12.73,12.73,0,0,1,1.85-1.89c.66-.58,1.38-1.11,2-1.67l1.86-1.85,0,0h0c.37,0,.1-.41-.06-.66a7.29,7.29,0,0,0-.66-.81l-.17-.2-.09-.09-.05-.05,0,0h0c.12-.31,0-.09.07-.16h0a2.73,2.73,0,0,0,.5,0,2.48,2.48,0,0,0,.93-.4,2.53,2.53,0,0,0,1.07-1.68c.12-.69.26-1.38.36-2.06a2.5,2.5,0,0,0-.17-1,3.69,3.69,0,0,1-.32-1,2,2,0,0,1,.93-1.86,5.2,5.2,0,0,1,2-.81,7.68,7.68,0,0,1,1.05-.12,7.17,7.17,0,0,0,1-.27,2.63,2.63,0,0,0,1.57-1.24,5.07,5.07,0,0,0,.42-2,11.7,11.7,0,0,0-.33-4.17,79.06,79.06,0,0,1-2.05-8.19Z"/></g><g id="handhole"><path d="M325.59,43.54a35,35,0,0,0-4.27,8.75,30.69,30.69,0,0,0-1.78,9.44,7.71,7.71,0,0,0,0,1.18,8.37,8.37,0,0,0,.13,1.17l.32,2.44.63,4.86,1.26,9.74c.1.79.16,1.67.29,2.38a10,10,0,0,0,.68,2.15,9,9,0,0,0,2.74,3.52,5.72,5.72,0,0,0,3.9,1.42c1.21-.19,2-1.49,2.46-3a10.9,10.9,0,0,1,1.15-2.32l1.36-2.06,2.71-4.11,5.57-8.12.08.06-5.2,8.34L335,83.51a20.84,20.84,0,0,0-2.33,4.3,7.59,7.59,0,0,1-1,2.25,3.17,3.17,0,0,1-2,1.38,4.52,4.52,0,0,1-2.44-.33,8.84,8.84,0,0,1-2.16-1.22A10.07,10.07,0,0,1,322,86.05a10.75,10.75,0,0,1-.76-2.35c-.16-.82-.22-1.63-.33-2.45l-1.18-9.76-.59-4.89a27.67,27.67,0,0,1-.37-4.9,31.28,31.28,0,0,1,2.06-9.6,36.11,36.11,0,0,1,4.69-8.63Z"/></g><g id="pants"><path class="cls-1" d="M81.59,496.85c-2-1.2-17.86-10.94-18.8-11.88s-6-8-6-12,3.76-17.15,4-18c0,0,0-.05,0-.08.48-1.31,13-36.14,16-51.88l0-.15c3.62-10.81,21.32-53.79,31.23-77.69,8.45,1.84,10.27,10,10.65,12.81a2.87,2.87,0,0,0,.86,1.69c2.29,2.22,9.29,8.78,14.24,11.26,4.5,3,5.06.38,5.06-1.12a2.93,2.93,0,0,1,.55-1.74,44.93,44.93,0,0,1,4.39-5.14c2.49-2.49,8.41-16.66,10.36-21.43a2.91,2.91,0,0,1,2.39-1.79,41.26,41.26,0,0,1,9.79.15,2.71,2.71,0,0,1,.87.29c9,4.59,24.89,2.24,31.06,1.2a2.93,2.93,0,0,1,3.09,1.59l0,.06a2.85,2.85,0,0,0,3.36,1.35c1.81-.54,4.47-1.37,6.11-2a2.91,2.91,0,0,0,1.29-1.12c1.36-2.06,5.25-3,7.54-3.22a2.76,2.76,0,0,1,1.69.35,19.59,19.59,0,0,0,3.66,1.38,2.93,2.93,0,0,0,1.5,0c1.85-.47,6.76-1.72,9.48-2.56a3.17,3.17,0,0,0,1.31-.85c3.55-3.72,10-4.29,11.92-4.38a2.75,2.75,0,0,1,1,.12,25.53,25.53,0,0,0,3,.72,3,3,0,0,0,2.42-.78c3-2.62,7.37-2.06,10-1.52A2.9,2.9,0,0,1,268,313c.85,5.64,4.84,12,4.84,12,0,2,1,10,1,10s1,14,2,19c.92,4.61,1.85,14.34,2,15.81a1.22,1.22,0,0,1,0,.38,118.87,118.87,0,0,1-3.9,13.65,1.23,1.23,0,0,0-.08.33c-.93,9.93.92,41.18,1,42.77a.49.49,0,0,0,0,.12c.16.89,2,11.16,3,17.85a1.16,1.16,0,0,0,0,.18c6.51,21.44,3.44,33.3,3,34.76a.91.91,0,0,0,0,.33c0,1.67-.12,14.87-1.93,20.61a1.53,1.53,0,0,1-.21.4c-4.72,6.3-14.44,4.16-15.72,3.85a1,1,0,0,0-.3,0c-.76,0-4.39.13-14.84,1-10.82.9-39.53-10.39-45.07-12.62A1.27,1.27,0,0,1,202,492a74.57,74.57,0,0,0,.83-7.6,1.2,1.2,0,0,0-.24-.75c-5.81-7.94-1.15-18.77,0-21.17a1.27,1.27,0,0,0,0-1c-.69-1.71-2.79-7.3-2.79-11.48s-2.76-8.3-3.69-9.59a1.19,1.19,0,0,1-.22-.93c.36-2.26,1.65-11.38-.09-17.48-2-7-4-16-3-19,.85-2.55.26-7.27.06-8.62a1.27,1.27,0,0,0-.31-.65c-1.8-2.09-3.52-7.06-3.73-7.67l0-.12a23,23,0,0,0-1.7-5,1.26,1.26,0,0,0-2.21-.06A110.56,110.56,0,0,1,175.79,393c-1,1-5,7.93-7,11.94a.41.41,0,0,1-.07.11c-7.84,11.8-21.38,45.5-21.94,46.9l0,.1c-.22.7-2.87,9.38-4.78,11.72a1.42,1.42,0,0,0-.29.54,15,15,0,0,1-1.7,4.4,1.26,1.26,0,0,0-.22.7V475c0,1.92-4.17,9.87-6.26,12.25a1.35,1.35,0,0,0-.32.6c-1.27,6-.28,8.79.46,9.94a1.24,1.24,0,0,1-.21,1.58,14.12,14.12,0,0,1-9.67,3.63c-6.67,0-38.75-5.45-41.77-6A1.31,1.31,0,0,1,81.59,496.85Z"/><path class="cls-2" d="M108,325.21c-9.91,23.9-27.61,66.88-31.23,77.69l0,.15c-3,15.74-15.5,50.57-16,51.88,0,0,0,.05,0,.08-.23.81-4,14.08-4,18s5,11,6,12,16.85,10.68,18.8,11.88A1.31,1.31,0,0,0,82,497c3,.51,35.1,6,41.77,6a14.12,14.12,0,0,0,9.67-3.63,1.24,1.24,0,0,0,.21-1.58c-.74-1.15-1.73-3.95-.46-9.94a1.35,1.35,0,0,1,.32-.6c2.09-2.38,6.26-10.33,6.26-12.25v-5.59a1.26,1.26,0,0,1,.22-.7,15,15,0,0,0,1.7-4.4,1.42,1.42,0,0,1,.29-.54c1.91-2.34,4.56-11,4.78-11.72l0-.1c.56-1.4,14.1-35.1,21.94-46.9a.41.41,0,0,0,.07-.11c2-4,6-10.94,7-11.94a110.56,110.56,0,0,0,9.08-12.16,1.26,1.26,0,0,1,2.21.06,23,23,0,0,1,1.7,5l0,.12c.21.61,1.93,5.58,3.73,7.67a1.27,1.27,0,0,1,.31.65c.2,1.35.79,6.07-.06,8.62-1,3,1,12,3,19,1.74,6.1.45,15.22.09,17.48a1.19,1.19,0,0,0,.22.93c.93,1.29,3.69,5.44,3.69,9.59s2.1,9.77,2.79,11.48a1.27,1.27,0,0,1,0,1c-1.16,2.4-5.82,13.23,0,21.17a1.2,1.2,0,0,1,.24.75A74.57,74.57,0,0,1,202,492a1.27,1.27,0,0,0,.77,1.37c5.54,2.23,34.25,13.52,45.07,12.62,10.45-.87,14.08-1,14.84-1a1,1,0,0,1,.3,0c1.28.31,11,2.45,15.72-3.85a1.53,1.53,0,0,0,.21-.4c1.81-5.74,1.92-18.94,1.93-20.61a.91.91,0,0,1,0-.33c.42-1.46,3.49-13.32-3-34.76a1.16,1.16,0,0,1,0-.18c-1-6.69-2.82-17-3-17.85a.49.49,0,0,1,0-.12c-.1-1.59-2-32.84-1-42.77a1.23,1.23,0,0,1,.08-.33,118.87,118.87,0,0,0,3.9-13.65,1.22,1.22,0,0,0,0-.38c-.13-1.47-1.06-11.2-2-15.81-1-5-2-19-2-19s-1-8-1-10c0-1.71,2.94-9.31,3.78-11.44a2.57,2.57,0,0,0,.18-1.16c-.16-2.63-.8-13-.94-16.49a3.24,3.24,0,0,0-.34-1.39A27.49,27.49,0,0,1,274,288.9a2.91,2.91,0,0,0-.8-1.53c-2.73-2.73-13.48-15.08-14.37-40.34v-.12c1-27,12.22-43.8,13-44.88l.07-.12c.72-1.43,13.2-26.17,21-33.94,8-8,15-20,17-25s17-30,17-30,15.53-28.14,16-41.41a1.24,1.24,0,0,1,.41-.9c2.53-2.19,5.59-9.25,6.4-11.19a1.22,1.22,0,0,1,.7-.69c2.17-.84,10.83-4.37,14.39-8.67a.9.9,0,0,1,.27-.24,52.14,52.14,0,0,1,4.84-2.9s.69,0,1.5-1.73a1.36,1.36,0,0,1,1.33-.83,1.6,1.6,0,0,0,1.17-.44,6.93,6.93,0,0,0,3-4c0-.78,1.82-.95,2.62-1a1.16,1.16,0,0,0,.72-.27,11,11,0,0,0,3.45-5,1.23,1.23,0,0,1,.89-.82,17.19,17.19,0,0,0,4.73-2.49,1.26,1.26,0,0,0,.53-1.2c-.17-1.33-.85-3.9-3.49-3.61A1.25,1.25,0,0,1,385,23.77a28.24,28.24,0,0,0,1.77-3.8c.66-2-.88-3.55-2-4.36a1.28,1.28,0,0,1-.38-1.64c.82-1.56,1.69-4.56-2.63-6-3.81-1-14,9-14.92,9.93l-.17.13c-.63.42-4.48,3-6.79,4.94a1,1,0,0,1-1.54-.25l0,0a1,1,0,0,1,.18-1.3,15.15,15.15,0,0,0,3.19-5.25,1.14,1.14,0,0,1,.18-.3c.64-.8,4-5,4.89-5.87l1-1s0-1,2-2,3-6.85-2.78-5.07a1.1,1.1,0,0,0-.4.21,106.8,106.8,0,0,0-8.77,7.81.48.48,0,0,0-.09.11c-.37.48-3,3.94-4,3.94s-3.86,5-4.75,6.57a1.23,1.23,0,0,1-.72.56,12.24,12.24,0,0,0-3.39,1.6,1.28,1.28,0,0,1-2.05-.77,6.59,6.59,0,0,1-.09-1S340.9,4,330.68,7.61a1.3,1.3,0,0,0-.86,1.3,22.66,22.66,0,0,0,1,5.06,21.51,21.51,0,0,1,1,4.73,1.18,1.18,0,0,1-.1.52c-.64,1.63-.2,4.28,0,5.32a1.21,1.21,0,0,1-.12.83c-.82,1.57-3.64,7.45-2.78,12.6a6.84,6.84,0,0,1-3.05,5.4,1.28,1.28,0,0,1-1.59-.06,8.06,8.06,0,0,0-8-1.45,1.29,1.29,0,0,0-.56.36,27.35,27.35,0,0,0-3.63,6.42,1.36,1.36,0,0,1-.42.53c-1.2.85-5.86,4.36-7.65,8.63a1.39,1.39,0,0,0-.09.35c-.2,1-2,2.82-2,2.82a18.66,18.66,0,0,0-3,4A13.52,13.52,0,0,1,297,67.71a1.14,1.14,0,0,1-.51.36c-1.12.41-5.21,2-6.48,4.36a1.23,1.23,0,0,1-.86.61,10.94,10.94,0,0,0-5.27,2.63,1.3,1.3,0,0,1-2.14-.54c-.24-.74-.49-1.72-1-3.16a3.76,3.76,0,0,0-.87-1.14,1.27,1.27,0,0,1,.17-2c1.32-.84,2.12-1.81-1.3-1.81h-10s-5.09-.85,1.13-4.89a1.27,1.27,0,0,0-.3-2.29,19.05,19.05,0,0,0-4.25-.75,1.25,1.25,0,0,1-1.17-1.34c.14-1.4-.75-3.37-7.3-2.74l-.21,0c-1,.25-1.85.44-2.51.58a1.27,1.27,0,0,1-1.45-1.7c.81-2.23,1.1-5.09-4.38-2.21a1.35,1.35,0,0,1-1.13,0c-3.54-1.41-9.37-1-11-.79a1.23,1.23,0,0,0-.72.33c-.81.74-3.09,2.72-4.71,2.72-2,0-9-2-11-3-1.3-.65-5.15.39-7.67,1.2a1.27,1.27,0,0,0-.39,2.21c1.31,1,2.41,2.18.06,1.59-4-1-15.75,0-19.87,3.87a1.28,1.28,0,0,0-.23.29,13.89,13.89,0,0,0-1.87,6.23,1.25,1.25,0,0,1-.56,1c-1.35.9-4.87,3.46-6.47,6.66-2,4-11.77,19.63,1.53,30.62a1.31,1.31,0,0,1,.48.94c.13,2.62,1.33,5,7.7,3.73a1.27,1.27,0,0,1,1.54,1.29c-.17,2-1.72,4.76-3.87,7a1.29,1.29,0,0,1-.93.39H187.1a1.31,1.31,0,0,0-1.27,1.13c-.16,1-.94,2.56-3.79,3.77a1.29,1.29,0,0,1-.51.1H169.17a1.29,1.29,0,0,1-.69-.2c-3.32-2.12-12.69-6.8-12.69-6.8s-52.9-24-72.94-74.86a1.82,1.82,0,0,0-.15-.27c-3.42-5-10.3-7.17-12.33-7.72a1.22,1.22,0,0,1-.86-.82c-.36-1.16-.61-3.82,2-8a1.27,1.27,0,0,0,.21-.76c-.21-2.76-2.4-7.39-2.88-8.4a1,1,0,0,1-.12-.41c-.12-1.36-.68-8.57.57-12.63A1.26,1.26,0,0,0,68.22.51C65.15.31,58.8,2.35,57.83,15.32a1.26,1.26,0,0,1-.54.95,32.23,32.23,0,0,0-4.76,4.8,1.25,1.25,0,0,1-1.66.24c-1.56-1-4.83-2.91-7.69-2.42a1.37,1.37,0,0,1-.75-.08A13.52,13.52,0,0,0,38.19,18a1.24,1.24,0,0,1-.72-.26C35.36,16.07,23.3,6.94,15.67,8.35A1.26,1.26,0,0,0,15,10.48C18.39,14,27.11,21.13,28.79,22c1,1,2,3-1,3-2-1-13-6-15-8s-9-5-10,2c0,0-1,5,6.9,6h1.1s11,7,13,7a1.09,1.09,0,0,1,1.06.57,1.26,1.26,0,0,1-1.7,1.65A26.74,26.74,0,0,0,17,32a1.31,1.31,0,0,1-.48-.12A9.23,9.23,0,0,0,14.13,31a1.19,1.19,0,0,1-.63-.32c-1-.89-4.06-3.6-6.55-3.72a1.06,1.06,0,0,1-.31,0C3.69,25.94.79,25,.79,29c-1.95,3.89,6.51,7.78,7,8l0,0a7.57,7.57,0,0,1,2.71,2.51,1.17,1.17,0,0,0,.84.53c2.08.32,5.62,2.17,8,3.51A1.27,1.27,0,0,1,19,45.88,15,15,0,0,1,12.9,46l-.22,0c-4.94,0-7.9,0-8.89,1s0,3.91,3.81,3A1.54,1.54,0,0,1,8,50c1.87.14,5.8,2.39,6.65,2.89A1.18,1.18,0,0,0,15,53c1.34.28,9.15,1.79,12.8,0,3-1,8,0,8,0s6.12,1.36,9.39,1.84a1.26,1.26,0,0,1,1,1.67C44.94,60,43,67.77,43.79,72c1,5,6,20,9,24s62,69,70,84c7.8,14.62-2.46,97.69-7.61,110.18a13.24,13.24,0,0,0-.82,2.89,51.43,51.43,0,0,0,.36,15.58,1.17,1.17,0,0,1-.07.69C114,310.77,111.52,316.81,108,325.21Z"/><path class="cls-2" d="M272.79,325s-4-6.38-4.84-12a2.9,2.9,0,0,0-2.29-2.42c-2.63-.54-7-1.1-10,1.52a3,3,0,0,1-2.42.78,25.53,25.53,0,0,1-3-.72,2.75,2.75,0,0,0-1-.12c-1.91.09-8.37.66-11.92,4.38a3.17,3.17,0,0,1-1.31.85c-2.72.84-7.63,2.09-9.48,2.56a2.93,2.93,0,0,1-1.5,0,19.59,19.59,0,0,1-3.66-1.38,2.76,2.76,0,0,0-1.69-.35c-2.29.24-6.18,1.16-7.54,3.22a2.91,2.91,0,0,1-1.29,1.12c-1.64.64-4.3,1.47-6.11,2a2.85,2.85,0,0,1-3.36-1.35l0-.06a2.93,2.93,0,0,0-3.09-1.59c-6.17,1-22,3.39-31.06-1.2a2.71,2.71,0,0,0-.87-.29,41.26,41.26,0,0,0-9.79-.15,2.91,2.91,0,0,0-2.39,1.79c-2,4.77-7.87,18.94-10.36,21.43a44.93,44.93,0,0,0-4.39,5.14,2.93,2.93,0,0,0-.55,1.74c0,1.5-.56,4.12-5.06,1.12-4.95-2.48-11.95-9-14.24-11.26a2.87,2.87,0,0,1-.86-1.69c-.38-2.81-2.2-11-10.65-12.81"/></g><g id="handhole2"><path d="M81.23,39a22.33,22.33,0,0,1,0,6.63,27,27,0,0,1-1.73,6.45c-.2.52-.47,1-.7,1.52A14,14,0,0,1,78,55.09l-.84,1.46-1,1.39c-.6,1-1.38,1.76-2.07,2.65S72.57,62.21,71.8,63l.24-.6c.42,5.76,1.07,11.55,1.23,17.41,0,1.47,0,2.94,0,4.43a18.17,18.17,0,0,1-.78,4.51,5.08,5.08,0,0,1-.55,1.16,3.55,3.55,0,0,1-.43.57,1.76,1.76,0,0,1-.37.3,1,1,0,0,1-.48.21,2,2,0,0,1-.53.07L69.62,91a3.89,3.89,0,0,1-.71-.32c-.18-.13-.36-.26-.53-.4l-.46-.41a22.91,22.91,0,0,1-2.72-3.63,115.71,115.71,0,0,1-7.78-15.7A19.18,19.18,0,0,0,55.23,67a18.54,18.54,0,0,0-2.9-3.1,13.24,13.24,0,0,0-1.74-1.22c-.62-.32-1.28-.62-2-.94a16.36,16.36,0,0,1-1.92-1.06,5.68,5.68,0,0,1-.88-.67,2.47,2.47,0,0,1-.37-.42.63.63,0,0,1-.12-.57l.08.05c-.06.3.25.62.5.84a6.06,6.06,0,0,0,.88.62,16.78,16.78,0,0,0,1.94,1c.66.29,1.33.56,2,.88a14.75,14.75,0,0,1,1.84,1.18A20,20,0,0,1,58,70.29,130.44,130.44,0,0,0,66,85.76a21.62,21.62,0,0,0,2.62,3.45c.49.47,1.12,1,1.78.9a1.36,1.36,0,0,0,.72-.68,4.09,4.09,0,0,0,.45-1,16.93,16.93,0,0,0,.69-4.26c.1-1.44.1-2.89.08-4.34-.11-5.8-.73-11.58-1.09-17.38v0l0,0c.77-.79,1.58-1.53,2.32-2.34s1.47-1.64,2.08-2.55l1-1.34.85-1.41a13.43,13.43,0,0,0,.79-1.44c.24-.5.51-1,.72-1.49a27.46,27.46,0,0,0,1.91-6.28A22.16,22.16,0,0,0,81.13,39Z"/></g></g></svg>