<svg id="Layer_2" data-name="Layer 2" xmlns="http://www.w3.org/2000/svg" viewBox="0 0 403.29 303">
<defs><style>
#sun:hover > .cls-1 {
    fill:#e5e185;
    stroke: none;
    transition: fill 0.2s ease-in-out;
}

#sun:hover > .cls-2 {
    fill:#e2cf1a;
    stroke: none;
    transition: fill 0.2s ease-in-out;
}
.cls-1{fill:white; stroke: black;}
.cls-2{fill:white; stroke: black;}
.cls-3{fill:#ce8d45;}
.cls-4{fill:#6394db;}
.cls-4,.cls-6,.cls-7,.cls-8,.cls-9{stroke:#000;stroke-miterlimit:10;}
.cls-5{fill:#e8e8e8;}
.cls-6{fill:#e0e0e0;}
.cls-7{fill:#c5e1ef;}
.cls-8{fill:#caccca;}
.cls-9{fill:#70c480;}</style></defs><title>isIcon</title><g id="sun"><circle id="sunOuter" class="cls-1" cx="204.39" cy="154.5" r="93"/><circle id="sunInner" class="cls-2" cx="204.39" cy="154.5" r="70"/><g id="rays"><rect id="ray1" class="cls-3" x="65.89" y="80" width="56" height="8" rx="4" transform="translate(47.91 -33.29) rotate(26.78)"/><rect id="ray2" class="cls-3" x="102.89" y="35" width="56" height="8" rx="4" transform="translate(94.26 -92.57) rotate(57.85)"/><rect id="ray3" class="cls-3" x="175.89" y="24" width="56" height="8" rx="4" transform="translate(231.89 -175.89) rotate(90)"/><rect id="ray5" class="cls-3" x="290.29" y="80" width="56" height="8" rx="4" transform="translate(640.3 15.59) rotate(153.22)"/><rect id="ray4" class="cls-3" x="249.79" y="34.5" width="56" height="8" rx="4" transform="translate(465.41 -169.95) rotate(124.1)"/></g></g><g id="ocean"><path id="water" class="cls-4" d="M48.39,233.5h-34s-20-6-12-25c4-7,12-10,12-10h343s30,5,18,35h16s21,15,6,29c-6,6-9,6-9,6h-94s12,26-13,34h-153a20.36,20.36,0,0,1-14-13v-57S50.39,234.5,48.39,233.5Z"/><g id="waves"><rect id="wave1" class="cls-5" x="270.89" y="210" width="62" height="14" rx="7"/><rect id="wave2" class="cls-5" x="133.89" y="233" width="85" height="14" rx="7"/><rect id="wave3" class="cls-5" x="207.89" y="273" width="42" height="14" rx="7"/></g></g><g id="boat"><polygon id="sailSml" class="cls-6" points="87.39 170.5 134.39 256.5 87.39 256.5 87.39 170.5"/><path id="sailLrg" class="cls-7" d="M87.39,154.5s-7-3-10,13-35,89-35,89h45Z"/><rect id="middle" class="cls-8" x="42.39" y="256.5" width="92" height="12"/><path id="base" class="cls-9" d="M30.39,268.5s-8,2-4,9c0,0,9,14,14,14h98s11-10,12-12,6-8,0-11Z"/></g></svg>