<?xml version="1.0" encoding="utf-8"?>
<!-- Generator: Adobe Illustrator 23.0.6, SVG Export Plug-In . SVG Version: 6.00 Build 0)  -->
<svg version="1.1" id="Layer_1" xmlns="http://www.w3.org/2000/svg" xmlns:xlink="http://www.w3.org/1999/xlink" x="0px" y="0px"
	 viewBox="0 0 627 311.3" style="enable-background:new 0 0 627 311.3;" xml:space="preserve">
<style type="text/css">
	#carpet{fill:white;}
	#carpet:hover{fill:#CC3232; transition: fill 0.2s ease-in-out;}
	.st1{fill:none;stroke:#000000;stroke-width:0.5;stroke-miterlimit:10;}
	svg{cursor: pointer;}
</style>
<title>jwwIcon</title>
<g id="XMLID_1_">
	<g>
	<g id="carpet">
		<path class="st0" d="M167.7,282.3c0.1,0.1,0.1,0.3,0.2,0.4c0,0.1,0,0.3,0,0.4c0,0.3-0.1,0.6-0.2,0.9c-0.2,0.6-0.4,1.2-0.7,1.8
			l-0.1,0.1l0.1,0.1c0.6,0.4,1.2,0.9,1.6,1.5c0.4,0.6,0.5,1.4,0.4,2.1c-0.4,1.4-1.3,2.8-2.4,3.8c-0.3,0.3-0.6,0.6-0.9,0.9
			c-14.6-5.4-28.8-11.8-42.6-19.1c-2.1-1.1-4.2-2.2-6.3-3.4c-5.8-4.1-10.9-9.2-15.8-14.4c-5.6-6.2-10.9-12.7-15.9-19.5
			c-5.1-6.7-9.6-13.8-13.5-21.2c-0.5-0.9-0.9-1.9-1.2-2.9c-0.2-0.5-0.3-1-0.3-1.5c0-0.1,0-0.2,0.1-0.3c0-0.1,0-0.1,0.2-0.1
			c0.3,0,0.6-0.1,0.8-0.2c0.9-0.6,1.7-1.4,2.3-2.3c0.6-0.9,1.1-1.8,1.6-2.8c1.8-3.8,3.3-7.7,4.6-11.7c1-2.3,2-4.5,3.1-6.7
			c0.6-1.1,1.1-2.2,1.8-3.2c0.6-1,1.2-1.9,2-2.8c1.3-0.1,2.6-0.3,3.9-0.6h0c0.5,0.1,0.9,0.1,1.4,0c0.7-0.1,1.3-0.4,1.9-0.7
			c1-0.6,1.9-1.2,2.7-2.1c0.4-0.3,0.8-0.5,1.2-0.8c1.7-1.1,3.3-2.4,4.8-3.8c1.4-1.2,2.7-2.5,3.9-3.9c1,0.8,2.1,1.4,3.3,1.7
			c0.7,0.1,1.4,0.1,2.1,0l2-0.2c1.3-0.1,2.6-0.2,3.9-0.2c0.6,0,1.3,0,1.9,0.2c0.6,0.2,1.2,0.5,1.7,0.8c1.1,0.7,2.1,1.5,3.3,2.3
			c0.6,0.4,1.2,0.7,1.9,0.9c0.3,0.1,0.7,0.2,1.1,0.2h1c1.4,0,2.7,0,4,0.1c1.3,0.1,2.6,0.3,3.8,0.8h0.1h0.1c1.3-0.7,2.5-1.4,3.7-2.2
			c0.6-0.4,1.2-0.8,1.8-1.3c0.4-0.3,0.7-0.6,1-1c1.6,0.2,3.2,0.4,4.8,0.7c1.4,0.3,2.7,0.7,4,1.3c1.3,0.5,2.2,1.5,2.7,2.7
			c0.1,0.6,0.1,1.3-0.1,1.9c-0.1,0.3-0.2,0.6-0.4,0.9c-0.2,0.3-0.4,0.5-0.7,0.8c-1,1-2.1,2-3.2,2.8c-2.2,1.8-4.5,3.6-6.8,5.3l0.1,0
			c0.6-0.4,1.2-0.8,1.7-1.2c-0.3,1.9-0.6,3.9-0.8,5.8c-0.2,1-0.1,2-0.2,3c0,1-0.1,2-0.2,3c-0.3,4-0.7,8.1-0.9,12.1
			c-0.1,2,0,4.1,0.1,6.1c0.1,2.1,0.3,4.1,0.5,6.1c0.4,4,0.8,8.1,1.3,12.1l-0.1,0.6l0.4-0.4c2.9-2.3,5.2-5.2,6.8-8.5
			c0.7-1.7,1.2-3.4,1.7-5.2c0.4-1.8,0.9-3.5,1.3-5.3c1.3-5.7,2.5-11.5,3.7-17.3c0.2,1.9,0.6,3.8,1.3,5.5c0.5,1.5,1.1,3,1.7,4.5
			c0.3,0.7,0.7,1.5,1,2.2l0.5,1.1l0.3,0.5l0.1,0.3l0.1,0.2c0.4,1.5,0.4,3.1,0.2,4.6c-0.2,1.6-0.5,3.1-0.9,4.7
			c-0.6,3.2-0.8,6.4-0.6,9.6c0.2,3.2,0.7,6.4,1.7,9.5c0.4,1.5,1,3.1,1.6,4.5l0.9,2.2c0.3,0.7,0.5,1.5,0.5,2.3
			c0.4,3.1,0.5,6.4,0.6,9.6c0.1,3.1,0.1,6.3,0.1,9.4v0c-0.4,1.3-0.7,2.5-0.9,3.8c-0.3,1.3-0.4,2.6-0.4,3.9
			C166.6,279.9,167,281.2,167.7,282.3z"/>
		<path class="st0" d="M178.6,292c1.4-5.5,2.9-11,4.6-16.4c0.4-1.3,0.9-2.6,1.5-3.9c0.6-1.4,0.9-2.8,1.2-4.2
			c0.4-2.8,0.7-5.6,0.7-8.4c0.6-1.5,1.2-3.1,1.8-4.7c0.6-1.6,1-3.2,1.2-4.9c0.1-3.3,0.4-6.6,0.7-9.9l0.8-9.9
			c0.2-3.2,0.5-6.5,0.6-9.8c1.5-2.6,2.3-5.6,2.5-8.6c0.3-3,0.2-6,0.2-9c0-0.7,0.1-1.4,0.2-2.1c0.1-0.3,0.2-0.6,0.4-0.9l0.6-1
			l2.3-3.8l4.7-7.6l1.9-3.8l34.8-0.8c5.8-0.1,11.7-0.3,17.5-0.6c5.8-0.3,11.7-0.4,17.5-1c0,0,13.5,17.2,32.8,18.2
			c19.3,1,63.8-11.8,67-10.1c-0.6,1.3-0.9,2.7-0.6,4.1c0.2,1.4,0.6,2.7,1.1,3.9c0.3,0.6,0.6,1.2,0.8,1.8c0.2,0.6,0.4,1.2,0.5,1.9
			c0.3,1.3,0.6,2.6,0.8,3.9c0.5,2.6,0.8,5.3,1.2,7.9s0.6,5.3,0.9,7.9c0.2,1.3,0.1,2.7,0.4,4c0.3,1.3,0.7,2.6,1.1,3.9
			c0.4,1.3,0.9,2.5,1.4,3.8c0.3,0.6,0.6,1.2,0.8,1.8c0.2,0.6,0.4,1.3,0.5,1.9c0.6,2.6,1,5.2,1.4,7.8c0.8,5.3,1.4,10.6,1.9,15.8
			c-0.2,0.3-0.3,0.6-0.3,0.9c0,1.4-0.3,2.8-0.7,4.2c-0.5,1.3-1.5,2.4-2.8,3c-0.6,0.4-1.2,0.7-1.9,0.9c-0.3,0.1-0.6,0.1-0.9,0
			l-1.1-0.2c-1.5-0.2-2.9-0.3-4.4-0.4c-3-0.1-5.9,0.3-8.8,0.9c-1.4,0.3-2.9,0.8-4.2,1.3c-0.4,0.1-0.8,0.5-1,0.8
			c-0.1,0.2-0.2,0.4-0.2,0.6c0,0.2-0.1,0.3-0.1,0.5c-0.2,0.6-0.5,1.3-1,1.8c-0.2,0.3-0.5,0.5-0.7,0.8c-0.3,0.1-0.5,0.2-0.8,0.2
			c-0.7,0.1-1.4,0.1-2.1,0.1c-1.4,0-2.9,0-4.4-0.1l-4.4-0.2c-0.8,0-1.4-0.1-2.2-0.1c-0.5,0-0.9,0.3-1.2,0.7
			c-0.2,0.4-0.3,0.8-0.3,1.3c0,0.4,0.1,0.8,0.2,1.2c0,0.1,0.1,0.3,0.1,0.4c0,0.2,0,0.3,0,0.5c0,0.3-0.1,0.7-0.2,1
			c-0.1,0.3-0.3,0.5-0.6,0.6c-0.1,0.1-0.3,0.1-0.4,0.1c-0.1,0-0.3,0-0.5,0c-0.5,0-0.9,0.2-1.2,0.5c-0.7,0.6-0.8,1.6-0.4,2.5
			c0.2,0.3,0.5,0.6,0.9,0.8c0.3,0.2,0.6,0.4,0.8,0.7c0.2,0.2,0.4,0.5,0.6,0.8c0.1,0.3,0.1,0.6,0,0.8c-0.5,1.3-1.1,2.6-1.9,3.8
			c-0.8,1.2-1.5,2.5-2.4,3.6c-0.3,0.5-1,0.6-1.5,0.4c-0.7-0.2-1.4-0.4-2.1-0.6l-1.1-0.3l-0.5-0.1c-0.2,0-0.4,0-0.7,0
			c-0.5,0.1-0.9,0.3-1.2,0.6c-0.1,0.2-0.3,0.3-0.4,0.5l-0.3,0.4c-1.1,0.8-2.4,1.4-3.8,1.6c-1.4,0.3-2.8,0.5-4.3,0.6
			c-0.7,0.1-1.4,0.1-2.2,0.1H319c-0.2,0-0.4,0-0.6,0.1l-1.1,0.3c-2.8,0.8-5.6,1.4-8.5,2.1c-5.7,1.2-11.4,2.3-17.2,3.2
			c-11.5,1.8-23.1,3-34.7,3.7c-11.6,0.7-23.3,1-34.9,0.6c-2.9,0-5.8-0.2-8.7-0.3l-4.4-0.2l-1.1-0.1c-0.3,0-0.7,0-1-0.1l-2.1-0.5
			c-5.7-1.2-11.3-2.7-16.9-4.3c-3.5-1-7-2.1-10.5-3.3C177.9,296.3,178.3,294.1,178.6,292z"/>
			</g>
		<path d="M597.2,103.7c0.3,0.1,0.6,0.3,0.9,0.5l-0.1,0.1c-0.1-0.1-0.3-0.1-0.5-0.2C597.5,103.9,597.3,103.8,597.2,103.7z"/>
		<path d="M586.5,84.1c0,0,0.1-0.1,0.1-0.1c0.1,0,0.2,0,0.2,0v0.1C586.7,84.2,586.6,84.2,586.5,84.1
			C586.5,84.2,586.5,84.2,586.5,84.1z"/>
		<path d="M576.2,68.1c-0.6-0.8-1.3-1.5-2.1-2.1c0.5,0.2,0.9,0.5,1.3,0.8c0,0,0,0,0,0C575.8,67.2,576.1,67.6,576.2,68.1L576.2,68.1z
			"/>
		<path d="M587.1,100.8c3.5,0.2,7,1.2,10.1,2.8c0.1,0.1,0.3,0.2,0.4,0.4c-3.3-1.5-6.9-2.3-10.5-2.4c-1.9-0.1-3.7,0.1-5.5,0.7
			c-1.8,0.5-3.3,1.5-4.5,2.9c-1.1,1.4-2,3.1-2.4,4.9c-0.4,1.8-0.7,3.7-0.6,5.6c0,1.9,0.1,3.8,0.4,5.7l0.2,1.4
			c0.1,0.4,0.2,0.9,0.4,1.3c0.4,0.9,0.8,1.7,1.3,2.5c4,6.5,9.1,12.2,14.2,18c5.1,5.8,10,11.6,14.9,17.5l-0.1,0
			c-5.4-5.4-10.5-11.1-15.4-17c-2.4-3-4.7-6-7.1-9c-2.4-3-4.7-6-6.9-9.2c-0.6-0.8-1-1.7-1.5-2.5c-0.2-0.4-0.4-0.9-0.5-1.4l-0.2-1.4
			c-0.3-1.9-0.5-3.8-0.5-5.8c0-2,0.1-3.9,0.6-5.8c0.4-1.9,1.3-3.8,2.6-5.3c1.3-1.5,3.1-2.6,5-3.2
			C583.2,100.8,585.2,100.7,587.1,100.8z"/>
		<path d="M565.9,72.8c0.5,2.1,1.5,4,2.8,5.7c1.5,1.5,3.3,2.6,5.3,3.4l0.8,0.3c0.2,0.1,0.5,0.2,0.7,0.3c0.5,0.1,1.1,0.2,1.6,0.3
			c1.1,0.2,2.2,0.3,3.3,0.5c2.1,0.3,4.2,0.5,6.3,0.8c0,0-0.1,0.1-0.1,0.1c0,0,0,0,0,0c-2.1,0.1-4.2,0-6.3-0.1
			c-1.1-0.1-2.2-0.2-3.3-0.3c-0.6-0.1-1.1-0.1-1.7-0.2c-0.3-0.1-0.6-0.2-0.9-0.3l-0.8-0.3c-2.2-0.8-4.1-2.1-5.6-3.8
			c-1.4-1.8-2.4-3.9-2.7-6.2c-0.1-0.6-0.2-1.1-0.2-1.7c0.1-0.6,0.2-1.1,0.5-1.6c0.4-1,1.1-2,1.9-2.7c0.9-0.8,1.9-1.3,3.1-1.4
			c1.2-0.1,2.3,0,3.4,0.5c0.1,0,0.1,0.1,0.2,0.1c0.7,0.6,1.4,1.3,2.1,2.1l0.1-0.1c-0.2-0.4-0.5-0.8-0.8-1.2c0.2,0.2,0.4,0.4,0.6,0.6
			c0.3,0.3,0.4,0.6,0.5,1c0,0.3,0,0.6-0.1,0.9c0,0.3-0.1,0.6-0.2,0.9c-0.1,0.3-0.2,0.6-0.3,0.8c-0.1,0.3-0.3,0.5-0.5,0.8
			c-0.7,0.9-1.8,1.5-3,1.7c-1.1,0.1-2.3,0-3.3-0.4l0-0.1c1.1,0.2,2.2,0.2,3.2,0c1-0.2,1.9-0.8,2.5-1.6c0.5-0.9,0.8-1.8,0.8-2.9
			c0-0.3-0.4-0.6-0.8-1c-0.4-0.3-0.8-0.6-1.3-0.8c-1.9-1.1-4.2-0.9-5.9,0.4c-0.8,0.7-1.4,1.6-1.8,2.6c-0.2,0.5-0.4,1-0.4,1.5
			C565.5,71.8,565.8,72.3,565.9,72.8z"/>
		<path d="M567.7,53.2c0.8-0.4,1.6-0.8,2.4-1.1l0.6-0.3l0.3-0.1l0.4-0.1c0.4-0.1,0.8-0.2,1.2-0.4c1.6-0.6,2.8-1.7,3.6-3.2
			c0.7-1.5,1-3.2,0.9-4.9c-0.1-1.7-0.4-3.5-0.9-5.1h0.1c0.8,1.6,1.3,3.3,1.5,5.1c0.3,1.8,0,3.7-0.7,5.4c-0.4,0.9-1,1.6-1.8,2.2
			c-0.8,0.6-1.6,1-2.5,1.3c-0.4,0.1-0.9,0.3-1.3,0.3l-0.3,0.1l-0.3,0.1l-0.6,0.2c-0.8,0.3-1.7,0.6-2.5,0.9c-0.8,0.3-1.6,0.7-2.4,1.1
			c-0.6,0.4-0.8,1.3-0.4,1.9c0,0,0.1,0.1,0.1,0.1c0.3,0.3,0.6,0.5,1,0.5c0.4,0,0.9-0.2,1.3-0.2c0.9-0.2,1.8-0.3,2.6-0.4
			s1.8-0.1,2.6-0.1c0.8,0,1.7-0.2,2.4-0.5c1.6-0.6,3-1.7,4-3.1l0.1,0.1c-0.8,1.7-2.1,3-3.8,3.8c-0.9,0.4-1.8,0.6-2.7,0.6
			c-0.9,0.1-1.8,0-2.6,0.1s-1.8,0-2.6,0.1c-0.5,0-0.8,0.1-1.3,0.1c-0.5,0-0.9-0.3-1.2-0.6c-0.6-0.8-0.5-1.8,0.3-2.5
			c0,0,0.1-0.1,0.1-0.1C566.2,54,566.9,53.6,567.7,53.2z"/>
		<path d="M559.3,67.6c-0.3,0.3-0.5,0.6-0.6,1c-0.1,0.4-0.1,0.8-0.1,1.3c0,0.4,0,0.9,0,1.4c0,0.9,0.1,1.8,0.2,2.7
			c0.3,1.8,0.7,3.5,1.2,5.2c0.9,3.5,2.3,6.8,4.3,9.8l0,0c-1.3-1.3-2.4-2.8-3.2-4.5c-0.8-1.6-1.4-3.4-1.8-5.2
			c-0.4-1.8-0.6-3.6-0.8-5.4c-0.1-0.9-0.2-1.8-0.3-2.7c0-0.5-0.1-0.9-0.1-1.4l-0.1-0.7c0-0.3,0-0.5,0.1-0.7c0.1-0.5,0.3-1,0.7-1.4
			c0.3-0.4,0.6-0.7,1-1c0.7-0.6,1.4-1.2,2.2-1.7c1.6-1.1,3.4-1.8,5.3-2c1.9-0.2,3.9,0.4,5.4,1.5c1.1,0.8,2.1,1.8,2.9,3c0,0,0,0,0,0
			c-0.4-0.3-0.9-0.6-1.3-0.8c-0.6-0.5-1.3-1-1.9-1.4c-1.5-0.9-3.2-1.3-4.9-1.1c-1.7,0.2-3.4,0.8-4.9,1.8c-0.8,0.5-1.5,1-2.2,1.5
			C560,67,559.6,67.3,559.3,67.6z"/>
		<path d="M552,91.5c0.4,0.3,0.9,0.5,1.4,0.7c1,0.3,2,0.6,3,0.9c0.5,0.1,1,0.3,1.5,0.4c0.5,0.1,1,0.3,1.5,0.5v0c-0.5,0-1.1,0-1.6,0
			c-0.5,0-1.1-0.1-1.6-0.2c-1-0.3-2-0.7-2.9-1.3c-0.5-0.3-0.9-0.6-1.3-0.9c-0.2-0.1-0.5-0.3-0.7-0.4c-0.2-0.1-0.5-0.3-0.7-0.5
			c-0.2-0.2-0.4-0.3-0.6-0.5c-0.3-0.6-0.5-1.3-0.8-1.9c0.5,0.7,1.1,1.4,1.8,2C551.2,90.8,551.6,91.1,552,91.5z"/>
		<path d="M549.1,88.3c0.3,0.6,0.6,1.3,0.8,1.9c-0.5-0.6-0.9-1.4-1-2.2C549,88.2,549,88.3,549.1,88.3z"/>
		<path d="M548.9,88.1C548.9,88.1,548.9,88.1,548.9,88.1L548.9,88.1C548.9,88,548.9,88.1,548.9,88.1z"/>
		<path d="M545.2,144.7L545.2,144.7c-0.2,0.1-0.5,0.3-0.7,0.4L545.2,144.7z"/>
		<path d="M544.5,145.1l-2.1,1.2l-0.7,0.4l-0.7,0.3l-0.6,0.3C541.7,146.6,543.1,145.9,544.5,145.1z"/>
		<path d="M545.4,145.1l-2.9,1.6l-0.7,0.4l-0.8,0.3l-0.4,0.2C542.3,146.7,543.8,145.9,545.4,145.1l-0.2-0.3c0,0,0,0,0,0L545.4,145.1
			z"/>
		<path d="M540.9,147.1l0.7-0.3l0.7-0.4l2.1-1.2c0.2-0.1,0.5-0.2,0.7-0.4l0.2,0.3c-1.5,0.8-3.1,1.7-4.7,2.5l-1.1,0.5
			c-1.1,0.5-2.3,1-3.4,1.4c1.4-0.7,2.8-1.4,4.1-2.2L540.9,147.1z"/>
		<path d="M562.7,159.8c-7.8,4.9-15.8,9.5-24.1,13.6c-2,1.1-4.2,2-6.2,3l-3.1,1.5c-1,0.5-2.1,0.9-3.2,1.3l-6.4,2.7l-6.5,2.4
			c-8.7,3-17.5,5.9-26.6,7.4c-18,3.9-36.2,7.1-54.4,9.4c-9.1,1.2-18.3,2.3-27.4,3.2c-9,0.9-18.1,1.7-27.1,2.3c0,0,0-0.1,0-0.1
			c9-0.9,18.1-1.9,27.1-3c9.1-1.1,18.3-2.3,27.4-3.5c18.2-2.5,36.4-5.4,54.5-9c2.3-0.4,4.5-0.7,6.8-1.3l6.7-1.6l1.7-0.4l1.6-0.5
			l3.3-1.1c2.2-0.7,4.4-1.4,6.5-2.3l6.4-2.5l6.3-2.8c1-0.5,2.1-0.9,3.1-1.4l3.1-1.5c2.1-1,4.1-2,6.2-3.1c16.3-8.4,32-18,47-28.7
			l0,0.1C578,149.6,570.5,154.9,562.7,159.8z"/>
		<path d="M386.4,259.3c0,0,0,0.1,0,0.1l-0.1,0c0,0,0,0,0,0C386.3,259.4,386.3,259.3,386.4,259.3z"/>
		<path d="M377.6,206.5c0,0,0,0.1,0,0.1c-0.1,0-0.3,0-0.4,0v-0.1C377.3,206.5,377.5,206.5,377.6,206.5z"/>
		<path d="M374.5,197c-0.6-1.2-1-2.6-1.1-3.9c-0.2-1.4,0-2.8,0.6-4.1c0.7-1.2,1.7-2.2,2.9-2.9c1.2-0.7,2.5-1.2,3.8-1.5
			c5.3-1.3,10.7-0.9,16-1c2.7,0,5.3,0,8-0.1c2.6-0.1,5.3-0.3,7.9-0.7c2.5-0.5,5.1-1.4,6.9-3.2c0.8-0.9,1.5-2.1,1.8-3.3l0.2-0.9
			l0.2-1l0.1-1c0-0.4,0.2-0.8,0.5-1.2c0.3-0.3,0.6-0.6,1.1-0.7c0.4-0.1,0.7-0.1,1.1-0.1l2,0l4-0.1l8-0.3c5.3-0.2,10.6-0.5,16-0.8
			c2.2-0.1,4.3-0.3,6.5-0.4c8.5-0.6,16.9-1.3,25.3-2.3c5.3-0.6,10.5-1.5,15.7-2.6c1.3-0.3,2.6-0.7,3.8-1.1c0.6-0.2,1.2-0.5,1.8-0.7
			l0.9-0.4l0.9-0.4c2.5-1,4.9-2.1,7.3-3.2c6.6-3,13.1-6.2,19.5-9.5c1.1-0.5,2.3-0.9,3.4-1.4l1.1-0.5c-7.8,4.2-15.8,8.2-23.9,11.9
			c-2.4,1.1-4.8,2.2-7.3,3.2l-0.9,0.4l-0.9,0.4c-0.6,0.3-1.2,0.5-1.9,0.8c-1.3,0.4-2.6,0.8-3.9,1.1c-5.2,1.2-10.5,2.1-15.8,2.7
			c-10.6,1.3-21.2,2.2-31.8,2.8c-5.3,0.3-10.7,0.6-16,0.9l-8,0.3l-4,0.1h-2c-0.3,0-0.6,0-0.9,0c-0.2,0.1-0.4,0.2-0.6,0.4
			c-0.2,0.2-0.2,0.4-0.3,0.7l-0.1,1l-0.2,1c-0.1,0.3-0.2,0.7-0.3,1c-0.4,1.3-1.1,2.6-2,3.6c-2,2.1-4.7,2.9-7.4,3.4
			c-2.6,0.4-5.3,0.7-8,0.7c-2.7,0.1-5.3,0.1-8,0.1c-5.3,0-10.7-0.4-15.8,0.9c-1.3,0.3-2.5,0.8-3.6,1.4c-1.1,0.6-2,1.5-2.7,2.6
			c-0.6,1.2-0.8,2.6-0.6,3.9c0.2,1.3,0.5,2.6,1.1,3.7c1.2,3.2,2,6.5,2.5,9.8c-0.1,0-0.2,0-0.4,0v0.1c0.1,0,0.3,0,0.4,0
			c1.1,7.2,1.3,14.5,3.1,21.5c0.4,1.3,0.9,2.5,1.4,3.7c0.3,0.6,0.6,1.2,0.8,1.9c0.2,0.6,0.4,1.3,0.5,1.9c0.6,2.6,1,5.3,1.3,7.9
			c0.7,5.2,1.2,10.5,1.7,15.7c0,0-0.1,0.1-0.1,0.2c-0.5-5.3-1.1-10.6-1.9-15.8c-0.4-2.6-0.8-5.3-1.4-7.8c-0.2-0.6-0.3-1.3-0.5-1.9
			c-0.2-0.6-0.5-1.2-0.8-1.8c-0.5-1.2-1-2.5-1.4-3.8c-0.4-1.3-0.8-2.6-1.1-3.9c-0.3-1.3-0.3-2.7-0.4-4c-0.3-2.6-0.6-5.3-0.9-7.9
			s-0.7-5.3-1.2-7.9c-0.2-1.3-0.5-2.6-0.8-3.9c-0.1-0.6-0.3-1.3-0.5-1.9C375.1,198.2,374.8,197.6,374.5,197z"/>
		<path d="M313.6,91.6c-0.1,0-0.1,0-0.1,0C313.5,91.6,313.5,91.6,313.6,91.6C313.6,91.6,313.6,91.6,313.6,91.6z"/>
		<path d="M306.6,82.6c0,0,0.1,0.1,0.1,0.1l-0.3,0.5c0-0.2,0.1-0.6,0.1-0.7c0,0,0,0.1,0,0.1H306.6z"/>
		<path d="M306.3,82.5l-0.2,0.4C306.1,82.7,306.2,82.5,306.3,82.5z"/>
		<path d="M291.9,153.7c0.5,0.1,1,0.2,1.6,0.3l-0.2,0c-0.4,0-0.7-0.1-1-0.1C292.1,153.8,292,153.8,291.9,153.7z"/>
		<path d="M286.6,152.8C286.6,152.8,286.6,152.8,286.6,152.8l-0.1,0C286.5,152.7,286.6,152.7,286.6,152.8z"/>
		<path d="M265,148.1c-1.1,0.8-2.1,1.8-3,2.8c-0.8,0.9-1.6,1.9-2.3,3l0-0.5c1.5-2,3.3-3.8,5.2-5.4c2.1-1.7,4.7-3.2,7.6-3.2
			c1.4,0,2.8,0.3,4.2,0.8c1.3,0.5,2.6,1.1,3.7,1.9c2.3,1.5,4.4,3.3,6.2,5.4c0,0-0.1,0-0.1,0l0.2,0.1c0,0-0.1-0.1-0.1-0.1
			c1.8,0.3,3.5,0.6,5.3,0.9c0.1,0.1,0.2,0.1,0.3,0.2c-2-0.2-4-0.4-6-0.6h-0.1l-0.1-0.1c-1.9-2-4-3.7-6.3-5.1
			c-2.2-1.5-4.8-2.4-7.4-2.7C269.7,145.4,267.1,146.4,265,148.1z"/>
		<path d="M259.7,153.3l0,0.5c0,0-0.1,0.1-0.1,0.2l-0.3-0.1C259.4,153.7,259.5,153.5,259.7,153.3z"/>
		<path d="M259.6,154c0,0,0.1-0.1,0.1-0.2v0.2L259.6,154z"/>
		<path d="M259.3,152.4L259.3,152.4c0,0.1-0.1,0.2-0.2,0.3l0-0.2C259.1,152.5,259.2,152.4,259.3,152.4z"/>
		<path d="M256.9,135.9v0.1C256.9,136,256.9,135.9,256.9,135.9c0.5,1.5,1,2.9,1.5,4.4c0.5,1.5,0.9,3,1.2,4.5
			c0.2,0.8,0.3,1.6,0.3,2.4l0,2.3l-0.1,3.9c-0.1,0.2-0.3,0.4-0.5,0.6l0.3,0.1c0,0,0,0.1-0.1,0.1l-0.4,0.6V154l0-1.3
			c0.1-0.1,0.2-0.2,0.2-0.2l-0.1-0.1c-0.1,0.1-0.1,0.1-0.2,0.1l-0.1-3.2v-2.3c0-0.7-0.2-1.5-0.3-2.2c-0.7-3-1.7-5.9-2.8-8.7V136v0
			c0.3-4.1,0.4-8.3,0.5-12.5c0.1-2.1,0.1-4.2,0.1-6.2c0-2.1,0-4.2-0.2-6.2h0.1c0.3,2.1,0.5,4.2,0.6,6.2c0.1,2.1,0.2,4.2,0.2,6.3
			C257.3,127.7,257.1,131.8,256.9,135.9C256.9,135.9,256.9,135.9,256.9,135.9z"/>
		<path d="M256.9,135.9C256.9,135.9,256.9,135.9,256.9,135.9c0,0.1,0,0.1,0,0.1V135.9z"/>
		<path d="M344.3,164.4H343c-0.2,0-0.4,0-0.5-0.1c-0.3-0.1-0.6-0.3-0.9-0.5l-0.5-0.7c-1.4-1.6-2.9-3.2-4.5-4.7
			c-0.8-0.8-1.6-1.5-2.4-2.2l-1.2-1l-0.6-0.5c-0.2-0.1-0.3-0.2-0.5-0.2l-13,0.3c-4.4,0.1-8.7,0.1-13,0.1c-2.2,0-4.4,0-6.5-0.1
			c-1.1,0-2.2-0.1-3.3-0.1c-0.5,0-1.1-0.1-1.6-0.1l-0.8-0.1c-0.4,0-0.7-0.2-1-0.4c-0.1-0.1-0.3-0.2-0.4-0.3c0.3,0,0.7,0.1,1,0.1
			l0.2,0c-0.5-0.1-1-0.2-1.6-0.3c-3.5-2.3-6.4-5.3-8.6-8.8c-0.6-0.9-1.1-1.9-1.5-2.9c-0.2-0.5-0.4-1-0.6-1.5
			c-0.1-0.3-0.2-0.5-0.3-0.8l-0.1-0.4c0-0.1-0.1-0.2-0.1-0.3l-2.3-6.1l-2.4-6.1c-0.1-0.3-0.2-0.6-0.2-0.9l-0.1-0.8
			c0-0.5-0.1-1.1-0.1-1.6c-0.1-1.1-0.3-2.2-0.4-3.2c-0.6-4.3-1.2-8.6-1.9-12.9c-1.4-8.6-2.8-17.2-4.3-25.7l-0.6-3.2l-0.3-1.6
			l-0.1-0.8c0-0.2-0.1-0.4-0.2-0.6c-0.1-0.2-0.3-0.3-0.5-0.4l-0.7-0.4l-1.4-0.9l-2.7-1.8c-1.8-1.2-3.6-2.4-5.3-3.8
			c-0.4-0.3-0.9-0.7-1.3-1l-0.6-0.6c-0.2-0.2-0.4-0.5-0.5-0.8c-0.3-1.1-0.5-2.2-0.6-3.3c-0.1-2.2,0.1-4.4,0.7-6.5
			c0.3-1.1,0.7-2.1,1.3-3.1c0.3-0.5,0.6-0.9,1-1.3c0.5-0.5,1.2-0.7,1.9-0.4c1,0.4,2,0.5,3.1,0.3c1-0.3,1.9-0.9,2.5-1.7
			c1.2-1.8,1.9-3.9,2.2-6c0.6-4.3,0.8-8.7,0.5-13c0-0.3,0-0.5-0.1-0.8c-0.1-0.2-0.3-0.5-0.4-0.7c-0.1-0.2-0.3-0.5-0.3-0.7
			c-0.1-0.3-0.2-0.5-0.3-0.8c-0.3-1-0.5-2.1-0.5-3.2c-0.1-2.2,0.2-4.4,0.7-6.5h0.1c-0.5,2.1-0.7,4.3-0.6,6.5c0,1.1,0.2,2.1,0.5,3.2
			c0.1,0.3,0.2,0.5,0.3,0.8c0.1,0.3,0.2,0.5,0.3,0.7c0.1,0.2,0.3,0.5,0.4,0.7c0.1,0.3,0.2,0.6,0.2,0.8c0.3,4.3,0.2,8.7-0.4,13
			c-0.3,2.2-1,4.3-2.2,6.2c-0.6,1-1.6,1.6-2.7,1.9c-1.1,0.2-2.3,0.1-3.3-0.3c-0.4-0.2-0.9-0.1-1.3,0.3c-0.4,0.4-0.7,0.8-0.9,1.2
			c-0.5,0.9-0.9,1.9-1.2,3c-0.6,2.1-0.8,4.2-0.6,6.4c0.1,1.1,0.3,2.1,0.6,3.1c0.1,0.2,0.2,0.4,0.3,0.6l0.6,0.5
			c0.4,0.3,0.8,0.7,1.3,1c1.7,1.3,3.5,2.5,5.3,3.7l2.7,1.9l1.4,0.9l0.7,0.4c0.3,0.2,0.5,0.4,0.7,0.6c0.2,0.3,0.3,0.6,0.3,0.9
			l0.1,0.8l0.3,1.6l0.6,3.2c1.5,8.6,3,17.1,4.4,25.7c0.7,4.3,1.4,8.6,2,12.9c0.1,1.1,0.3,2.2,0.4,3.2c0.1,0.5,0.1,1.1,0.1,1.6
			l0.1,0.8c0,0.2,0.1,0.4,0.2,0.6l2.3,6.1l2.4,6.1c0.1,0.1,0.1,0.2,0.2,0.4l0.1,0.4c0.1,0.3,0.2,0.5,0.2,0.8c0.2,0.5,0.4,1,0.6,1.5
			c0.4,1,0.9,1.9,1.5,2.8c2.3,3.7,5.3,6.7,9,9c0.2,0.1,0.3,0.2,0.5,0.2l0.8,0.1c0.5,0.1,1.1,0.1,1.6,0.1c1.1,0.1,2.2,0.1,3.3,0.1
			c2.2,0.1,4.3,0.1,6.5,0.1c4.3,0,8.7,0,13-0.1l13.1-0.3c0.4,0,0.7,0.2,1,0.4c0.3,0.2,0.4,0.4,0.6,0.6l1.2,1.1
			c0.8,0.7,1.6,1.5,2.4,2.2c1.6,1.5,3.1,3.1,4.5,4.7l0.5,0.6c0.1,0.1,0.3,0.3,0.5,0.3c0.1,0,0.2,0,0.3,0h0.4h0.8l3.3-0.1l6.5-0.1
			l13-0.2c8.7-0.1,17.4-0.2,26.1-0.2c8.7,0,17.4,0.1,26.1,0.7c2.2,0.1,4.3,0.3,6.5,0.6l1.6,0.3l0.8,0.1h0.4h0.4
			c1.1,0.1,2.2,0.2,3.2,0.2c4.3,0.1,8.6-0.1,12.9-0.7l1.6-0.2l0.8-0.1c0.3-0.1,0.6-0.1,0.9-0.1c0.3,0,0.6,0.1,0.9,0.2l0.8,0.2
			l1.6,0.4c2.1,0.6,4.2,1.3,6.2,2c0.5,0.2,1,0.4,1.5,0.6l0.7,0.3c0.2,0.1,0.5,0.1,0.7,0.1c1-0.1,2.1-0.3,3.2-0.4
			c2.1-0.3,4.3-0.7,6.4-1.1c8.5-1.6,17-3.3,25.5-5.3c8.5-2,16.9-4.1,25.2-6.5c4.2-1.2,8.3-2.5,12.4-4c2-0.8,4.1-1.5,6-2.5l0.9-0.4
			c-1.4,0.7-2.8,1.4-4.1,2.2c-0.9,0.3-1.8,0.7-2.7,1c-4.1,1.5-8.2,2.9-12.4,4.1c-8.3,2.5-16.8,4.6-25.2,6.6c-8.5,2-17,3.8-25.5,5.4
			c-2.1,0.4-4.3,0.8-6.4,1.1c-1.1,0.2-2.1,0.3-3.3,0.5c-0.3,0-0.6-0.1-0.9-0.2l-0.8-0.3c-0.5-0.2-1-0.4-1.5-0.6
			c-2-0.8-4.1-1.4-6.2-2l-1.6-0.4l-0.8-0.2c-0.2-0.1-0.5-0.1-0.7-0.2c-0.3,0-0.5,0-0.7,0.1l-0.8,0.1l-1.6,0.3
			c-4.3,0.6-8.7,0.9-13.1,0.8c-1.1,0-2.2-0.1-3.3-0.2h-0.4l-0.5-0.1l-0.8-0.1l-1.6-0.3c-2.1-0.2-4.3-0.4-6.5-0.5
			c-8.7-0.5-17.4-0.5-26-0.6c-8.6,0-17.4,0.1-26,0.2l-13,0.2l-6.5,0.1L344.3,164.4z"/>
		<path d="M254.1,159.6l-0.2,0.2c0-0.1,0.1-0.1,0.1-0.1C254,159.6,254.1,159.6,254.1,159.6z"/>
		<path d="M256.3,155.9c0.4-0.6,0.9-1.3,1.4-1.9c0.4-0.6,0.9-1,1.5-1.5l0,0.2c-0.5,0.4-0.9,0.9-1.2,1.5c-0.4,0.6-0.8,1.3-1.2,1.9
			c-0.7,1.3-1.4,2.7-2.1,4l-0.1,0.1l-0.1,0.1c-2.2,0.9-4.6,1.6-7,1.9c-1.2,0.2-2.5,0.2-3.7,0.1c-1.2-0.1-2.4-0.3-3.6-0.6
			c-0.6-0.2-1.2-0.4-1.7-0.7c-0.6-0.3-1.1-0.6-1.6-1c-1-0.8-1.7-1.6-2.7-2.4c-1.9-1.5-3.8-2.8-5.9-4.1c-4.1-2.5-8.5-4.5-12.7-6.6
			c-4.2-2.1-8.4-4.3-12.6-6.6c0,0,0-0.1,0-0.1c4.4,1.7,8.7,3.8,13,5.9c2.1,1.1,4.2,2.3,6.3,3.5l3.1,1.8c1,0.6,2.1,1.2,3.1,1.8
			c2.1,1.2,4.2,2.4,6.1,3.8c0.5,0.3,1,0.7,1.4,1.1c0.5,0.4,0.9,0.8,1.4,1.1c0.4,0.4,0.9,0.7,1.4,0.9c0.5,0.3,1,0.5,1.6,0.6
			c2.3,0.6,4.6,0.7,6.9,0.4c2.3-0.3,4.6-0.8,6.7-1.6c0,0.1-0.1,0.1-0.1,0.1l0.2-0.2c0,0-0.1,0-0.1,0
			C254.7,158.4,255.4,157.1,256.3,155.9z"/>
		<path d="M243.2,164.7L243.2,164.7c0.1,0,0.2,0,0.3,0c1,0.1,1.9,0.2,2.9,0.4c1,0.2,2,0.5,2.9,0.9v0.1c-1-0.2-2-0.4-3-0.5
			c-1-0.1-1.9-0.2-2.9-0.1h0c-1.9,0.4-3.7,0.7-5.6,0.9c-1.9,0.2-3.8,0.2-5.7,0c-1-0.1-2-0.4-2.9-0.9c-0.8-0.5-1.6-0.9-2.4-1.3
			c-1.7-0.8-3.4-1.6-5.2-2.3c-3.5-1.5-7.1-2.4-10.7-3.7c-3.5-1.2-6.9-2.5-10.3-4c0,0,0,0,0.1-0.1c0,0,0,0,0.1-0.1
			c3.5,0.9,7,2.1,10.4,3.3c3.6,1.3,6.9,2.9,10.5,4.2c1.8,0.7,3.6,1.2,5.3,1.9c0.9,0.3,1.8,0.7,2.6,1.2c0.8,0.4,1.6,0.6,2.5,0.6
			c1.9,0.1,3.7,0.1,5.5-0.1C239.5,165.1,241.4,164.9,243.2,164.7z"/>
		<polygon points="204.5,183 204.4,183.3 204.2,183.3 		"/>
		<path d="M202.9,140.3c0,0.1,0,0.1,0,0.1c0,0-0.1-0.1-0.1-0.1l0-0.1C202.8,140.3,202.9,140.3,202.9,140.3z"/>
		<path d="M200.7,154.1C200.6,154.1,200.6,154.1,200.7,154.1c-0.1,0.1-0.1,0.1-0.1,0.1c-0.1,0-0.2-0.1-0.3-0.1l0-0.1
			C200.4,154,200.5,154.1,200.7,154.1z"/>
		<path d="M191.6,220.2l0.1-0.3c0,0,0,0.1,0,0.1C191.6,220.1,191.6,220.1,191.6,220.2z"/>
		<path d="M313.7,91.7L313.7,91.7C313.7,91.6,313.7,91.7,313.7,91.7z M560.3,48.7c-3.4,1.8-6.4,4.1-9.1,6.8c-2.7,2.7-4.7,5.9-6,9.5
			c-1.2,3.6-1.5,7.4-0.8,11.2c0.6,3.8,2.4,7.2,3.9,10.7c0.2,0.5,0.5,1.1,0.7,1.6c-0.1-0.1-0.1-0.2-0.2-0.3c0,0,0,0,0-0.1v0
			c0,0,0,0,0,0c0.2,0.8,0.5,1.6,1,2.2c2.6,5.9,5,11.8,7.3,17.8c1.4,3.6,2.7,7.2,3.8,10.8c0.6,1.8,1.2,3.7,1.7,5.5
			c0.3,0.9,0.5,1.8,0.8,2.8c0.2,0.6,0.1,1.2-0.3,1.6c-0.3,0.4-0.5,0.8-0.8,1.2c-2.3,3.1-4.8,6.1-7.5,8.8c-0.2,0.2-0.5,0.3-0.8,0.4
			c-0.3,0-0.5,0-0.8,0l-1.4-0.1l-2.9-0.1c-1.9,0-3.8-0.1-5.7,0c-1.9,0.1-3.8,0.1-5.7,0.3c-0.9,0.1-1.9,0.2-2.8,0.4l-0.3,0.1
			c-0.1,0-0.3,0.1-0.5,0.1c-0.3,0-0.6-0.1-0.9-0.2c-0.3-0.1-0.5-0.3-0.7-0.5c-0.1-0.2-0.3-0.3-0.5-0.5c-1.5-1.2-3-2.3-4.7-3.2
			l-1.2-0.7c-0.2-0.1-0.4-0.2-0.6-0.3c-0.2-0.1-0.3-0.1-0.5-0.1c-0.4,0-0.7,0.2-0.9,0.5c-0.2,0.3-0.2,0.6-0.3,1.2
			c-0.1,1-0.3,2-0.7,2.9c-0.4,1-1.2,1.8-2.2,2.2c-0.3,0.1-0.6,0.2-0.9,0.1l-0.7-0.1c-0.5,0-0.9,0-1.4,0c-0.9,0.1-1.9,0.2-2.8,0.3
			c-1.9,0.4-3.7,0.8-5.5,1.4c-0.5,0.2-0.9,0.3-1.4,0.5l-1.4,0.3c-0.9,0.2-1.9,0.4-2.8,0.6c-3.8,0.8-7.6,1.2-11.5,1.2
			c-1,0-2-0.2-2.9-0.5c-0.3,0-0.5-0.1-0.8-0.3c-0.3-0.2-0.5-0.4-0.6-0.6c-0.2-0.3-0.3-0.6-0.3-0.9c0-0.3,0-0.5,0-0.8v-5.8
			c0-3.8,0.1-7.7,0.2-11.5c0.1-1.9,0.2-3.8,0.3-5.8c0.1-1,0.2-1.9,0.3-2.9s0.5-1.9,0.6-2.8c0.2-0.9,0.2-1.8,0.1-2.7
			c-0.1-0.8-0.6-1.6-1.3-2.1c-0.8-0.4-1.6-0.6-2.5-0.6c-0.4,0-0.8,0-1.2,0.2c-0.2,0.1-0.4,0.2-0.5,0.3c-0.2,0.1-0.3,0.3-0.5,0.4
			c-1.2,1.4-2,3.1-2.2,4.9c-0.3,1.9-0.1,3.7,0.5,5.5c0,0.2,0,0.3,0,0.4v0.4v0.7l-0.1,1.4l-0.1,2.9l-0.4,5.7
			c-0.1,1.9-0.3,3.8-0.5,5.7l-0.3,2.9l-0.2,1.4l-0.1,0.7c0,0.3-0.1,0.6-0.2,0.8c-0.3,0.5-0.8,0.9-1.5,1c-0.3,0.1-0.6,0.1-0.9,0
			l-0.7-0.1c-0.9-0.1-1.9-0.2-2.8-0.3c-0.9-0.1-1.9-0.1-2.8-0.1h-1.4c-0.6,0-1.2-0.3-1.6-0.8c-0.2-0.3-0.3-0.5-0.4-0.8
			c-0.1-0.3,0-0.5-0.1-0.8l-0.1-1.4l-0.1-2.9c-0.1-1.9-0.1-3.9,0-5.8c0-0.5,0-1,0.1-1.5c0-0.3,0-0.5,0.1-0.7l0.1-0.4
			c0-0.1,0.1-0.3,0.2-0.4c0.1-0.1,0.2-0.3,0.3-0.4c0.1-0.1,0.1-0.2,0.2-0.3c0.1-0.2,0.2-0.4,0.3-0.5c0.1-0.4,0.3-0.9,0.3-1.3
			c0.3-1.9,0.3-3.8,0.2-5.6c-0.1-1.9-0.4-3.7-1-5.6c-0.4-1.8-1.3-3.4-2.6-4.7c-0.2-0.2-0.6-0.2-1.1-0.2h-1.4c-0.3,0-0.7,0.2-0.9,0.5
			c-0.2,0.3-0.3,0.7-0.2,1.1l0.2,5.8c0.1,3.8,0.2,7.7,0.2,11.5c0,1.9,0,3.8-0.1,5.8c0,1-0.1,2-0.3,3c-0.4,0.8-0.6,1.7-0.8,2.6
			l-0.1,0.7v0.4c0,0.1-0.1,0.3-0.1,0.4c-0.2,0.6-0.7,1.1-1.3,1.2c-0.3,0.1-0.6,0.1-0.8,0.1h-2.9c-1-0.1-1.8-0.8-1.9-1.8l-0.1-2.9
			l-0.5-11.5l-0.2-5.7l-0.1-2.9c0-0.5-0.1-0.9,0-1.5c0-0.3,0.1-0.5,0.2-0.8c0.1-0.2,0.1-0.4,0.1-0.7c0.3-1.9,0.4-3.8,0.3-5.6
			c0-1.9-0.1-3.8-0.4-5.7c-0.2-1.9-0.6-3.7-1.2-5.5c-0.6-1.8-1.6-3.4-3-4.6c-0.4-0.4-1.1-0.5-1.6,0c-0.1,0.1-0.1,0.1-0.2,0.2
			c-0.1,0.2-0.1,0.3-0.1,0.5l-0.1,0.7c-0.1,0.5-0.1,0.9-0.1,1.4c-0.1,1.9-0.2,3.8-0.3,5.7c-0.1,3.8-0.1,7.6-0.1,11.5
			c0,7.7,0.1,15.3,0.2,23v2.2c0,1-0.7,1.8-1.7,2c-0.3,0-0.5,0-0.8,0h-0.7l-5.7,0.1l-11.5,0.3l-23,0.6c-15.3,0.4-30.6,0.9-45.9,1.4
			c-15.3,0.5-30.6,1.1-45.9,1.9c-3.8,0.2-7.6,0.4-11.4,0.7c-1.9,0.1-3.8,0.3-5.7,0.5l-2.9,0.3c-0.6,0.1-1.3-0.2-1.7-0.6
			c-0.4-0.5-0.6-1.1-0.5-1.7c0.9-3.7,1.2-7.5,0.9-11.3c-0.1-0.9-0.3-1.8-0.6-2.7c-0.2-0.5-0.4-0.9-0.6-1.4c-0.1-0.3-0.1-0.6,0-0.9
			c0.1-0.3,0.2-0.6,0.4-0.8c1.1-1.6,2.4-3.1,3.8-4.4c0.7-0.7,1.5-1.3,2.4-1.8c0.9-0.5,1.9-0.9,3-1c0.3,0,0.6,0.1,0.9,0.2
			c0.1,0.1,0.3,0.2,0.4,0.3l0.3,0.2c0.4,0.3,0.7,0.5,1.1,0.8c0.8,0.5,1.6,0.8,2.5,1c0.9,0.2,1.7,0.1,1.9-0.5
			c0.2-0.8,0.1-1.7-0.2-2.5c-0.1-0.4-0.3-0.9-0.5-1.3l-0.1-0.3l-0.1-0.2c-0.1-0.1-0.1-0.2-0.2-0.2l-0.3-0.3
			c-0.7-0.7-1.3-1.5-1.9-2.3c-0.3-0.4-0.6-0.8-0.8-1.2l-0.4-0.6c-0.2-0.3-0.3-0.5-0.4-0.8c-0.1-0.6,0.1-1.3,0.5-1.8
			c0.2-0.2,0.5-0.4,0.8-0.5c0.3-0.1,0.5-0.1,0.7-0.2c0.8-0.3,1.6-0.8,2.1-1.4c0.1-0.2,0.3-0.3,0.4-0.5c0.2-0.3,0.4-0.5,0.7-0.6
			c0.3-0.2,0.6-0.2,0.9-0.3c0.3,0,0.5,0,0.8,0.1c1.9,0.3,3.9,0.8,5.7,1.5c0.9,0.4,1.8,0.8,2.6,1.4c0.2,0.1,0.4,0.3,0.6,0.4
			c0.1,0.1,0.3,0.2,0.5,0.3c0.3,0.1,0.6,0,0.9-0.2c0.6-0.6,0.9-1.4,0.9-2.2c0-0.9-0.2-1.8-0.7-2.5c-0.4-0.8-1-1.5-1.7-2.1l-2-2
			l-4-4.1l-2-2l-1-1l-0.5-0.5c-0.2-0.2-0.4-0.4-0.5-0.7c-0.1-0.2-0.1-0.5,0-0.7c0.1-0.2,0.2-0.4,0.4-0.5c0.2-0.2,0.5-0.3,0.8-0.4
			c0.5-0.1,1-0.2,1.5-0.3c1-0.1,2,0,3,0.2c0.3,0,0.5,0.1,0.8,0.2c0.1,0,0.3,0.1,0.4,0.2c0,0,0.1,0,0.1,0.1c0,0,0,0,0,0.1
			c0,0,0.1,0,0.1,0c0,0-0.1,0-0.1-0.1c0,0,0.1-0.1,0.1-0.1c0.1-0.2,0.2-0.3,0.3-0.5c0.4-0.8,0.6-1.7,0.6-2.6c0-0.9-0.2-1.7-0.7-2.4
			c-0.5-0.7-1.3-1.2-2.1-1.3c-0.9-0.2-1.9-0.3-2.8-0.5l-1.4-0.3l-0.7-0.1l-0.4-0.1l-0.2-0.1l0-0.1c0,0,0.1-0.1,0.1-0.2l0.3-0.5
			c0-0.1-0.1-0.1-0.1-0.1h0l0.3,0.1l0.7,0.1l1.4,0.3c1,0.2,1.8,0.3,2.9,0.5c1,0.2,2,0.8,2.6,1.7c0.6,0.9,0.9,1.9,0.9,3
			c0,1-0.2,2.1-0.6,3c-0.1,0.3-0.3,0.5-0.4,0.7c-0.1,0.1-0.2,0.3-0.4,0.4c-0.2,0.2-0.5,0.2-0.8,0.1c-0.1-0.1-0.2-0.1-0.3-0.2h-0.1
			c-0.1-0.1-0.2-0.1-0.3-0.1c-0.2-0.1-0.4-0.1-0.6-0.2c-0.9-0.2-1.8-0.2-2.7-0.1c-0.4,0-0.9,0.1-1.3,0.2c-0.2,0-0.3,0.1-0.5,0.2
			c0,0,0,0,0,0c0,0,0,0,0,0.1c0.3,0.3,0.5,0.6,0.8,0.9l1,1l2,2l4.1,4.1l2,2c0.7,0.7,1.4,1.5,1.8,2.4c0.5,0.9,0.8,2,0.8,3
			c0,1.1-0.4,2.2-1.3,2.9c-0.5,0.4-1.2,0.6-1.8,0.4c-0.3-0.1-0.6-0.2-0.8-0.4c-0.2-0.1-0.4-0.3-0.6-0.4c-0.8-0.5-1.6-0.9-2.5-1.3
			c-1.7-0.7-3.5-1.2-5.4-1.4c-0.5-0.1-0.8-0.1-1.1,0.1c-0.2,0.1-0.3,0.2-0.4,0.3c-0.1,0.2-0.3,0.4-0.5,0.6c-0.7,0.8-1.6,1.4-2.6,1.7
			c-0.2,0.1-0.6,0.1-0.7,0.2c-0.1,0-0.3,0.1-0.4,0.3c-0.2,0.3-0.3,0.6-0.3,0.9c0,0.2,0.1,0.3,0.2,0.5l0.4,0.6
			c0.3,0.4,0.5,0.8,0.8,1.2c0.5,0.8,1.1,1.5,1.8,2.2c0.2,0.2,0.4,0.4,0.5,0.6c0.1,0.1,0.2,0.3,0.3,0.4l0.2,0.3
			c0.2,0.4,0.4,0.9,0.6,1.4c0.2,0.5,0.3,1,0.4,1.5c0.1,0.6,0,1.1-0.1,1.7c-0.3,0.6-0.8,1-1.4,1.2c-0.5,0.1-1.1,0.1-1.6,0
			c-1-0.2-1.9-0.6-2.8-1.1c-0.4-0.3-0.8-0.5-1.2-0.8l-0.3-0.2c-0.1-0.1-0.1-0.1-0.2-0.1c-0.1-0.1-0.3-0.1-0.5-0.1
			c-0.2,0-0.4,0.1-0.6,0.1c-0.2,0.1-0.4,0.1-0.6,0.2c-0.4,0.2-0.8,0.3-1.2,0.6c-0.8,0.5-1.5,1-2.2,1.6c-1.4,1.3-2.6,2.7-3.7,4.2
			c-0.1,0.1-0.2,0.3-0.3,0.5c0,0.2,0,0.3,0,0.5c0,0.3,0.4,0.8,0.5,1.3c0.3,0.9,0.5,1.9,0.6,2.9c0.3,3.9,0,7.8-0.9,11.5
			c-0.1,0.6,0.3,1.1,0.9,1.2c0.1,0,0.2,0,0.3,0l2.9-0.3c1.9-0.2,3.8-0.3,5.7-0.5c3.8-0.3,7.6-0.5,11.5-0.7
			c15.3-0.8,30.6-1.3,45.9-1.8c15.3-0.5,30.6-0.9,45.9-1.3l23-0.6l11.5-0.3l5.7-0.1h0.7c0.2,0,0.4,0,0.6,0c0.3-0.1,0.6-0.3,0.8-0.6
			c0.1-0.1,0.1-0.3,0.1-0.5v-2.1c-0.1-7.6-0.2-15.3-0.2-23c0-3.8,0-7.7,0.1-11.5c0.1-1.9,0.1-3.8,0.3-5.8c0-0.5,0.1-1,0.1-1.4
			l0.1-0.7c0-0.3,0.1-0.6,0.3-0.8c0.3-0.6,0.9-0.9,1.5-1c0.6-0.1,1.2,0.1,1.7,0.5c1.5,1.3,2.6,3.1,3.1,5c0.6,1.8,1,3.8,1.3,5.7
			c0.3,1.9,0.4,3.8,0.4,5.8c0,1.9-0.1,3.9-0.3,5.8c0,0.3-0.1,0.5-0.2,0.8c-0.1,0.2-0.1,0.4-0.2,0.6v1.4l0.1,2.9l0.2,5.7l0.4,11.5
			l0.1,2.8c0,0.3,0.3,0.6,0.5,0.8c0.1,0.1,0.3,0.1,0.5,0.1h2.1c0.4,0,0.9,0,1.3-0.1c0.3-0.1,0.6-0.3,0.7-0.7c0-0.1,0.1-0.2,0.1-0.2
			v-0.4l0.1-0.7c0.1-0.5,0.2-1,0.3-1.5c0.1-0.2,0.1-0.5,0.3-0.7l0.1-0.4c0.1-0.1,0.1-0.2,0.1-0.3c0.2-0.9,0.3-1.8,0.3-2.7
			c0.1-1.9,0.1-3.8,0.1-5.7c0-3.8-0.1-7.7-0.2-11.5l-0.2-5.7c0-0.3,0-0.5,0-0.8c0-0.3,0.2-0.6,0.4-0.9c0.4-0.5,0.9-0.8,1.6-0.8h1.5
			c0.3,0,0.4,0,0.8,0c0.3,0,0.6,0.1,0.9,0.3c1.5,1.4,2.5,3.2,3,5.1c0.5,1.9,0.9,3.8,1,5.8c0.2,1.9,0.1,3.9-0.2,5.8
			c-0.1,0.5-0.2,1-0.3,1.5c-0.1,0.3-0.2,0.5-0.3,0.8c-0.1,0.1-0.1,0.2-0.2,0.3c0,0.1-0.1,0.1-0.1,0.2c0,0.1-0.1,0.2-0.1,0.2v0.3
			c-0.1,0.2-0.1,0.5-0.1,0.7c-0.1,0.5-0.1,0.9-0.1,1.4c-0.1,1.9,0,3.8,0,5.7l0.1,2.9l0.1,1.4c0,0.5,0,0.8,0.3,1.1
			c0.2,0.3,0.5,0.4,0.9,0.4h1.4c1,0,1.9,0.1,2.9,0.1s1.9,0.1,2.9,0.3l0.7,0.1c0.2,0,0.4,0,0.6,0c0.3-0.1,0.6-0.3,0.8-0.6
			c0.1-0.4,0.2-0.8,0.2-1.3l0.2-1.4l0.3-2.8c0.2-1.9,0.3-3.8,0.5-5.7l0.4-5.7l0.1-2.9l0.1-1.4v-0.7v-0.3c0-0.1,0-0.2,0-0.3
			c-0.6-1.9-0.7-3.9-0.5-5.8c0.2-2,1.1-3.9,2.4-5.4c0.2-0.2,0.4-0.4,0.6-0.5c0.2-0.2,0.5-0.3,0.7-0.4c0.3-0.1,0.5-0.2,0.8-0.2h0.4
			h0.4c1.1,0,2.1,0.2,3,0.7c0.9,0.6,1.5,1.6,1.7,2.7c0.1,1,0.1,2-0.1,3c-0.1,1-0.5,1.9-0.6,2.8c-0.1,0.9-0.2,1.9-0.3,2.8
			c-0.2,1.9-0.3,3.8-0.3,5.7c-0.1,3.8-0.2,7.7-0.3,11.5v5.7c0,0.2,0,0.5,0,0.7c0,0.2,0.1,0.3,0.2,0.5c0.2,0.3,0.6,0.5,0.9,0.6
			c0.9,0.3,1.8,0.4,2.7,0.4c3.8,0,7.6-0.4,11.3-1.1c0.9-0.2,1.9-0.4,2.8-0.6l1.4-0.3c0.4-0.1,0.9-0.3,1.3-0.4
			c1.8-0.6,3.7-1.1,5.6-1.5c1-0.2,1.9-0.3,2.9-0.3c0.5,0,1,0,1.5,0l0.7,0.1c0.2,0,0.4,0,0.5-0.1c0.8-0.3,1.4-1,1.7-1.8
			c0.3-0.8,0.5-1.7,0.6-2.6c0-0.3,0-0.4,0.1-0.8c0.2-0.9,1-1.6,1.9-1.6c0.3,0,0.6,0.1,0.9,0.2l0.6,0.4l1.3,0.7
			c1.7,0.9,3.3,2,4.8,3.3c0.2,0.2,0.4,0.3,0.5,0.5c0.1,0.1,0.3,0.3,0.5,0.4c0.2,0.1,0.3,0.1,0.5,0.1c0.1,0,0.2,0,0.3,0l0.4-0.1
			c1-0.2,1.9-0.4,2.9-0.5c1.9-0.2,3.9-0.2,5.8-0.3s3.8,0,5.8,0.1l2.9,0.1l1.4,0.1c0.2,0,0.4,0,0.6,0c0.2,0,0.3-0.1,0.5-0.2
			c2.7-2.7,5.1-5.6,7.4-8.7c0.3-0.4,0.5-0.8,0.8-1.2c0.2-0.3,0.3-0.7,0.2-1.1c-0.2-0.9-0.5-1.8-0.8-2.8c-0.5-1.8-1.1-3.7-1.7-5.5
			c-1.2-3.6-2.5-7.2-3.8-10.8c-2.7-7.2-5.7-14.2-8.7-21.2c-1.5-3.5-3.3-7-4-10.8c-0.7-3.8-0.4-7.8,0.8-11.5c1.3-3.6,3.5-7,6.2-9.7
			c2.7-2.8,5.8-5.1,9.2-6.9c1.7-0.9,3.5-1.7,5.3-2.3c0.9-0.2,1.8-0.5,2.6-1c0.8-0.5,1.5-1.2,1.9-2c0.9-1.7,1.2-3.5,1.1-5.4
			c-0.1-1.9-0.4-3.8-1-5.6c-0.1-0.3-0.2-0.7-0.2-1c0-0.5,0.1-0.9,0.4-1.4c0.4-0.7,0.9-1.3,1.5-1.7c0.3-0.2,0.8-0.4,1.2-0.3h1.1
			c0.7,0,1.5,0.1,2.2,0.2c0.7,0.1,1.5,0.2,2.2,0.3c0.7,0.1,1.5,0.3,2.2,0.5c1.4,0.4,2.8,0.9,4.1,1.7c2.6,1.4,4.8,3.6,6.1,6.3
			c1.3,2.7,1.9,5.6,1.8,8.6c0,1.5-0.2,2.9-0.5,4.4c-0.2,0.7-0.3,1.4-0.6,2.1c-0.1,0.3-0.3,0.7-0.4,1c-0.1,0.3-0.1,0.6,0.1,0.9
			c0.1,0.3,0.4,0.5,0.6,0.7l0.9,0.6c0.6,0.4,1.2,0.8,1.8,1.4l0.4,0.4l0.4,0.4l0.7,0.8l0.6,0.9l0.3,0.5l0.2,0.5
			c0.7,1.3,1.1,2.8,1.1,4.3c0.1,1.5,0,3-0.3,4.4c-0.3,1.5-0.8,2.9-1.4,4.2c-0.1,0.2-0.2,0.3-0.4,0.5l-0.4,0.3
			c-0.3,0.2-0.5,0.5-0.8,0.7c-0.5,0.5-1,1-1.4,1.6c-0.4,0.6-0.8,1.2-1,1.9c-0.2,0.7-0.6,1.4-1.1,2c-0.9,1.2-1.9,2.3-3.1,3.3
			c-0.5,0.5-1.1,1-1.6,1.5c-0.4,0.5-0.4,1.2,0,1.7c0.1,0.1,0.2,0.2,0.4,0.3c0.1,0.1,0.3,0.2,0.5,0.3c0.3,0.2,0.6,0.5,0.8,0.8
			c0.5,0.6,0.9,1.3,1,2.1c0,0.2,0,0.3,0.1,0.5l0.3,0.5l0.5,1l1,1.9c0.7,1.3,1.3,2.6,1.9,4c0.3,0.7,0.6,1.4,0.8,2
			c0.1,0.3,0.2,0.7,0.3,1c0.1,0.3,0.3,0.6,0.6,0.7c1.1,0.9,2.3,1.8,3.3,2.8c4.3,4,8.2,8.4,11.7,13c3.6,4.6,7,9.4,10.2,14.3
			c1.6,2.4,3.2,4.9,4.7,7.4l1.1,1.9l0.6,0.9c0.5,0.7,0.4,1.6-0.2,2.2c-0.3,0.3-0.6,0.4-0.9,0.7l-1.8,1.3c-4.7,3.4-9.3,7-13.7,10.9
			c-1.1,1-2.1,2-3,3.2c-0.2,0.3-0.4,0.6-0.5,0.9c-0.1,0.3-0.2,0.7-0.2,1c-0.1,0.7-0.1,1.4-0.2,2.2c-0.1,2.9,0,5.8,0.1,8.7
			c0.1,5.8,0.3,11.7,0.4,17.5c0.1,5.8,0.1,11.7,0.1,17.5l-0.1,8.8l-0.1,4.4v2.2c0,0.4-0.1,0.7-0.1,1.1l-0.1,0.6l-0.2,0.5
			c-0.1,0.4-0.2,0.7-0.3,1.1l-0.5,1c-0.1,0.3-0.3,0.6-0.6,0.9l-0.6,0.9c-0.5,0.5-1,1.1-1.5,1.6s-1.1,1-1.7,1.4
			c-2.3,1.8-4.9,3.3-7.5,4.5c-5.3,2.4-10.9,4.3-16.5,5.8c-11.3,3-22.8,5.3-34.3,6.9c-11.5,1.7-23.1,3.1-34.7,4.2
			c-23.2,2.2-46.5,3.6-69.9,4.6c-11.7,0.5-23.3,0.8-35,1.1l-8.8,0.2l-4.4,0c-0.7,0-1.5,0-2.1,0c-0.6,0.1-1,0.6-1.1,1.2
			c0,1.5-0.3,3-0.8,4.4c-0.6,1.4-1.7,2.6-3.1,3.3c-0.6,0.4-1.3,0.7-2,1c-0.4,0.1-0.8,0.1-1.2,0l-1.1-0.2c-4.3-0.6-8.7-0.4-12.9,0.6
			c-1.4,0.3-2.8,0.8-4.1,1.3c-0.3,0.1-0.5,0.3-0.7,0.5c-0.1,0.1-0.1,0.3-0.1,0.4c0,0.1-0.1,0.4-0.1,0.5c-0.2,0.7-0.6,1.4-1.1,2
			c-0.3,0.3-0.5,0.6-0.8,0.8c-0.4,0.3-0.8,0.4-1.2,0.4c-0.7,0.1-1.5,0.1-2.2,0.1c-1.5,0-2.9,0-4.4-0.1l-4.4-0.2
			c-0.7,0-1.5-0.1-2.1-0.1c-0.3,0-0.5,0.1-0.6,0.3c-0.1,0.3-0.2,0.6-0.2,0.9c0,0.3,0.1,0.7,0.1,1c0.1,0.2,0.1,0.4,0.1,0.6
			c0,0.6-0.1,1.2-0.3,1.7c-0.3,0.6-0.9,1.1-1.6,1.2c-0.2,0-0.4,0-0.6,0c-0.3,0-0.5,0.1-0.8,0.3c-0.4,0.4-0.5,1-0.2,1.5
			c0.2,0.3,0.4,0.5,0.7,0.6c0.3,0.2,0.6,0.5,0.9,0.7c0.3,0.3,0.5,0.6,0.7,1c0.2,0.4,0.2,0.9,0.1,1.3c-0.5,1.4-1.1,2.8-1.9,4
			c-0.8,1.3-1.6,2.5-2.4,3.7c-0.4,0.6-1.1,0.9-1.8,0.8c-0.2,0-0.4-0.1-0.6-0.1c-0.7-0.2-1.4-0.4-2.1-0.6l-1-0.2
			c-0.3-0.1-0.7-0.1-1-0.1c-0.3,0-0.5,0.2-0.7,0.4c-0.1,0.1-0.2,0.2-0.3,0.4c-0.1,0.2-0.3,0.3-0.4,0.5c-1.2,1-2.6,1.6-4.1,1.8
			c-1.4,0.3-2.9,0.5-4.4,0.6c-0.7,0.1-1.5,0.1-2.2,0.1h-0.6c-0.2,0-0.3,0-0.4,0.1l-1,0.3c-2.8,0.8-5.7,1.4-8.5,2.1
			c-5.7,1.3-11.4,2.3-17.2,3.2c-11.5,1.8-23.2,3.1-34.8,3.8c-11.7,0.7-23.3,1-35,0.7c-2.9,0-5.8-0.2-8.8-0.3l-4.4-0.2l-1.1,0
			c-0.4,0-0.8-0.1-1.1-0.1l-2.1-0.5c-5.7-1.3-11.4-2.7-17-4.3c-3.5-1.1-7.1-2.2-10.6-3.3c0.1-0.2,0.1-0.5,0.2-0.7
			c3.5,1.2,7,2.3,10.5,3.3c5.6,1.6,11.2,3,16.9,4.3l2.1,0.5c0.3,0.1,0.7,0.1,1,0.1l1.1,0.1l4.4,0.2c2.9,0.1,5.8,0.3,8.7,0.3
			c11.7,0.3,23.3,0.1,34.9-0.6c11.6-0.7,23.2-1.9,34.7-3.7c5.8-0.9,11.5-2,17.2-3.2c2.8-0.6,5.7-1.3,8.5-2.1l1.1-0.3
			c0.2,0,0.4-0.1,0.6-0.1h0.5c0.7,0,1.4-0.1,2.2-0.1c1.4-0.1,2.9-0.3,4.3-0.6c1.4-0.2,2.7-0.8,3.8-1.6l0.3-0.4
			c0.1-0.2,0.2-0.3,0.4-0.5c0.3-0.3,0.7-0.5,1.2-0.6c0.2,0,0.4,0,0.7,0l0.5,0.1l1.1,0.3c0.7,0.2,1.4,0.4,2.1,0.6
			c0.5,0.3,1.2,0.1,1.5-0.4c0.8-1.2,1.6-2.4,2.4-3.6c0.8-1.2,1.4-2.5,1.9-3.8c0.1-0.3,0.1-0.6,0-0.8c-0.1-0.3-0.3-0.5-0.6-0.8
			c-0.3-0.2-0.5-0.5-0.8-0.7c-0.4-0.2-0.7-0.5-0.9-0.8c-0.5-0.8-0.3-1.8,0.4-2.5c0.3-0.3,0.8-0.5,1.2-0.5c0.3,0,0.4,0,0.5,0
			c0.1,0,0.3-0.1,0.4-0.1c0.3-0.1,0.5-0.3,0.6-0.6c0.1-0.3,0.2-0.7,0.2-1c0-0.2,0-0.3,0-0.5c0-0.1,0-0.3-0.1-0.4
			c-0.1-0.4-0.1-0.8-0.2-1.2c0-0.4,0.1-0.9,0.3-1.3c0.3-0.4,0.7-0.7,1.2-0.7c0.8,0,1.5,0.1,2.2,0.1l4.4,0.2c1.5,0.1,2.9,0.1,4.4,0.1
			c0.7,0,1.4,0,2.1-0.1c0.3,0,0.6-0.1,0.8-0.2c0.3-0.3,0.5-0.5,0.7-0.8c0.5-0.5,0.8-1.1,1-1.8c0-0.2,0.1-0.3,0.1-0.5
			c0-0.2,0.1-0.4,0.2-0.6c0.2-0.4,0.6-0.7,1-0.8c1.4-0.5,2.8-1,4.2-1.3c2.9-0.7,5.8-1,8.8-0.9c1.5,0,2.9,0.1,4.4,0.4l1.1,0.2
			c0.3,0.1,0.6,0.1,0.9,0c0.7-0.3,1.3-0.6,1.9-0.9c1.3-0.6,2.3-1.7,2.8-3c0.5-1.3,0.7-2.8,0.7-4.2c0-0.3,0.1-0.7,0.3-0.9
			c0,0,0,0,0,0l0.1,0c0-0.1,0-0.1,0-0.1c0.3-0.4,0.7-0.6,1.2-0.7c0.8,0,1.5,0,2.2,0h4.4l8.7-0.1c11.7-0.2,23.3-0.6,35-1
			c23.3-0.9,46.6-2.3,69.8-4.5c11.6-1.1,23.2-2.4,34.7-4.1c11.5-1.6,23-3.9,34.3-6.8c5.6-1.5,11.1-3.4,16.5-5.8
			c2.7-1.2,5.2-2.7,7.5-4.4c0.6-0.4,1.1-0.9,1.6-1.4s1-1,1.5-1.6l0.6-0.9c0.2-0.3,0.4-0.6,0.6-0.9l0.5-0.9c0.1-0.3,0.2-0.7,0.3-1
			l0.1-0.5l0-0.5c0-0.4,0.1-0.7,0.1-1.1v-2.2l0.1-4.4l0.1-8.7c0-5.8,0-11.7-0.1-17.5c-0.1-5.8-0.3-11.7-0.4-17.5
			c-0.1-2.9-0.1-5.8-0.1-8.8c0-0.6,0-1.2,0.1-1.8c0-0.1,0-0.2,0-0.4c0-0.4,0.1-0.8,0.3-1.1c0.2-0.4,0.4-0.7,0.6-1
			c0.9-1.2,1.9-2.2,3-3.2c4.4-3.9,8.9-7.5,13.7-10.9l1.8-1.3c0.3-0.2,0.6-0.4,0.9-0.6c0.5-0.5,0.5-1.2,0.2-1.8l-0.6-0.9l-1.1-1.8
			c-1.5-2.5-3.1-4.9-4.7-7.4c-3.2-4.8-6.6-9.6-10.2-14.2c-3.5-4.7-7.4-9-11.7-13c-0.1-0.2-0.3-0.3-0.5-0.4c0.2,0,0.3,0.1,0.5,0.2
			l0.1-0.1c-0.3-0.2-0.6-0.3-0.9-0.5c-0.8-0.7-1.7-1.4-2.5-2c-0.3-0.2-0.6-0.6-0.8-0.9c-0.1-0.4-0.2-0.7-0.3-1
			c-0.2-0.7-0.5-1.3-0.8-2c-0.6-1.3-1.2-2.7-1.9-4l-1-1.9l-0.5-1l-0.3-0.5c-0.1-0.2-0.1-0.4-0.2-0.6c-0.1-0.7-0.4-1.3-0.9-1.8
			c-0.2-0.3-0.5-0.5-0.8-0.7c-0.1-0.1-0.3-0.2-0.5-0.3c-0.2-0.1-0.3-0.3-0.5-0.4c-0.6-0.7-0.6-1.6,0-2.3c0.1,0,0.3,0,0.4,0v-0.1
			c-0.1,0-0.2,0-0.2,0c0.5-0.5,1-0.9,1.5-1.4c1.1-0.9,2.1-2,3.1-3.1c0.4-0.6,0.8-1.2,1-1.9c0.3-0.7,0.6-1.4,1.1-2
			c0.4-0.6,0.9-1.2,1.5-1.7c0.3-0.3,0.5-0.5,0.8-0.7l0.4-0.3c0.1-0.1,0.2-0.2,0.3-0.3c0.6-1.3,1.1-2.7,1.4-4.1
			c0.7-2.8,0.4-5.8-0.8-8.4l-0.2-0.5l-0.3-0.4l-0.6-0.9l-0.7-0.8l-0.3-0.4l-0.4-0.3c-0.5-0.5-1.1-0.9-1.7-1.3l-0.9-0.6
			c-0.4-0.2-0.7-0.5-0.8-0.9c-0.2-0.4-0.2-0.8-0.1-1.2c0.1-0.4,0.3-0.7,0.4-1c0.2-0.7,0.4-1.4,0.6-2.1c0.3-1.4,0.5-2.8,0.5-4.3
			c0.1-2.9-0.5-5.8-1.8-8.4c-1.3-2.6-3.3-4.7-5.9-6.1c-1.3-0.7-2.6-1.3-4-1.6c-0.7-0.2-1.4-0.3-2.1-0.5s-1.4-0.2-2.2-0.3
			c-0.7-0.1-1.4-0.1-2.2-0.2h-1.1c-0.3,0-0.6,0-0.9,0.2c-0.6,0.4-1,0.9-1.3,1.5c-0.3,0.6-0.4,1.2-0.2,1.9c0.6,1.8,0.9,3.8,1,5.7
			c0.2,2-0.2,4-1.2,5.7c-0.5,0.9-1.2,1.6-2.1,2.1c-0.9,0.5-1.8,0.8-2.7,1C563.8,47,562,47.8,560.3,48.7z"/>
		<path d="M186.6,149.8c0.1,1.8,0.3,3.7,0.6,5.5c0.3,1.8,0.5,3.7,0.8,5.5l0.5,2.7l0.3,1.4c0,0.4,0.2,0.7,0.5,1
			c0.5,0.4,1.3,0.4,1.7-0.1c0-0.1,0.1-0.1,0.1-0.2l1.1-2.5c0.8-1.7,1.6-3.4,2.7-4.9c1-1.6,2.4-3,4-4.1l0.7-0.4
			c0.1-0.1,0.3-0.2,0.4-0.3c0.1-0.1,0.2-0.3,0.2-0.4l0.2-0.7c0.2-0.9,0.4-1.8,0.6-2.7c0.3-1.8,0.6-3.6,0.8-5.5
			c0.4-3.7,0.8-7.4,1.2-11l0.3-2.8c0.1-0.5,0.1-0.9,0.1-1.4c0.1-0.5,0.3-0.9,0.5-1.3l2-5.2c0.3-0.8-0.1-1.6-0.9-1.9
			c-0.5-0.2-1.1-0.1-1.5,0.3c-0.2,0.2-0.4,0.5-0.6,0.8l-0.5,0.9l-1.1,1.8l-2.1,3.5c-0.8,1.2-1.5,2.3-2.3,3.4
			c-0.6,0.7-0.9,1.4-1.1,2.3c-0.2,0.9-0.4,1.8-0.5,2.7c-0.1,0.9-0.2,1.8-0.2,2.8c0,0.3-0.1,0.5-0.2,0.8l-0.2,0.7
			c-0.2,0.5-0.4,0.9-0.5,1.3c-0.8,1.7-1.8,3.3-3.1,4.7c-0.7,0.7-1.4,1.3-2.2,1.8c-0.4,0.3-0.9,0.4-1.2,0.7
			C186.9,149.1,186.6,149.4,186.6,149.8z M187.4,160.9c-0.4-3.7-1-7.3-1.3-11.1c0.1-0.5,0.4-1,0.8-1.3c0.4-0.2,0.8-0.4,1.2-0.7
			c0.7-0.5,1.4-1.1,2-1.8c1.2-1.4,2.1-2.9,2.8-4.6c0.2-0.4,0.3-0.8,0.5-1.3l0.2-0.6c0.1-0.2,0.1-0.4,0.1-0.6c0-0.9,0.1-1.9,0.2-2.8
			c0.1-0.9,0.3-1.9,0.6-2.8c0.3-1,0.7-1.8,1.4-2.6c1.7-2.1,3.2-4.4,4.8-6.6l1.2-1.7l0.6-0.9c0.2-0.3,0.4-0.6,0.6-0.8
			c0.6-0.4,1.4-0.4,2,0c0.6,0.4,0.9,1.2,0.6,1.9v0l-1.8,5.2c-0.2,0.4-0.3,0.9-0.4,1.3c0,0.4,0,0.9-0.1,1.4l-0.1,2.8
			c-0.1,2.3-0.2,4.7-0.4,7c0,0-0.1,0-0.1,0l0,0.1c0.1,0,0.1,0.1,0.1,0.1c-0.1,1.3-0.2,2.6-0.3,3.9c-0.2,1.8-0.4,3.7-0.8,5.5
			c-0.2,0.9-0.3,1.8-0.6,2.8l-0.2,0.7c-0.1,0.3-0.2,0.5-0.4,0.7c-0.1,0-0.2-0.1-0.4-0.1l0,0.1c0.1,0,0.2,0.1,0.3,0.1
			c-0.2,0.2-0.4,0.4-0.7,0.5l-0.6,0.3c-1.5,0.9-2.8,2.2-3.8,3.7c-1,1.5-1.9,3.1-2.7,4.8l-1.2,2.6c-0.3,0.5-0.8,0.9-1.4,0.9
			c-0.6,0.1-1.1-0.1-1.6-0.5c-0.4-0.4-0.6-0.9-0.7-1.4l-0.2-1.4L187.4,160.9z"/>
		<path d="M184.8,271.7c-0.6,1.3-1.1,2.6-1.5,3.9c-1.8,5.4-3.2,10.9-4.6,16.4c-0.3,2.2-0.7,4.3-1.3,6.4c-0.3-0.1-0.5-0.2-0.8-0.3
			c0.6-2.1,1-4.2,1.3-6.3v-0.1c1.4-5.5,2.9-11,4.6-16.5c0.4-1.4,1-2.7,1.6-4c0.5-1.3,0.9-2.6,1.1-4c0.4-2.8,0.7-5.6,0.7-8.4v-0.1
			v-0.1c0.6-1.5,1.2-3,1.7-4.6c0.5-1.5,0.9-3.1,1.2-4.7c0.1-3.3,0.4-6.6,0.7-9.9l0.8-9.9c0.2-3.3,0.5-6.6,0.6-9.8v-0.1l0.1-0.1
			c1.4-2.5,2.2-5.4,2.4-8.3c0.3-2.9,0.2-5.9,0.2-8.9c0-0.8,0.1-1.6,0.2-2.3c0.1-0.4,0.3-0.8,0.5-1.1l0.6-1l2.3-3.8l4.8-7.5l2-4
			l0.1-0.2h0.3l35-0.6l17.5-0.4c5.8-0.2,11.7-0.2,17.5-0.7v0.1c-5.8,0.6-11.7,0.7-17.5,1c-5.8,0.3-11.7,0.4-17.5,0.6l-34.8,0.8
			l0.1-0.2l-0.3,0.2l0.2,0l-1.9,3.8l-4.7,7.6l-2.3,3.8l-0.6,1c-0.2,0.3-0.3,0.6-0.4,0.9c-0.1,0.7-0.2,1.4-0.2,2.1c0,3,0,6-0.2,9
			c-0.2,3-1,6-2.5,8.6c0-0.1,0-0.1,0-0.1l-0.1,0.3c0-0.1,0.1-0.1,0.1-0.1c-0.1,3.3-0.3,6.5-0.6,9.8l-0.8,9.9
			c-0.3,3.3-0.6,6.5-0.7,9.9c-0.3,1.7-0.7,3.3-1.2,4.9c-0.5,1.6-1.1,3.1-1.8,4.7c0,2.8-0.3,5.6-0.7,8.4
			C185.7,268.9,185.3,270.3,184.8,271.7z"/>
		<path d="M177.3,298.4c-0.1,0.2-0.1,0.5-0.2,0.7c-0.3-0.1-0.5-0.2-0.8-0.3c0.1-0.2,0.1-0.5,0.2-0.7
			C176.7,298.2,177,298.3,177.3,298.4z"/>
		<path d="M176.5,298.1c-0.1,0.2-0.1,0.5-0.2,0.7c-3.6-1.2-7.1-2.4-10.6-3.7c0.2-0.2,0.4-0.4,0.5-0.6
			C169.6,295.8,173,297,176.5,298.1z"/>
		<path d="M168.3,168.1L168.3,168.1c0,0.2-0.1,0.3-0.2,0.4c0-0.1-0.1-0.1-0.1-0.2C168.1,168.1,168.2,168.1,168.3,168.1z"/>
		<path d="M167.5,285.8c0,0.1,0,0.1-0.1,0.1l-0.1-0.2C167.4,285.7,167.4,285.8,167.5,285.8z"/>
		<path d="M165.8,294.4c0.1,0.1,0.3,0.1,0.4,0.2c-0.2,0.2-0.4,0.4-0.5,0.6c-0.1-0.1-0.3-0.1-0.4-0.1
			C165.4,294.8,165.6,294.6,165.8,294.4z"/>
		<path d="M161.4,309.5l-0.5,0.2c0.1-0.1,0.1-0.2,0.2-0.3C161.2,309.4,161.3,309.5,161.4,309.5z"/>
		<path d="M169.1,287.3c0.4,0.7,0.6,1.5,0.4,2.3c-0.2,0.8-0.5,1.5-1,2.1c-0.5,0.6-0.9,1.2-1.4,1.8c-0.3,0.3-0.6,0.6-0.8,0.9
			c-0.1-0.1-0.3-0.1-0.4-0.2c0.3-0.3,0.6-0.6,0.9-0.9c1.1-1,1.9-2.4,2.4-3.8c0.1-0.7,0-1.5-0.4-2.1c-0.4-0.6-0.9-1.1-1.6-1.5
			l-0.1-0.1l0.1-0.1c0.3-0.6,0.5-1.2,0.7-1.8c0.1-0.3,0.2-0.6,0.2-0.9c0-0.1,0-0.3,0-0.4c-0.1-0.1-0.1-0.3-0.2-0.4
			c-0.7-1.1-1.1-2.4-1.1-3.8c0-1.3,0.1-2.6,0.4-3.9c0.2-1.3,0.6-2.5,0.9-3.8v0c0-3.1,0-6.3-0.1-9.4c-0.1-3.2-0.2-6.4-0.6-9.6
			c-0.1-0.8-0.3-1.5-0.5-2.3l-0.9-2.2c-0.6-1.5-1.2-3-1.6-4.5c-0.9-3.1-1.5-6.3-1.7-9.5c-0.2-3.2,0-6.5,0.6-9.6
			c0.4-1.5,0.7-3.1,0.9-4.7c0.2-1.5,0.2-3.1-0.2-4.6l-0.1-0.2l-0.1-0.3l-0.3-0.5l-0.5-1.1c-0.3-0.7-0.7-1.5-1-2.2
			c-0.6-1.5-1.2-3-1.7-4.5c-0.7-1.8-1.1-3.7-1.3-5.5c0.3-1.3,0.5-2.6,0.8-3.9l-0.8-0.1c0-0.1,0-0.1,0-0.2l0.9,0.2
			c-0.2,1.6-0.1,3.1,0.2,4.6c0.3,1.6,0.6,3.1,1.1,4.6c0.5,1.5,1,3,1.7,4.5c0.3,0.7,0.6,1.4,1,2.2l0.5,1.1l0.3,0.5l0.1,0.3
			c0.1,0.1,0.1,0.2,0.1,0.3c0.9,3.3,0,6.6-0.8,9.7c-1.2,6.3-0.9,12.7,0.9,18.8c0.4,1.5,1,3,1.6,4.5l0.9,2.2c0.3,0.8,0.5,1.6,0.6,2.4
			c0.4,3.2,0.4,6.4,0.5,9.6c0.1,3.2,0.1,6.4,0.1,9.6v0.1c-0.4,1.2-0.7,2.5-0.9,3.8c-0.3,1.3-0.4,2.5-0.4,3.8c0,1.3,0.3,2.5,1,3.6
			c0.1,0.1,0.2,0.3,0.3,0.5c0.1,0.2,0.1,0.4,0,0.6c-0.1,0.3-0.1,0.7-0.2,1c-0.2,0.6-0.4,1.1-0.7,1.7c-0.1,0-0.1-0.1-0.1-0.1l0.1,0.2
			c0,0,0-0.1,0.1-0.1C168.1,286.2,168.7,286.7,169.1,287.3z"/>
		<path d="M158.8,200c-0.1-1.1-0.2-2.2-0.1-3.3c0,0,0,0,0,0c0.1-0.3,0.1-0.5,0.1-0.8l0.8,0.1C159.3,197.4,159.1,198.7,158.8,200z"/>
		<path d="M158.8,196c-0.1,0.3-0.1,0.5-0.1,0.8C158.7,196.5,158.7,196.2,158.8,196L158.8,196z"/>
		<path d="M163.1,172.1c0.5-0.5,1-1.1,1.5-1.6c1-0.9,2.1-1.7,3.3-2.3c0,0.1,0.1,0.1,0.1,0.2c-0.8,1-1.8,2-2.9,2.8
			c-0.6,0.4-1.3,0.8-1.9,1.2c-0.6,0.4-1.1,0.9-1.6,1.5s-1,1.1-1.6,1.6c-0.5,0.5-1.1,1-1.6,1.5c-1.1,0.9-2.3,1.7-3.5,2.5
			c0.1-0.1,0.1-0.3,0.1-0.4c0.8-1,1.7-2,2.7-2.8c1.1-0.9,2.3-1.8,3.6-2.6C162,173.1,162.6,172.6,163.1,172.1z"/>
		<path d="M154.8,179.3c0.1-0.2,0.2-0.3,0.3-0.4c0,0.2-0.1,0.3-0.1,0.4C155,179.4,154.9,179.4,154.8,179.3L154.8,179.3z"/>
		<path d="M167.2,165.6c2.4,4.5,6.5,7.9,10.7,10.8c4.3,2.9,8.8,5.5,13.4,7.7v0.1c-4.9-1.7-9.7-4-14-6.9c-2.2-1.5-4.2-3.1-6.1-5
			c-1.2-1.1-2.2-2.4-3.1-3.8c0.1-0.1,0.2-0.2,0.2-0.3l-0.1-0.1c-0.1,0.1-0.2,0.1-0.3,0.2c-0.5-0.8-0.9-1.6-1.3-2.4
			c-0.6-1.2-0.8-2.5-1.3-3.7c-0.4-1.2-0.9-2.4-1.5-3.5c-0.6-1.1-1.4-2.2-2.3-3c-0.9-0.8-2.2-1.1-3.4-0.8c-1.2,0.3-2.3,0.8-3.3,1.5
			c-1.1,0.7-2.1,1.5-3,2.4c-1.9,1.7-3.7,3.6-5.5,5.4l-0.1-0.1c1.5-2.1,3.3-4.1,5.1-5.9c0.9-0.9,1.9-1.8,3-2.5
			c1.1-0.8,2.3-1.4,3.7-1.6c1.4-0.2,2.8,0.3,3.9,1.2c0.9,0.9,1.7,2,2.3,3.2c0.6,1.2,1.1,2.4,1.6,3.6
			C166.1,163.2,166.6,164.4,167.2,165.6z"/>
		<path d="M145.5,235.2c0,0.2,0.1,0.4,0.1,0.6l-0.5-0.2C145.2,235.5,145.4,235.4,145.5,235.2z"/>
		<path d="M145.2,187.6c0,0.1,0,0.1,0,0.1c0,0-0.1,0-0.1,0.1C145.1,187.8,145.1,187.7,145.2,187.6L145.2,187.6z"/>
		<path d="M153.3,222.2c0.4-1.8,0.9-3.5,1.2-5.3c1.5-6.7,2.9-13.4,4.1-20.2c0,1.1,0,2.2,0.1,3.3c-1.1,5.8-2.4,11.5-3.7,17.3
			c-0.4,1.8-0.8,3.5-1.3,5.3c-0.4,1.8-1,3.5-1.7,5.2c-1.7,3.3-4,6.2-6.8,8.5l-0.4,0.4l0.1-0.6c-0.4-4-0.9-8.1-1.3-12.1
			c-0.2-2-0.4-4-0.5-6.1c-0.2-2-0.2-4-0.1-6.1c0.2-4,0.6-8.1,0.9-12.1c0.1-1,0.1-2,0.2-3c0-1,0-2,0.2-3c0.2-1.9,0.5-3.9,0.8-5.8
			c0,0,0.1,0,0.1-0.1c-0.3,2-0.5,3.9-0.7,5.9c-0.1,1-0.1,2-0.1,3s-0.1,2-0.1,3c-0.2,4-0.6,8.1-0.7,12.1c-0.1,2,0,4,0.2,6
			c0.1,2,0.3,4,0.5,6c0.4,3.8,0.8,7.6,1.3,11.5c-0.1,0.1-0.3,0.3-0.4,0.4l0.5,0.2c0-0.2-0.1-0.4-0.1-0.6c2.6-2.2,4.7-4.9,6.2-7.9
			C152.4,225.7,152.9,224,153.3,222.2z"/>
		<path d="M143.2,172L143.2,172c0,0.3-0.2,0.4-0.3,0.6c-0.1,0-0.1,0-0.2,0C142.9,172.4,143.1,172.2,143.2,172z"/>
		<path d="M136.2,176.8c0,0,0.1,0,0.1,0L136.2,176.8C136.2,176.8,136.2,176.8,136.2,176.8z"/>
		<path d="M136.1,171.3c-0.6-0.2-1.2-0.4-1.8-0.6c1.1,0.2,2.3,0.4,3.4,0.6l0,0c0.5,0.2,1,0.4,1.5,0.5v0.1c-0.5,0-1.1-0.1-1.6-0.2
			C137.2,171.6,136.7,171.4,136.1,171.3z"/>
		<path d="M134.7,170.1c-0.4,0.1-0.9,0.2-1.3,0.3l0.1-0.8L134.7,170.1z"/>
		<path d="M150.2,153.1c0.8-1.4,1.7-2.7,2.6-4c0.8-1.1,1.5-2.1,2.4-3.2l0.1,0c-1.3,2.6-2.8,5.1-4.4,7.6c-1.6,2.5-3.4,4.7-4.8,7.3
			c-0.5,0.9-1,1.9-1.3,3c-0.1,0.3-0.2,0.7-0.3,1c-0.2,0.7-0.5,1.4-0.8,2.1c-0.1,0.4-0.4,0.7-0.6,1.1c-0.1,0.1-0.2,0.2-0.3,0.3
			l-0.2,0.1c-0.1,0-0.2,0.1-0.3,0.1h-0.3h-0.2c-2.4,0.5-4.8,1.1-7.2,1.6l-1.3-0.6l-0.1,0.8c0.4-0.1,0.9-0.2,1.3-0.3l1.6,0.7l1.4,0.6
			c-1.1-0.2-2.3-0.4-3.4-0.6c-0.4-0.1-0.8-0.3-1.2-0.4l-1.2-0.4l1.3-0.4c2.8-0.9,5.6-1.5,8.5-2h0.3h0.3c0,0,0.1-0.1,0.1-0.1
			c0.2-0.3,0.4-0.5,0.5-0.8c0.3-0.6,0.6-1.3,0.9-1.9c0.3-0.7,0.6-1.3,0.9-2c0.3-0.7,0.7-1.3,1.1-1.9
			C147.4,158.2,148.7,155.6,150.2,153.1z"/>
		<path d="M132,310.6c-0.2,0.1-0.4,0.3-0.6,0.5l-0.2-0.5C131.5,310.6,131.8,310.6,132,310.6z"/>
		<path d="M171.6,302.5c1.1,0.2,2.2-0.1,3.1-0.8c0.2-0.2,0.4-0.4,0.5-0.6c0.2-0.2,0.3-0.5,0.4-0.7c0.3-0.5,0.5-1.1,0.6-1.6
			c0.3,0.1,0.5,0.2,0.8,0.3c0,0,0,0,0,0c-0.2,0.6-0.4,1.2-0.7,1.8c-0.1,0.3-0.3,0.6-0.5,0.8c-0.2,0.3-0.4,0.5-0.7,0.7
			c-1.1,0.8-2.4,1.2-3.8,0.9c-0.6-0.1-1.3-0.2-1.9-0.5c-0.3-0.1-0.6-0.2-0.9-0.4l-0.4-0.2c-0.1-0.1-0.2-0.1-0.3-0.2
			c-0.3-0.1-0.8,0.2-1.2,0.6c-0.4,0.4-0.8,0.8-1.2,1.3c-1.5,1.9-2.8,3.9-4,6l-0.2,0.3l-0.3-0.1c-2.3-0.9-4.8-1.5-7.3-1.6
			c-1.2-0.1-2.5,0-3.7,0.2c-0.6,0.1-1.2,0.3-1.8,0.4c-0.6,0.2-1.2,0.4-1.9,0.5c-2.5,0.6-5,0.9-7.6,1.1c-2.5,0.2-5.1,0.3-7.6,0.3
			h-0.7l0.6-0.5c2.1-1.7,4.3-3.1,6.6-4.4c2.3-1.2,4.8-2.2,7.4-2.9c2.6-0.5,5.2-0.9,7.8-1.2c1.3-0.2,2.6-0.5,3.8-0.8
			c0.6-0.2,1.2-0.4,1.8-0.6c0.6-0.2,1.1-0.5,1.5-1v-0.1c1.3-1.1,2.6-2.2,5.3-4.8c0.1,0,0.3,0.1,0.4,0.1c-1.6,1.7-3.4,3.4-5.3,4.9
			c-0.2,0.3-0.5,0.5-0.8,0.6c-0.3,0.2-0.6,0.3-0.9,0.5c-0.6,0.3-1.3,0.5-1.9,0.7c-1.3,0.4-2.6,0.6-3.9,0.8c-2.6,0.5-5.3,0.5-7.8,1.3
			c-2.5,0.7-5,1.7-7.3,2.9c-2.1,1.1-4.1,2.4-5.9,3.9c-0.3,0-0.5,0-0.8,0l0.2,0.5c0.2-0.2,0.4-0.3,0.6-0.5c2.3,0,4.6-0.2,6.8-0.4
			c2.5-0.2,5-0.6,7.5-1.1c0.6-0.1,1.2-0.3,1.8-0.5c0.6-0.2,1.3-0.4,1.9-0.5c1.3-0.2,2.6-0.3,3.9-0.2c2.5,0.1,4.9,0.7,7.2,1.5
			c-0.1,0.1-0.1,0.2-0.2,0.3l0.5-0.2c-0.1,0-0.2-0.1-0.3-0.1c1.1-2,2.4-4,3.8-5.9c0.4-0.5,0.8-0.9,1.3-1.4c0.3-0.2,0.5-0.4,0.8-0.6
			c0.4-0.2,0.8-0.3,1.2-0.2c0.2,0.1,0.3,0.1,0.5,0.2l0.4,0.2l0.8,0.3C170.5,302.3,171,302.5,171.6,302.5z"/>
		<path d="M119.9,274L119.9,274c-1.9-1-3.7-2.1-5.5-3.4c0.8,0.4,1.6,0.9,2.4,1.3C117.8,272.6,118.9,273.3,119.9,274z"/>
		<path d="M105.8,170.3h0.8c-0.1,0.1-0.2,0.3-0.3,0.4C106.1,170.6,106,170.5,105.8,170.3z"/>
		<path d="M103.8,154.2c0,0-0.1,0.1-0.1,0.1l0.1-0.3C103.8,154,103.8,154.1,103.8,154.2z"/>
		<path d="M154,175.1c0.6,0.5,1,1.2,1.2,2c0.1,0.6,0.1,1.2,0,1.8c-0.1,0.1-0.2,0.3-0.3,0.4l0.1,0.1c0,0,0.1,0,0.1-0.1c0,0,0,0,0,0.1
			c-0.1,0.4-0.3,0.7-0.5,1.1c-0.2,0.3-0.5,0.6-0.8,0.8c-1.1,1-2.2,1.9-3.3,2.8c-1.7,1.3-3.4,2.5-5.2,3.7c0,0,0-0.1,0-0.1l-0.1,0
			c0,0.1,0,0.1,0,0.2c-0.6,0.4-1.2,0.8-1.7,1.2l-0.1,0c2.3-1.7,4.5-3.5,6.8-5.3c1.1-0.9,2.2-1.8,3.2-2.8c0.2-0.2,0.4-0.5,0.7-0.8
			c0.2-0.3,0.3-0.6,0.4-0.9c0.2-0.6,0.3-1.3,0.1-1.9c-0.4-1.3-1.4-2.2-2.7-2.7c-1.3-0.6-2.6-1-4-1.3c-1.6-0.3-3.2-0.6-4.8-0.7
			c0.2-0.2,0.3-0.4,0.4-0.6l-0.1,0c-0.1,0.2-0.3,0.4-0.5,0.6c-1.2-0.1-2.3-0.2-3.5-0.2h-0.1c-3.5-0.7-6.9-1.5-10.3-2.4
			c-1.7-0.4-3.4-0.9-5.1-1.5c-1.7-0.5-3.4-1-5-1.6c-3.4-1.1-6.6-2.6-9.7-4.4c-1.6-0.9-3-2.1-4.2-3.5c-1.3-1.4-2.1-3.1-2.2-5v-0.2
			l0.1-0.1c0.8-0.8,1.7-1.4,2.7-1.8c0.9-0.4,1.9-0.8,2.9-1.1c2-0.6,4-1,6-1.4c4-0.7,8.1-1.1,12.2-1.5c4.1-0.3,8.2-0.5,12.3-0.5
			c2,0,4.1,0,6.1,0c2.1,0,4.1,0.2,6.1,0.5v0.1c-2-0.2-4.1-0.3-6.1-0.2c-2,0-4.1,0.1-6.1,0.2c-4.1,0.2-8.1,0.4-12.2,0.9
			c-4.1,0.4-8.1,0.8-12.1,1.5c-2,0.3-4,0.8-5.9,1.3c-1,0.3-1.9,0.6-2.8,1c-0.8,0.3-1.6,0.8-2.3,1.4c0-0.1,0-0.1,0-0.2l-0.1,0.3
			c0,0,0.1-0.1,0.1-0.1c0.1,1.6,0.7,3.1,1.8,4.3c1.2,1.3,2.5,2.4,3.9,3.4c3,1.9,6.1,3.4,9.4,4.6c1.7,0.6,3.3,1.2,5,1.7
			c1.7,0.5,3.4,1,5.1,1.4c1.8,0.4,3.5,0.8,5.3,1.2c0.6,0.2,1.2,0.4,1.8,0.6c0.5,0.2,1,0.3,1.5,0.4c0.5,0.1,1.1,0.2,1.6,0.2v-0.1
			c-0.5-0.1-1-0.3-1.5-0.5l0,0c0.5,0.1,1.1,0.2,1.6,0.3c2.9,0,5.7,0.2,8.6,0.8c1.4,0.3,2.8,0.8,4.2,1.4
			C152.8,174.1,153.4,174.6,154,175.1z"/>
		<path d="M96.7,178.2c-0.1-0.1-0.2-0.2-0.3-0.2c0.2-0.1,0.5-0.3,0.7-0.5c1.6-1.1,3.2-2.3,4.7-3.6c1.5-1.3,2.9-2.7,4.2-4.2l0.3-0.4
			l0.4,0.4c0.9,0.9,1.9,1.5,3.2,1.8c0.6,0.1,1.2,0.1,1.9,0l2-0.2c1.3-0.1,2.7-0.2,4-0.1c0.7,0,1.4,0.1,2.1,0.3
			c0.7,0.2,1.3,0.6,1.9,1c1.1,0.8,2.1,1.6,3.2,2.3c0.5,0.4,1.1,0.6,1.7,0.9c0.3,0.1,0.6,0.1,0.9,0.1h1c1.3,0,2.7,0.1,4,0.2
			c1.3,0.1,2.6,0.4,3.9,0.9c0,0-0.1,0-0.1,0h0.2c0,0-0.1,0-0.1,0c1.3-0.6,2.5-1.3,3.7-2c0.6-0.4,1.2-0.8,1.8-1.2
			c0.4-0.3,0.7-0.6,1-0.9c0,0,0.1,0,0.2,0c-0.3,0.4-0.6,0.7-1,1c-0.6,0.5-1.2,0.9-1.8,1.3c-1.2,0.8-2.5,1.6-3.7,2.2h-0.1h-0.1
			c-1.2-0.5-2.5-0.7-3.8-0.8c-1.3-0.1-2.6-0.1-4-0.1h-1c-0.4,0-0.7-0.1-1.1-0.2c-0.7-0.2-1.3-0.5-1.9-0.9c-1.2-0.7-2.2-1.5-3.3-2.3
			c-0.5-0.4-1.1-0.7-1.7-0.8c-0.6-0.1-1.3-0.2-1.9-0.2c-1.3,0-2.6,0.1-3.9,0.2l-2,0.2c-0.7,0.1-1.4,0.1-2.1,0
			c-1.2-0.3-2.3-0.9-3.3-1.7c0.1-0.1,0.2-0.3,0.3-0.4h-0.8c0.1,0.1,0.3,0.3,0.4,0.4c-1.2,1.4-2.5,2.7-3.9,3.9
			c-1.5,1.4-3.1,2.6-4.8,3.8c-0.4,0.3-0.8,0.5-1.2,0.8c0.1-0.1,0.2-0.2,0.3-0.3l0.3-0.4L96.7,178.2z"/>
		<path d="M96.1,178.3l0.1,0.6c-0.1-0.1-0.3-0.2-0.4-0.3C95.9,178.5,96,178.4,96.1,178.3z"/>
		<path d="M93.6,181.2c-0.6,0.3-1.2,0.5-1.9,0.7c-0.5,0.1-0.9,0.1-1.4,0c0.6-0.2,1.3-0.4,1.9-0.6c1.4-0.6,2.8-1.3,4.2-2.1
			C95.6,180,94.6,180.7,93.6,181.2z"/>
		<path d="M90.2,180.9c0.6-0.1,1.1-0.3,1.7-0.6c1.3-0.5,2.5-1.2,3.7-1.9c0.1,0.1,0.1,0.1,0.2,0.1c-0.8,0.7-1.6,1.3-2.5,1.8
			c-0.5,0.3-1.1,0.5-1.6,0.6C91.1,181,90.7,181,90.2,180.9z"/>
		<path d="M90.2,180.9c0.5,0.1,0.9,0.2,1.4,0.1c0.6-0.1,1.1-0.3,1.6-0.6c0.9-0.5,1.8-1.1,2.5-1.8c0.1,0.1,0.3,0.2,0.4,0.3l-0.1-0.6
			c-0.1,0.1-0.2,0.2-0.3,0.3c-0.1,0-0.1-0.1-0.2-0.1c0.3-0.1,0.5-0.3,0.8-0.5c0.1,0.1,0.2,0.2,0.3,0.2l0.4,0.3l-0.3,0.4
			c-0.1,0.1-0.2,0.2-0.3,0.3c-1.3,0.8-2.7,1.5-4.2,2.1c-0.6,0.2-1.2,0.5-1.9,0.6h0c-0.2,0-0.5-0.1-0.7-0.2c-0.4-0.2-0.6-0.3-0.9-0.5
			C89.2,181.1,89.7,181,90.2,180.9z"/>
		<path d="M186.3,101.3c-0.2,1.1-0.4,2.2-0.5,3.3s-0.1,2.2-0.2,3.4c-0.4,2.3-1.1,4.5-2,6.5c-1.8,4.2-4.5,7.9-7.8,11l-1.3,1.1l-1.4,1
			c-0.2,0.2-0.4,0.3-0.6,0.5c-0.2,0.2-0.3,0.4-0.4,0.7c-0.3,0.5-0.6,1-0.8,1.5c-0.5,1-1,2-1.4,3c-0.1,0.3-0.3,0.6-0.6,0.8
			c-0.3,0.2-0.5,0.3-0.8,0.4c-0.5,0.2-1.1,0.4-1.6,0.6c-2.1,0.9-4,1.9-5.9,3.2c-1.8,1.2-3.4,2.9-4.5,4.8l-0.4,0.8
			c-0.1,0.3-0.3,0.6-0.5,0.8c-0.3,0.4-0.8,0.6-1.3,0.6c-0.2,0-0.3,0-0.5-0.1c-0.6-0.2-1-0.5-1.6-0.7s-1-0.4-1.5-0.7
			c-2.1-0.8-4.2-1.5-6.4-2c-2.2-0.5-4.4-0.8-6.6-0.9c-0.6,0-1.1,0-1.7,0.1c-0.3,0.1-0.6,0.1-0.9,0c-0.3-0.1-0.6-0.2-0.8-0.3
			c-1-0.4-2.1-0.8-3.1-1.2c-4.2-1.6-8.6-2.7-13-3.3c-1.1-0.1-2.2-0.2-3.4-0.2c-0.6,0-1.1,0-1.7,0.1c-0.3,0-0.6,0-0.9-0.1
			c-0.3-0.1-0.5-0.2-0.8-0.4c-2-1-4.2-1.6-6.4-2c-2.2-0.4-4.5-0.5-6.7-0.3c-1.1,0.1-2.2,0.4-3.2,0.9l-0.7,0.4l-0.7,0.5
			c-0.4,0.4-0.7,0.8-1.1,1.3c-0.5,0.4-1.1,0.5-1.7,0.3l-1.6-0.4l-3.3-0.8c-1.1-0.3-2.2-0.6-3.3-0.8c1.1,0.3,2.1,0.6,3.2,0.8l3.3,0.8
			l1.6,0.4c0.5,0.2,1.1,0.1,1.5-0.2c0.3-0.3,0.7-0.9,1.1-1.2l0.7-0.5L95,134c1-0.5,2.1-0.8,3.3-0.9c2.3-0.3,4.6-0.2,6.8,0.3
			c2.2,0.4,4.4,1,6.5,2c0.2,0.1,0.5,0.2,0.8,0.3c0.3,0.1,0.5,0.1,0.8,0c0.6,0,1.1-0.1,1.7-0.1c1.1,0,2.3,0.1,3.4,0.2
			c4.5,0.6,8.9,1.6,13.2,3.3c1.1,0.4,2.1,0.8,3.1,1.2c0.3,0.1,0.5,0.2,0.8,0.3c0.3,0.1,0.5,0.1,0.8,0c0.6-0.1,1.1-0.1,1.7-0.1
			c2.3,0.1,4.5,0.3,6.7,0.9c2.2,0.5,4.4,1.2,6.5,2c0.5,0.2,1.1,0.4,1.6,0.7c0.5,0.2,1.1,0.6,1.5,0.7c0.5,0.1,1,0,1.3-0.4
			c0.2-0.2,0.3-0.4,0.4-0.7l0.3-0.8c1.1-2,2.7-3.7,4.6-5c1.9-1.3,3.9-2.4,6-3.3c0.5-0.2,1-0.4,1.6-0.6c0.3-0.1,0.5-0.2,0.7-0.3
			c0.2-0.2,0.3-0.4,0.4-0.6c0.4-1.1,0.9-2.1,1.4-3.1c0.3-0.5,0.6-1,0.9-1.5c0.1-0.3,0.3-0.5,0.5-0.7c0.2-0.2,0.4-0.4,0.7-0.6l1.3-1
			l1.3-1.1c3.3-3.1,5.9-6.8,7.6-10.9c0.9-2,1.6-4.2,1.9-6.4c0.1-1.1,0.1-2.3,0.2-3.4c0.1-1.1,0.3-2.3,0.5-3.4
			c0.8-4.5,2.2-8.8,3.3-13.1c1.2-4.4,3-8.6,5.5-12.4c2.4-3.8,5.1-7.5,8.1-10.9c1.5-1.7,3-3.4,4.6-5c0.8-0.8,1.6-1.6,2.2-2.5
			c0.6-0.9,1.1-1.9,1.5-2.9c0.1-0.1,0.1-0.3,0.2-0.4c0.1-0.1,0.1-0.3,0.2-0.4l0.5-0.7l0.9-1.4l1.8-2.9l3.6-5.7
			c1-1.1,1.7-2.4,2.1-3.8c0.4-1.4,0.6-2.9,0.6-4.4c0-1.5-0.1-3-0.3-4.5c-0.1-0.7-0.2-1.5-0.4-2.2c-0.1-0.4-0.2-0.8-0.2-1.2
			c0-0.4,0-0.8,0-1.2c0.4-3,1.4-6,2.7-8.8c1.3-2.7,2.7-5.4,4.3-8c0.6-1.2,1.4-2.4,2.3-3.4c0.9-1,2-1.9,3.2-2.6
			c2.4-1.4,5-2.3,7.8-2.6c5.4-0.6,10.9-0.1,16.1,1.3c0.6,0.2,1.3,0.4,2,0.6c0.3,0.1,0.6,0.2,1,0.3c0.3,0.2,0.7,0.4,0.9,0.6
			c1,1,1.8,2.1,2.4,3.4c0.3,0.6,0.6,1.2,0.9,1.8c0.1,0.3,0.3,0.6,0.5,0.8l0.5,0.8l2.2,3.4c1.5,2.2,2.9,4.5,4.4,6.8l1.1,1.7
			c0.4,0.6,0.7,1.2,0.9,1.8c0.5,1.3,1,2.5,1.4,3.8l1.3,3.8l0.7,1.9l0.2,0.5c0,0.1,0.1,0.2,0.1,0.3l0.1,0.2l0.3,1
			c0.4,1.3,0.8,2.5,1.3,3.8c0.5,1.2,1.1,2.4,1.9,3.4c0.4,0.5,0.8,1,1.3,1.3c0.5,0.5,1,1,1.4,1.5c0.8,1.1,1.6,2.2,2.4,3.3
			c1.5,2.2,3,4.5,4.4,6.7c5.8,9,11.3,18.1,16.8,27.3h-0.1c0,0,0-0.1,0-0.1c0,0.2,0,0.5-0.1,0.7l-0.1,0.2c0,0,0,0,0,0l0,0.1l0,0
			c-0.1,0.5-0.2-0.1-0.1-0.6l0.2-0.4c-0.1-0.1-0.2,0.2-0.2,0.4l-0.2,0.3c-5.5-9.2-11.1-18.4-16.8-27.5c-1.4-2.3-2.9-4.5-4.4-6.7
			c-0.8-1.1-1.5-2.2-2.3-3.3c-0.4-0.5-0.8-1-1.3-1.4c-0.6-0.4-1.1-0.9-1.5-1.5c-0.8-1.1-1.5-2.3-2-3.6c-0.5-1.3-1-2.5-1.4-3.8
			l-0.3-1l-0.1-0.3c0-0.1,0-0.1-0.1-0.2l-0.2-0.5l-0.7-1.9l-1.3-3.8c-0.5-1.3-0.9-2.5-1.4-3.8c-0.5-1.2-1.2-2.4-1.9-3.4
			c-0.8-1.3-1.6-2.5-2.4-3.7c-0.7-1-1.3-2-2-3l-2.2-3.4l-0.6-0.8c-0.2-0.3-0.4-0.6-0.5-0.9c-0.3-0.6-0.6-1.2-0.9-1.8
			c-0.6-1.2-1.3-2.3-2.2-3.2c-0.2-0.2-0.5-0.3-0.7-0.5c-0.3-0.1-0.6-0.2-0.9-0.3c-0.6-0.2-1.3-0.4-1.9-0.6
			c-5.1-1.4-10.5-1.9-15.8-1.3c-2.6,0.3-5.2,1.2-7.4,2.5c-1.1,0.7-2.1,1.5-3,2.5c-0.9,1-1.6,2.1-2.2,3.2c-1.6,2.6-3,5.2-4.3,7.9
			c-1.3,2.7-2.2,5.5-2.7,8.5c0,0.4,0,0.7,0,1.1c0,0.3,0.2,0.7,0.2,1.1c0.2,0.8,0.3,1.5,0.4,2.3c0.2,1.5,0.3,3.1,0.3,4.6
			c0,1.5-0.3,3.1-0.7,4.6c-0.4,1.5-1.2,2.9-2.3,4l-3.6,5.7l-1.8,2.9l-0.9,1.4l-0.5,0.7c-0.1,0.1-0.1,0.2-0.2,0.3
			c-0.1,0.1-0.1,0.3-0.2,0.4c-0.4,1-1,2.1-1.6,3c-0.7,0.9-1.4,1.8-2.3,2.6c-1.6,1.6-3.1,3.3-4.6,5c-2.9,3.4-5.6,7-8,10.8
			c-2.4,3.8-4.3,7.9-5.4,12.2C188.4,92.5,187.1,96.8,186.3,101.3z"/>
		<path d="M86.6,182.4c0,0-0.1,0.1-0.1,0.1c-0.1,0-0.2,0-0.2,0L86.6,182.4z"/>
		<path d="M76.7,97.4l0,0.1c-0.2-0.2-0.4-0.4-0.7-0.5c0.1,0,0.1,0,0.1,0C76.3,97.2,76.5,97.3,76.7,97.4z"/>
		<path d="M76.3,96.9L76.3,96.9c0,0.1-0.1,0.1-0.1,0.1c0-0.1-0.1-0.1-0.2-0.1C76.1,96.9,76.2,96.9,76.3,96.9z"/>
		<path d="M76,96.9c0.1,0,0.1,0.1,0.2,0.1c0,0-0.1,0-0.1,0c-0.1,0-0.1-0.1-0.2-0.1C75.9,96.9,75.9,96.9,76,96.9z"/>
		<path d="M71.3,217c-0.5-1-0.9-1.9-1.3-2.9c-0.2-0.5-0.3-1.1-0.3-1.6c0-0.2,0.1-0.3,0.1-0.5c0.1-0.1,0.3-0.2,0.5-0.2
			c0.2,0,0.5-0.1,0.7-0.2c0.8-0.6,1.5-1.3,2.1-2.2c0.6-0.9,1.1-1.8,1.5-2.7c1.7-3.8,3.2-7.7,4.3-11.8c0.9-2.3,1.9-4.6,3-6.8
			c0.5-1.1,1.1-2.2,1.8-3.3c0.6-1.1,1.4-2.2,2.2-3.1l0.1-0.1h0.2c0.8,0,1.7-0.1,2.5-0.3c0.3,0.1,0.5,0.3,0.9,0.5
			c0.2,0.1,0.5,0.2,0.7,0.2c-1.3,0.4-2.6,0.6-3.9,0.6c0-0.1,0.1-0.1,0.1-0.1l-0.3,0.1c0.1,0,0.2,0,0.2,0c-0.8,0.8-1.4,1.8-2,2.8
			c-0.6,1-1.2,2.1-1.8,3.2c-1.1,2.2-2.2,4.4-3.1,6.7c-1.2,4-2.8,7.9-4.6,11.7c-0.5,0.9-1,1.9-1.6,2.8c-0.6,0.9-1.3,1.7-2.3,2.3
			c-0.3,0.1-0.5,0.2-0.8,0.2c-0.2,0-0.2,0-0.2,0.1c-0.1,0.1-0.1,0.2-0.1,0.3c0,0.5,0.1,1,0.3,1.5c0.3,1,0.8,1.9,1.2,2.9
			c3.9,7.4,8.4,14.6,13.5,21.2c5,6.8,10.3,13.3,15.9,19.5c4.9,5.2,10,10.3,15.8,14.4c-0.8-0.4-1.6-0.9-2.4-1.3
			c-1.7-1.2-3.3-2.5-4.9-3.8c-3.2-2.7-6.3-5.6-9.1-8.7c-5.8-6.1-11.1-12.7-15.9-19.6c-2.4-3.4-4.7-7-7-10.5
			C75.3,224.4,73.2,220.8,71.3,217z"/>
		<path d="M69.9,130.1c-0.5-0.3-1-0.6-1.4-0.9c-0.2-0.1-0.4-0.3-0.6-0.4c0.2,0.1,0.3,0.3,0.5,0.3C69,129.4,69.4,129.7,69.9,130.1
			c1,0.4,2.1,0.9,3.1,1.3c2.1,0.8,4.3,1.5,6.4,2.1c1,0.3,2.1,0.6,3.1,0.9c-1.1-0.3-2.1-0.6-3.2-0.9c-2.2-0.6-4.3-1.3-6.4-2.1
			C72,131,70.9,130.5,69.9,130.1z"/>
		<path d="M67.6,121.5c-0.7-0.4-1.4-0.7-2.1-0.9c-2.8-0.9-5.8-1.4-8.7-1.4c0,0,0-0.1,0-0.1c3,0,5.9,0.5,8.8,1.4
			C66.3,120.7,67,121,67.6,121.5c0.7,0.4,1.1,1.2,1,2c-0.1,0.4-0.2,0.8-0.4,1.1c-0.2,0.4-0.3,0.7-0.4,1.1c-0.2,0.8-0.4,1.5-0.5,2.3
			c0.2,0.3,0.4,0.5,0.6,0.7c-0.3-0.2-0.5-0.5-0.8-0.7c0.1-0.8,0.3-1.5,0.5-2.3c0.1-0.4,0.2-0.8,0.4-1.1c0.2-0.3,0.3-0.7,0.4-1.1
			C68.6,122.7,68.2,122,67.6,121.5z"/>
		<path d="M56.8,119.1C56.8,119.1,56.8,119.1,56.8,119.1c-0.2,0.1-0.3,0.1-0.5,0.1v-0.1C56.4,119.1,56.6,119.1,56.8,119.1z"/>
		<path d="M56.4,96.9c0,0.1,0,0.1,0,0.2c0,0-0.1,0-0.2,0L56.4,96.9z"/>
		<path d="M55.8,112.4c0-2.6,0.1-5.2,0.2-7.8c0.1-2.6,0.2-5.2,0.2-7.8v-0.1h0.1c3.3,0,6.7-0.3,10-0.3c1.7,0,3.3,0,5,0.1
			c1.5,0.1,3,0.1,4.6,0.3c0.1,0,0.1,0.1,0.2,0.1c-1.6,0.1-3.2,0.2-4.8,0.3c-1.7,0.1-3.3,0.1-5,0.1c-3.3,0-6.5-0.3-9.8-0.3
			c0-0.1,0-0.1,0-0.2l-0.2,0.2c0.1,0,0.1,0,0.2,0c0,2.5,0.1,5.1,0.2,7.6c0.1,2.6,0.1,5.2,0.2,7.8c0,2.2,0,4.4-0.1,6.6
			c-0.2,0-0.3,0-0.5,0v0.1c0.1,0,0.3,0,0.5,0c0,0.3,0,0.7,0,1c-0.1,2.6-0.2,5.2-0.4,7.8h-0.1c-0.2-2.6-0.3-5.2-0.4-7.8
			C55.8,117.6,55.7,115,55.8,112.4z"/>
		<path d="M69,172.5c-4.7-1.8-9.4-3.5-14.1-5.1c-4.7-1.7-9.6-2.8-14.6-3.4c-0.2,0-0.3,0-0.5,0V164c0.2,0,0.3,0,0.5,0v0
			c2.5,0.2,5,0.6,7.5,1.2c2.5,0.5,4.9,1.1,7.3,1.8c4.9,1.3,9.6,2.9,14.3,4.7c4.7,1.8,9.3,3.7,13.9,5.8c1.1,0.5,2.3,1.1,3.4,1.6
			c0.6,0.3,1.1,0.6,1.7,0.9s1.2,0.7,1.6,0.9c0.1,0,0.2,0.1,0.2,0.1c-0.5,0.1-1,0.3-1.5,0.4c-0.3-0.2-0.5-0.3-0.8-0.5
			c-0.6-0.3-1.1-0.6-1.7-0.8c-1.1-0.5-2.3-1.1-3.4-1.6C78.3,176.4,73.7,174.4,69,172.5z"/>
		<path d="M35.5,156L35.5,156c0,0.1-0.1,0.1-0.1,0.1L35.5,156z"/>
		<path d="M62.4,153.8c-1.4-0.7-2.9-1.4-4.4-1.9c-1.5-0.5-3-0.8-4.6-0.9c-1.6-0.1-3.1,0-4.7,0.3c-1.6,0.3-3.1,0.6-4.6,1.1
			c-3,0.9-5.9,2.2-8.6,3.8l0-0.1l-0.1,0.1c0,0,0.1,0,0.1,0l-0.3,1.3c-0.1,0.5-0.1,0.9-0.1,1.4c0,0.9,0.1,1.9,0.5,2.8
			c0.4,0.9,1.1,1.6,2,1.9c0.7,0.3,1.4,0.4,2.2,0.4v0.1c-0.8,0-1.6-0.1-2.3-0.4c-0.9-0.4-1.6-1.1-2.1-2c-0.4-0.9-0.6-1.9-0.6-2.8
			c0-0.5,0-1,0.1-1.4l0.2-1.4v-0.1h0.1c2.7-1.8,5.6-3.2,8.7-4.2c3.1-1.1,6.3-1.6,9.6-1.5c3.3,0.3,6.4,1.4,9.2,3
			c2.8,1.6,5.4,3.5,7.8,5.7h-0.1c2.7,0.6,5.4,1.6,7.9,2.9c1.2,0.6,2.4,1.4,3.5,2.3c1.1,0.9,2,1.9,2.9,3c1.6,2.2,3.5,4.3,5.6,6.1
			c2,1.7,4,3.4,6.2,4.9c-0.3,0.2-0.5,0.3-0.8,0.5c-2-1.5-4-3.1-5.8-4.9c-2.1-1.9-3.9-4-5.5-6.3c-0.8-1.1-1.7-2.1-2.8-3
			c-1.1-0.8-2.3-1.6-3.5-2.2c-2.5-1.3-5.1-2.2-7.8-2.8v-0.1C67.9,157,65.2,155.2,62.4,153.8z"/>
		<path d="M24.9,144.1c-0.7,1.4-1.3,2.9-1.8,4.5l-0.3,1.2c0,0.1,0,0.3,0,0.4c0,0.2,0.1,0.3,0.1,0.5c0.3,0.6,0.8,1.2,1.4,1.6
			c1.3,0.9,2.8,1.6,4.3,2.1c1.5,0.6,3.1,1.1,4.6,1.6v0.1c-1.6-0.2-3.3-0.5-4.9-0.9c-1.6-0.4-3.2-1.1-4.6-2c-0.8-0.5-1.4-1.2-1.8-2
			c-0.1-0.2-0.2-0.5-0.2-0.7c0-0.3,0-0.5,0.1-0.8l0.4-1.2c0.5-1.6,1.2-3.1,2.2-4.5c0.9-1.4,2-2.7,3.1-3.9c1.1-1.3,2.2-2.5,3.5-3.6
			c0.3-0.4,0.8-0.6,1.3-0.7c0.5-0.1,1.1,0.1,1.5,0.4c0.2,0.2,0.4,0.4,0.5,0.6l0.3,0.5c0.2,0.3,0.4,0.7,0.6,1c0.9,1.3,2,2.6,3.1,3.7
			h-0.1c-1.4-0.9-2.6-2-3.7-3.3c-0.3-0.3-0.5-0.7-0.8-1l-0.3-0.5c-0.1-0.1-0.2-0.2-0.3-0.3c-0.2-0.2-0.5-0.3-0.8-0.2
			c-0.3,0.1-0.6,0.2-0.9,0.4c-1.3,0.9-2.6,2-3.8,3.1C26.6,141.4,25.6,142.7,24.9,144.1z"/>
		<path d="M24,160.7l-1.5-1.2c-0.5-0.4-1-0.8-1.6-1.2l-1.5-1.2c-1-0.9-1.9-1.8-2.7-2.8c-0.7-0.9-1.4-1.8-2-2.7c0-0.1,0-0.2,0.1-0.3
			c1.8,1.7,3.5,3.4,5.3,5.1c0.9,0.9,1.8,1.9,2.7,2.8c1,0.9,2,1.6,3.1,2.3l3.3,2c0.5,0.3,1.1,0.6,1.7,1c0.5,0.4,1.1,0.6,1.7,0.9
			c2.2,1.3,4.5,2.3,6.9,3.5v0.1c-2.5-0.6-5-1.5-7.3-2.7c-2.3-1.2-4.5-2.7-6.4-4.4C25,161.6,24.5,161.1,24,160.7z"/>
		<path d="M14.5,151.1c0.1,0.1,0.2,0.2,0.3,0.3c0,0.1,0,0.2-0.1,0.3C14.6,151.4,14.5,151.3,14.5,151.1L14.5,151.1z"/>
		<path d="M24.7,177.5l1,0.8l1.1,0.8c0.7,0.5,1.4,1,2.2,1.5c1.5,0.9,3,1.8,4.6,2.5c1.5,0.8,3.1,1.5,4.8,2.1c0.8,0.3,1.6,0.6,2.5,0.9
			c0.8,0.3,1.7,0.6,2.5,0.9v0.1c-0.9-0.1-1.7-0.3-2.6-0.5c-0.9-0.1-1.7-0.4-2.6-0.6l-2.5-0.8l-0.6-0.2l-0.6-0.3l-1.2-0.6
			c-3.2-1.5-6.2-3.6-8.7-6.1c-1.3-1.2-2.5-2.5-3.7-3.8c-0.6-0.7-1.2-1.3-1.8-2c-0.6-0.7-1.1-1.4-1.7-2.1s-1-1.5-1.5-2.2
			c-0.5-0.8-0.9-1.6-1.3-2.4c-0.7-1.5-1.3-3-1.7-4.6c0,0,0.1-0.1,0.1-0.1c1.5,3.1,3.2,6,5,8.9l1.4,2.2c0.5,0.7,1,1.4,1.6,2.1
			C22,175.2,23.3,176.4,24.7,177.5z"/>
		<path d="M12.7,160.4c0,0.1,0.1,0.2,0.1,0.3c0,0-0.1,0.1-0.1,0.1C12.7,160.7,12.6,160.5,12.7,160.4L12.7,160.4z"/>
		<path d="M23.8,134.2c1.1-1,2.2-1.9,3.4-2.8c0.6-0.4,1.2-0.9,1.8-1.3l0.9-0.6c0.3-0.2,0.6-0.4,0.8-0.6c0.2-0.2,0.3-0.5,0.3-0.8
			v-7.7v-17.5v-5.4c0-0.3-0.1-0.6-0.4-0.8c-0.2-0.2-0.5-0.4-0.8-0.4c-0.3,0-0.7,0-1.1,0H15.7c-0.7,0-1.4,0-2.2,0
			c-0.9-0.1-1.5-0.8-1.5-1.7c0-0.4,0.1-0.8,0.4-1.1c0.3-0.3,0.6-0.5,0.9-0.7l1.7-1.4l3.4-2.7L32,77.6l1.7-1.4
			c0.3-0.3,0.7-0.4,1.1-0.4l1.1-0.1c1.5-0.1,2.9-0.2,4.4-0.2s2.9-0.1,4.4,0c0.7,0,1.5,0.1,2.2,0.2c0.4,0,0.7,0.1,1.1,0.2
			c0.2,0,0.4,0.1,0.5,0.1l0.5,0.3c2.5,1.5,5,3.1,7.3,4.9c2.3,1.8,4.6,3.5,6.9,5.3c4.3,3.4,8.6,6.9,12.9,10.4c-0.1,0-0.1,0-0.2,0
			c-4.2-3.5-8.5-6.9-12.8-10.3c-2.3-1.8-4.6-3.6-6.9-5.3c-2.3-1.8-4.7-3.4-7.2-4.9l-0.5-0.3c-0.2-0.1-0.3-0.1-0.5-0.1
			c-0.4,0-0.7-0.1-1.1-0.2c-0.7-0.1-1.4-0.1-2.2-0.2c-1.5-0.1-2.9,0-4.4,0c-1.4,0-2.9,0.1-4.4,0.3c-0.7,0.1-1.5,0-2,0.5l-1.7,1.4
			l-13.7,11l-3.4,2.7l-1.7,1.4c-0.3,0.2-0.6,0.4-0.8,0.7c-0.2,0.3-0.3,0.6-0.3,0.9c0,0.7,0.5,1.2,1.2,1.3c0.7,0,1.4,0,2.2,0h13.1
			c0.4,0,0.7,0,1.1,0c0.4,0.1,0.8,0.3,1.1,0.6c0.3,0.3,0.4,0.7,0.5,1.1v5.5v17.5v7.7c0,0.4-0.2,0.8-0.4,1.2
			c-0.1,0.2-0.3,0.3-0.5,0.4l-0.5,0.3l-0.9,0.6c-0.6,0.4-1.2,0.8-1.8,1.3c-1.2,0.9-2.3,1.8-3.3,2.8c-4.3,3.9-7.4,8.9-9,14.5
			c-0.1,0.7-0.3,1.4-0.4,2.1c-0.1-0.1-0.2-0.2-0.3-0.3l-0.1,0.1c0.1,0.1,0.2,0.3,0.3,0.4c-0.4,2.1-0.6,4.1-0.8,6.2l-0.1,1.1
			l-0.1,0.6c0,0.2-0.1,0.4-0.2,0.6c-0.2,0.3-0.4,0.5-0.6,0.7c0-0.1-0.1-0.2-0.1-0.3l-0.1,0c0,0.1,0.1,0.3,0.1,0.4
			c-0.1,0-0.1,0.1-0.1,0.1l-0.9,0.7c-1.1,0.9-2.2,1.9-3.2,2.9c-2.1,2-3.9,4.3-5.3,6.8c-0.4,0.6-0.7,1.3-1,1.9
			c-0.3,0.7-0.6,1.3-0.8,2c-0.3,0.7-0.4,1.4-0.6,2.1l-0.2,1.1c-0.1,0.3-0.1,0.7-0.1,1c0.1,0.7,0.3,1.3,0.7,1.9
			c0.3,0.6,0.7,1.3,1.1,1.9c0.8,1.2,1.7,2.4,2.5,3.5c1.8,2.3,3.7,4.5,5.7,6.6c8.1,8.4,16.6,16.4,25.6,23.8
			c8.9,7.5,18.1,14.6,27.6,21.4c16.2,11.7,33.2,22.4,50.7,32.1c1.8,1.2,3.6,2.4,5.5,3.5l0-0.1c-1.1-0.7-2.1-1.3-3.1-2.1
			c2.1,1.1,4.2,2.3,6.3,3.4c13.8,7.3,28,13.7,42.6,19.1c-0.2,0.2-0.4,0.4-0.5,0.6c-14.5-5.4-28.7-11.7-42.4-19
			c-20.7-10.9-40.6-23.2-59.5-36.9c-9.5-6.8-18.7-14-27.6-21.5c-9-7.5-17.5-15.4-25.6-23.9c-2-2.1-3.9-4.3-5.7-6.6
			c-0.9-1.2-1.8-2.3-2.6-3.6c-0.4-0.6-0.8-1.3-1.1-1.9c-0.4-0.7-0.6-1.4-0.7-2.2c0-0.4,0-0.8,0.1-1.2l0.2-1.1
			c0.2-0.7,0.3-1.4,0.6-2.1c0.2-0.7,0.5-1.4,0.8-2.1c0.3-0.7,0.6-1.3,1-2c1.5-2.5,3.3-4.9,5.4-6.9c1-1,2.1-2,3.3-2.9l0.9-0.7
			c0.3-0.2,0.5-0.4,0.7-0.7c0.1-0.3,0.2-0.6,0.2-0.9l0.1-1.1c0.3-2.9,0.7-5.8,1.3-8.7C16.2,143.3,19.4,138.2,23.8,134.2z"/>
	</g>
	<g>
		<path class="st1" d="M274.2,180.9c0,0,13.5,17.2,32.8,18.2c19.3,1,63.8-11.8,67-10.1"/>
	</g>
</g>
</svg>
