<svg id="Layer_2" data-name="Layer 2" xmlns="http://www.w3.org/2000/svg" viewBox="0 0 626.96 311.26"><defs><style>.cls-1{fill:none;}</style></defs><title>jwwIcon</title><g id="outline"><path d="M76.69,97.56q-6.75-5.57-13.63-11-3.44-2.7-6.94-5.32a65.36,65.36,0,0,0-7.24-4.86l-.48-.25a2.72,2.72,0,0,0-.51-.13c-.36,0-.71-.11-1.08-.15-.72-.09-1.44-.13-2.17-.17-1.45-.06-2.91,0-4.36,0s-2.91.14-4.36.26c-.72.1-1.5,0-2,.49l-1.7,1.37-13.65,11-3.41,2.74-1.71,1.37a6.1,6.1,0,0,0-.79.69,1.32,1.32,0,0,0-.3.89,1.4,1.4,0,0,0,1.2,1.33c.68,0,1.44,0,2.16,0H28.83c.38,0,.7,0,1.12,0a1.8,1.8,0,0,1,1.08.56,1.76,1.76,0,0,1,.46,1.13V103l0,17.5v7.66a1.89,1.89,0,0,1-.44,1.16,1.91,1.91,0,0,1-.48.39l-.46.29-.91.6c-.6.41-1.19.82-1.77,1.27a38.27,38.27,0,0,0-3.31,2.8,30.59,30.59,0,0,0-9,14.54,84.24,84.24,0,0,0-1.29,8.61l-.13,1.08-.07.56a1.89,1.89,0,0,1-.22.6,2.67,2.67,0,0,1-.85.83l-.86.67a38.62,38.62,0,0,0-3.23,2.9,32,32,0,0,0-5.32,6.82,20.31,20.31,0,0,0-1,1.92,18.22,18.22,0,0,0-.79,2c-.25.67-.37,1.39-.56,2.08l-.16,1.06a4.15,4.15,0,0,0-.08,1,5.68,5.68,0,0,0,.65,1.95,20.47,20.47,0,0,0,1.07,1.87c.78,1.22,1.66,2.37,2.55,3.52,1.81,2.27,3.74,4.45,5.72,6.58a301.45,301.45,0,0,0,25.57,23.81q13.4,11.24,27.61,21.45a486.6,486.6,0,0,0,59.42,36.78,354.28,354.28,0,0,0,64.61,26.39q8.39,2.43,16.93,4.29l2.13.47a4.39,4.39,0,0,0,1,.13l1.09.05,4.37.19c2.91.12,5.82.3,8.73.32,11.65.35,23.31.06,34.94-.63s23.23-1.93,34.74-3.73c5.75-.93,11.49-2,17.17-3.22,2.84-.65,5.68-1.3,8.48-2.07l1.05-.3a3.78,3.78,0,0,1,.64-.09h.54c.72,0,1.45-.06,2.17-.12a32.06,32.06,0,0,0,4.27-.62,8.41,8.41,0,0,0,3.78-1.63l.29-.37a5.25,5.25,0,0,1,.37-.49,2,2,0,0,1,1.18-.6,2.05,2.05,0,0,1,.66,0l.54.1,1.08.25c.72.18,1.43.38,2.13.59a1.23,1.23,0,0,0,1.54-.39q1.23-1.79,2.36-3.65a17.19,17.19,0,0,0,1.86-3.81,1.12,1.12,0,0,0,0-.83,2.9,2.9,0,0,0-.57-.77,6.6,6.6,0,0,0-.8-.67,2.86,2.86,0,0,1-.9-.83,2,2,0,0,1,.39-2.45,1.86,1.86,0,0,1,1.24-.47c.26,0,.38,0,.51,0a1.27,1.27,0,0,0,.39-.12,1.23,1.23,0,0,0,.57-.6,4.46,4.46,0,0,0,.22-1,3,3,0,0,0,.05-.5,1.65,1.65,0,0,0-.07-.45,6.24,6.24,0,0,1-.17-1.16,2.53,2.53,0,0,1,.27-1.25,1.47,1.47,0,0,1,1.2-.68c.8,0,1.48.05,2.23.08l4.36.24c1.45.07,2.91.13,4.35.11a16.74,16.74,0,0,0,2.14-.12,1.93,1.93,0,0,0,.83-.23c.26-.25.51-.51.74-.77a4.32,4.32,0,0,0,1-1.75c.05-.17.07-.31.11-.51a2,2,0,0,1,.23-.61,1.81,1.81,0,0,1,1-.84,28.27,28.27,0,0,1,4.22-1.32,34.94,34.94,0,0,1,8.76-.93,34.18,34.18,0,0,1,4.4.35l1.09.18a1.69,1.69,0,0,0,.92,0,14.39,14.39,0,0,0,1.9-.92,6,6,0,0,0,2.8-3,12.37,12.37,0,0,0,.73-4.18,1.89,1.89,0,0,1,1.63-1.8c.81,0,1.48,0,2.23,0l4.37,0,8.74-.14q17.5-.33,35-1c23.3-.93,46.6-2.3,69.82-4.5,11.61-1.11,23.2-2.43,34.73-4.14A302.12,302.12,0,0,0,576.71,242a105.62,105.62,0,0,0,16.46-5.77,38.74,38.74,0,0,0,7.48-4.42c.6-.42,1.1-.94,1.65-1.41s1-1.05,1.48-1.58l.62-.88A4.35,4.35,0,0,0,605,227l.49-.95c.12-.34.22-.69.33-1l.15-.51L606,224c0-.36.09-.71.12-1.07l0-2.18.11-4.38.11-8.74q.08-8.75-.07-17.5c-.09-5.83-.25-11.66-.39-17.49-.06-2.91-.14-5.83-.07-8.76a18.21,18.21,0,0,1,.15-2.2,4,4,0,0,1,.26-1.1,6.17,6.17,0,0,1,.59-1,24.75,24.75,0,0,1,3-3.21,164.84,164.84,0,0,1,13.68-10.92l1.77-1.29c.28-.21.63-.43.86-.63a1.39,1.39,0,0,0,.15-1.78l-.57-.94L624.62,139q-2.31-3.72-4.72-7.36c-3.23-4.85-6.6-9.61-10.18-14.21a106.32,106.32,0,0,0-11.67-13c-1-1-2.2-1.89-3.32-2.81a2,2,0,0,1-.75-.94c-.13-.37-.21-.69-.34-1-.23-.68-.51-1.35-.79-2-.57-1.34-1.2-2.65-1.86-4l-1-1.93-.52-1-.27-.49a1.87,1.87,0,0,1-.16-.58,3.85,3.85,0,0,0-.88-1.84,4.24,4.24,0,0,0-.77-.7c-.14-.11-.29-.18-.45-.29a1.64,1.64,0,0,1-.46-.41,1.77,1.77,0,0,1,0-2.3c.52-.54,1.06-1,1.6-1.52a24.57,24.57,0,0,0,3.06-3.06,6.19,6.19,0,0,0,1-1.87,8.14,8.14,0,0,1,1.06-2,11.75,11.75,0,0,1,1.45-1.69c.27-.26.54-.51.83-.74l.43-.34a1.21,1.21,0,0,0,.29-.35,17.9,17.9,0,0,0,1.37-4.07,12.76,12.76,0,0,0-.81-8.38l-.23-.49-.29-.44-.59-.89-.72-.8-.35-.4-.41-.35a11.34,11.34,0,0,0-1.71-1.3l-.91-.58a1.93,1.93,0,0,1-.85-.89,1.8,1.8,0,0,1-.08-1.23c.13-.4.26-.69.37-1a18.94,18.94,0,0,0,.56-2.09,23.78,23.78,0,0,0,.48-4.29A18.23,18.23,0,0,0,590.28,37a14,14,0,0,0-5.87-6.09,17.27,17.27,0,0,0-4-1.63c-.69-.23-1.4-.34-2.1-.51s-1.43-.24-2.15-.31-1.44-.15-2.16-.16l-1.09,0a1.36,1.36,0,0,0-.88.21A4.85,4.85,0,0,0,570.69,30a2.31,2.31,0,0,0-.17,1.86l0,0a22.66,22.66,0,0,1,1,5.71,10.49,10.49,0,0,1-1.15,5.7,6,6,0,0,1-2.08,2.14,10,10,0,0,1-2.74,1,30.35,30.35,0,0,0-5.21,2.25,37.53,37.53,0,0,0-9.09,6.79,26.18,26.18,0,0,0-6,9.5,21.6,21.6,0,0,0-.78,11.16c.6,3.76,2.39,7.17,3.93,10.67,3.11,7,6.07,14.07,8.78,21.24,1.36,3.58,2.65,7.19,3.84,10.83.6,1.82,1.16,3.66,1.69,5.5.27.92.52,1.85.77,2.78a1.91,1.91,0,0,1-.28,1.64c-.26.41-.53.81-.8,1.21a75.42,75.42,0,0,1-7.47,8.82,1.7,1.7,0,0,1-.79.4,2.55,2.55,0,0,1-.81,0l-1.43-.06-2.87-.08c-1.91,0-3.82-.07-5.72,0s-3.82.09-5.7.27a20.92,20.92,0,0,0-2.78.43l-.34.08a2.34,2.34,0,0,1-.45.07,1.88,1.88,0,0,1-.87-.2,2.2,2.2,0,0,1-.68-.52,5.44,5.44,0,0,0-.48-.48,31.71,31.71,0,0,0-4.68-3.16l-1.24-.71c-.21-.11-.43-.24-.62-.33a1,1,0,0,0-.51-.12,1.19,1.19,0,0,0-.93.46c-.24.29-.23.62-.27,1.16a8.7,8.7,0,0,1-.68,2.91,4.08,4.08,0,0,1-2.16,2.22,1.76,1.76,0,0,1-.9.12l-.7-.09a10.6,10.6,0,0,0-1.38,0,20.22,20.22,0,0,0-2.79.33,40.41,40.41,0,0,0-5.5,1.43c-.47.15-.85.31-1.39.47l-1.41.32c-.93.21-1.88.4-2.82.58a53.25,53.25,0,0,1-11.5,1.17,11.92,11.92,0,0,1-2.93-.46,2.63,2.63,0,0,1-.76-.28,1.9,1.9,0,0,1-.65-.64,2,2,0,0,1-.29-.86c0-.32,0-.5,0-.75l0-5.75c0-3.83.1-7.66.24-11.49.07-1.92.17-3.83.32-5.75.07-1,.16-1.92.29-2.88s.47-1.9.58-2.82a8.54,8.54,0,0,0,.08-2.71,2.92,2.92,0,0,0-1.26-2.06,5.23,5.23,0,0,0-2.53-.6,2.6,2.6,0,0,0-1.2.2c-.18.1-.36.2-.54.32s-.34.27-.49.43a8.93,8.93,0,0,0-2.17,4.9,12.84,12.84,0,0,0,.47,5.52,4.12,4.12,0,0,1,.05.45v.36l0,.73-.06,1.44-.14,2.87-.37,5.73q-.21,2.86-.47,5.73l-.3,2.87-.18,1.43-.1.72a2.22,2.22,0,0,1-.23.83,2,2,0,0,1-1.46,1,2.41,2.41,0,0,1-.86,0l-.69-.1c-.93-.12-1.88-.2-2.83-.26s-1.9-.1-2.85-.13l-1.43,0a2.06,2.06,0,0,1-1.6-.79,2.2,2.2,0,0,1-.38-.84c-.05-.34,0-.51-.07-.77l-.09-1.44-.13-2.87c-.07-1.92-.12-3.85,0-5.78,0-.49.05-1,.11-1.46,0-.25,0-.49.1-.74l.06-.37a1.76,1.76,0,0,1,.15-.44,1.84,1.84,0,0,1,.26-.4,1.4,1.4,0,0,0,.16-.25,2.16,2.16,0,0,0,.25-.55,7.71,7.71,0,0,0,.31-1.32,26.35,26.35,0,0,0,.16-5.62,27.31,27.31,0,0,0-.95-5.55,9.56,9.56,0,0,0-2.65-4.66c-.24-.19-.59-.17-1.11-.17h-1.42a1.1,1.1,0,0,0-.86.46,1.51,1.51,0,0,0-.19,1.09l.18,5.75c.1,3.82.19,7.65.2,11.49,0,1.91,0,3.83-.09,5.76a14.9,14.9,0,0,1-.34,3,11.06,11.06,0,0,0-.8,2.65l-.1.69,0,.36a2.28,2.28,0,0,1-.11.45,2,2,0,0,1-1.32,1.22,2.64,2.64,0,0,1-.84.09h-2.9a2,2,0,0,1-1.88-1.76l-.12-2.91-.45-11.48-.22-5.74-.11-2.87c0-.49-.05-.91,0-1.48a3.53,3.53,0,0,1,.19-.78,6.2,6.2,0,0,0,.14-.65,35.24,35.24,0,0,0,.31-5.64,46.7,46.7,0,0,0-.4-5.67,28.46,28.46,0,0,0-1.24-5.5A10.18,10.18,0,0,0,449,93.38a1.12,1.12,0,0,0-1.77.19,1.06,1.06,0,0,0-.14.51l-.08.71c-.06.46-.1.93-.13,1.41-.15,1.89-.2,3.8-.26,5.71-.09,3.82-.1,7.64-.09,11.47,0,7.65.15,15.3.23,23v2.17a2,2,0,0,1-1.68,2,5.79,5.79,0,0,1-.78,0l-.72,0-5.74.13-11.48.27-23,.58q-22.95.62-45.9,1.36c-15.3.51-30.6,1.06-45.88,1.85-3.82.22-7.64.41-11.45.69-1.91.13-3.81.26-5.71.47l-2.85.27a2,2,0,0,1-1.71-.63,2.09,2.09,0,0,1-.54-1.74,37.39,37.39,0,0,0,.88-11.27,12,12,0,0,0-.57-2.69,13.27,13.27,0,0,1-.55-1.4,2.14,2.14,0,0,1,0-.94,2.2,2.2,0,0,1,.42-.78,28,28,0,0,1,3.84-4.4,14.37,14.37,0,0,1,2.38-1.76,7.17,7.17,0,0,1,2.95-1,2.19,2.19,0,0,1,.91.23,1.7,1.7,0,0,1,.38.26l.28.22a11.16,11.16,0,0,0,1.12.78,8.39,8.39,0,0,0,2.49,1c.86.18,1.73.07,1.94-.54a4,4,0,0,0-.24-2.45,12.8,12.8,0,0,0-.53-1.28l-.14-.32-.15-.2a.92.92,0,0,0-.2-.24l-.25-.27a26.43,26.43,0,0,1-1.85-2.26c-.29-.39-.57-.79-.84-1.19l-.4-.61a2.36,2.36,0,0,1-.35-.84,2.07,2.07,0,0,1,.51-1.75,2,2,0,0,1,.79-.53c.35-.11.49-.12.71-.19a4.62,4.62,0,0,0,2.13-1.42,6.33,6.33,0,0,0,.41-.54,2.16,2.16,0,0,1,.69-.62,1.94,1.94,0,0,1,.91-.25,5.66,5.66,0,0,1,.79.06,23.55,23.55,0,0,1,5.67,1.47,15,15,0,0,1,2.63,1.37c.21.13.41.29.61.44a1.24,1.24,0,0,0,.46.25,1,1,0,0,0,.9-.18,2.89,2.89,0,0,0,.9-2.19,5.31,5.31,0,0,0-.67-2.52,8.68,8.68,0,0,0-1.66-2.14l-2-2L310.62,97l-2-2-1-1-.51-.51a2.15,2.15,0,0,1-.54-.73,1,1,0,0,1,0-.66,1.08,1.08,0,0,1,.35-.51,2.21,2.21,0,0,1,.81-.41,7.44,7.44,0,0,1,1.52-.26,11.94,11.94,0,0,1,3,.16,4.56,4.56,0,0,1,.76.21,2,2,0,0,1,.4.18,1.23,1.23,0,0,1,.22.15c.11.1.08,0,0,0s-.18,0-.13,0a.69.69,0,0,0,.15-.15,3,3,0,0,0,.31-.53,6.46,6.46,0,0,0,.55-2.58,4.11,4.11,0,0,0-.69-2.45,3.56,3.56,0,0,0-2.09-1.34c-.86-.19-1.87-.33-2.8-.5l-1.41-.27-.72-.14-.36-.09-.21-.06c-.14.73-.26-1.14.11-1l-.39.7c-5.5-9.22-11.06-18.41-16.81-27.46-1.44-2.26-2.9-4.51-4.41-6.72-.75-1.11-1.52-2.21-2.32-3.26a9.81,9.81,0,0,0-1.26-1.41,6.71,6.71,0,0,1-1.5-1.51,17.24,17.24,0,0,1-2-3.62,34.86,34.86,0,0,1-1.36-3.83l-.29-1-.06-.25a1,1,0,0,0-.07-.21l-.16-.48L275,31.6l-1.32-3.8c-.46-1.26-.91-2.52-1.41-3.75a21.42,21.42,0,0,0-1.93-3.45c-1.42-2.27-2.89-4.51-4.36-6.76l-2.22-3.36-.55-.84a4.28,4.28,0,0,1-.51-.94c-.27-.61-.55-1.2-.86-1.79a12,12,0,0,0-2.21-3.18,2.73,2.73,0,0,0-.74-.47c-.29-.12-.6-.23-.91-.34-.63-.21-1.27-.39-1.91-.57A42,42,0,0,0,240.31,1a19.68,19.68,0,0,0-7.45,2.46,15.08,15.08,0,0,0-3,2.47,15.51,15.51,0,0,0-2.22,3.22v0h0a75.07,75.07,0,0,0-4.3,7.94,28.63,28.63,0,0,0-2.66,8.51,7.92,7.92,0,0,0,0,1.08c0,.29.16.7.22,1.07.16.75.29,1.5.4,2.26a26.9,26.9,0,0,1,.28,4.58,17.3,17.3,0,0,1-.68,4.56,9.68,9.68,0,0,1-2.3,4l0,0-3.63,5.7-1.82,2.85-.91,1.42-.45.71a1.58,1.58,0,0,0-.18.33c-.05.1-.11.26-.16.39a16.13,16.13,0,0,1-1.6,3,17,17,0,0,1-2.27,2.57q-2.35,2.41-4.55,5a89.07,89.07,0,0,0-8,10.8,42.8,42.8,0,0,0-5.41,12.24c-1.17,4.37-2.52,8.67-3.34,13.09-.22,1.1-.37,2.21-.5,3.32s-.08,2.2-.22,3.38a25.91,25.91,0,0,1-2,6.53,33,33,0,0,1-7.83,11l-1.27,1.13-1.36,1a5.65,5.65,0,0,0-.61.5,6.49,6.49,0,0,0-.44.67c-.29.48-.57,1-.83,1.46a27.94,27.94,0,0,0-1.41,3,1.68,1.68,0,0,1-.57.77,2.54,2.54,0,0,1-.82.39c-.53.2-1.05.41-1.56.62a31.07,31.07,0,0,0-5.88,3.22,14.73,14.73,0,0,0-4.51,4.82l-.35.75a2.7,2.7,0,0,1-.46.79,1.8,1.8,0,0,1-1.77.5c-.62-.23-1-.51-1.56-.74s-1-.45-1.54-.66a43.45,43.45,0,0,0-6.43-2,31.76,31.76,0,0,0-6.65-.89,15.39,15.39,0,0,0-1.66.09,2.53,2.53,0,0,1-.91,0,6.82,6.82,0,0,1-.81-.33c-1-.43-2.08-.84-3.14-1.23a56.61,56.61,0,0,0-13-3.27c-1.12-.12-2.24-.2-3.36-.21-.56,0-1.12,0-1.68.05a2.48,2.48,0,0,1-.89-.05,5.82,5.82,0,0,1-.79-.37,24.48,24.48,0,0,0-6.39-2,22.44,22.44,0,0,0-6.69-.29,10.31,10.31,0,0,0-3.21.86l-.74.39-.65.51c-.43.36-.67.81-1.14,1.25a1.81,1.81,0,0,1-1.71.25l-1.63-.44-3.27-.84c-2.19-.56-4.37-1.13-6.54-1.75s-4.33-1.29-6.44-2.09a29.48,29.48,0,0,1-3.1-1.37,10.29,10.29,0,0,1-1.46-.88A3.89,3.89,0,0,1,67.21,128v0a18,18,0,0,1,.51-2.29c.11-.37.24-.75.38-1.11a3.49,3.49,0,0,0,.36-1.09,2.2,2.2,0,0,0-.86-2,10.9,10.9,0,0,0-2.13-.9,30.38,30.38,0,0,0-9.18-1.45v-.1a30.78,30.78,0,0,1,9.23,1.43,10.47,10.47,0,0,1,2.16.92,2.33,2.33,0,0,1,.92,2.11,3.87,3.87,0,0,1-.36,1.12,11,11,0,0,0-.38,1.1,18,18,0,0,0-.49,2.27v0a3.67,3.67,0,0,0,1.14,1.18,11.6,11.6,0,0,0,1.43.87A31.32,31.32,0,0,0,73,131.35c2.11.79,4.27,1.45,6.43,2.07s4.35,1.18,6.54,1.73l3.28.83,1.64.43a1.57,1.57,0,0,0,1.5-.21c.35-.32.69-.89,1.12-1.24l.68-.54L95,134a10.46,10.46,0,0,1,3.28-.9,22.68,22.68,0,0,1,6.78.28,23.82,23.82,0,0,1,6.47,2,8,8,0,0,0,.75.34,2.21,2.21,0,0,0,.78,0c.57,0,1.14-.07,1.7-.06,1.14,0,2.27.08,3.39.2a57.25,57.25,0,0,1,13.15,3.25q1.59.57,3.15,1.23a7,7,0,0,0,.76.3,1.82,1.82,0,0,0,.77,0,16.32,16.32,0,0,1,1.71-.09,32.49,32.49,0,0,1,6.74.87,44.7,44.7,0,0,1,6.5,2c.52.21,1.05.43,1.56.67s1.06.56,1.5.71a1.35,1.35,0,0,0,1.33-.38,2.19,2.19,0,0,0,.37-.66L156,143a15.15,15.15,0,0,1,4.64-5,31.17,31.17,0,0,1,6-3.28c.53-.22,1-.44,1.58-.63a2.4,2.4,0,0,0,.7-.32,1.33,1.33,0,0,0,.42-.57,29.85,29.85,0,0,1,1.42-3.1c.27-.5.55-1,.85-1.48a6.73,6.73,0,0,1,.49-.74,5.45,5.45,0,0,1,.69-.57l1.32-1,1.26-1.11A32.7,32.7,0,0,0,183,114.32a25.53,25.53,0,0,0,1.91-6.39c.12-1.06.08-2.25.21-3.37s.29-2.26.5-3.37c.82-4.45,2.17-8.79,3.32-13.12a43.59,43.59,0,0,1,5.46-12.41,89.82,89.82,0,0,1,8.09-10.89q2.21-2.58,4.57-5a16.56,16.56,0,0,0,2.2-2.49,16,16,0,0,0,1.53-2.93c.06-.14.09-.25.16-.4a3,3,0,0,1,.22-.41l.46-.72.9-1.42,1.82-2.86L218,42.81l0,0,0,0c2.06-2.11,2.7-5.22,2.78-8.16a26.78,26.78,0,0,0-.28-4.47c-.11-.74-.24-1.48-.39-2.21a9.4,9.4,0,0,1-.24-1.16,7.73,7.73,0,0,1,0-1.18,29.2,29.2,0,0,1,2.71-8.75,74.54,74.54,0,0,1,4.33-8v0a15.78,15.78,0,0,1,2.33-3.4,15.93,15.93,0,0,1,3.18-2.6A20.52,20.52,0,0,1,240.21.28a42.44,42.44,0,0,1,16.1,1.34c.65.18,1.3.36,1.95.58.33.11.65.22,1,.35a3.71,3.71,0,0,1,.94.61,12.59,12.59,0,0,1,2.39,3.39c.31.6.61,1.22.88,1.84a3.11,3.11,0,0,0,.45.82l.55.84,2.23,3.36c1.47,2.24,2.94,4.49,4.38,6.76l1.06,1.73a10.59,10.59,0,0,1,.93,1.84c.52,1.26,1,2.52,1.43,3.79l1.33,3.8.65,1.91.16.48a1.71,1.71,0,0,1,.09.27l.06.24.28,1a35.59,35.59,0,0,0,1.34,3.75,16.78,16.78,0,0,0,1.87,3.44,6,6,0,0,0,1.32,1.33A9.78,9.78,0,0,1,283,45.27c.84,1.08,1.6,2.18,2.37,3.29,1.51,2.23,3,4.48,4.43,6.74,5.78,9.06,11.35,18.24,16.87,27.46l-.4.69c.17.17.21-1.56.19-.83l.14,0,.33.08.69.14,1.41.26c.95.18,1.84.29,2.85.51a4.57,4.57,0,0,1,2.63,1.7,5.16,5.16,0,0,1,.87,3,7.32,7.32,0,0,1-.64,3,3.48,3.48,0,0,1-.42.71,1.51,1.51,0,0,1-.36.35.79.79,0,0,1-.79.1,1.43,1.43,0,0,1-.26-.17l-.08,0a1,1,0,0,0-.25-.11A3.74,3.74,0,0,0,312,92a10.89,10.89,0,0,0-2.74-.14,6,6,0,0,0-1.3.22,1.47,1.47,0,0,0-.47.22c-.09.11,0,0,0,.1a5.62,5.62,0,0,0,.84.91l1,1,2,2,4.07,4.06,2,2a9.74,9.74,0,0,1,1.83,2.37,6.52,6.52,0,0,1,.79,3,3.86,3.86,0,0,1-1.25,2.94,1.94,1.94,0,0,1-1.8.38,2.21,2.21,0,0,1-.81-.41c-.18-.13-.36-.28-.55-.4a13.3,13.3,0,0,0-2.46-1.27,22.34,22.34,0,0,0-5.41-1.41c-.52-.06-.8-.11-1.1.07a1,1,0,0,0-.36.33c-.13.18-.3.41-.46.6a5.53,5.53,0,0,1-2.59,1.73c-.23.07-.56.14-.67.18a.93.93,0,0,0-.39.26,1.09,1.09,0,0,0-.27.91,1.37,1.37,0,0,0,.21.47l.39.59c.26.39.53.78.81,1.16a26.82,26.82,0,0,0,1.78,2.18,5,5,0,0,1,.5.56,4.4,4.4,0,0,1,.26.39l.16.33c.21.45.39.9.56,1.38a7.82,7.82,0,0,1,.37,1.48,3.35,3.35,0,0,1-.15,1.67,2,2,0,0,1-1.42,1.16,4.09,4.09,0,0,1-1.64,0,9.07,9.07,0,0,1-2.8-1.14,11.68,11.68,0,0,1-1.23-.85l-.28-.24a1.64,1.64,0,0,0-.22-.14,1.25,1.25,0,0,0-.46-.12,3.28,3.28,0,0,0-.59.11,5,5,0,0,0-.63.19,8,8,0,0,0-1.22.57,13,13,0,0,0-2.22,1.64,26.79,26.79,0,0,0-3.7,4.24,1.25,1.25,0,0,0-.26.47.87.87,0,0,0,0,.48c0,.26.35.8.5,1.26a13,13,0,0,1,.62,2.91,38.72,38.72,0,0,1-.88,11.54,1.07,1.07,0,0,0,1.16,1.23l2.87-.27c1.91-.21,3.82-.34,5.73-.47,3.82-.29,7.65-.47,11.47-.69,15.29-.79,30.6-1.33,45.9-1.84s30.6-.94,45.9-1.35l23-.57,11.48-.27,5.74-.13.72,0a5.48,5.48,0,0,0,.64,0,1.05,1.05,0,0,0,.77-.57,1,1,0,0,0,.12-.48v-2.14c-.08-7.65-.21-15.3-.23-23,0-3.83,0-7.66.1-11.5.06-1.91.11-3.83.26-5.75,0-.48.07-1,.13-1.45l.09-.72a2,2,0,0,1,.25-.85,2.05,2.05,0,0,1,1.5-1,2.17,2.17,0,0,1,1.68.54,11.14,11.14,0,0,1,3.15,5,29.61,29.61,0,0,1,1.28,5.69,46.36,46.36,0,0,1,.41,5.77,35.46,35.46,0,0,1-.33,5.81,6.69,6.69,0,0,1-.16.75,2.56,2.56,0,0,0-.16.6l0,1.39.12,2.87.22,5.73.44,11.47.11,2.83a1.12,1.12,0,0,0,.54.81,1,1,0,0,0,.48.14h2.12a7.28,7.28,0,0,0,1.3-.05,1.06,1.06,0,0,0,.71-.66.94.94,0,0,0,.06-.24l0-.35.11-.73a12.31,12.31,0,0,1,.33-1.46,6,6,0,0,1,.25-.71l.15-.36a1.13,1.13,0,0,0,.12-.31,15.49,15.49,0,0,0,.27-2.69c.09-1.9.1-3.81.09-5.72,0-3.82-.09-7.65-.19-11.47l-.18-5.73a5.6,5.6,0,0,1,0-.81,2,2,0,0,1,.35-.85,2,2,0,0,1,1.58-.85h1.45c.25,0,.44,0,.77,0a1.77,1.77,0,0,1,.88.33,10.32,10.32,0,0,1,3,5.14,27.45,27.45,0,0,1,1,5.75,26.5,26.5,0,0,1-.17,5.83,8,8,0,0,1-.35,1.47,2.61,2.61,0,0,1-.34.75,4.16,4.16,0,0,1-.24.35.76.76,0,0,0-.12.19,1.17,1.17,0,0,0-.09.24l0,.33a5.21,5.21,0,0,0-.09.69c-.05.46-.09.93-.11,1.4-.08,1.89,0,3.8,0,5.7l.14,2.86.08,1.43c0,.53,0,.84.27,1.11a1.11,1.11,0,0,0,.89.43l1.44,0c1,0,1.92.07,2.88.13s1.92.14,2.89.27l.72.11a1.94,1.94,0,0,0,.57,0,1.09,1.09,0,0,0,.79-.57,4.85,4.85,0,0,0,.24-1.25l.18-1.41.29-2.85c.18-1.9.33-3.81.47-5.71l.37-5.72.15-2.86.06-1.43,0-.72v-.35a1.78,1.78,0,0,0,0-.26,13.9,13.9,0,0,1-.47-5.83,9.77,9.77,0,0,1,2.43-5.41,5.92,5.92,0,0,1,.59-.52,5.35,5.35,0,0,1,.7-.41,3.38,3.38,0,0,1,.8-.24l.42,0h.38a6,6,0,0,1,3,.74,3.85,3.85,0,0,1,1.67,2.67,9.47,9.47,0,0,1-.09,3c-.12,1-.51,1.91-.58,2.79s-.21,1.88-.29,2.83c-.15,1.9-.25,3.81-.32,5.71-.15,3.82-.22,7.65-.27,11.47l0,5.74c0,.22,0,.52,0,.67a1.19,1.19,0,0,0,.17.49,1.32,1.32,0,0,0,.94.57,11.61,11.61,0,0,0,2.73.42,52.16,52.16,0,0,0,11.3-1.14c.93-.17,1.87-.36,2.8-.57l1.39-.32c.37-.1.89-.31,1.33-.44a41.1,41.1,0,0,1,5.6-1.45,20.27,20.27,0,0,1,2.91-.34,12.41,12.41,0,0,1,1.49,0l.71.1a.94.94,0,0,0,.51-.07,3.3,3.3,0,0,0,1.74-1.8A8.35,8.35,0,0,0,523,136c0-.25,0-.42.06-.75a2,2,0,0,1,1.91-1.6,1.89,1.89,0,0,1,.87.21l.65.35,1.25.71a31.87,31.87,0,0,1,4.81,3.27c.18.17.36.34.53.53a1.52,1.52,0,0,0,.45.36,1.14,1.14,0,0,0,.51.11,1.09,1.09,0,0,0,.26,0l.36-.09a22.49,22.49,0,0,1,2.89-.45c1.93-.17,3.85-.24,5.77-.26s3.83,0,5.75.05l2.87.09,1.44.06a2,2,0,0,0,.61,0,1,1,0,0,0,.48-.24,75.51,75.51,0,0,0,7.36-8.68c.27-.39.54-.78.79-1.18a1.19,1.19,0,0,0,.19-1.09c-.24-.92-.49-1.84-.76-2.76-.52-1.83-1.08-3.66-1.68-5.47-1.18-3.64-2.46-7.24-3.8-10.82-2.7-7.15-5.65-14.21-8.74-21.21-1.52-3.47-3.34-7-4-10.82a22.36,22.36,0,0,1,.83-11.47,26.47,26.47,0,0,1,6.2-9.71,38.26,38.26,0,0,1,9.24-6.89A30.51,30.51,0,0,1,565.41,46,9.78,9.78,0,0,0,568,45,5.33,5.33,0,0,0,569.91,43a10.05,10.05,0,0,0,1.09-5.4,22.28,22.28,0,0,0-1-5.56v0a2.75,2.75,0,0,1,.18-2.35,4.94,4.94,0,0,1,1.53-1.71,1.75,1.75,0,0,1,1.19-.31l1.1,0c.74,0,1.47.1,2.2.17s1.46.21,2.18.31,1.45.29,2.15.53a18.22,18.22,0,0,1,4.09,1.67,14.5,14.5,0,0,1,6.08,6.32,18.7,18.7,0,0,1,1.79,8.61,23.89,23.89,0,0,1-.49,4.38c-.17.72-.34,1.44-.58,2.14-.1.34-.27.72-.37,1a1.39,1.39,0,0,0,.06.9,1.36,1.36,0,0,0,.64.66l.94.6a11.42,11.42,0,0,1,1.76,1.35l.42.36.38.42.74.83.62.93.3.47.24.5a11.09,11.09,0,0,1,1.15,4.28,14.9,14.9,0,0,1-.31,4.42,18.74,18.74,0,0,1-1.42,4.2,1.68,1.68,0,0,1-.4.48l-.43.34c-.28.23-.55.46-.81.71a12.71,12.71,0,0,0-1.4,1.62,8.42,8.42,0,0,0-1,1.87,6.67,6.67,0,0,1-1.05,2A24.2,24.2,0,0,1,588.4,83c-.53.48-1.08,1-1.56,1.49a1.32,1.32,0,0,0,0,1.71,1.34,1.34,0,0,0,.36.31c.14.1.32.19.47.31a4.37,4.37,0,0,1,.84.77,4.19,4.19,0,0,1,1,2.05,1.3,1.3,0,0,0,.12.47l.26.47.52,1,1,1.94c.66,1.31,1.28,2.63,1.86,4,.28.67.56,1.35.8,2,.12.34.23.72.33,1a1.52,1.52,0,0,0,.61.73c1.13.94,2.3,1.82,3.35,2.85a107.78,107.78,0,0,1,11.7,13c3.58,4.61,7,9.39,10.18,14.25q2.4,3.66,4.72,7.37l1.14,1.87.57.94a1.75,1.75,0,0,1-.21,2.23c-.32.28-.6.44-.9.67l-1.77,1.28a168.91,168.91,0,0,0-13.67,10.88,25.32,25.32,0,0,0-3,3.16,6,6,0,0,0-.55.9,3.64,3.64,0,0,0-.24,1c-.09.71-.13,1.44-.15,2.17-.07,2.9,0,5.82.07,8.73.13,5.83.28,11.67.37,17.5s.11,11.67.07,17.5l-.1,8.75-.1,4.37,0,2.19c0,.37-.08.74-.12,1.11l-.07.55-.16.53c-.11.36-.21.72-.34,1.06l-.5,1a4.71,4.71,0,0,1-.57.94l-.64.91c-.5.54-1,1.11-1.51,1.61s-1.07,1-1.67,1.44a39.6,39.6,0,0,1-7.55,4.47,106.08,106.08,0,0,1-16.51,5.82,301.49,301.49,0,0,1-34.31,6.89c-11.54,1.73-23.14,3.07-34.75,4.19-23.23,2.24-46.54,3.64-69.85,4.6q-17.49.72-35,1.07l-8.75.15-4.38.05c-.71,0-1.5,0-2.15,0a1.26,1.26,0,0,0-1.06,1.19,13.2,13.2,0,0,1-.77,4.4,6.75,6.75,0,0,1-3.08,3.29,15.22,15.22,0,0,1-2,1,2.37,2.37,0,0,1-1.24,0l-1.07-.17a35,35,0,0,0-12.9.58,29,29,0,0,0-4.12,1.3,1.13,1.13,0,0,0-.65.54,1.34,1.34,0,0,0-.15.41c0,.15-.07.37-.12.55a5.09,5.09,0,0,1-1.14,2c-.25.28-.51.55-.77.81a2.31,2.31,0,0,1-1.22.43,21.15,21.15,0,0,1-2.23.13c-1.47,0-2.93,0-4.39-.11l-4.38-.24c-.71,0-1.48-.1-2.13-.08a.7.7,0,0,0-.63.34,1.67,1.67,0,0,0-.17.87,4.94,4.94,0,0,0,.15,1,2.33,2.33,0,0,1,.09.63,5.76,5.76,0,0,1-.33,1.74,1.89,1.89,0,0,1-1.55,1.16,5,5,0,0,1-.58,0,1.17,1.17,0,0,0-.76.28,1.22,1.22,0,0,0-.24,1.53,2.19,2.19,0,0,0,.7.62,6.9,6.9,0,0,1,.88.74,3.41,3.41,0,0,1,.72,1,1.84,1.84,0,0,1,.1,1.3,18,18,0,0,1-1.94,4q-1.14,1.88-2.39,3.69a2,2,0,0,1-1.76.82,3.14,3.14,0,0,1-.6-.14c-.7-.21-1.4-.41-2.1-.58l-1-.24a3.23,3.23,0,0,0-1-.12,1.21,1.21,0,0,0-.73.38,3.44,3.44,0,0,0-.29.37c-.13.17-.25.34-.39.49a8.92,8.92,0,0,1-4.14,1.84,31.25,31.25,0,0,1-4.38.64c-.74.06-1.47.11-2.2.13l-.56,0a3,3,0,0,0-.44.05l-1,.3c-2.82.78-5.67,1.44-8.52,2.1-5.7,1.27-11.45,2.31-17.21,3.24-11.54,1.82-23.16,3.06-34.82,3.79s-23.34,1-35,.67c-2.92,0-5.84-.19-8.75-.32l-4.38-.2-1.09-.05a5,5,0,0,1-1.15-.15l-2.14-.47q-8.57-1.87-17-4.32A355.11,355.11,0,0,1,122.82,276a487.19,487.19,0,0,1-59.46-36.9q-14.19-10.26-27.62-21.52a301,301,0,0,1-25.6-23.89c-2-2.14-3.92-4.33-5.74-6.63-.89-1.16-1.79-2.32-2.57-3.57a19.16,19.16,0,0,1-1.11-1.92A6.52,6.52,0,0,1,0,179.38a4.75,4.75,0,0,1,.09-1.15l.17-1.1c.2-.71.32-1.44.58-2.14a18.35,18.35,0,0,1,.81-2.06c.29-.68.65-1.32,1-2A32.87,32.87,0,0,1,8.08,164a39.76,39.76,0,0,1,3.28-2.94l.87-.67a2.31,2.31,0,0,0,.71-.67,2.33,2.33,0,0,0,.22-.95l.14-1.09A82.86,82.86,0,0,1,14.61,149a31.06,31.06,0,0,1,9.2-14.78,39.29,39.29,0,0,1,3.36-2.83c.58-.45,1.18-.87,1.79-1.29l.92-.6a3.77,3.77,0,0,0,.83-.59,1.29,1.29,0,0,0,.32-.84v-7.65l0-17.5V97.5a1.35,1.35,0,0,0-.35-.85,1.33,1.33,0,0,0-.82-.44c-.31,0-.72,0-1.07,0H15.71c-.74,0-1.44,0-2.21,0A1.75,1.75,0,0,1,12,94.49a1.69,1.69,0,0,1,.37-1.13,5.75,5.75,0,0,1,.86-.74l1.71-1.37,3.42-2.73L32,77.62l1.71-1.37a1.71,1.71,0,0,1,1.06-.44l1.09-.1c1.45-.12,2.91-.2,4.37-.24s2.92-.06,4.38,0c.73,0,1.46.09,2.19.18.36,0,.73.1,1.09.16a2.78,2.78,0,0,1,.55.14l.49.26a65.93,65.93,0,0,1,7.26,4.9c2.33,1.75,4.64,3.54,6.93,5.34q6.87,5.43,13.59,11Z"/></g><g id="rightarminner"><path d="M205.58,122.54a1.49,1.49,0,0,0-2.35-1.67,3.23,3.23,0,0,0-.58.8l-.53.88-1.06,1.76-2.15,3.5c-.75,1.16-1.46,2.33-2.32,3.43h0l0,0a5.66,5.66,0,0,0-1.13,2.29,19.52,19.52,0,0,0-.51,2.66c-.13.91-.17,1.78-.23,2.76a3.14,3.14,0,0,1-.19.75l-.23.67c-.16.45-.35.88-.54,1.31a17.23,17.23,0,0,1-3.13,4.7,11.12,11.12,0,0,1-2.2,1.79c-.39.25-.86.45-1.22.66a1.37,1.37,0,0,0-.64,1c.08,1.78.33,3.67.58,5.49s.5,3.67.81,5.49l.46,2.74.25,1.37a1.51,1.51,0,0,0,.46,1,1.22,1.22,0,0,0,1.85-.33l1.12-2.52a34.77,34.77,0,0,1,2.68-4.94,13.29,13.29,0,0,1,4-4.08l.66-.35a1.26,1.26,0,0,0,.39-.28,1,1,0,0,0,.21-.4l.17-.65c.23-.87.41-1.78.57-2.68.32-1.81.57-3.64.78-5.47.44-3.67.82-7.35,1.2-11l.25-2.76c.05-.47.06-.92.14-1.4a8.8,8.8,0,0,1,.47-1.34Zm.09,0-1.84,5.24a7.92,7.92,0,0,0-.39,1.3c0,.44,0,.92-.05,1.38l-.1,2.78c-.13,3.71-.35,7.41-.73,11.11-.2,1.85-.44,3.7-.75,5.54-.16.92-.34,1.84-.58,2.76l-.18.7a1.87,1.87,0,0,1-.44.8,2.21,2.21,0,0,1-.74.52l-.57.3a12.12,12.12,0,0,0-3.76,3.72,37.1,37.1,0,0,0-2.72,4.76L191.61,166a1.87,1.87,0,0,1-1.38.92,1.94,1.94,0,0,1-1.56-.48A2.18,2.18,0,0,1,188,165l-.19-1.37-.36-2.76c-.45-3.7-1-7.32-1.31-11.09a1.75,1.75,0,0,1,.79-1.28,13.52,13.52,0,0,0,1.2-.69,10.23,10.23,0,0,0,2-1.8,16.75,16.75,0,0,0,2.8-4.64c.17-.42.33-.85.49-1.28l.21-.64a2.45,2.45,0,0,0,.14-.59c0-.87.08-1.86.2-2.78a15,15,0,0,1,.57-2.79,6.42,6.42,0,0,1,1.4-2.6l0,0c1.68-2.11,3.24-4.37,4.79-6.63l1.15-1.7.56-.86a3.72,3.72,0,0,1,.63-.83,1.64,1.64,0,0,1,2,0A1.6,1.6,0,0,1,205.67,122.58Z"/></g><g id="lamp"><path d="M605.25,162q-8.07-8.17-15.41-17c-2.42-3-4.74-6-7.12-9s-4.74-6-6.88-9.2a20.24,20.24,0,0,1-1.47-2.52,5.44,5.44,0,0,1-.49-1.44l-.24-1.42a38.2,38.2,0,0,1-.54-5.76,23.37,23.37,0,0,1,.57-5.82,12.73,12.73,0,0,1,2.6-5.32,10.3,10.3,0,0,1,5-3.17,17.24,17.24,0,0,1,5.84-.5,26.13,26.13,0,0,1,11,3.27l-.06.08a28.29,28.29,0,0,0-11-2.57,16.47,16.47,0,0,0-5.52.65,9.68,9.68,0,0,0-4.52,2.91,12.43,12.43,0,0,0-2.37,4.9,23,23,0,0,0-.64,5.56,44.72,44.72,0,0,0,.38,5.66l.2,1.41A4.88,4.88,0,0,0,575,124a20.6,20.6,0,0,0,1.31,2.5c4,6.49,9.12,12.24,14.17,18s10,11.59,14.85,17.49Z"/></g><g id="decal"><g id="decal1"><path d="M579.33,53a7.55,7.55,0,0,1-3.8,3.75,8,8,0,0,1-2.69.64c-.93.06-1.75,0-2.63.07s-1.75.05-2.63.1c-.45,0-.84.09-1.34.08A1.66,1.66,0,0,1,565,57a1.75,1.75,0,0,1,.38-2.55c.8-.45,1.55-.86,2.35-1.26s1.58-.81,2.4-1.15l.61-.27.3-.12.38-.12a12,12,0,0,0,1.2-.38A6.36,6.36,0,0,0,576.2,48a9.79,9.79,0,0,0,.89-4.88,22.18,22.18,0,0,0-.85-5.14l.09,0a16.18,16.18,0,0,1,1.54,5.11,9.73,9.73,0,0,1-.71,5.43,6.59,6.59,0,0,1-1.78,2.21A8.28,8.28,0,0,1,572.91,52a13,13,0,0,1-1.33.35l-.26.06-.31.11-.62.21c-.82.31-1.65.59-2.46.92a23.4,23.4,0,0,0-2.39,1.06,1.36,1.36,0,0,0-.32,2,1.27,1.27,0,0,0,1,.46c.38,0,.86-.16,1.28-.22.87-.15,1.75-.28,2.63-.38s1.82-.09,2.64-.13a8.24,8.24,0,0,0,2.45-.47,8.61,8.61,0,0,0,4-3.08Z"/></g><g id="decal2"><path d="M569.3,73a8.92,8.92,0,0,0,3.22,0,4,4,0,0,0,2.5-1.61,5.61,5.61,0,0,0,.8-2.86c0-.27-.41-.63-.82-1a7.65,7.65,0,0,0-1.31-.83,5.32,5.32,0,0,0-5.92.43,6.72,6.72,0,0,0-1.83,2.62,3.6,3.6,0,0,0-.39,1.51c0,.49.21,1.06.31,1.58a13.26,13.26,0,0,0,2.84,5.68A15,15,0,0,0,574,81.9l.75.32a4.34,4.34,0,0,0,.69.27c.47.1,1.06.19,1.59.29,1.08.18,2.16.34,3.25.49,2.18.3,4.37.55,6.56.78v.1a61.3,61.3,0,0,1-6.64-.1c-1.1-.09-2.21-.19-3.31-.32-.57-.06-1.07-.12-1.68-.24a6,6,0,0,1-.86-.3l-.77-.31a14.54,14.54,0,0,1-5.62-3.8,12.54,12.54,0,0,1-2.67-6.19c-.06-.57-.19-1.07-.2-1.69a4.54,4.54,0,0,1,.5-1.65,8.17,8.17,0,0,1,1.94-2.73,5.79,5.79,0,0,1,3.07-1.43,6.55,6.55,0,0,1,3.41.49,7.4,7.4,0,0,1,1.51.89,6.1,6.1,0,0,1,.68.59,1.68,1.68,0,0,1,.47,1,3.76,3.76,0,0,1-.09.93,5.06,5.06,0,0,1-.18.86,8.29,8.29,0,0,1-.31.83,7.68,7.68,0,0,1-.47.78,4.53,4.53,0,0,1-3,1.67,7.67,7.67,0,0,1-3.34-.38Z"/></g><g id="decal3"><path d="M564.25,89a15.81,15.81,0,0,1-3.2-4.48,23.31,23.31,0,0,1-1.84-5.2,47.73,47.73,0,0,1-.75-5.44c-.06-.91-.2-1.81-.25-2.72,0-.45-.06-.91-.1-1.36l-.06-.69a3,3,0,0,1,.06-.74,3.18,3.18,0,0,1,.67-1.35c.34-.37.65-.66,1-1A19.28,19.28,0,0,1,562,64.35a11.4,11.4,0,0,1,5.26-2,8.16,8.16,0,0,1,5.44,1.49A13.72,13.72,0,0,1,576.32,68l-.08.06a17.12,17.12,0,0,0-4-3.54,7.79,7.79,0,0,0-4.92-1.09,11.53,11.53,0,0,0-4.85,1.76,21.4,21.4,0,0,0-2.18,1.53c-.34.27-.72.57-1,.83a2.53,2.53,0,0,0-.64,1,4.06,4.06,0,0,0-.1,1.28c0,.45,0,.91,0,1.36,0,.91.13,1.81.22,2.71A34.68,34.68,0,0,0,560,79.14a32.25,32.25,0,0,0,4.3,9.82Z"/></g><g id="decal4"><path d="M548.86,88.05a21.37,21.37,0,0,0,2,2.32,7.63,7.63,0,0,0,1.1,1.1,5,5,0,0,0,1.39.7c1,.33,2,.6,3,.88.49.13,1,.26,1.49.43a13.15,13.15,0,0,1,1.51.48V94a14.42,14.42,0,0,1-1.61,0c-.53,0-1.06-.14-1.58-.24a9.55,9.55,0,0,1-2.94-1.29c-.46-.27-.89-.6-1.35-.86-.22-.14-.46-.26-.7-.39s-.46-.29-.68-.45a4.42,4.42,0,0,1-1.63-2.76Z"/></g><g id="decal6"><path d="M38.25,142a17.65,17.65,0,0,1-3.72-3.3c-.26-.33-.52-.67-.75-1l-.32-.54a1,1,0,0,0-.29-.33,1.2,1.2,0,0,0-.83-.22,1.67,1.67,0,0,0-.86.45,29.5,29.5,0,0,0-3.76,3.12,17,17,0,0,0-2.83,3.95,23.91,23.91,0,0,0-1.76,4.49l-.29,1.16a.83.83,0,0,0,0,.43,1.88,1.88,0,0,0,.14.46,4.19,4.19,0,0,0,1.44,1.57,19.1,19.1,0,0,0,4.26,2.14c1.51.58,3.07,1.09,4.64,1.56l0,.1a27.15,27.15,0,0,1-4.87-.92,16.14,16.14,0,0,1-4.62-2,4.77,4.77,0,0,1-1.79-2,3,3,0,0,1-.19-.73,2,2,0,0,1,.08-.79l.35-1.2a17.68,17.68,0,0,1,2.18-4.5,37.62,37.62,0,0,1,3.07-3.9A41.5,41.5,0,0,1,31,136.41a2.32,2.32,0,0,1,1.27-.68,2,2,0,0,1,1.49.4,2.09,2.09,0,0,1,.5.61l.28.52c.2.34.41.67.65,1A32.28,32.28,0,0,0,38.31,142Z"/></g><g id="decal7"><path d="M14.46,151.07c1.88,1.8,3.72,3.58,5.53,5.4.89.93,1.75,1.9,2.71,2.75a24,24,0,0,0,3.11,2.3l3.28,2c.55.34,1.12.63,1.67,1s1.11.64,1.68.93c2.21,1.3,4.54,2.34,6.86,3.53l0,.09a29.18,29.18,0,0,1-7.33-2.68,35.66,35.66,0,0,1-6.45-4.4c-.51-.41-1-.84-1.49-1.26l-1.51-1.23c-.5-.41-1-.79-1.55-1.18l-1.53-1.21a27.66,27.66,0,0,1-2.73-2.79,22.38,22.38,0,0,1-2.3-3.16Z"/></g><g id="decal8"><path d="M12.69,160.43a73.23,73.23,0,0,0,5.15,9.16l1.44,2.2c.52.7,1,1.41,1.59,2.1a27.84,27.84,0,0,0,3.83,3.61l1,.82,1.08.75c.73.49,1.42,1,2.16,1.48a49.66,49.66,0,0,0,4.58,2.52,44.38,44.38,0,0,0,4.77,2.13,21.47,21.47,0,0,0,2.48.88c.83.27,1.67.56,2.5.86l0,.1c-.87-.14-1.74-.3-2.62-.47a16.57,16.57,0,0,1-2.59-.63l-2.54-.84-.63-.22-.61-.28L33.07,184a32.32,32.32,0,0,1-8.74-6.12c-1.3-1.2-2.47-2.53-3.7-3.81-.58-.67-1.18-1.32-1.79-2s-1.13-1.37-1.69-2.07-1-1.47-1.47-2.23-.88-1.55-1.26-2.36a24.85,24.85,0,0,1-1.83-5Z"/></g></g><g id="backlantern"><path d="M76.28,97c-1.66.15-3.33.23-5,.29s-3.33.09-5,.11c-3.33,0-6.66-.29-10-.29l.16-.16c0,2.59.09,5.17.21,7.75s.12,5.17.16,7.75,0,5.17-.1,7.75-.19,5.17-.38,7.75h-.1q-.28-3.87-.38-7.75c-.08-2.58-.12-5.16-.1-7.75s.07-5.16.16-7.75.22-5.16.22-7.75v-.15h.15c3.34,0,6.67-.34,10-.29,1.67,0,3.34,0,5,.1s3.34.14,5,.29Z"/></g><g id="canoe"><g id="canoeouterupper"><path d="M585.31,144a270.54,270.54,0,0,1-22.66,15.79c-7.82,4.87-15.8,9.51-24.06,13.6-2,1.07-4.17,2-6.24,3l-3.14,1.46c-1,.48-2.12.9-3.18,1.35l-6.37,2.66-6.47,2.43c-8.69,3-17.5,5.88-26.6,7.38-18,3.86-36.16,7.07-54.42,9.44-9.12,1.24-18.27,2.27-27.43,3.19s-18.33,1.76-27.52,2.35v-.1q13.74-1.38,27.45-3c9.14-1.08,18.26-2.28,27.38-3.49,18.23-2.47,36.39-5.39,54.45-9,2.26-.43,4.54-.74,6.78-1.25L500,188.2l1.67-.43,1.65-.52,3.28-1.05c2.19-.7,4.39-1.38,6.52-2.25l6.43-2.48,6.31-2.79c1.05-.47,2.11-.91,3.14-1.41l3.1-1.52c2.05-1,4.14-2,6.17-3.07a378.7,378.7,0,0,0,47-28.73Z"/></g><g id="canoeseatback"><path d="M143.25,189c2.28-1.73,4.54-3.49,6.75-5.29a41.07,41.07,0,0,0,3.17-2.84,6.72,6.72,0,0,0,.65-.78,4.23,4.23,0,0,0,.4-.88,3.24,3.24,0,0,0,.15-1.89,4.48,4.48,0,0,0-2.67-2.7,18.66,18.66,0,0,0-4-1.27,48.68,48.68,0,0,0-8.44-.94h-.06c-3.48-.67-6.9-1.53-10.31-2.44-1.7-.45-3.4-.94-5.08-1.46s-3.37-1.05-5-1.65a51.88,51.88,0,0,1-9.66-4.4A18,18,0,0,1,105,159a7.82,7.82,0,0,1-2.15-5v-.17l.11-.12a7.67,7.67,0,0,1,2.69-1.83,23.9,23.9,0,0,1,2.93-1.07,55.11,55.11,0,0,1,6-1.38c4.05-.7,8.13-1.14,12.21-1.47s8.17-.5,12.26-.54c2,0,4.09,0,6.13,0a41.75,41.75,0,0,1,6.12.5l0,.1a42.75,42.75,0,0,0-6.1-.17c-2,0-4.07.11-6.11.21-4.07.2-8.14.45-12.2.85s-8.11.82-12.1,1.53a56.4,56.4,0,0,0-5.93,1.3,20.92,20.92,0,0,0-2.82,1,6.71,6.71,0,0,0-2.38,1.54l.11-.3a7.09,7.09,0,0,0,1.84,4.51,18.92,18.92,0,0,0,3.92,3.36,47.59,47.59,0,0,0,9.42,4.62q2.47.92,5,1.69t5.1,1.39c3.41.84,6.87,1.52,10.33,2.07h-.06a41.61,41.61,0,0,1,8.62.8,17.6,17.6,0,0,1,4.17,1.38,7.45,7.45,0,0,1,1.87,1.27,4,4,0,0,1,1.2,2,4.09,4.09,0,0,1-.2,2.33,4.66,4.66,0,0,1-.52,1.05,6.85,6.85,0,0,1-.76.84,39.73,39.73,0,0,1-3.32,2.78c-2.27,1.75-4.64,3.37-7,4.94Z"/></g></g><g id="leftarm"><path d="M293.28,154c-2.36-.21-4.7-.46-7-.74h-.1l-.09-.09a34.61,34.61,0,0,0-6.25-5.15,15.79,15.79,0,0,0-7.43-2.71,11.75,11.75,0,0,0-7.39,2.8,21.24,21.24,0,0,0-3,2.78,24.89,24.89,0,0,0-2.51,3.2l-.41.63,0-.76-.12-4.61,0-2.3a12,12,0,0,0-.33-2.19,71.08,71.08,0,0,0-2.78-8.71l0-.11V136c.25-4.15.38-8.32.53-12.48.06-2.08.11-4.16.12-6.24s0-4.16-.17-6.24h.1a56.6,56.6,0,0,1,.63,6.24c.12,2.09.17,4.18.18,6.26,0,4.19-.12,8.36-.33,12.53l0-.21c.52,1.46,1,2.92,1.46,4.4s.87,3,1.18,4.5a13.13,13.13,0,0,1,.26,2.37l-.05,2.3-.11,4.61-.43-.13a32.3,32.3,0,0,1,5.69-6c2.15-1.67,4.69-3.17,7.59-3.22a11.32,11.32,0,0,1,4.16.76,18.27,18.27,0,0,1,3.74,1.9,30.82,30.82,0,0,1,6.25,5.48l-.19-.1q3.48.57,7,1.25Z"/></g><g id="dress"><g id="dresslower"><path d="M145.22,187.65c-.3,2-.56,4-.72,6-.09,1-.11,2-.11,3s-.09,2-.14,3c-.24,4-.56,8.07-.69,12.1a50.77,50.77,0,0,0,.16,6c.15,2,.34,4,.54,6q.6,6,1.33,12.06l-.5-.21a25.37,25.37,0,0,0,6.61-8.28,35.15,35.15,0,0,0,1.58-5.1q.65-2.62,1.24-5.26c1.56-7,3-14.12,4.33-21.2l.87.15a16.11,16.11,0,0,0,.19,4.64,30.78,30.78,0,0,0,1.14,4.59c.48,1.51,1,3,1.67,4.46.31.73.64,1.45,1,2.17l.52,1.07.27.53.14.27a2.75,2.75,0,0,1,.14.34c.86,3.32,0,6.62-.75,9.66a39.38,39.38,0,0,0,.91,18.84q.66,2.3,1.55,4.51l.89,2.23a9.62,9.62,0,0,1,.56,2.4c.39,3.21.45,6.41.52,9.62s.07,6.4.06,9.6v.07c-.36,1.24-.71,2.49-.95,3.75a17.72,17.72,0,0,0-.39,3.83,6.48,6.48,0,0,0,1,3.6,3,3,0,0,1,.25.47,1.09,1.09,0,0,1,0,.56,5,5,0,0,1-.24,1,14.55,14.55,0,0,1-.76,1.82l-.08-.23a4.72,4.72,0,0,1,1.72,1.63,3.39,3.39,0,0,1,.41,2.33,5.55,5.55,0,0,1-1,2.13c-.45.64-.94,1.23-1.44,1.81a57.53,57.53,0,0,1-6.67,6.39l.05-.06a2.43,2.43,0,0,1-.81.71,8.39,8.39,0,0,1-.9.45,16.28,16.28,0,0,1-1.89.66,32.12,32.12,0,0,1-3.87.83c-2.61.45-5.25.52-7.76,1.25a34.9,34.9,0,0,0-7.26,2.89,39.51,39.51,0,0,0-6.5,4.33l-.17-.46c2.53,0,5.06-.16,7.58-.38a51.93,51.93,0,0,0,7.48-1.14c.61-.14,1.21-.33,1.8-.51a15.81,15.81,0,0,1,1.89-.47,16.75,16.75,0,0,1,3.87-.23,24.73,24.73,0,0,1,7.53,1.65l-.47.16a45.25,45.25,0,0,1,4-6.12,11.76,11.76,0,0,1,1.29-1.36,4.15,4.15,0,0,1,.82-.58,1.54,1.54,0,0,1,1.17-.19,3.47,3.47,0,0,1,.48.21l.4.18.82.32a8.28,8.28,0,0,0,1.67.4,3.82,3.82,0,0,0,3.09-.78,3.61,3.61,0,0,0,.53-.58,5.78,5.78,0,0,0,.42-.73,11,11,0,0,0,.64-1.63,41.65,41.65,0,0,0,1.5-7v-.06c1.41-5.52,2.86-11,4.63-16.46a35.4,35.4,0,0,1,1.56-4,17.76,17.76,0,0,0,1.09-4,55.17,55.17,0,0,0,.69-8.42v-.09l0-.09c.63-1.5,1.21-3,1.74-4.59a24,24,0,0,0,1.18-4.68c.12-3.26.43-6.58.67-9.86l.78-9.85c.23-3.28.51-6.59.57-9.84v-.14l.08-.13a18.84,18.84,0,0,0,2.37-8.27c.26-2.94.18-5.9.24-8.9a11.44,11.44,0,0,1,.23-2.34,4.41,4.41,0,0,1,.52-1.11l.57-1,2.34-3.81,4.79-7.55,0,0,2-4,.11-.21h.25l35-.56,17.5-.38c5.83-.17,11.67-.24,17.49-.71v.1c-5.82.55-11.66.71-17.49,1s-11.67.41-17.5.56l-35,.84.35-.23-2,4v0l-4.73,7.58-2.3,3.81-.56,1a3.8,3.8,0,0,0-.42.91,11.38,11.38,0,0,0-.18,2.09c0,3,.05,6-.22,9a19.65,19.65,0,0,1-2.54,8.73l.08-.28c-.06,3.35-.35,6.62-.58,9.91l-.79,9.86c-.25,3.3-.56,6.54-.68,9.87a25.19,25.19,0,0,1-1.23,4.89c-.54,1.58-1.13,3.12-1.77,4.66l0-.19a56.11,56.11,0,0,1-.71,8.58,18.7,18.7,0,0,1-1.16,4.21,35.48,35.48,0,0,0-1.53,3.93c-1.76,5.39-3.22,10.89-4.63,16.39v-.05a42.13,42.13,0,0,1-1.54,7.18,13.09,13.09,0,0,1-.71,1.75,6.54,6.54,0,0,1-.49.84,4.06,4.06,0,0,1-.69.74,4.71,4.71,0,0,1-3.75.95,8.79,8.79,0,0,1-1.85-.46,8.31,8.31,0,0,1-.87-.35l-.43-.19a1.8,1.8,0,0,0-.35-.16c-.26-.1-.83.22-1.23.59a11.14,11.14,0,0,0-1.21,1.26,44.78,44.78,0,0,0-4,6l-.16.28-.3-.12a23.86,23.86,0,0,0-7.28-1.65,15.88,15.88,0,0,0-3.71.19,14,14,0,0,0-1.81.44c-.61.18-1.23.37-1.86.51a53.73,53.73,0,0,1-7.57,1.1c-2.54.2-5.08.32-7.63.34h-.73l.56-.46a39.69,39.69,0,0,1,6.62-4.37,35.38,35.38,0,0,1,7.37-2.89,70.28,70.28,0,0,1,7.81-1.21,33.42,33.42,0,0,0,3.83-.81,14.78,14.78,0,0,0,1.84-.63,4,4,0,0,0,1.54-1l0-.06h0a55.89,55.89,0,0,0,6.65-6.31,8.94,8.94,0,0,0,2.36-3.8,3,3,0,0,0-.38-2.1,4.29,4.29,0,0,0-1.59-1.49l-.15-.08.07-.15a17.07,17.07,0,0,0,.73-1.78,5,5,0,0,0,.22-.91.75.75,0,0,0,0-.4,3,3,0,0,0-.21-.39,7,7,0,0,1-1.09-3.79,19.08,19.08,0,0,1,.37-3.92c.24-1.28.58-2.55.94-3.8V271c0-3.2,0-6.4-.12-9.59s-.18-6.41-.58-9.55a9.17,9.17,0,0,0-.54-2.27l-.9-2.22c-.6-1.49-1.15-3-1.6-4.55a40.46,40.46,0,0,1-1.68-9.51,40,40,0,0,1,.65-9.65,43.92,43.92,0,0,0,.92-4.68,11.94,11.94,0,0,0-.21-4.59l-.09-.22-.14-.26-.27-.54-.54-1.08c-.35-.73-.69-1.46-1-2.2-.64-1.48-1.22-3-1.72-4.52a22.57,22.57,0,0,1-1.38-9.63l.86.15c-1.4,7.08-2.85,14.15-4.46,21.2-.41,1.76-.83,3.51-1.28,5.27a35.73,35.73,0,0,1-1.65,5.21,26.19,26.19,0,0,1-6.84,8.48l-.44.37L145,236c-.45-4-.88-8.05-1.25-12.07-.19-2-.37-4-.51-6.06a49.33,49.33,0,0,1-.12-6.08c.2-4,.57-8.08.87-12.11.07-1,.15-2,.19-3s0-2,.16-3c.19-2,.48-4,.81-6Z"/></g><g id="dressdetail1"><path d="M202.8,140.25c4.48,1.73,8.81,3.79,13.09,5.95,2.14,1.08,4.22,2.28,6.29,3.49l3.11,1.8c1,.6,2.07,1.21,3.12,1.79,2.05,1.23,4.16,2.37,6.13,3.79a13.91,13.91,0,0,1,1.44,1.12c.48.42.93.77,1.37,1.12a8,8,0,0,0,1.44.91,12.74,12.74,0,0,0,1.58.64,18,18,0,0,0,6.91.38,32.13,32.13,0,0,0,6.84-1.62l-.2.19a43.51,43.51,0,0,1,2.33-3.95,22.1,22.1,0,0,1,1.36-1.86,8.08,8.08,0,0,1,1.64-1.61l.06.08a7.94,7.94,0,0,0-1.43,1.73c-.41.63-.8,1.28-1.17,1.94-.74,1.31-1.41,2.68-2.06,4l-.07.14-.14.06a28.75,28.75,0,0,1-7,1.92,17.18,17.18,0,0,1-7.33-.5,13.71,13.71,0,0,1-1.72-.74A8.2,8.2,0,0,1,236.8,160c-1-.82-1.73-1.63-2.69-2.36a57.4,57.4,0,0,0-5.88-4.07c-4.07-2.51-8.47-4.45-12.74-6.59s-8.53-4.32-12.73-6.64Z"/></g><g id="dressdetail2"><path d="M200.3,154c3.66.94,7.24,2.11,10.79,3.39s6.95,2.95,10.52,4.17c1.77.66,3.57,1.24,5.33,1.93a21.32,21.32,0,0,1,2.64,1.2,6.24,6.24,0,0,0,2.51.63,36.66,36.66,0,0,0,5.54-.07c1.86-.15,3.74-.31,5.58-.58h.07a20.76,20.76,0,0,1,3.08.43,16.12,16.12,0,0,1,2.94.91l0,.09a23.68,23.68,0,0,0-3-.52,21.67,21.67,0,0,0-3-.14h.07a56.28,56.28,0,0,1-5.63.87,26.85,26.85,0,0,1-5.74,0,7.18,7.18,0,0,1-2.89-.87,26.82,26.82,0,0,0-2.45-1.27c-1.69-.8-3.42-1.57-5.16-2.28-3.47-1.48-7.13-2.45-10.69-3.67s-7.07-2.6-10.52-4.14Z"/></g></g><g id="righthand"><g id="righthand-2" data-name="righthand"><path d="M146.24,164a51.1,51.1,0,0,1,5.11-5.9,26.27,26.27,0,0,1,3-2.53,9.08,9.08,0,0,1,3.69-1.64,4.63,4.63,0,0,1,3.86,1.23,11.65,11.65,0,0,1,2.25,3.24c.59,1.17,1.1,2.37,1.58,3.58a34.32,34.32,0,0,0,1.45,3.58c2.42,4.52,6.49,7.88,10.67,10.78A97,97,0,0,0,191.3,184l0,.09a59.57,59.57,0,0,1-14-6.86,39.09,39.09,0,0,1-6.06-5,21.09,21.09,0,0,1-4.5-6.43c-.55-1.21-.84-2.49-1.29-3.69a26.43,26.43,0,0,0-1.53-3.54,9.8,9.8,0,0,0-2.33-3,4,4,0,0,0-3.36-.83,10.26,10.26,0,0,0-3.33,1.54,25.19,25.19,0,0,0-3,2.37c-1.92,1.71-3.72,3.57-5.55,5.41Z"/></g><g id="righthandcloth"><path class="cls-1" d="M140.28,170"/></g><g id="righthandcloth2"><path d="M168.39,168.13a15.56,15.56,0,0,1-3.18,3.05c-.62.41-1.28.76-1.87,1.2a12.67,12.67,0,0,0-1.63,1.48,20.86,20.86,0,0,1-1.57,1.55c-.54.5-1.08,1-1.65,1.46a37,37,0,0,1-3.61,2.53l-.07-.07a18,18,0,0,1,3-3.28,31.47,31.47,0,0,1,3.55-2.61,14.31,14.31,0,0,0,1.78-1.31c.54-.5,1-1.07,1.54-1.59a15.11,15.11,0,0,1,3.65-2.49Z"/></g><g id="righthandcloth3"><path d="M155.32,146c-1.31,2.61-2.81,5.11-4.36,7.57s-3.43,4.72-4.84,7.27a16.6,16.6,0,0,0-1.64,4,17.56,17.56,0,0,1-.76,2.09,4.33,4.33,0,0,1-.6,1.05,1.35,1.35,0,0,1-.27.26l-.18.12a1.28,1.28,0,0,1-.28.07l-.28,0-.24,0c-2.79.6-5.64,1.34-8.48,1.89l.05-.82,2.9,1.25,1.46.61a9.16,9.16,0,0,0,1.48.49v.1a7,7,0,0,1-1.59-.24c-.52-.11-1-.27-1.54-.42q-1.53-.44-3-1l-1.23-.44,1.29-.38a69.27,69.27,0,0,1,8.54-2l.29,0h.27s0,0,0,0l0,0s.08-.06.12-.11a4.37,4.37,0,0,0,.53-.81c.33-.62.6-1.29.9-1.95s.57-1.34.89-2,.71-1.3,1.08-1.92c1.59-2.45,2.83-5.11,4.38-7.57a78.59,78.59,0,0,1,5-7.15Z"/></g></g><g id="carpetandface"><g id="armandcarpet"><path d="M386.23,259.45c-.52-5.29-1.12-10.59-1.88-15.86-.39-2.63-.8-5.26-1.4-7.84-.15-.65-.34-1.28-.54-1.9s-.52-1.2-.8-1.82a36.09,36.09,0,0,1-1.42-3.75c-.41-1.27-.77-2.56-1.07-3.87s-.28-2.66-.44-4c-.28-2.64-.58-5.29-.92-7.93s-.7-5.27-1.15-7.89c-.23-1.31-.47-2.61-.78-3.89-.15-.65-.34-1.28-.54-1.89s-.53-1.19-.81-1.81a13.43,13.43,0,0,1-1.13-3.91A6.9,6.9,0,0,1,374,189a7.51,7.51,0,0,1,2.92-2.89,15.32,15.32,0,0,1,3.79-1.49c5.28-1.34,10.69-.94,16-1,2.66,0,5.32,0,8-.1a53.09,53.09,0,0,0,7.89-.74c2.55-.49,5.14-1.36,6.88-3.22a8.41,8.41,0,0,0,1.83-3.29l.23-.93.16-1,.1-1a2,2,0,0,1,.45-1.16,1.93,1.93,0,0,1,1.06-.67,6.49,6.49,0,0,1,1.09-.08l2-.05,4-.12,8-.29q8-.33,15.95-.79c10.62-.63,21.25-1.42,31.81-2.71a145.9,145.9,0,0,0,15.71-2.65c1.28-.32,2.56-.67,3.81-1.11a19.18,19.18,0,0,0,1.82-.73l.93-.42.92-.38c2.46-1,4.89-2.07,7.32-3.16,9.68-4.41,19.18-9.25,28.57-14.28l.18.32-2.86,1.59-.71.4-.75.33-1.49.67c-2,.94-4,1.68-6.05,2.45-4.07,1.52-8.21,2.85-12.38,4.11-8.33,2.48-16.76,4.62-25.22,6.6s-17,3.77-25.52,5.38c-2.14.38-4.27.78-6.42,1.12-1.08.19-2.14.33-3.27.46a2.38,2.38,0,0,1-.91-.18l-.75-.33q-.74-.31-1.5-.6c-2-.75-4.09-1.39-6.18-2l-1.56-.43-.79-.21a4.37,4.37,0,0,0-.72-.16,3.79,3.79,0,0,0-.74.1l-.81.13-1.61.25a80.3,80.3,0,0,1-13.06.77c-1.09,0-2.18-.1-3.27-.19l-.41,0-.45-.06-.79-.13-1.59-.26c-2.14-.24-4.3-.45-6.46-.55-8.66-.5-17.35-.54-26-.58s-17.37.07-26.05.2l-13,.24-6.52.13-3.26.07H343a2.35,2.35,0,0,1-.53-.09,2.12,2.12,0,0,1-.88-.55l-.54-.65c-1.39-1.63-2.92-3.16-4.48-4.66-.78-.75-1.58-1.48-2.38-2.21L333,155.22l-.58-.52a1.07,1.07,0,0,0-.51-.2l-13,.3c-4.35.08-8.69.13-13,.12-2.18,0-4.35,0-6.53-.08-1.09,0-2.18-.07-3.27-.13-.55,0-1.09-.06-1.64-.12l-.82-.07a2,2,0,0,1-1-.35,28.6,28.6,0,0,1-9.3-9.3,28.29,28.29,0,0,1-1.54-2.94c-.22-.51-.42-1-.61-1.55-.09-.27-.18-.53-.26-.8l-.11-.41a2.35,2.35,0,0,0-.12-.33l-2.33-6.08L276,126.67a2.7,2.7,0,0,1-.23-.94l-.06-.8c0-.53-.08-1.06-.14-1.6-.11-1.07-.25-2.15-.39-3.22-.56-4.3-1.22-8.6-1.89-12.89-1.35-8.58-2.79-17.15-4.25-25.71l-.56-3.21-.27-1.6-.14-.81a1.42,1.42,0,0,0-.22-.63,1.47,1.47,0,0,0-.51-.43l-.7-.43-1.38-.87-2.74-1.77c-1.82-1.2-3.62-2.42-5.35-3.75-.44-.34-.86-.68-1.28-1l-.62-.56a1.68,1.68,0,0,1-.47-.81,12.64,12.64,0,0,1-.59-3.27,20.62,20.62,0,0,1,.68-6.54,13.57,13.57,0,0,1,1.25-3.07,5.77,5.77,0,0,1,1-1.34A1.75,1.75,0,0,1,259,51a5.53,5.53,0,0,0,3.07.35,4.36,4.36,0,0,0,2.49-1.73,14.35,14.35,0,0,0,2.16-6,64.59,64.59,0,0,0,.49-13,1.74,1.74,0,0,0-.12-.76c-.1-.22-.25-.46-.38-.71a3.82,3.82,0,0,1-.34-.74,5.54,5.54,0,0,1-.27-.78,12.72,12.72,0,0,1-.5-3.24,25.22,25.22,0,0,1,.66-6.48l.1,0a25,25,0,0,0-.59,6.45,12.29,12.29,0,0,0,.52,3.18,5.29,5.29,0,0,0,.27.76,4.74,4.74,0,0,0,.34.72c.13.24.27.46.4.72a2.11,2.11,0,0,1,.15.84,66.13,66.13,0,0,1-.37,13,14.82,14.82,0,0,1-2.17,6.18,4.77,4.77,0,0,1-2.74,1.92,6,6,0,0,1-3.32-.35,1.25,1.25,0,0,0-1.28.27,5.68,5.68,0,0,0-.93,1.23,12.89,12.89,0,0,0-1.18,3,19.85,19.85,0,0,0-.63,6.37,11.78,11.78,0,0,0,.58,3.12,1.26,1.26,0,0,0,.33.59l.59.53c.41.34.83.68,1.26,1,1.72,1.31,3.52,2.52,5.34,3.7L265.64,73l1.38.86.7.42a2.05,2.05,0,0,1,.71.62,2.16,2.16,0,0,1,.33.89l.14.8.29,1.6.57,3.21q2.26,12.84,4.39,25.7c.7,4.29,1.38,8.58,2,12.9.15,1.08.29,2.15.41,3.24.07.54.12,1.09.15,1.64l.07.83a1.42,1.42,0,0,0,.17.62l2.35,6.08,2.35,6.09c.05.13.1.23.16.43l.1.38c.07.25.16.5.24.75.18.5.38,1,.59,1.48a26.19,26.19,0,0,0,1.47,2.83,27.56,27.56,0,0,0,9,9,1.07,1.07,0,0,0,.54.22l.8.06c.54.06,1.07.09,1.61.12,1.08.06,2.16.09,3.25.13,2.16.06,4.33.08,6.5.09,4.34,0,8.68,0,13-.11l13.09-.29a2,2,0,0,1,1,.39c.27.22.43.37.65.56l1.21,1.09c.81.74,1.61,1.48,2.4,2.23,1.57,1.52,3.11,3.06,4.54,4.74l.5.6a1.14,1.14,0,0,0,.48.31.9.9,0,0,0,.28,0h.38l.82,0,3.25-.06,6.52-.13,13-.22c8.69-.13,17.38-.21,26.08-.19s17.39.15,26.08.68c2.17.12,4.34.34,6.51.6l1.63.27.81.14.36,0,.4,0c1.08.1,2.16.17,3.23.21a78.85,78.85,0,0,0,12.94-.7l1.61-.23.8-.13a4.27,4.27,0,0,1,.88-.1,4.63,4.63,0,0,1,.86.18l.79.22,1.57.44c2.09.61,4.17,1.26,6.21,2,.51.19,1,.4,1.53.62l.73.33a1.79,1.79,0,0,0,.68.13c1-.11,2.13-.25,3.19-.43,2.14-.33,4.28-.71,6.42-1.09q12.81-2.35,25.51-5.28c8.46-2,16.89-4.06,25.23-6.51,4.16-1.24,8.3-2.54,12.37-4.05,2-.78,4.06-1.53,6-2.47l1.48-.67.74-.34.71-.4,2.82-1.59.19.31c-9.37,5.07-18.85,10-28.53,14.43-2.42,1.1-4.85,2.2-7.32,3.2l-.93.39-.89.41a18.78,18.78,0,0,1-1.87.76c-1.27.45-2.56.81-3.86,1.14a145.63,145.63,0,0,1-15.77,2.74c-10.58,1.33-21.21,2.17-31.84,2.84q-8,.51-16,.86l-8,.32-4,.12-2,0a5.55,5.55,0,0,0-.89,0,1.08,1.08,0,0,0-.6.37,1.23,1.23,0,0,0-.26.68l-.1,1-.18,1c-.08.33-.16.67-.25,1a9.28,9.28,0,0,1-2,3.62c-2,2.07-4.73,2.94-7.35,3.44a54.07,54.07,0,0,1-8,.72c-2.67.08-5.34.08-8,.07-5.32,0-10.7-.37-15.82.91a14.79,14.79,0,0,0-3.63,1.41,6.94,6.94,0,0,0-2.69,2.63A6.26,6.26,0,0,0,374,193a13,13,0,0,0,1.07,3.73c3.87,10.11,3,21.19,5.58,31.38a36.91,36.91,0,0,0,1.37,3.73c.27.6.56,1.19.79,1.85a19.23,19.23,0,0,1,.53,1.94c.58,2.62,1,5.26,1.32,7.9.71,5.28,1.24,10.58,1.71,15.88Z"/></g><g id="carpetback"><path d="M119.89,274.07a63.12,63.12,0,0,1-10.32-7.26,112.23,112.23,0,0,1-9.13-8.72,174.75,174.75,0,0,1-15.9-19.6c-2.42-3.44-4.73-7-7-10.53s-4.37-7.19-6.25-11a30,30,0,0,1-1.26-2.91,5.5,5.5,0,0,1-.35-1.59,1,1,0,0,1,.13-.48.69.69,0,0,1,.49-.22,1.64,1.64,0,0,0,.67-.21,6.64,6.64,0,0,0,2.06-2.21,26.75,26.75,0,0,0,1.51-2.73,82.8,82.8,0,0,0,4.33-11.76v0c.92-2.31,1.91-4.58,3-6.81.55-1.12,1.14-2.22,1.78-3.29a16.4,16.4,0,0,1,2.23-3.1l.13-.14h.21a16.91,16.91,0,0,0,5.64-1.21,29,29,0,0,0,5.16-2.8,41.61,41.61,0,0,0,4.65-3.64,44.45,44.45,0,0,0,4.16-4.19l.35-.41.4.37a6.77,6.77,0,0,0,3.15,1.81,8.28,8.28,0,0,0,1.86,0l2-.15a38.47,38.47,0,0,1,4-.15,9.9,9.9,0,0,1,2.06.25,5.87,5.87,0,0,1,1.88,1c1.12.77,2.14,1.61,3.24,2.32a8,8,0,0,0,1.69.87,2.89,2.89,0,0,0,.88.14l1,0c1.34,0,2.67.08,4,.21a12.55,12.55,0,0,1,4,.89h-.19c1.29-.63,2.56-1.32,3.79-2.07.61-.39,1.21-.79,1.78-1.22a6,6,0,0,0,1.48-1.54l.09.05a6,6,0,0,1-1.46,1.63c-.56.46-1.15.89-1.75,1.3-1.21.81-2.46,1.55-3.74,2.24l-.09,0-.1,0a12.35,12.35,0,0,0-3.81-.76c-1.32-.1-2.64-.13-4-.13h-1a3.37,3.37,0,0,1-1.08-.16,8.42,8.42,0,0,1-1.86-.9c-1.15-.72-2.2-1.54-3.29-2.26a5.17,5.17,0,0,0-1.66-.83,8.88,8.88,0,0,0-1.88-.18c-1.3,0-2.62.1-3.93.22l-2,.2a8.67,8.67,0,0,1-2.11,0,7.74,7.74,0,0,1-3.7-2.08l.75,0a46.76,46.76,0,0,1-4.25,4.31,41,41,0,0,1-4.75,3.75,28.24,28.24,0,0,1-5.37,2.87,17.86,17.86,0,0,1-6,1.23l.34-.14a16,16,0,0,0-2.11,2.89c-.63,1-1.22,2.12-1.77,3.21-1.12,2.19-2.16,4.43-3.11,6.69l0,0A83.13,83.13,0,0,1,75,206.88a26.12,26.12,0,0,1-1.59,2.75,7.16,7.16,0,0,1-2.25,2.3,2.34,2.34,0,0,1-.83.24c-.17,0-.16,0-.21.06a.53.53,0,0,0-.06.28,5,5,0,0,0,.32,1.47,25.81,25.81,0,0,0,1.21,2.88,146.59,146.59,0,0,0,13.49,21.22A243.4,243.4,0,0,0,101,257.54c5.71,6.11,11.76,12,18.92,16.44Z"/></g><g id="carpetred"><path d="M40.28,164a5.6,5.6,0,0,1-2.83-.39,4,4,0,0,1-2.06-2,6.91,6.91,0,0,1-.59-2.83c0-.49,0-1,.09-1.45l.22-1.44v-.06l.06,0a39.34,39.34,0,0,1,8.67-4.23,26.17,26.17,0,0,1,9.59-1.48,22.77,22.77,0,0,1,9.22,3,36.31,36.31,0,0,1,7.76,5.73l-.1,0a33.79,33.79,0,0,1,7.85,2.89A23,23,0,0,1,81.69,164,15.21,15.21,0,0,1,84.56,167a37.43,37.43,0,0,0,5.59,6.08,72.75,72.75,0,0,0,6.5,5.12l.41.28-.34.35a12.66,12.66,0,0,1-3.09,2.39,7.15,7.15,0,0,1-1.9.67,4.13,4.13,0,0,1-2.11-.21c-.7-.35-1.12-.63-1.69-.92s-1.1-.57-1.67-.83c-1.12-.54-2.26-1.06-3.4-1.58-4.56-2-9.18-4-13.85-5.83S59.66,169,54.9,167.39A67.53,67.53,0,0,0,40.28,164Zm0-.1a54.94,54.94,0,0,1,7.45,1.15c2.46.5,4.9,1.12,7.32,1.8,4.85,1.33,9.62,2.94,14.32,4.73s9.35,3.71,13.92,5.82c1.14.53,2.28,1.07,3.41,1.63.57.26,1.13.57,1.69.86s1.18.69,1.6.9a3.15,3.15,0,0,0,1.59.17,6.37,6.37,0,0,0,1.64-.56,12.58,12.58,0,0,0,2.88-2.15l.07.63a62.38,62.38,0,0,1-6.45-5.34,38.09,38.09,0,0,1-5.5-6.32,14.14,14.14,0,0,0-2.75-3A22.83,22.83,0,0,0,78,162a32.08,32.08,0,0,0-7.78-2.77h0l0-.05a35.63,35.63,0,0,0-7.81-5.39A29.16,29.16,0,0,0,58,151.93a17.57,17.57,0,0,0-4.58-.92,25.29,25.29,0,0,0-4.68.25,33.17,33.17,0,0,0-4.61,1.08,38.35,38.35,0,0,0-8.71,3.8l.08-.11-.27,1.4c-.08.46-.09.94-.14,1.41a6.17,6.17,0,0,0,.5,2.75,3.9,3.9,0,0,0,2,1.93A5.6,5.6,0,0,0,40.28,163.94Z"/></g></g></svg>