<svg id="liberty" xmlns="http://www.w3.org/2000/svg" viewBox="0 0 199.7 113.37">
<defs><style>
#full:hover > .cls-1{fill: #00c; transition: fill 0.2s ease-in-out;}
#full:hover > .cls-2{fill: #c00; transition: fill 0.2s ease-in-out;}
.cls-1{fill:white;}
.cls-2{fill:white;}
.cls-3{fill:none;stroke:#000;stroke-miterlimit:10;stroke-width:0.75px;}
svg{cursor: pointer;}
</style></defs>
<title>libIcon</title><g id="full"><path class="cls-1" d="M198.74,41.71c.86,3,1,6.5-1.21,9.18-5,6-8,12-11,14a12,12,0,0,0-4,4,22.58,22.58,0,0,1-14,7,11,11,0,0,0,3-7c0-2-2-4-2-4v-4c0-1-2-4,0-8a4.33,4.33,0,0,0-2-4s-4,1-3-6c-1-2,0-2-2-4,0-1,0-3-1-4s1-3,1-3,1.39-3.51-3.31-6.76q1.13-.06,2.31-.24c6,0,12,3,12,3s8,4,13,3C189.53,33.89,198.74,41.71,198.74,41.71Z"/><path class="cls-1" d="M131.51,13.92a38.74,38.74,0,0,1-4,5c-4.49.9-2.53-1.43-2.08-1.91l.08-.09s3.27-3.27,2.41-4.63c0,0,0,0,0,0a98.62,98.62,0,0,0,3.59-9.36l.09-.58c25.87,4.2,56.91,10.75,56.91,14.58,1,6,7,18,7,18a25.51,25.51,0,0,1,3.21,6.82s-9.21-7.82-12.21-10.82c-5,1-13-3-13-3s-6-3-12-3q-1.18.18-2.31.24c-11.75.69-19.75-7.42-20.69-10.24a14.87,14.87,0,0,0-5.1-1,.25.25,0,0,0-.21.08Z"/><path class="cls-2" d="M109.53,73.89s1,5,0,7,0,5,0,5,1,5,0,7.51a14.35,14.35,0,0,1-7-2.51l6.6-17.15Z"/><path class="cls-2" d="M105.94,68.06,97.53,88.89s-21-1-22,5a22.58,22.58,0,0,1,0,9s-5,3-13,2c-1,0-2-1-4,1-1,2-6,6-8,7,0,0-3-4-3-6s-3-5-6-6c-2,0-8,1-8,1s-5,1-7,0c-2,0-5,2-5,2s-7,0-7-4,3-8,3-8a50,50,0,0,0-5-7c-1-3,0-11,0-11s4-1,4-6a14.09,14.09,0,0,0-3-5s0-4-1-5a1.39,1.39,0,0,0-2,0s-4,2-4-4h-3s0-2-3-2c-1-1,3-3,6-3l4-2s5-5,9-6,11-7,11-7,6-4,12-4c4-1,5-3,5-3s16-3,21-7c3-2,8-1,8-1s4.17-2.78,8.56-6c0,0,8.44,6,3.44,14a5.57,5.57,0,0,0,2,6s4,2,1,6c0,2,3,4,3,4s0,6,1,6,9-2,4,6a11,11,0,0,0,2,4,10.34,10.34,0,0,1,1,4s2,5,3,5Z"/><path class="cls-3" d="M142.53,82.89a4.38,4.38,0,0,0-3,1c-2,0-11,4-16,8-2.63,1.32-8.72,2.2-14,1.51a14.35,14.35,0,0,1-7-2.51c-1,1-8,19-8,19s1,3-2,2a4.37,4.37,0,0,1-3-4l8-19s-21-1-22,5a22.58,22.58,0,0,1,0,9s-5,3-13,2c-1,0-2-1-4,1-1,2-6,6-8,7,0,0-3-4-3-6s-3-5-6-6c-2,0-8,1-8,1s-5,1-7,0c-2,0-5,2-5,2s-7,0-7-4,3-8,3-8a50,50,0,0,0-5-7c-1-3,0-11,0-11s4-1,4-6a14.09,14.09,0,0,0-3-5s0-4-1-5a1.39,1.39,0,0,0-2,0s-4,2-4-4h-3s0-2-3-2c-1-1,3-3,6-3l4-2s5-5,9-6,11-7,11-7,6-4,12-4c4-1,5-3,5-3s16-3,21-7c3-2,8-1,8-1s4.17-2.78,8.56-6c3.92-2.88,8-6.11,9.44-8a5.07,5.07,0,0,1,4.19-3.44c5.26-.66,16-1.72,23.81-.56,2.91.43,6,.91,9.09,1.42,25.87,4.2,56.91,10.75,56.91,14.58,1,6,7,18,7,18a25.51,25.51,0,0,1,3.21,6.82c.86,3,1,6.5-1.21,9.18-5,6-8,12-11,14a12,12,0,0,0-4,4,22.58,22.58,0,0,1-14,7,7.65,7.65,0,0,0-5,2,5.41,5.41,0,0,1-2.24.7"/><path class="cls-3" d="M127.94,12.26a3,3,0,0,1-.41.63"/><path class="cls-3" d="M131.53,2.89a98.62,98.62,0,0,1-3.59,9.36"/><path class="cls-3" d="M102.53,90.89l6.6-17.15,13.4-34.85a2,2,0,0,1,2-2c2,0,4,4,5,6s0,6,1,8c0,2,2,11,2,11s2,7,3,8,4,5,4,7,3.37,5.79,3.37,5.79l0,.14c.13.63.72,3.19,1.6,4.07-1,2,3,8,3,8s3,5,3,7,6,10,6,10,20-3,23-10c-1-3-7-7-8-7s-6-7-6-7a91.57,91.57,0,0,0-4.24-9.3c-1.29-2.36-2.66-4.33-3.76-4.7-3-2-2-8-2-8s-4-5-4-8-9-16-10-17c0-1,0-7-2-8,0-2-1-8-1-8a14.29,14.29,0,0,0-5.28-10.49.27.27,0,0,1,0-.4.25.25,0,0,1,.21-.08,14.87,14.87,0,0,1,5.1,1c.94,2.82,8.94,10.93,20.69,10.24q1.13-.06,2.31-.24c6,0,12,3,12,3s8,4,13,3c3,3,12.21,10.82,12.21,10.82"/><path class="cls-3" d="M97.53,88.89l8.41-20.83,12.59-31.17a20.34,20.34,0,0,0,1-5c-1,0-2-1-2-4,0-1-1-3,0-4l1-1a1,1,0,0,1,1-1c0-1-1-3,1-4a3.1,3.1,0,0,1,2-1,2,2,0,0,0,.44-1.43,3.56,3.56,0,0,1,3.93-3.75,1.38,1.38,0,0,1,1,.54s0,0,0,0c.86,1.36-2.41,4.63-2.41,4.63l-.08.09c-.45.48-2.41,2.81,2.08,1.91a38.74,38.74,0,0,0,4-5l0,0s0-1,1,0"/><path class="cls-3" d="M85.09,12.89s8.44,6,3.44,14a5.57,5.57,0,0,0,2,6s4,2,1,6c0,2,3,4,3,4s0,6,1,6,9-2,4,6a11,11,0,0,0,2,4,10.34,10.34,0,0,1,1,4s2,5,3,5"/><path class="cls-3" d="M109.53,73.89s1,5,0,7,0,5,0,5,1,5,0,7.51"/><path class="cls-3" d="M168.53,75.89a11,11,0,0,0,3-7c0-2-2-4-2-4v-4c0-1-2-4,0-8a4.33,4.33,0,0,0-2-4s-4,1-3-6c-1-2,0-2-2-4,0-1,0-3-1-4s1-3,1-3,1.39-3.51-3.31-6.76"/></g></svg>