<svg id="Layer_2" data-name="Layer 2" xmlns="http://www.w3.org/2000/svg" viewBox="0 0 541.75 383.44"><defs><style>.cls-1{fill:#b7b398;}.cls-2{fill:#d0cfbd;}.cls-3{fill:#8a0303;}</style></defs><title>maratIcon</title><path id="paper2" class="cls-1" d="M450.5,8.83s10,16,0,39c4,8,29,62,29,72s2,39,2,39,24.5,53.5,25.5,56.5,5,30,5,30,20,36,23,39,10,0,5,8c-7,2-54,12-58,14s-10,2-10,2-4,3-5,5-18,6-18,6-6-1-8,0-8,6-8,6-17,1-23-1c-2-1-5,2-5,2s-13,6-21,5-17-5-17-5-45,1-52,2-33,12-33,12-8-2-9-4-22,0-28,2-45,7-63,20-60,24-64,25-42-5-69-2c-5,1-8-2-7-6s9-18,9-26-2-19-5-23c-1-5-21-46-22-74s-14-55-17-59-7-41-7-41,0-9,3-12,13-5,13-5,30-17,41-19c10-4,52-27,55-30s20-18,20-18,36,1,43-2,44-3,44-3,22-7,29-9,93-7,93-7,8-5,9-6,14-2,14-2,9-5,14-5c5-2,19-7,21-9s12-5,12-5,12-6,15-6c3-2,9-6,11-6S448,7.33,450.5,8.83Z"/><path id="paper1" class="cls-2" d="M450.5.83s10,16,0,39c4,8,29,62,29,72s2,39,2,39,24.5,53.5,25.5,56.5,5,30,5,30,20,36,23,39,10,0,5,8c-7,2-54,12-58,14s-10,2-10,2-4,3-5,5-18,6-18,6-6-1-8,0-8,6-8,6-17,1-23-1c-2-1-5,2-5,2s-13,6-21,5-17-5-17-5-45,1-52,2-33,12-33,12-8-2-9-4-22,0-28,2-45,7-63,20-60,24-64,25-42-5-69-2c-5,1-8-2-7-6s9-18,9-26-2-19-5-23c-1-5-21-46-22-74s-14-55-17-59-7-41-7-41,0-9,3-12,13-5,13-5,30-17,41-19c10-4,52-27,55-30s20-18,20-18,36,1,43-2,44-3,44-3,22-7,29-9,93-7,93-7,8-5,9-6,14-2,14-2,9-5,14-5c5-2,19-7,21-9s12-5,12-5,12-6,15-6c3-2,9-6,11-6S448-.67,450.5.83Z"/><g id="marat"><path id="m" d="M282.6,165.3c-.55-.61-1-1.18-1.47-1.7s-.79-1-1.1-1.49a11.21,11.21,0,0,1-.77-1.33,7.44,7.44,0,0,1-.48-1.25,3.07,3.07,0,0,1,0-1.59,2.85,2.85,0,0,1,.93-1.39,7.86,7.86,0,0,1,2.08-1.25,24.37,24.37,0,0,1,3.39-1.16l1.53-.42,2.5-.68,3-.81,3.26-.86,3.21-.83,2.9-.74,2.3-.57,4.11-.95q2.06-.47,4-.84l0-.13c-.57,0-1.22-.06-1.95-.12s-1.62-.13-2.66-.23c-2.5-.25-5.07-.49-7.74-.73s-5.38-.47-8.15-.69l-8.41-.68-8.51-.66-.17-.74c.74-.42,1.6-.93,2.59-1.52l3.21-1.94,3.65-2.22,3.87-2.39L291.7,133l3.75-2.34,3.4-2.13,2.83-1.8,2.58-1.59c.75-.46,1.41-.85,2-1.19l-.08-.09-1,.29-1.11.31-2.87.79q-2.78.77-5.67,1.49t-5.73,1.37q-2.83.66-5.49,1.21c-1.77.38-3.41.71-4.91,1l-3.19.58c-.88.15-1.62.25-2.23.31a5.94,5.94,0,0,1-1.47,0,2.14,2.14,0,0,1-.91-.34,1.9,1.9,0,0,1-.56-.73,8.52,8.52,0,0,1-.38-1.12l-.12-.45c0-.09-.05-.2-.08-.33s-.07-.29-.11-.48l.12-.25a29.54,29.54,0,0,0,4.11.19c1.49,0,3-.11,4.68-.27s3.3-.37,5-.63,3.43-.55,5.13-.88,3.36-.67,5-1,3.19-.72,4.65-1.08,2.81-.71,4-1,2.32-.61,3.23-.87a9.41,9.41,0,0,0,1.44-.5,2.22,2.22,0,0,0,.81-.62,1.39,1.39,0,0,0,.28-.84,4.72,4.72,0,0,0-.19-1.2,10,10,0,0,0-.39-1.1c-.17-.41-.37-.86-.61-1.34l1.49-.59c1,1.67,1.76,3.06,2.32,4.15a15.14,15.14,0,0,1,1.12,2.69,3.1,3.1,0,0,1,.14.94,1.62,1.62,0,0,1-.2.78,2.44,2.44,0,0,1-.57.71,8.51,8.51,0,0,1-1,.73q-2.35,1.5-5,3.17l-5.44,3.43-5.57,3.49-5.41,3.38c-.7.42-1.33.81-1.9,1.17l-1.59,1-1.39.84c-.45.27-.89.53-1.34.78l0,.1,1.61.08,1.64.12,1.83.16,2.21.19,6.38.56,6.76.6,7,.63,7.13.66a1.81,1.81,0,0,1,.68.21,1.75,1.75,0,0,1,.49.4,2.22,2.22,0,0,1,.34.52,3.19,3.19,0,0,1,.34,1.51,5,5,0,0,1-.11,1.09c-1.94.37-3.8.75-5.58,1.11s-3.49.74-5.16,1.12-3.32.75-4.94,1.14-3.26.78-4.91,1.21l-5,1.31c-1.71.46-3.5.94-5.35,1.46-1.23.34-2.27.67-3.12,1a8.34,8.34,0,0,0-2,1,2.73,2.73,0,0,0-1,1.23,2.51,2.51,0,0,0,0,1.51,5.26,5.26,0,0,0,.18.6,5.5,5.5,0,0,0,.24.58,5.85,5.85,0,0,0,.38.63c.15.23.33.49.55.78Z"/><path id="a" d="M302.89,174a6.88,6.88,0,0,0,2.28-1,5.11,5.11,0,0,0,1.38-1.46,4.37,4.37,0,0,0,.57-1.67,4.58,4.58,0,0,0-.12-1.66,5.86,5.86,0,0,0-.75-1.7,3.3,3.3,0,0,0-1-1,2.73,2.73,0,0,0-1.25-.35,4.51,4.51,0,0,0-1.39.16,6.11,6.11,0,0,0-1.61.73,7,7,0,0,0-1.43,1.21h-.21a3.58,3.58,0,0,1-1-1.57,2.4,2.4,0,0,1-.07-1,2,2,0,0,1,.32-.9,2.61,2.61,0,0,1,.71-.74,3.58,3.58,0,0,1,1.08-.5,4.75,4.75,0,0,1,2.05-.11,7,7,0,0,1,2,.66,9.06,9.06,0,0,1,1.78,1.24,14.55,14.55,0,0,1,1.53,1.62,11.61,11.61,0,0,1,1.16,1.79,8.17,8.17,0,0,1,.72,1.76,6.77,6.77,0,0,1,.25,2.79,4.49,4.49,0,0,1-.93,2.19,6.27,6.27,0,0,1-2,1.62,13.48,13.48,0,0,1-2.91,1.15c-.77.21-1.62.41-2.55.61s-1.91.41-2.93.61-2.08.44-3.16.68-2.16.5-3.21.79a7.52,7.52,0,0,0-3.55,1.84,2.44,2.44,0,0,0-.69,2.42,4.69,4.69,0,0,0,1.69,2.27l-.63.64a7.52,7.52,0,0,1-2.37-1.67,5.51,5.51,0,0,1-1.29-2.29,4.31,4.31,0,0,1-.11-1.88,4,4,0,0,1,.76-1.72,5.76,5.76,0,0,1,1.65-1.44,10.27,10.27,0,0,1,2.58-1.06c.3-.09.6-.16.91-.23a8.65,8.65,0,0,1,1-.17l0-.09a30.61,30.61,0,0,1-3.36-.65,17.14,17.14,0,0,1-3.1-1.12,10.09,10.09,0,0,1-2.43-1.62,4.57,4.57,0,0,1-1.36-2.18,4.32,4.32,0,0,1-.1-2,4.37,4.37,0,0,1,.75-1.76,5.4,5.4,0,0,1,1.48-1.41,7,7,0,0,1,2.09-.94,8.07,8.07,0,0,1,2.92-.29,7.8,7.8,0,0,1,2.61.72,8.57,8.57,0,0,1,2.28,1.56,13,13,0,0,1,1.91,2.24,16.53,16.53,0,0,1,1.53,2.75,22.32,22.32,0,0,1,1.11,3.1l2.17-.42C301.3,174.44,302.07,174.25,302.89,174Zm-14.47-5.78a7.84,7.84,0,0,0-1.26.48,3.67,3.67,0,0,0-1,.7,2.24,2.24,0,0,0-.55.9,1.93,1.93,0,0,0,0,1.09,3.1,3.1,0,0,0,.75,1.28,6.73,6.73,0,0,0,1.39,1.12,11.3,11.3,0,0,0,1.91.89,14.22,14.22,0,0,0,2.27.59,15.33,15.33,0,0,0,2.47.22,14.52,14.52,0,0,0,2.53-.23c-.23-.73-.48-1.44-.77-2.13a13.5,13.5,0,0,0-1-1.94,9.34,9.34,0,0,0-1.23-1.59,5.49,5.49,0,0,0-1.52-1.12,5,5,0,0,0-1.84-.5A6.26,6.26,0,0,0,288.42,168.24Z"/><path id="r" d="M287.72,190.62l-.05-.24c1.12-.22,2.35-.48,3.67-.77l4-.9c1.36-.31,2.7-.63,4-1l3.73-.9,3.09-.77,2.15-.57c.43-.12.8-.24,1.1-.35a2.38,2.38,0,0,0,.73-.42,1,1,0,0,0,.34-.58,2,2,0,0,0-.07-.84c-.05-.16-.11-.33-.18-.5s-.16-.36-.27-.57-.24-.43-.39-.68-.32-.54-.52-.86l1.19-.57a35.57,35.57,0,0,1,2.57,3.57,10.49,10.49,0,0,1,1,1.94,1.57,1.57,0,0,1-.28,1.58,3.88,3.88,0,0,1-1.88,1c-.08,0-.32.08-.72.17l-1.57.35-2.23.48-2.74.57-3.06.61-3.18.61,0,.15q3.6-.22,6.81-.15a31.24,31.24,0,0,1,5.68.6,12.5,12.5,0,0,1,4.1,1.51,4.4,4.4,0,0,1,2.06,2.59,2.8,2.8,0,0,1,.08,1.11,2.5,2.5,0,0,1-.36,1,2.67,2.67,0,0,1-.73.81,3.28,3.28,0,0,1-1.06.52,4.29,4.29,0,0,1-1.59.12,3.54,3.54,0,0,1-1.53-.55l0-.12a4.94,4.94,0,0,0,.55-1.42,2.78,2.78,0,0,0-.05-1.25,3.24,3.24,0,0,0-.65-1.21,4.06,4.06,0,0,0-1.17-.9,10.35,10.35,0,0,0-2.83-.91,28.4,28.4,0,0,0-3.66-.41q-2-.11-4.11,0t-4.11.24c-1.32.12-2.56.26-3.71.42s-2.11.32-2.88.47Z"/><path id="a-2" data-name="a" d="M313.59,212.81a6.88,6.88,0,0,0,2.28-1,5.11,5.11,0,0,0,1.38-1.46,4.37,4.37,0,0,0,.57-1.67,4.58,4.58,0,0,0-.12-1.66,5.37,5.37,0,0,0-.75-1.7,3.42,3.42,0,0,0-1-1,2.73,2.73,0,0,0-1.25-.35,4.51,4.51,0,0,0-1.39.16,6.11,6.11,0,0,0-1.61.73,7,7,0,0,0-1.43,1.21H310a3.58,3.58,0,0,1-1-1.57,2.4,2.4,0,0,1-.07-1,2,2,0,0,1,.32-.9,2.61,2.61,0,0,1,.71-.74,3.58,3.58,0,0,1,1.08-.5,4.75,4.75,0,0,1,2-.11,7,7,0,0,1,2,.66,9.06,9.06,0,0,1,1.78,1.24,13.68,13.68,0,0,1,1.53,1.62,11.61,11.61,0,0,1,1.16,1.79,8.62,8.62,0,0,1,.73,1.77,6.86,6.86,0,0,1,.24,2.78,4.49,4.49,0,0,1-.93,2.19,6.27,6.27,0,0,1-2,1.62,13.48,13.48,0,0,1-2.91,1.15c-.77.21-1.62.41-2.55.61s-1.91.41-2.93.61-2.08.44-3.16.68-2.15.5-3.21.79a7.52,7.52,0,0,0-3.55,1.84,2.44,2.44,0,0,0-.69,2.42,4.69,4.69,0,0,0,1.69,2.27l-.63.64a7.52,7.52,0,0,1-2.37-1.67,5.51,5.51,0,0,1-1.29-2.29,4.16,4.16,0,0,1-.1-1.88,3.88,3.88,0,0,1,.75-1.72,5.76,5.76,0,0,1,1.65-1.44,10.27,10.27,0,0,1,2.58-1.06c.3-.09.6-.16.91-.23a9.06,9.06,0,0,1,1-.17l0-.09a30.61,30.61,0,0,1-3.36-.65,17.14,17.14,0,0,1-3.1-1.12,10.09,10.09,0,0,1-2.43-1.62,4.65,4.65,0,0,1-1.36-2.18,4.32,4.32,0,0,1-.1-2,4.37,4.37,0,0,1,.75-1.76,5.4,5.4,0,0,1,1.48-1.41,7,7,0,0,1,2.09-.94,8.07,8.07,0,0,1,2.92-.29,7.67,7.67,0,0,1,2.61.72,8.57,8.57,0,0,1,2.28,1.56,13,13,0,0,1,1.91,2.24,16.53,16.53,0,0,1,1.53,2.75,22.32,22.32,0,0,1,1.11,3.1c.75-.14,1.47-.27,2.17-.42S312.77,213,313.59,212.81ZM299.12,207a7.84,7.84,0,0,0-1.26.48,3.67,3.67,0,0,0-1,.7,2.24,2.24,0,0,0-.55.9,1.93,1.93,0,0,0,0,1.09,3.1,3.1,0,0,0,.75,1.28,7,7,0,0,0,1.39,1.12,11.3,11.3,0,0,0,1.91.89,14.22,14.22,0,0,0,2.27.59,15.33,15.33,0,0,0,2.47.22,14.43,14.43,0,0,0,2.53-.23c-.23-.73-.48-1.44-.77-2.13a13.5,13.5,0,0,0-1-1.94,9.34,9.34,0,0,0-1.23-1.59,5.49,5.49,0,0,0-1.52-1.12,5,5,0,0,0-1.84-.5A6.26,6.26,0,0,0,299.12,207Z"/><path id="t" d="M338,224.31q-3.48.28-7.12.84t-7.15,1.2c.1.47.21.93.32,1.37s.21.86.3,1.24.18.73.27,1,.16.57.21.77a11.44,11.44,0,0,0,.8,2.16l-.5.26a2.54,2.54,0,0,1-.45.17,1,1,0,0,1-1.14-.26,4.25,4.25,0,0,1-.65-1.5,19.87,19.87,0,0,1-.47-2.22c-.13-.83-.28-1.74-.46-2.71-1.28.23-2.51.47-3.71.72s-2.33.5-3.38.75-2,.48-2.94.7-1.68.43-2.34.62a30.07,30.07,0,0,0-3.28,1.08A9.43,9.43,0,0,0,304,231.8a3.61,3.61,0,0,0-1.25,1.57,3,3,0,0,0,0,2,5.68,5.68,0,0,0,.82,1.69,12.41,12.41,0,0,0,1.68,2,2.13,2.13,0,0,1-1,.78,20.89,20.89,0,0,1-1.81-1.5,18.2,18.2,0,0,1-1.51-1.55,11.47,11.47,0,0,1-1.12-1.57,6.21,6.21,0,0,1-.67-1.54,4,4,0,0,1-.07-1.93,3.64,3.64,0,0,1,1.12-1.83,10.26,10.26,0,0,1,2.68-1.75,28.26,28.26,0,0,1,4.57-1.62c1.06-.29,2.15-.57,3.28-.85s2.27-.56,3.44-.82,2.33-.52,3.5-.76,2.33-.46,3.47-.67c-.23-.78-.47-1.49-.71-2.14a9.46,9.46,0,0,0-.78-1.62.55.55,0,0,1,.23-.11,1,1,0,0,1,.77.11,2.9,2.9,0,0,1,.82.68,6.25,6.25,0,0,1,.79,1.17,11.7,11.7,0,0,1,.7,1.59q3.74-.66,7.08-1.17t6-.82a1.81,1.81,0,0,1,.82.06,1.6,1.6,0,0,1,.6.34,1.54,1.54,0,0,1,.4.51,2.29,2.29,0,0,1,.24.59,3,3,0,0,1,.12.91A3,3,0,0,1,338,224.31Z"/><path id="period" d="M302.53,245.32a1.83,1.83,0,0,1,0-1,2.47,2.47,0,0,1,.47-.89,3.67,3.67,0,0,1,.84-.71,4.47,4.47,0,0,1,1.05-.46,4.38,4.38,0,0,1,1.48-.16,3.71,3.71,0,0,1,1.18.31,2.6,2.6,0,0,1,.84.64,2.15,2.15,0,0,1,.45.82,2,2,0,0,1,0,1,2.56,2.56,0,0,1-.4.89,2.91,2.91,0,0,1-.77.7,3.62,3.62,0,0,1-1,.46,4.66,4.66,0,0,1-1.29.17,4.06,4.06,0,0,1-1.23-.21,3,3,0,0,1-1-.58A2,2,0,0,1,302.53,245.32Z"/></g><g id="squiggle1"><path d="M423,50.33c.94,4.79,2.29,9.54,5.1,13.36a34.11,34.11,0,0,1,2.12,3.13,12.63,12.63,0,0,1,1.33,3.83,28.59,28.59,0,0,1,0,7.73,68.53,68.53,0,0,1-1.22,7.41c-.51,2.44-1.18,4.82-1.47,7a18.86,18.86,0,0,0,.24,6.48c.21,1.09.52,2.2.83,3.31l.53,1.66c.17.56.4,1,.59,1.54,1.61,4.07,4.61,7.49,7.75,11.35a44.38,44.38,0,0,1,4.49,6.43,24.39,24.39,0,0,1,2.82,7.86,29.28,29.28,0,0,1,.25,8.24,39.91,39.91,0,0,0-.25,6.62c.09.44.13.91.22,1.32a5.12,5.12,0,0,0,.38,1.06,5,5,0,0,0,.58,1c.11.17.3.37.44.56s.31.38.51.6l1.2,1.33c.42.45.85.94,1.28,1.45s.84,1,1.25,1.54.82,1,1.18,1.6a70.92,70.92,0,0,1,7,13.66c.94,2.28,1.85,4.61,2.71,7,.4,1.23.82,2.46,1.15,3.8.19.64.3,1.39.44,2.09a15.75,15.75,0,0,1,.18,2.3,16.94,16.94,0,0,1-.15,2.29c-.11.69-.22,1.38-.34,2-.24,1.22-.43,2.31-.6,3.44a68,68,0,0,0-.51,6.92l.06,1.61a9.3,9.3,0,0,0,.11,1.59l.26,1.54c.07.52.29,1,.41,1.5a6.89,6.89,0,0,0,.53,1.46c.22.48.4,1,.65,1.44l.81,1.4c.26.47.63.91.94,1.37,2.59,3.65,6.39,7.1,9.15,11.56a35.85,35.85,0,0,1,1.92,3.43c.29.59.51,1.21.76,1.82a15,15,0,0,1,.68,1.84,37.55,37.55,0,0,1,1.51,7.55c.12,1.23.24,2.46.31,3.7s.15,2.48.18,3.72a59.78,59.78,0,0,1-.16,7.45,40.64,40.64,0,0,1-1.26,7.35,26.31,26.31,0,0,1-2.95,6.78,32.92,32.92,0,0,0,2.27-14.19,88.73,88.73,0,0,0-1.79-14.31,35.44,35.44,0,0,0-1.89-6.67,11.38,11.38,0,0,0-.71-1.55c-.26-.5-.48-1-.77-1.5a29.64,29.64,0,0,0-1.89-2.83,51.81,51.81,0,0,0-4.59-5.27c-1.66-1.72-3.45-3.51-5.11-5.56-.4-.53-.85-1-1.22-1.59l-1.13-1.71c-.35-.59-.65-1.23-1-1.84a12.83,12.83,0,0,1-.82-1.94,17.29,17.29,0,0,1-.65-2l-.43-2.05a14.45,14.45,0,0,1-.24-2.06c-.05-.68-.11-1.38-.14-2a62.56,62.56,0,0,1,.3-7.7c.24-2.59.94-5.23.83-6.8a21.48,21.48,0,0,0-1.53-6q-1.25-3.28-2.69-6.62c-.95-2.25-1.89-4.37-2.93-6.45-.55-1-1-2.07-1.65-3l-.87-1.46-.95-1.39a52.74,52.74,0,0,0-4.41-5.36c-.21-.23-.44-.51-.67-.8s-.46-.55-.69-.88a13,13,0,0,1-1.25-2.16,12.71,12.71,0,0,1-.81-2.39c-.18-.79-.25-1.54-.35-2.3a43.71,43.71,0,0,1,.39-8,24.57,24.57,0,0,0-.05-6.36c-.52-4.14-2.78-7.79-5.64-11.61-1.43-1.91-3-3.89-4.41-6.07a31.58,31.58,0,0,1-3.57-7.14c-.2-.64-.46-1.3-.61-1.92l-.48-1.85c-.29-1.26-.56-2.53-.74-3.85a26.89,26.89,0,0,1-.26-4,20.87,20.87,0,0,1,.5-4c.57-2.62,1.42-4.91,2.09-7.2s1.26-4.59,1.71-6.94a25.84,25.84,0,0,0,.69-6.85,10.07,10.07,0,0,0-.75-3.15c-.45-1-1.06-2.06-1.65-3.15a25.57,25.57,0,0,1-2.63-7A43.44,43.44,0,0,1,423,50.33Z"/></g><g id="squiggle2"><path d="M377,57.33c1,5.28,2.47,10.51,5.57,14.73a40.39,40.39,0,0,1,2.32,3.44,13.73,13.73,0,0,1,1.44,4.18,31.18,31.18,0,0,1,0,8.47,74.62,74.62,0,0,1-1.39,8.13c-.58,2.68-1.32,5.28-1.66,7.71a20.77,20.77,0,0,0,.25,7.2c.23,1.22.57,2.44.92,3.67l.58,1.84c.2.61.45,1.14.66,1.71,1.8,4.51,5.14,8.31,8.58,12.55a50.13,50.13,0,0,1,4.93,7,26.35,26.35,0,0,1,3.09,8.53,31.1,31.1,0,0,1,.26,9,43.52,43.52,0,0,0-.3,7.36c.1.49.14,1,.25,1.49a5.78,5.78,0,0,0,.45,1.23,6.36,6.36,0,0,0,.68,1.16c.14.2.35.42.51.63s.35.42.58.67l1.33,1.46c.47.49.94,1,1.41,1.58s.93,1.1,1.38,1.67.9,1.14,1.3,1.74l1.22,1.8,1.1,1.84c.77,1.22,1.35,2.49,2,3.74,1.25,2.52,2.38,5.09,3.41,7.57s2.06,5,3,7.67c.45,1.34.91,2.68,1.29,4.14.2.7.33,1.52.49,2.27a18.46,18.46,0,0,1,.19,2.49,19.87,19.87,0,0,1-.16,2.48c-.13.75-.25,1.5-.38,2.15-.27,1.34-.49,2.55-.68,3.8a71,71,0,0,0-.55,7.66l.08,1.78a10.32,10.32,0,0,0,.14,1.77l.3,1.72c.09.58.34,1.11.48,1.67l.25.83a8,8,0,0,0,.34.8c.26.53.46,1.08.74,1.6l.92,1.55c.3.52.71,1,1.05,1.51,2.91,4,7.11,7.78,10.16,12.64a37.1,37.1,0,0,1,2.12,3.74c.33.64.57,1.32.85,2a16.74,16.74,0,0,1,.76,2A41.25,41.25,0,0,1,441,264c.14,1.35.28,2.7.36,4.07s.18,2.72.23,4.08a65.89,65.89,0,0,1-.15,8.19,45.11,45.11,0,0,1-1.33,8.08,29,29,0,0,1-3.22,7.46,35.91,35.91,0,0,0,2.61-15.6,94.57,94.57,0,0,0-1.9-15.78,38.9,38.9,0,0,0-2.08-7.37,13.9,13.9,0,0,0-.79-1.71c-.29-.56-.53-1.13-.85-1.67a36.25,36.25,0,0,0-2.09-3.13,58.24,58.24,0,0,0-5.09-5.82c-1.83-1.89-3.81-3.85-5.62-6.09-.44-.57-.93-1.1-1.33-1.73l-1.24-1.86c-.39-.64-.71-1.33-1.06-2-.17-.34-.36-.67-.5-1l-.39-1.07a16.29,16.29,0,0,1-.71-2.18l-.47-2.24a15.53,15.53,0,0,1-.26-2.24c-.05-.74-.12-1.5-.15-2.23a75.13,75.13,0,0,1,.35-8.44c.17-1.41.38-2.85.6-4.15.12-.67.19-1.25.27-1.83a10.15,10.15,0,0,0,.05-1.54,24.49,24.49,0,0,0-1.7-6.73c-.91-2.41-1.91-4.85-3-7.3s-2.12-4.8-3.28-7.09c-.61-1.11-1.16-2.29-1.84-3.33l-1-1.61-1.06-1.53c-.34-.53-.72-1-1.1-1.5s-.75-1-1.16-1.45-.81-1-1.26-1.44l-1.37-1.53c-.23-.25-.48-.55-.73-.87s-.5-.6-.74-.94a13.54,13.54,0,0,1-1.35-2.32,13,13,0,0,1-.89-2.56c-.19-.84-.26-1.65-.39-2.48a48.34,48.34,0,0,1,.41-8.73,27.9,27.9,0,0,0-.07-7.08c-.58-4.63-3.13-8.72-6.32-12.89-1.6-2.1-3.33-4.25-4.9-6.63a34.21,34.21,0,0,1-4-7.77c-.23-.69-.5-1.41-.69-2.09l-.53-2c-.32-1.38-.63-2.76-.82-4.2a27.93,27.93,0,0,1-.31-4.41,22.35,22.35,0,0,1,.53-4.42c.61-2.87,1.55-5.38,2.28-7.91a77.77,77.77,0,0,0,1.88-7.66,28.25,28.25,0,0,0,.73-7.57,11.11,11.11,0,0,0-.87-3.5c-.51-1.12-1.19-2.27-1.85-3.46A27.93,27.93,0,0,1,378,65.38,48.91,48.91,0,0,1,377,57.33Z"/></g><g id="squiggle3"><path d="M329,62.33c1,5.28,2.47,10.51,5.57,14.73a40.39,40.39,0,0,1,2.32,3.44,13.73,13.73,0,0,1,1.44,4.18,31.18,31.18,0,0,1,0,8.47,74.62,74.62,0,0,1-1.39,8.13c-.58,2.68-1.32,5.28-1.66,7.71a20.77,20.77,0,0,0,.25,7.2c.23,1.22.57,2.44.92,3.67l.58,1.84c.2.61.45,1.14.66,1.71,1.8,4.51,5.14,8.31,8.58,12.55a50.13,50.13,0,0,1,4.93,7,26.35,26.35,0,0,1,3.09,8.53,31.1,31.1,0,0,1,.26,9,43.52,43.52,0,0,0-.3,7.36c.1.49.14,1,.25,1.49a5.78,5.78,0,0,0,.45,1.23,6.36,6.36,0,0,0,.68,1.16c.14.2.35.42.51.63s.35.42.58.67l1.33,1.46c.47.49.94,1,1.41,1.58s.93,1.1,1.38,1.67.9,1.14,1.3,1.74l1.22,1.8,1.1,1.84c.77,1.22,1.35,2.49,2,3.74,1.25,2.52,2.38,5.09,3.41,7.57s2.06,5,3,7.67c.45,1.34.91,2.68,1.29,4.14.2.7.33,1.52.49,2.27a18.46,18.46,0,0,1,.19,2.49,19.87,19.87,0,0,1-.16,2.48c-.13.75-.25,1.5-.38,2.15-.27,1.34-.49,2.55-.68,3.8a71,71,0,0,0-.55,7.66l.08,1.78a10.32,10.32,0,0,0,.14,1.77l.3,1.72c.09.58.34,1.11.48,1.67l.25.83a8,8,0,0,0,.34.8c.26.53.46,1.08.74,1.6l.92,1.55c.3.52.71,1,1.05,1.51,2.91,4,7.11,7.78,10.16,12.64a37.1,37.1,0,0,1,2.12,3.74c.33.64.57,1.32.85,2a16.74,16.74,0,0,1,.76,2A41.25,41.25,0,0,1,393,269c.14,1.35.28,2.7.36,4.07s.18,2.72.23,4.08a65.89,65.89,0,0,1-.15,8.19,45.11,45.11,0,0,1-1.33,8.08,29,29,0,0,1-3.22,7.46,35.91,35.91,0,0,0,2.61-15.6,94.57,94.57,0,0,0-1.9-15.78,38.9,38.9,0,0,0-2.08-7.37,13.9,13.9,0,0,0-.79-1.71c-.29-.56-.53-1.13-.85-1.67a36.25,36.25,0,0,0-2.09-3.13,58.24,58.24,0,0,0-5.09-5.82c-1.83-1.89-3.81-3.85-5.62-6.09-.44-.57-.93-1.1-1.33-1.73l-1.24-1.86c-.39-.64-.71-1.33-1.06-2-.17-.34-.36-.67-.5-1l-.39-1.07a16.29,16.29,0,0,1-.71-2.18l-.47-2.24a15.53,15.53,0,0,1-.26-2.24c-.05-.74-.12-1.5-.15-2.23a75.13,75.13,0,0,1,.35-8.44c.17-1.41.38-2.85.6-4.15.12-.67.19-1.25.27-1.83a10.15,10.15,0,0,0,.05-1.54,24.49,24.49,0,0,0-1.7-6.73c-.91-2.41-1.91-4.85-3-7.3s-2.12-4.8-3.28-7.09c-.61-1.11-1.16-2.29-1.84-3.33l-1-1.61-1.06-1.53c-.34-.53-.72-1-1.1-1.5s-.75-1-1.16-1.45-.81-1-1.26-1.44l-1.37-1.53c-.23-.25-.48-.55-.73-.87s-.5-.6-.74-.94a13.54,13.54,0,0,1-1.35-2.32,13,13,0,0,1-.89-2.56c-.19-.84-.26-1.65-.39-2.48a48.34,48.34,0,0,1,.41-8.73,27.9,27.9,0,0,0-.07-7.08c-.58-4.63-3.13-8.72-6.32-12.89-1.6-2.1-3.33-4.25-4.9-6.63a34.21,34.21,0,0,1-4-7.77c-.23-.69-.5-1.41-.69-2.09l-.53-2c-.32-1.38-.63-2.76-.82-4.2a27.93,27.93,0,0,1-.31-4.41,22.35,22.35,0,0,1,.53-4.42c.61-2.87,1.55-5.38,2.28-7.91a77.77,77.77,0,0,0,1.88-7.66,28.25,28.25,0,0,0,.73-7.57,11.11,11.11,0,0,0-.87-3.5c-.51-1.12-1.19-2.27-1.85-3.46A27.93,27.93,0,0,1,330,70.38,48.91,48.91,0,0,1,329,62.33Z"/></g><g id="squiggle4"><path d="M214,65.33c1,5.28,2.47,10.51,5.57,14.73a40.39,40.39,0,0,1,2.32,3.44,13.73,13.73,0,0,1,1.44,4.18,31.18,31.18,0,0,1,0,8.47,74.62,74.62,0,0,1-1.39,8.13c-.58,2.68-1.32,5.28-1.66,7.71a20.77,20.77,0,0,0,.25,7.2c.23,1.22.57,2.44.92,3.67l.58,1.84c.2.61.45,1.14.66,1.71,1.8,4.51,5.14,8.31,8.58,12.55a50.13,50.13,0,0,1,4.93,7,26.35,26.35,0,0,1,3.09,8.53,31.1,31.1,0,0,1,.26,9,43.52,43.52,0,0,0-.3,7.36c.1.49.14,1,.25,1.49a5.78,5.78,0,0,0,.45,1.23,6.36,6.36,0,0,0,.68,1.16c.14.2.35.42.51.63s.35.42.58.67l1.33,1.46c.47.49.94,1,1.41,1.58s.93,1.1,1.38,1.67.9,1.14,1.3,1.74l1.22,1.8,1.1,1.84c.77,1.22,1.35,2.49,2,3.74,1.25,2.52,2.38,5.09,3.41,7.57s2.06,5,3,7.67c.45,1.34.91,2.68,1.29,4.14.2.7.33,1.52.49,2.27a18.46,18.46,0,0,1,.19,2.49,19.87,19.87,0,0,1-.16,2.48c-.13.75-.25,1.5-.38,2.15-.27,1.34-.49,2.55-.68,3.8a71,71,0,0,0-.55,7.66l.08,1.78a10.32,10.32,0,0,0,.14,1.77l.3,1.72c.09.58.34,1.11.48,1.67l.25.83a8,8,0,0,0,.34.8c.26.53.46,1.08.74,1.6l.92,1.55c.3.52.71,1,1.05,1.51,2.91,4,7.11,7.78,10.16,12.64a37.1,37.1,0,0,1,2.12,3.74c.33.64.57,1.32.85,2a16.74,16.74,0,0,1,.76,2A41.25,41.25,0,0,1,278,272c.14,1.35.28,2.7.36,4.07s.18,2.72.23,4.08a65.89,65.89,0,0,1-.15,8.19,45.11,45.11,0,0,1-1.33,8.08,29,29,0,0,1-3.22,7.46,35.91,35.91,0,0,0,2.61-15.6,94.57,94.57,0,0,0-1.9-15.78,38.9,38.9,0,0,0-2.08-7.37,13.9,13.9,0,0,0-.79-1.71c-.29-.56-.53-1.13-.85-1.67a36.25,36.25,0,0,0-2.09-3.13,58.24,58.24,0,0,0-5.09-5.82c-1.83-1.89-3.81-3.85-5.62-6.09-.44-.57-.93-1.1-1.33-1.73l-1.24-1.86c-.39-.64-.71-1.33-1.06-2-.17-.34-.36-.67-.5-1l-.39-1.07a16.29,16.29,0,0,1-.71-2.18l-.47-2.24a15.53,15.53,0,0,1-.26-2.24c-.05-.74-.12-1.5-.15-2.23a75.13,75.13,0,0,1,.35-8.44c.17-1.41.38-2.85.6-4.15.12-.67.19-1.25.27-1.83a10.15,10.15,0,0,0,0-1.54,24.49,24.49,0,0,0-1.7-6.73c-.91-2.41-1.91-4.85-3-7.3s-2.12-4.8-3.28-7.09c-.61-1.11-1.16-2.29-1.84-3.33l-1-1.61-1.06-1.53c-.34-.53-.72-1-1.1-1.5s-.75-1-1.16-1.45-.81-1-1.26-1.44l-1.37-1.53c-.23-.25-.48-.55-.73-.87s-.5-.6-.74-.94a13.54,13.54,0,0,1-1.35-2.32,13,13,0,0,1-.89-2.56c-.19-.84-.26-1.65-.39-2.48a48.34,48.34,0,0,1,.41-8.73,27.9,27.9,0,0,0-.07-7.08c-.58-4.63-3.13-8.72-6.32-12.89-1.6-2.1-3.33-4.25-4.9-6.63a34.21,34.21,0,0,1-3.95-7.77c-.23-.69-.5-1.41-.69-2.09l-.53-2c-.32-1.38-.63-2.76-.82-4.2a27.93,27.93,0,0,1-.31-4.41,22.35,22.35,0,0,1,.53-4.42c.61-2.87,1.55-5.38,2.28-7.91a77.77,77.77,0,0,0,1.88-7.66,28.25,28.25,0,0,0,.73-7.57,11.11,11.11,0,0,0-.87-3.5c-.51-1.12-1.19-2.27-1.85-3.46A27.93,27.93,0,0,1,215,73.38,48.91,48.91,0,0,1,214,65.33Z"/></g><g id="squiggle5"><path d="M165,97.33c.85,4.59,2,9.17,4.38,13,.59,1,1.25,2,1.81,3.11a14,14,0,0,1,1.13,3.68,33,33,0,0,1,.1,7.36c-.18,2.37-.53,4.75-.93,7.1s-.93,4.66-1.18,6.79a22.47,22.47,0,0,0,.13,6.29l.29,1.6.38,1.61c.12.53.29,1.08.43,1.61l.23.81.26.74c1.28,4,3.79,7.48,6.51,11.38a45.11,45.11,0,0,1,3.86,6.42,26.65,26.65,0,0,1,2.34,7.54,32.3,32.3,0,0,1,.24,7.78,46.77,46.77,0,0,0-.22,6.47c0,.51.12.91.15,1.37s.18.78.29,1.13a7.93,7.93,0,0,0,1.22,2.12c.63.85,1.39,1.78,2.13,2.82.38.5.74,1,1.09,1.56s.7,1.06,1,1.62a73.6,73.6,0,0,1,5.88,13.43c.78,2.23,1.53,4.49,2.22,6.82l.5,1.78c.16.61.29,1.25.44,1.87s.24,1.32.34,2a19,19,0,0,1,.11,2.15,22.91,22.91,0,0,1-.41,4c-.2,1.17-.36,2.23-.5,3.32-.26,2.18-.38,4.41-.45,6.67,0,1.07,0,2.09.1,3.12a21,21,0,0,0,.52,3,19.34,19.34,0,0,0,.93,2.88,26.31,26.31,0,0,0,1.46,2.77c2.16,3.65,5.54,7.26,7.81,11.75A35.56,35.56,0,0,1,213.35,281a91,91,0,0,1,.09,14.2,46.14,46.14,0,0,1-1.11,7,28.63,28.63,0,0,1-2.54,6.6,37,37,0,0,0,1.71-13.68,99.16,99.16,0,0,0-1.56-13.73A31.85,31.85,0,0,0,205.61,269a52.25,52.25,0,0,0-4-5.36c-1.45-1.76-3-3.6-4.47-5.69a32,32,0,0,1-2-3.32,25.58,25.58,0,0,1-1.45-3.7,25.88,25.88,0,0,1-.86-3.86c-.15-1.29-.22-2.61-.28-3.86a69.31,69.31,0,0,1,.22-7.32c.19-2.47.76-5,.67-6.59a22.66,22.66,0,0,0-1.25-5.9c-.68-2.13-1.43-4.29-2.23-6.45s-1.59-4.29-2.44-6.34a48.89,48.89,0,0,0-2.94-5.83c-.25-.47-.55-.91-.84-1.35s-.58-.89-.9-1.32c-.61-.87-1.32-1.75-2.08-2.78a15.06,15.06,0,0,1-2.17-4,16.2,16.2,0,0,1-.56-2.26c-.08-.7-.21-1.45-.22-2.11a52.88,52.88,0,0,1,.36-7.51,27.8,27.8,0,0,0,0-6.19c-.43-4.05-2.3-7.66-4.76-11.52s-5.34-8.19-6.61-13.22l-.26-.93-.19-.89c-.12-.6-.27-1.19-.37-1.79l-.32-1.83-.23-1.86a24.94,24.94,0,0,1,.36-7.66c.51-2.47,1.22-4.67,1.78-6.89s1.06-4.44,1.45-6.7a30.11,30.11,0,0,0,.61-6.6,11.59,11.59,0,0,0-.6-3.09c-.37-1-.88-2-1.37-3.12a27.23,27.23,0,0,1-2.09-6.87A49,49,0,0,1,165,97.33Z"/></g><g id="squiggle6"><path d="M124,116.33c.4,2.07.75,4.14,1.34,6.14a26.72,26.72,0,0,0,2.23,5.73c.47.91,1,1.83,1.46,2.89a14.27,14.27,0,0,1,.9,3.33,34.2,34.2,0,0,1,.18,6.61c-.11,2.14-.34,4.28-.62,6.41s-.65,4.22-.85,6.18a25.43,25.43,0,0,0,.09,5.72,48.17,48.17,0,0,0,1.21,5.82c1,3.7,2.89,6.94,5.1,10.62a44.47,44.47,0,0,1,3.07,6,27.32,27.32,0,0,1,1.82,6.84,33.8,33.8,0,0,1,.21,7,54.84,54.84,0,0,0-.16,5.91,12.08,12.08,0,0,0,.31,2.38,7.59,7.59,0,0,0,.88,1.95c.48.77,1.1,1.66,1.69,2.65s1.17,2,1.68,3a75.35,75.35,0,0,1,4.54,12.39c.58,2,1.16,4.11,1.68,6.24a28.46,28.46,0,0,1,1,7,24.28,24.28,0,0,1-.33,3.56c-.15,1.05-.28,2-.39,3-.2,2-.31,4-.38,6,0,1,0,1.91,0,2.86a24.73,24.73,0,0,0,.37,2.74,18.54,18.54,0,0,0,1.77,5.24c1.65,3.39,4.4,6.94,6.11,11.15a38.15,38.15,0,0,1,2.62,13,95.79,95.79,0,0,1-.14,12.79,48.49,48.49,0,0,1-.95,6.34,29.94,29.94,0,0,1-2.07,6,40.33,40.33,0,0,0,1.08-12.41A110.1,110.1,0,0,0,158.17,285c-.17-1-.31-2.06-.53-3l-.29-1.47-.4-1.43a28.7,28.7,0,0,0-2.15-5.46,50.78,50.78,0,0,0-3.15-5.06c-1.17-1.68-2.48-3.45-3.62-5.45a24.41,24.41,0,0,1-2.68-6.51l-.22-.87-.15-.87-.27-1.74c-.09-1.14-.18-2.33-.21-3.44,0-2.17,0-4.36.14-6.57s.55-4.47.5-6a24.66,24.66,0,0,0-1-5.39c-.51-1.95-1.1-3.93-1.72-5.91s-1.22-3.94-1.88-5.83a52.58,52.58,0,0,0-2.29-5.41c-.42-.86-.87-1.68-1.37-2.51s-1.06-1.66-1.68-2.67a14.8,14.8,0,0,1-1.66-3.8,18.37,18.37,0,0,1-.49-3.86,64.07,64.07,0,0,1,.3-6.69c0-1,.18-1.92.12-2.85l0-1.4-.12-1.38c-.32-3.7-1.75-7-3.69-10.67-1-1.82-2-3.74-2.93-5.82a32.89,32.89,0,0,1-2.09-6.55,51.15,51.15,0,0,1-.93-6.6,26.63,26.63,0,0,1,.4-6.85c.43-2.21,1-4.21,1.43-6.23s.84-4,1.16-6.07a31.48,31.48,0,0,0,.54-6,11.67,11.67,0,0,0-.43-2.82c-.27-.92-.65-1.89-1-2.9A35.22,35.22,0,0,1,124,116.33Z"/></g><g id="squiggle7"><path d="M71,134.33c.82,4.61,1.87,9.21,4.15,13.13.57,1,1.2,2,1.73,3.16a14.84,14.84,0,0,1,1.06,3.69,34.78,34.78,0,0,1,.13,7.34c-.16,2.38-.48,4.76-.84,7.12s-.85,4.68-1.09,6.84a24.62,24.62,0,0,0,.1,6.36,46.94,46.94,0,0,0,1.47,6.45c1.2,4.09,3.54,7.65,6.15,11.63a47.45,47.45,0,0,1,3.66,6.54,28.5,28.5,0,0,1,2.18,7.54,34.12,34.12,0,0,1,.23,7.74,52.76,52.76,0,0,0-.2,6.54,12.41,12.41,0,0,0,.39,2.62,8.84,8.84,0,0,0,1.14,2.18c.6.87,1.32,1.82,2,2.88.36.52.7,1,1,1.6s.67,1.09,1,1.65a77,77,0,0,1,5.51,13.59c.73,2.25,1.43,4.52,2.07,6.87l.46,1.79.41,1.87c.11.65.22,1.31.3,2a18.76,18.76,0,0,1,.1,2.13,25.15,25.15,0,0,1-.39,4c-.18,1.17-.33,2.24-.47,3.34-.24,2.19-.36,4.44-.43,6.7,0,1.1,0,2.12.08,3.18a25.65,25.65,0,0,0,.48,3,19.56,19.56,0,0,0,2.22,5.76c2,3.73,5.3,7.48,7.41,12.05a38.46,38.46,0,0,1,3.4,14.3,99.25,99.25,0,0,1,0,14.22,50.7,50.7,0,0,1-1.07,7,29.76,29.76,0,0,1-2.41,6.66,40.1,40.1,0,0,0,1.54-13.75A108.44,108.44,0,0,0,113,320.29l-.27-1.71-.35-1.64c-.12-.55-.22-1.1-.35-1.64l-.48-1.58a29.11,29.11,0,0,0-2.6-6,52.71,52.71,0,0,0-3.76-5.51c-1.39-1.81-2.92-3.71-4.27-5.86a25.28,25.28,0,0,1-3.22-7.1,26.8,26.8,0,0,1-.78-3.85c-.13-1.28-.21-2.59-.26-3.84,0-2.41,0-4.84.2-7.31s.69-5,.63-6.64a24.86,24.86,0,0,0-1.18-6c-.63-2.15-1.35-4.34-2.09-6.53s-1.49-4.34-2.3-6.42a50.48,50.48,0,0,0-2.77-5.94c-.24-.48-.52-.93-.8-1.39s-.55-.91-.86-1.35c-.58-.89-1.27-1.81-2-2.86a15.78,15.78,0,0,1-2-4.07,18.11,18.11,0,0,1-.65-4.3,59.07,59.07,0,0,1,.34-7.46l.1-1.59,0-.8v-.78l0-1.57c0-.51-.11-1-.15-1.53-.41-4.11-2.17-7.8-4.52-11.74-1.16-2-2.45-4-3.55-6.3a33.2,33.2,0,0,1-2.61-7.15,50.93,50.93,0,0,1-1.23-7.31,26.75,26.75,0,0,1,.4-7.63c.48-2.46,1.15-4.67,1.68-6.91s1-4.47,1.36-6.74a32.36,32.36,0,0,0,.59-6.65,12.17,12.17,0,0,0-.56-3.12c-.35-1-.82-2.07-1.28-3.17C71.49,143.82,71.05,139,71,134.33Z"/></g><g id="underline"><path d="M261.37,134.18q3.12,6.9,6,13.91c1.91,4.68,3.76,9.37,5.49,14.15.84,2.4,1.66,4.81,2.38,7.3l.52,1.88c.17.63.3,1.31.45,2,.07.35.16.64.21,1l.13,1.12c.1.83.13,1.32.18,1.88a140.54,140.54,0,0,0,2.71,14.46c1.08,4.89,2.4,9.73,3.6,14.69.28,1.25.56,2.52.8,3.83l.16,1.05.08.54.05.68,0,.68,0,.27c0,.15,0,.4.07.67.12,1,.33,2.2.54,3.37l.66,3.58c.92,4.79,1.86,9.77,2.94,14.42l.47,1.92c.15.68.28,1.35.37,2,.19,1.32.31,2.63.37,3.93a50.37,50.37,0,0,1-.2,7.77l-.8.09c-.89-2.4-1.68-4.8-2.58-7.13-.43-1.16-.89-2.3-1.36-3.4-.24-.55-.48-1.08-.73-1.6l-.39-.74-.45-.87c-1.19-2.43-2.12-4.8-3-7.22s-1.67-4.86-2.39-7.34c-.36-1.25-.69-2.5-1-3.79a37,37,0,0,1-.72-4.06l-.07-.56c0-.19,0-.44,0-.65l0-.67,0-.27v-.26l-.05-.39-.09-.82c-.14-1.17-.29-2.39-.47-3.61-.64-4.93-1.34-9.94-2.1-15a143.24,143.24,0,0,1-1.73-15.37c0-.69,0-1.46,0-1.88l0-.76c0-.25-.06-.57-.09-.85-.09-.58-.14-1.15-.25-1.75l-.33-1.79c-.47-2.4-1.06-4.82-1.68-7.23-2.42-9.7-5.44-19.32-8.37-28.94Z"/></g><path id="blood1" class="cls-3" d="M132.5,153.83s6,0,7,5,6,10,7,13-5,7-10,5S123.5,164.83,132.5,153.83Z"/><path id="blood2" class="cls-3" d="M22.63,158.93c2.65-.06,6.4-.5,9-2.33a3.09,3.09,0,0,0,1.15-1.6,8.72,8.72,0,0,1,.77-2.17c.7-1.28,2.71-2.64,4-2.09,1.93.79,5.71.71,7,.09,2-1,5-6,2-10s-8-3-11-2-6,6-8,5-11.64-2.78-8.7,12.07A3.8,3.8,0,0,0,22.63,158.93Z"/><g id="bloodLine"><path class="cls-3" d="M276.15,186c.63,3.24,1.15,6.49,1.65,9.73l1.49,9.7c.45,3.23,1.09,6.41,1.69,9.64a98.8,98.8,0,0,1,1.52,9.77c-1.1-3.12-2.14-6.24-3-9.41a74.47,74.47,0,0,1-2.15-9.69c-.49-3.27-.86-6.55-1.06-9.84A79.75,79.75,0,0,1,276.15,186Z"/></g></svg>