<svg id="monaLisa" xmlns="http://www.w3.org/2000/svg" viewBox="0 0 320.07 400.98"><title>mnIcon</title><g id="monaFull"><path id="frame" d="M316.07,0H4A4,4,0,0,0,0,4V397a4,4,0,0,0,4,4H316.07a4,4,0,0,0,4-4V4A4,4,0,0,0,316.07,0Zm-4,393H8V8H312.07Z"/><path id="eye" d="M148.66,128.9a4,4,0,0,0,4-4V113.08l7.32.31a4,4,0,0,0,.35-8l-11.5-.5a4,4,0,0,0-4.17,4v16A4,4,0,0,0,148.66,128.9Z"/><path id="finger" d="M145.72,304.81a4,4,0,1,0-5.07,6.18l25,20.5a4,4,0,1,0,5.07-6.18Z"/><path id="shoulder" d="M226.33,219.9c-24.93-.92-34.53,18.52-36.09,28.85l-5.5,33.5a4,4,0,0,0,3.3,4.6,4.74,4.74,0,0,0,.65,0,4,4,0,0,0,3.94-3.35L198.14,250c.14-.93,3.79-22.94,27.9-22.1a4,4,0,0,0,.29-8Z"/><path id="mona" d="M39.39,358a4,4,0,0,0,4,4h233.3a4,4,0,0,0,4-4V43a4,4,0,0,0-4-4H43.39a4,4,0,0,0-4,4Zm77.83-193.87c-2.18,6.27-2,15.11-1.59,20.29-9.21,1.71-29.95,10-39.15,49.74a113.51,113.51,0,0,1-11.15,11.2c-6,5.58-12.61,11.63-17.94,18.86V123.9h59.66C107,138.22,109.89,156.65,117.22,164.11ZM272.69,277.22c-7.77-28.8-21-65.51-39.22-91.61-5.48-7.85-17.68-18.36-24.24-24l-.32-.28c-1.39-9.07-3.32-23.79-5-37.43h68.83V277.22ZM146.06,288.38a114.49,114.49,0,0,0-13.9-6.46c0-.95,0-2,0-2.76,1.77-27.19,17.93-50.29,48-68.66A186.93,186.93,0,0,1,226,190.69a10.76,10.76,0,0,1,1.12-.2q1.84,2.65,3.61,5.47a120.78,120.78,0,0,0-38.36,15.35c-18.07,11.17-40.15,32.17-45.48,69.45C146.61,282.64,146.09,287.72,146.06,288.38Zm15.27-77c-19.53,1.75-35.72-7.15-42-14.62,1.95-7.6,17.9-19.79,29.32-26.43a4,4,0,0,0,2-3.78L150,158c.61.06,1.22.09,1.84.11l1.07,0a30.64,30.64,0,0,0,20.62-7.36l0,0,1.85,53.29q-5.49,3.39-10.43,7C163.38,211.2,162,211.35,161.33,211.41Zm-28.14-105h0l-5,0L126.83,90c0-.07.07-.14.1-.22,2.52-2.36,8.51-7.3,15.13-7.93,12.21-1.16,27.21.58,29.64,15.4l1.5,43.26-4.89,4.19a22.56,22.56,0,0,1-15.24,5.44l-1.08,0a22.63,22.63,0,0,1-22.05-20.84l-1.18-14.88,4.45,0a4,4,0,0,0,0-8Zm68,57.62a4,4,0,0,0,1.34,2.4l1.44,1.25c4.21,3.62,11.67,10.06,17.36,16a195.76,195.76,0,0,0-38.11,15.83l-2-57.28v-.07l-1.58-45.39a3.73,3.73,0,0,0,0-.47c-2.51-16.3-16.48-24.45-38.33-22.37a27.64,27.64,0,0,0-9.05,2.58c4.22-5.44,11.5-10.6,23.92-10.6,9.57,0,18,3.82,25.06,11.35a46.39,46.39,0,0,1,12,26.35C195.31,120.21,199,150.14,201.23,164ZM119.7,101.39,122,129.93a30.3,30.3,0,0,0,2.5,9.94,30.39,30.39,0,0,0,17.35,16.34l.68,8.54a157.53,157.53,0,0,0-13.85,9.63q-2.87,2.25-5.25,4.39c-.06-5.42.45-11.07,2.15-13.71a4,4,0,0,0-1.58-5.74c-6.94-3.47-11.06-33.72-7.89-47.53A51.69,51.69,0,0,1,119.7,101.39ZM47.39,354V280.43C52,268.49,62,259.32,70.75,251.23c3.35-3.09,6.56-6.06,9.3-9,4.1.22,14.85,1.53,17.8,9.14A41.83,41.83,0,0,0,106.63,270a4,4,0,0,0,6.11-5.16c-14.81-17.51-4.87-47.33-4.77-47.62a4,4,0,0,0-7.57-2.6,82.27,82.27,0,0,0-3.64,19.47c-.1,1.53-.14,3-.15,4.49a34.1,34.1,0,0,0-12-3.95c6.73-27.71,19.18-37.42,27.35-40.82a14.24,14.24,0,0,0-.75,4,4,4,0,0,0,.73,2.46c3.76,5.33,10.58,10.44,18.71,14a64,64,0,0,0,23.94,5.36c-18.54,16.89-28.94,36.95-30.38,59,0,.17,0,.35,0,.53a89.15,89.15,0,0,0-14.51-3.25,4,4,0,0,0-2.53.57,18.6,18.6,0,0,0-8.49,12,25.21,25.21,0,0,0,1.27,14.77,41.93,41.93,0,0,1-11.59,3.12c-8.31-14.41.19-21.47,1.26-22.28a4,4,0,0,0-4.7-6.47C79.72,281.34,73,291.51,79.16,306c-4.36-1.71-11.14-6.52-10-19.76.5-5.75,2.45-10,5.8-12.65,5.57-4.39,13.5-3.27,13.6-3.25a4,4,0,0,0,1.25-7.9c-.47-.08-11.36-1.72-19.73,4.81-5.19,4.06-8.19,10.22-8.89,18.29-2.31,26.61,20.34,29.3,20.57,29.33s15.74-.06,25.64-6.65c.17-.12,4.08-2.46,4.08-2.46.67.87,1.58,2,2.64,3.28l-15.8,8.31a4,4,0,0,0-2.14,3.54v12a4,4,0,0,0,8,0v-9.59l15.51-8.15a90.42,90.42,0,0,0,7,6.42l-13.66,4a4,4,0,0,0-2.61,2.38l-5.5,14a4,4,0,0,0,7.45,2.92l4.78-12.17L135,327.5a57.59,57.59,0,0,0,9.26,4.63,4,4,0,0,0,2.87-7.47c-18-6.94-30-24.33-30.12-24.5a4,4,0,0,0-4.44-1.6l-5.31,1.56a17.4,17.4,0,0,1-.84-9.83,10.75,10.75,0,0,1,3.76-6.21c6.76,1.11,36.19,7.19,58,32a4,4,0,1,0,6-5.29c-1.38-1.57-2.8-3.05-4.23-4.48l29.83-5.42c1-.11,12.53-1.21,19.75,8a4,4,0,1,0,6.3-4.93c-10.3-13.16-26.51-11.09-27.2-11l-.17,0-36,6.53a104.74,104.74,0,0,0-8.51-6.31c0-2.11.06-4.63.18-5.92q.29-3.13.74-6.17c4.06-27.11,18-48.23,41.42-62.83a112.11,112.11,0,0,1,37.76-14.79l1-.14c22.35,39.52,36.28,95.79,37.56,114.22V354ZM272.69,47v68.9H202.86c-.61-4.89-1.18-9.44-1.64-13.27a54.43,54.43,0,0,0-14.15-30.85c-8.63-9.21-19-13.88-30.88-13.88-25.8,0-35.69,19.16-37.4,29.58A59.71,59.71,0,0,0,108.29,110a45.88,45.88,0,0,0-.89,5.9h-60V47Z"/></g></svg>