<?xml version="1.0" encoding="utf-8"?>
<!-- Generator: Adobe Illustrator 23.0.6, SVG Export Plug-In . SVG Version: 6.00 Build 0)  -->
<svg version="1.1" id="monaLisa" xmlns="http://www.w3.org/2000/svg" xmlns:xlink="http://www.w3.org/1999/xlink" x="0px" y="0px"
	 viewBox="0 0 320.1 401" style="enable-background:new 0 0 320.1 401;" xml:space="preserve">
<style type="text/css">
	.st0{fill:white;}
    .st0:hover{fill:#7F402F; transition: fill 0.2s ease-in-out;}
</style>
<title>mnIcon</title>
<g id="monaFull">
	<g id="XMLID_1_">
		<g>
			<path class="st0" d="M312.1,8v385H8V8H312.1z M280.7,358V43c0-2.2-1.8-4-4-4H43.4c-2.2,0-4,1.8-4,4v315c0,2.2,1.8,4,4,4h233.3
				C278.9,362,280.7,360.2,280.7,358z"/>
			<path d="M320.1,4v393c0,2.2-1.8,4-4,4H4c-2.2,0-4-1.8-4-4V4c0-2.2,1.8-4,4-4h312.1C318.3,0,320.1,1.8,320.1,4z M312.1,393V8H8
				v385H312.1z"/>
			<path d="M280.7,43v315c0,2.2-1.8,4-4,4H43.4c-2.2,0-4-1.8-4-4V43c0-2.2,1.8-4,4-4h233.3C278.9,39,280.7,40.8,280.7,43z
				 M272.7,277.2V123.9h-68.8c1.7,13.6,3.6,28.4,5,37.4l0.3,0.3c6.6,5.6,18.8,16.1,24.2,24C251.7,211.7,264.9,248.4,272.7,277.2
				L272.7,277.2z M272.7,115.9V47H47.4v68.9h60c0.2-2,0.5-4,0.9-5.9c1.9-8.2,5.5-15.8,10.5-22.5c1.7-10.4,11.6-29.6,37.4-29.6
				c11.9,0,22.3,4.7,30.9,13.9c7.9,8.5,12.8,19.3,14.1,30.8c0.5,3.8,1,8.4,1.6,13.3H272.7z M272.6,354v-36.5
				c-1.3-18.4-15.2-74.7-37.6-114.2l-1,0.1c-13.4,2.6-26.2,7.6-37.8,14.8c-23.4,14.6-37.4,35.7-41.4,62.8c-0.3,2-0.5,4.1-0.7,6.2
				c-0.1,1.3-0.2,3.8-0.2,5.9c2.9,2,5.8,4.1,8.5,6.3l36-6.5h0.2c0.7-0.1,16.9-2.2,27.2,11c0,0,0,0,0,0.1c1.4,1.8,1,4.3-0.7,5.6
				c-1.8,1.3-4.3,1-5.6-0.7c-7.2-9.2-18.8-8.1-19.8-8l-29.8,5.4c1.4,1.4,2.9,2.9,4.2,4.5c0,0,0.1,0.1,0.1,0.1
				c1.4,1.7,1.2,4.2-0.4,5.6c-1.7,1.4-4.2,1.2-5.6-0.4c-21.8-24.8-51.2-30.9-58-32c-1.9,1.6-3.3,3.8-3.8,6.2
				c-0.7,3.3-0.4,6.7,0.8,9.8l5.3-1.6c1.7-0.5,3.5,0.2,4.4,1.6c0.1,0.2,12.1,17.6,30.1,24.5c2.1,0.8,3.1,3.1,2.3,5.2
				c-0.8,2.1-3.1,3.1-5.2,2.3c-3.2-1.3-6.3-2.8-9.3-4.6l-17.8,5.2l-4.8,12.2c-0.8,2.1-3.1,3.1-5.2,2.3c-2.1-0.8-3.1-3.1-2.3-5.2
				l5.5-14c0.5-1.2,1.4-2,2.6-2.4l13.7-4c-2.4-2-4.8-4.2-7-6.4l-15.5,8.1v9.6c0,2.2-1.8,4-4,4s-4-1.8-4-4v-12c0-1.5,0.8-2.9,2.1-3.5
				l15.8-8.3c-1.1-1.3-2-2.4-2.6-3.3c0,0-3.9,2.3-4.1,2.5c-9.9,6.6-25.4,6.7-25.6,6.6c-0.2,0-22.9-2.7-20.6-29.3
				c0.7-8.1,3.7-14.2,8.9-18.3c8.4-6.5,19.3-4.9,19.7-4.8c2.1,0.4,3.6,2.4,3.3,4.5c-0.3,2.2-2.3,3.7-4.5,3.4c-0.1,0-8-1.1-13.6,3.3
				c-3.3,2.6-5.3,6.9-5.8,12.6c-1.1,13.2,5.6,18.1,10,19.8c-6.2-14.5,0.6-24.7,5.8-28.4c1.8-1.2,4.1-0.8,5.4,0.9
				c1.3,1.8,1,4.3-0.7,5.6c-1.1,0.8-9.6,7.9-1.3,22.3c4-0.5,7.9-1.5,11.6-3.1c-1.9-4.7-2.3-9.8-1.3-14.8c1.1-5,4.1-9.3,8.5-12
				c0.8-0.5,1.7-0.7,2.5-0.6c4.9,0.7,9.8,1.8,14.5,3.3c0-0.2,0-0.4,0-0.5c1.4-22.1,11.8-42.1,30.4-59c-8.3-0.2-16.4-2.1-23.9-5.4
				c-8.1-3.6-14.9-8.7-18.7-14c-0.5-0.7-0.8-1.6-0.7-2.5c0.1-1.4,0.3-2.7,0.8-4c-8.2,3.4-20.6,13.1-27.3,40.8
				c4.2,0.6,8.3,1.9,12,3.9c0-1.5,0.1-3,0.2-4.5c0.4-6.6,1.7-13.1,3.6-19.5c0.7-2.1,3-3.2,5.1-2.5c2.1,0.7,3.2,3,2.5,5.1
				c-0.1,0.3-10,30.1,4.8,47.6c1.3,1.7,1.1,4.1-0.5,5.5c-1.7,1.5-4.2,1.3-5.7-0.3c-4.4-5.4-7.4-11.8-8.8-18.6
				c-2.9-7.6-13.7-8.9-17.8-9.1c-2.7,2.9-6,5.9-9.3,9c-8.8,8.1-18.8,17.3-23.4,29.2V354H272.6z M230.7,196c-1.2-1.9-2.4-3.7-3.6-5.5
				c-0.4,0-0.8,0.1-1.1,0.2c-16.1,4.5-31.5,11.2-45.8,19.8c-30.1,18.4-46.2,41.5-48,68.7c0,0.8,0,1.8,0,2.8c4.8,1.8,9.4,4,13.9,6.5
				c0-0.7,0.6-5.7,0.8-7.6c5.3-37.3,27.4-58.3,45.5-69.5C204.2,204,217.2,198.8,230.7,196z M221.3,183.6c-5.7-5.9-13.2-12.4-17.4-16
				l-1.4-1.3c-0.7-0.6-1.2-1.5-1.3-2.4h0c-2.2-13.9-5.9-43.8-8-60.4c-1.1-9.8-5.3-19.1-12-26.3c-7.1-7.5-15.5-11.4-25.1-11.4
				c-12.4,0-19.7,5.2-23.9,10.6c2.9-1.4,5.9-2.2,9.1-2.6c21.9-2.1,35.8,6.1,38.3,22.4c0,0.2,0,0.3,0,0.5l1.6,45.4v0.1l2,57.3
				C195.3,192.9,208.1,187.6,221.3,183.6z M175.4,204l-1.9-53.3c-5.7,4.9-13.1,7.5-20.6,7.4h-1.1c-0.6,0-1.2-0.1-1.8-0.1l0.6,8.6
				c0.1,1.5-0.7,3-2,3.8c-11.4,6.6-27.4,18.8-29.3,26.4c6.3,7.5,22.5,16.4,42,14.6v0c0.7-0.1,2.1-0.2,3.6-0.4
				C168.2,208.6,171.7,206.3,175.4,204z M173.2,140.5l-1.5-43.3c-2.4-14.8-17.4-16.6-29.6-15.4c-6.6,0.6-12.6,5.6-15.1,7.9
				c0,0.1-0.1,0.2-0.1,0.2l1.4,16.4h5l0,0c2.2,0,4,1.8,4,4s-1.8,4-4,4h-4.5l1.2,14.9c0.9,11.6,10.4,20.6,22.1,20.8h1.1
				c5.6,0.1,11-1.8,15.2-5.4L173.2,140.5z M142.5,164.8l-0.7-8.5c-7.8-2.9-14-8.8-17.4-16.3c-1.4-3.1-2.2-6.5-2.5-9.9l-2.3-28.5
				c-1.6,3.3-2.8,6.8-3.6,10.4c-3.2,13.8,0.9,44.1,7.9,47.5c0.1,0.1,0.3,0.1,0.4,0.2c1.9,1.2,2.4,3.7,1.2,5.5
				c-1.7,2.6-2.2,8.3-2.2,13.7c1.6-1.4,3.3-2.9,5.2-4.4C133.1,170.9,137.7,167.7,142.5,164.8z M117.2,164.1L117.2,164.1
				c-7.3-7.5-10.2-25.9-10.2-40.2H47.4v140.3c5.3-7.2,11.9-13.3,17.9-18.9c4-3.5,7.7-7.2,11.2-11.2c9.2-39.7,29.9-48,39.1-49.7
				C115.2,179.2,115,170.4,117.2,164.1z"/>
			<path d="M192.6,283.5c-0.3,1.9-2,3.4-3.9,3.4c-0.2,0-0.4,0-0.7,0c0,0,0,0,0,0c-2.2-0.4-3.6-2.4-3.3-4.6l5.5-33.5
				c1.6-10.3,11.2-29.8,36.1-28.9c2.2,0.1,3.9,1.9,3.8,4.1c-0.1,2.2-1.9,3.9-4.1,3.9c-24.1-0.8-27.8,21.2-27.9,22.1L192.6,283.5z"/>
			<path d="M171,325.5c1.6,1.5,1.8,4,0.3,5.6s-4,1.8-5.7,0.3l-25-20.5c-0.1-0.1-0.2-0.1-0.3-0.2c-1.6-1.5-1.8-4-0.3-5.6
				c1.5-1.7,4-1.8,5.6-0.3l25,20.5C170.8,325.4,170.9,325.4,171,325.5z"/>
			<path d="M160.3,105.4c2.2,0.1,3.9,2,3.8,4.2c-0.1,2.2-2,3.9-4.2,3.8l-7.3-0.3v11.8c0,2.2-1.8,4-4,4h0c-2.2,0-4-1.8-4-4v-16
				c0-0.1,0-0.1,0-0.2c0.1-2.2,2-3.9,4.2-3.8L160.3,105.4z"/>
		</g>
		<g>
		</g>
	</g>
</g>
</svg>
