<svg id="whoarewe" xmlns="http://www.w3.org/2000/svg" viewBox="0 0 96.2 445.23">
<defs><style>
.cls-1{fill:#e54b2c;}
.cls-2{fill: white;}
.cls-2:hover{fill:#d3f4f0; transition: fill 0.2s ease-in-out;}
</style></defs>
<title>paulIcon</title><g id="full"><g id="outline"><path d="M73.4,443.63A36.38,36.38,0,0,0,84,433.5c.33-.51.63-1,1-1.57l.82-1.64a27.34,27.34,0,0,1,1.45-3.4,64.18,64.18,0,0,1,3.89-6.27q2.1-3,4.35-6a2.5,2.5,0,0,0,.53-1.66,16,16,0,0,0,0-1.83,22.37,22.37,0,0,0-.46-3.64,26.11,26.11,0,0,0-1-3.53c-.18-.59-.46-1.12-.64-1.73a3.91,3.91,0,0,1-.15-.93l-.1-.92c-.23-2.45-.42-4.9-.59-7.35-.69-9.82-1.25-19.63-1.79-29.45-.32-4.92-.36-9.83-1.17-14.68A86.2,86.2,0,0,0,87,334.58c-.19-.58-.44-1.13-.66-1.7a12.66,12.66,0,0,0-.84-1.59l-.51-.72a3.53,3.53,0,0,1-.53-.83c-.13-.29-.27-.57-.39-.86l-.32-.88a33.5,33.5,0,0,1-1.42-7.28,59.94,59.94,0,0,1,.42-14.78,41.54,41.54,0,0,1,1.71-7.21l.14-.44.1-.4.13-.9.22-1.83.35-3.66c.42-4.89.73-9.8,1-14.7l.19-3.66-.11-3.68-.23-7.38-.46-14.75c-.1-4.92-.5-9.8-.08-14.77a29.3,29.3,0,0,0-.22-7.25,14,14,0,0,0-2.63-6.55l-.58-.66a4,4,0,0,1-.64-.83,2.64,2.64,0,0,1-.29-1l-.12-.93c-.12-1.23-.21-2.47-.27-3.7q-.18-3.71-.19-7.39a140.76,140.76,0,0,1,.59-14.79l2-14.61.26-1.86.33-1.81.64-3.63q.63-3.63,1.17-7.27c.34-2.42.69-4.86.82-7.29a13.88,13.88,0,0,1,1.59-7.29,2.41,2.41,0,0,0,.55-1.55l.17-1.84.32-3.67c.2-2.45.38-4.9.52-7.35s.25-4.9.15-7.33a8.8,8.8,0,0,0-.24-1.74,11.5,11.5,0,0,1-.36-1.86c-.16-1.24-.24-2.47-.29-3.71q-.16-3.69,0-7.4a18.6,18.6,0,0,1,.48-3.73,1.4,1.4,0,0,1,.28-.54s0,0,0-.09l.06-.19q.1-.42.18-.87c.09-.6.17-1.2.23-1.81.48-4.88.68-9.8.79-14.7,0-2.46.07-4.91,0-7.36,0-1.23-.08-2.45-.21-3.66a28.31,28.31,0,0,0-.74-3.57A150.37,150.37,0,0,0,80,45.09a59.11,59.11,0,0,0-7.89-12.36l-1.24-1.34a5,5,0,0,1-1.16-1.53,25.27,25.27,0,0,1-.54-3.69c-.22-2.46-.31-4.92-.37-7.38l0-1.85a6.34,6.34,0,0,0,0-.89c0-.29-.12-.59-.19-.89a32.8,32.8,0,0,0-1.06-3.5A24.05,24.05,0,0,0,64,5.21,12.47,12.47,0,0,0,58.34.87,10.29,10.29,0,0,0,54.77.32,5.46,5.46,0,0,0,53,.53l-1.8.41a24.87,24.87,0,0,0-3.52,1,7.81,7.81,0,0,0-3,1.89C43,5.62,42.29,8.08,41.85,10.47a55.94,55.94,0,0,0-.75,7.29v1.85a5.36,5.36,0,0,1-.09,1l-.26.89a14.92,14.92,0,0,1-1.39,3.46,26.56,26.56,0,0,0-3.87,6.21,16.66,16.66,0,0,0-1.18,3.44,4.25,4.25,0,0,1-.55,1.83c-.43.55-.85.89-1.25,1.39-3.18,3.72-6.1,7.69-9,11.64-1.44,2-2.87,4-4.22,6-.69,1-1.3,2.07-2,3.11l-2.05,3.07c-2.74,4.07-5.41,8.2-7.74,12.52a68.16,68.16,0,0,0-5.7,13.51,30.6,30.6,0,0,0-.74,14.48,37.24,37.24,0,0,0,2,7c.43,1.15,1,2.24,1.49,3.35s1.13,2.16,1.81,3.18c.32.54.64,1,1,1.6l.8,1.67c.52,1.12,1,2.26,1.46,3.41.23.56.45,1.17.65,1.71s.51,1.11.78,1.66c.54,1.1,1.1,2.18,1.69,3.26a48,48,0,0,0,3.93,6.16c.73,1,1.61,1.77,2.41,2.81a19.76,19.76,0,0,1,1.89,3.23,54.3,54.3,0,0,1,2.67,6.92c.38,1.17.72,2.36,1.05,3.55l.47,1.79.11.45c0,.17.07.36.08.5l.1.92c.5,4.89,1,9.79,1.38,14.7.19,2.45.38,4.9.48,7.37s0,4.93,0,7.4a127.73,127.73,0,0,1-1.1,14.75,62.49,62.49,0,0,1-1.45,7.28,23.27,23.27,0,0,1-3,6.88l-.58.77-.3.38a4.59,4.59,0,0,1-.41.36,3.37,3.37,0,0,1-1,.46,2.25,2.25,0,0,0-.65.37,8.34,8.34,0,0,0-1.95,2.85,32.15,32.15,0,0,0-1.3,3.43,2.78,2.78,0,0,1-1.52,1.51,12.41,12.41,0,0,0-1.65.71,13,13,0,0,0-5.1,4.86A14.75,14.75,0,0,0,6.51,231a2,2,0,0,0-.13.73v.92l0,3.69c0,2.45,0,4.91.15,7.36,0,1.22.11,2.44.2,3.66a16.25,16.25,0,0,0,.54,3.49l.17.47a2,2,0,0,1,.12.51,6.7,6.7,0,0,1,.11,1c0,.63,0,1.25,0,1.87,0,1.23,0,2.44.12,3.64a11,11,0,0,0,.8,3.43,3.84,3.84,0,0,0,.4.75,3.06,3.06,0,0,0,.5.68l.28.31a3,3,0,0,1,.36.43,3.15,3.15,0,0,1,.42,1c.46,2.49.57,4.94.78,7.4l.29,3.66a25,25,0,0,0,.52,3.56,2.19,2.19,0,0,0,.32.69,4.53,4.53,0,0,0,.55.62A12.71,12.71,0,0,0,14.44,282a34.64,34.64,0,0,0,3.08,1.93c.28.16.51.27.83.46a2.9,2.9,0,0,1,.79.77,2.85,2.85,0,0,1,.44,1l.17.91.7,3.62c1.91,9.63,3.94,19.27,6.73,28.66a54.32,54.32,0,0,0,2.49,6.86l.38.83c.15.25.31.5.45.75s.28.48.49.78a2.77,2.77,0,0,1,.41,1l.37,3.7c.55,4.88,1.26,9.74,2.09,14.57s1.84,9.64,3,14.41a134.67,134.67,0,0,0,4.22,14.07c.8,2.31,1.8,4.54,2.77,6.78l1.67,3.26c.56,1.08,1.26,2.08,1.88,3.12l.48.78a3,3,0,0,1,.46,1,3.81,3.81,0,0,1,.08,1v6a2.59,2.59,0,0,1-.07.55,2.85,2.85,0,0,1-.44,1,7.64,7.64,0,0,1-.65.75c-.83.89-1.63,1.81-2.39,2.76a20.74,20.74,0,0,0-2,3,15.61,15.61,0,0,0-.71,1.66,9.3,9.3,0,0,1-1,1.68,12.62,12.62,0,0,1-2.69,2.72c-1,.73-2,1.41-3,2.16A52.47,52.47,0,0,0,30,419.31a20.73,20.73,0,0,0-2.31,2.76,6.08,6.08,0,0,0-1.25,3.1v.12l-.05.1a13.92,13.92,0,0,0-1.2,3.3,5.17,5.17,0,0,0,.19,3.27l.05.1v.11a4.15,4.15,0,0,0,.58,1.94,8.66,8.66,0,0,0,1.27,1.73l0,.06,0,.06a3.61,3.61,0,0,0,.47.68,4,4,0,0,0,.61.56,2.61,2.61,0,0,0,1.5.51h.19l.13.14a.87.87,0,0,0,.66.3.94.94,0,0,0,.36-.08,1.42,1.42,0,0,0,.34-.22l.37-.35.33.42a3.24,3.24,0,0,0,2.57,1.13,6.85,6.85,0,0,0,3-.81,10,10,0,0,0,2.6-1.89c.79-.75,1.55-1.57,2.3-2.39,3-3.33,5.74-6.84,8.73-10.18,1.49-1.68,3-3.33,4.67-4.86a17.78,17.78,0,0,1,5.63-3.85c.28-.08.61-.16.83-.24a3.84,3.84,0,0,0,.71-.28l1.49-.76c1-.51,2-1,2.91-1.61a8.8,8.8,0,0,0,2.45-2,1.63,1.63,0,0,0,.34-1.34,13.44,13.44,0,0,0-.34-1.6,50.83,50.83,0,0,0-2.2-6.28c-.22-.5-.44-1-.69-1.5-.12-.25-.25-.47-.39-.72a2.49,2.49,0,0,1-.32-.9c-.09-1.16-.2-2.22-.35-3.34-.28-2.21-.63-4.42-1-6.62s-.77-4.41-1.08-6.63c-.64-4.43-1.2-8.87-1.52-13.35a43.29,43.29,0,0,1-.08-6.74,8.49,8.49,0,0,1,.28-1.7.82.82,0,0,1,.1-.24.67.67,0,0,1,.11-.14.32.32,0,0,1,.28-.09.47.47,0,0,1,.33.23,2.25,2.25,0,0,1,.12.21,7.48,7.48,0,0,1,.29.83c.3,1.09.52,2.19.75,3.29a130.33,130.33,0,0,0,3,13,21.26,21.26,0,0,0,1.23,3.08A10,10,0,0,0,70,381a2.6,2.6,0,0,1,.34.82l.24.81c.59,2.17,1.06,4.36,1.5,6.56s.82,4.4,1.18,6.6l.53,3.32.25,1.66a10.77,10.77,0,0,1,0,1.7,38.56,38.56,0,0,1-.71,6.69c-.07.28-.14.55-.22.83a4,4,0,0,1-.42.77l-.89,1.42L70.05,415l-1.78,2.84c-.62,1-1.33,1.8-2,2.71l-4.08,5.32c-1.38,1.76-2.76,3.52-4.2,5.24s-3.32,3-4.59,4.86a6.34,6.34,0,0,0-.76,1.46,3.38,3.38,0,0,0-.1,1.61,4.45,4.45,0,0,0,.73,1.46,9.32,9.32,0,0,0,1,1.29,1.37,1.37,0,0,0,.67.4,2.17,2.17,0,0,0,.8,0,2.56,2.56,0,0,1,1.67.3,6.49,6.49,0,0,0,3.12,1,3.86,3.86,0,0,0,.82-.08,2.5,2.5,0,0,1,.86.09,11.15,11.15,0,0,1,1.52.72c1,.41,2,1,3.17.84a24.84,24.84,0,0,0,3.32-.39A10.13,10.13,0,0,0,73.4,443.63Zm0,.08a10.28,10.28,0,0,1-3.17,1.09,23.42,23.42,0,0,1-3.34.4,7.79,7.79,0,0,1-.84,0,2.61,2.61,0,0,1-.83-.22c-.52-.19-1-.4-1.55-.64a12.12,12.12,0,0,0-1.51-.71,2.16,2.16,0,0,0-.8-.07,5.7,5.7,0,0,1-.84.08,6.72,6.72,0,0,1-3.2-1,2.35,2.35,0,0,0-1.56-.28,2.3,2.3,0,0,1-.87,0,1.59,1.59,0,0,1-.75-.44,9.35,9.35,0,0,1-1.06-1.31,4.72,4.72,0,0,1-.76-1.52,3.42,3.42,0,0,1,.1-1.71,5.64,5.64,0,0,1,.78-1.5c1.29-1.88,3.19-3.16,4.58-4.9s2.8-3.48,4.17-5.25l4.07-5.33c.65-.9,1.38-1.77,2-2.69l1.77-2.85L71.59,412l.88-1.43a3.2,3.2,0,0,0,.38-.7c.08-.25.15-.53.21-.8a37.55,37.55,0,0,0,.68-6.63,8.92,8.92,0,0,0,0-1.64l-.25-1.66-.54-3.31q-.56-3.3-1.21-6.59c-.44-2.19-.91-4.37-1.51-6.52a7.14,7.14,0,0,0-.53-1.52,9.67,9.67,0,0,1-.93-1.42,22.42,22.42,0,0,1-1.27-3.14,134,134,0,0,1-3.08-13.07c-.23-1.09-.46-2.19-.76-3.25a7.31,7.31,0,0,0-.26-.75c0-.11-.19-.24-.07-.18s.08,0,.09,0,0,0,0,0a1.16,1.16,0,0,0-.06.15,8.92,8.92,0,0,0-.25,1.6,43.61,43.61,0,0,0,.11,6.66c.33,4.45.91,8.88,1.57,13.3.32,2.21.73,4.4,1.11,6.61s.73,4.41,1,6.64c.16,1.09.28,2.26.37,3.32a1.83,1.83,0,0,0,.23.68c.14.23.29.49.42.75.26.5.49,1,.71,1.54A50.56,50.56,0,0,1,70.87,407a13.2,13.2,0,0,1,.37,1.68l0,.46a2.62,2.62,0,0,1-.07.5,2.85,2.85,0,0,1-.41.86,9.54,9.54,0,0,1-2.65,2.25c-1,.6-2,1.14-3,1.66l-1.5.76a4.55,4.55,0,0,1-.85.34c-.3.1-.51.15-.78.23a17.24,17.24,0,0,0-5.34,3.71c-1.62,1.52-3.13,3.15-4.61,4.82-3,3.35-5.71,6.86-8.69,10.23-.75.84-1.51,1.66-2.33,2.45a13,13,0,0,1-1.31,1.13,11.09,11.09,0,0,1-1.49.92,7.77,7.77,0,0,1-3.41.92,4.13,4.13,0,0,1-3.33-1.53l.7.07a2.14,2.14,0,0,1-.6.41,1.85,1.85,0,0,1-.71.17,1.58,1.58,0,0,1-.75-.16,2.14,2.14,0,0,1-.59-.41l.33.13a3.53,3.53,0,0,1-2-.67,4.36,4.36,0,0,1-.77-.71,4.65,4.65,0,0,1-.61-.87l.09.12a9.33,9.33,0,0,1-1.44-1.93,5.1,5.1,0,0,1-.71-2.4l.05.22a6,6,0,0,1-.28-3.89A14.58,14.58,0,0,1,25.49,425l-.06.22a7,7,0,0,1,1.41-3.66,21.86,21.86,0,0,1,2.43-2.89,52.86,52.86,0,0,1,5.62-4.87c1-.75,2-1.49,3-2.16a12.29,12.29,0,0,0,2.48-2.51,8.62,8.62,0,0,0,.87-1.5,15.84,15.84,0,0,1,.73-1.73,21.89,21.89,0,0,1,2.13-3.11c.77-1,1.59-1.91,2.43-2.82a2.51,2.51,0,0,0,.86-1.3,3.37,3.37,0,0,0,0-.81V393.2a11.4,11.4,0,0,0-.06-1.72,2.18,2.18,0,0,0-.31-.68l-.49-.79c-.64-1.06-1.36-2.09-1.92-3.19L43,383.51c-1-2.27-2-4.53-2.8-6.87a132.56,132.56,0,0,1-4.25-14.17q-1.76-7.19-3-14.47t-2.09-14.63l-.19-1.84c-.06-.59-.1-1.29-.16-1.8a2,2,0,0,0-.28-.67c-.14-.2-.33-.53-.49-.79s-.34-.55-.5-.83l-.39-.85a56.26,56.26,0,0,1-2.54-7c-2.8-9.47-4.83-19.11-6.75-28.76l-.69-3.62-.17-.9a1.86,1.86,0,0,0-.82-1.18l-.78-.44a34.73,34.73,0,0,1-3.16-2,15.05,15.05,0,0,1-1.49-1.2,6.1,6.1,0,0,1-.66-.76,2.94,2.94,0,0,1-.45-1,24.94,24.94,0,0,1-.56-3.73l-.29-3.69a71.84,71.84,0,0,0-.76-7.27,1.88,1.88,0,0,0-.28-.68,1.18,1.18,0,0,0-.23-.27l-.33-.38a4.29,4.29,0,0,1-.6-.8,5.56,5.56,0,0,1-.46-.87,11.86,11.86,0,0,1-.87-3.71c-.12-1.26-.12-2.5-.12-3.73a9.61,9.61,0,0,0-.35-3.46,15.74,15.74,0,0,1-.61-3.78c-.1-1.23-.16-2.47-.21-3.7-.09-2.46-.13-4.92-.14-7.39l0-3.69v-.92a3.1,3.1,0,0,1,.19-1.07c.29-.62.57-1.14.9-1.7A13.59,13.59,0,0,1,13.75,223a1.91,1.91,0,0,0,1-1,30.77,30.77,0,0,1,1.31-3.46,9.06,9.06,0,0,1,2.21-3.17,2.93,2.93,0,0,1,.93-.53,2.22,2.22,0,0,0,.71-.33,2.26,2.26,0,0,0,.28-.25l.27-.35.53-.7a22.7,22.7,0,0,0,2.85-6.59,64.1,64.1,0,0,0,1.45-7.17,130.44,130.44,0,0,0,1.14-14.65c.05-2.45.11-4.92,0-7.35s-.27-4.9-.46-7.34c-.39-4.9-.85-9.79-1.34-14.68l-.09-.92a4,4,0,0,0-.06-.41l-.11-.44L24,151.88c-.32-1.18-.66-2.36-1-3.53a54.67,54.67,0,0,0-2.62-6.83,19.33,19.33,0,0,0-1.81-3.13c-.7-.92-1.65-1.8-2.39-2.8a46.64,46.64,0,0,1-4-6.27c-2.56-4.25-3.69-9.2-6.29-13.3-.68-1-1.23-2.15-1.83-3.23s-1.06-2.24-1.49-3.4a37.73,37.73,0,0,1-2-7.14A34,34,0,0,1,0,94.85a25.56,25.56,0,0,1,.42-3.7c.24-1.22.58-2.41.86-3.61a68.19,68.19,0,0,1,5.77-13.6c2.35-4.34,5-8.47,7.79-12.54l2.06-3.07c.66-1,1.29-2.08,2-3.11,1.37-2,2.8-4,4.25-6,2.92-4,5.84-7.91,9.06-11.66.37-.46.89-.92,1.22-1.34a4,4,0,0,0,.48-1.68A17,17,0,0,1,35.14,31a26.77,26.77,0,0,1,3.91-6.26,14.79,14.79,0,0,0,1.36-3.36l.25-.88a4.07,4.07,0,0,0,.09-.87V17.76a54.85,54.85,0,0,1,.78-7.35,13.15,13.15,0,0,1,2.86-6.79,8.2,8.2,0,0,1,3.16-2,24.87,24.87,0,0,1,3.56-1l1.8-.4A5.79,5.79,0,0,1,54.77,0a10.66,10.66,0,0,1,3.67.56A12.77,12.77,0,0,1,64.3,5a24,24,0,0,1,3.49,6.52,31.55,31.55,0,0,1,1.08,3.55,8.62,8.62,0,0,1,.2.91,7.86,7.86,0,0,1,.05,1l0,1.84c.06,2.45.16,4.91.38,7.35a25.85,25.85,0,0,0,.53,3.59,4.52,4.52,0,0,0,1.07,1.38l1.27,1.36a59.17,59.17,0,0,1,8,12.42A149.8,149.8,0,0,1,90.58,72.57a27,27,0,0,1,.77,3.64c.13,1.24.18,2.47.22,3.7.07,2.47.06,4.93,0,7.39-.11,4.92-.29,9.84-.76,14.75-.06.62-.14,1.23-.24,1.85a8.24,8.24,0,0,1-.19.94,1.5,1.5,0,0,1-.25.55,1.17,1.17,0,0,0-.13.29,18.74,18.74,0,0,0-.44,3.57c-.12,2.44-.11,4.9,0,7.34.06,1.22.14,2.45.3,3.65a10.84,10.84,0,0,0,.34,1.75,9.19,9.19,0,0,1,.28,1.9c.1,2.49,0,5-.14,7.41s-.3,4.92-.5,7.37l-.31,3.68-.17,1.83a3.81,3.81,0,0,1-.17,1,4.35,4.35,0,0,1-.48.87,9.79,9.79,0,0,0-1.2,3.32,22.6,22.6,0,0,0-.26,3.62c-.13,2.49-.47,4.93-.81,7.37s-.75,4.87-1.16,7.29l-.63,3.64-.33,1.82-.24,1.8-1.94,14.62a140.73,140.73,0,0,0-.55,14.68c0,2.46.08,4.91.21,7.35.06,1.23.15,2.45.28,3.66l.11.9a1.7,1.7,0,0,0,.2.73,2.88,2.88,0,0,0,.49.62l.64.72a14.93,14.93,0,0,1,2.8,7,30.56,30.56,0,0,1,.2,7.46l-.1.93-.06.47a2.6,2.6,0,0,0,0,.4v1.84c0,1.23,0,2.46,0,3.69l.21,7.37.4,14.74.21,7.37.1,3.69-.21,3.71c-.31,4.91-.63,9.81-1.07,14.72-.11,1.22-.24,2.45-.37,3.67l-.23,1.84-.13.92c0,.16-.09.34-.13.5l-.14.44A41,41,0,0,0,83.28,306a59.69,59.69,0,0,0-.46,14.63,32.69,32.69,0,0,0,1.37,7.17l.3.86c.12.27.25.54.38.81a2.81,2.81,0,0,0,.45.73l.56.78a17.63,17.63,0,0,1,.87,1.67c.22.58.47,1.15.66,1.74a85,85,0,0,1,3.07,14.45c.81,4.87.83,9.82,1.13,14.72.51,9.82,1,19.64,1.69,29.45.17,2.45.35,4.9.57,7.34l.1.92a3.52,3.52,0,0,0,.14.88c.16.57.45,1.15.63,1.73a27.34,27.34,0,0,1,1,3.57,22.72,22.72,0,0,1,.45,3.67,16.49,16.49,0,0,1,0,1.86,2.8,2.8,0,0,1-.59,1.77c-1.5,1.95-3,3.92-4.36,5.94a63.12,63.12,0,0,0-3.9,6.24,28.94,28.94,0,0,0-1.46,3.38L85,432c-.32.52-.62,1.06-1,1.58A36.59,36.59,0,0,1,73.45,443.71Z"/></g><g id="fruit"><path class="cls-1" d="M42.94,7.65C43,9.87,43.62,19.09,48.57,22a2.46,2.46,0,0,0,.76.27c4.77.85,9.48-.17,11.49-4.81a2.66,2.66,0,0,0,.16-.55c.92-4.78.88-9.52-2.77-11.57A2.66,2.66,0,0,1,57.7,5a25.46,25.46,0,0,0-4.1-3.38,2.31,2.31,0,0,0-1.47-.35c-2,.17-7.25,1.06-9,5.51A2.23,2.23,0,0,0,42.94,7.65Z"/><path d="M43,7.65a25.71,25.71,0,0,0,1.49,7.69,19.81,19.81,0,0,0,1.64,3.48,8.35,8.35,0,0,0,2.54,2.71,1.76,1.76,0,0,0,.75.34l1,.18a17.58,17.58,0,0,0,1.92.19,10.3,10.3,0,0,0,3.82-.52,7.59,7.59,0,0,0,3.17-2.15,7.45,7.45,0,0,0,1-1.62,4.67,4.67,0,0,0,.52-1.81,15.57,15.57,0,0,0-.44-7.58,5.39,5.39,0,0,0-2.32-2.7,6.12,6.12,0,0,1-.88-.66l-.71-.67c-.48-.44-1-.86-1.47-1.27s-1-.8-1.54-1.16a2,2,0,0,0-1.54-.39,16.18,16.18,0,0,0-3.76.75,9,9,0,0,0-3.33,1.88,6.61,6.61,0,0,0-1.24,1.5A3.37,3.37,0,0,0,43,7.65Zm-.1,0a3.69,3.69,0,0,1,.59-1.89,8.15,8.15,0,0,1,1.17-1.62,9.76,9.76,0,0,1,3.29-2.31A13.86,13.86,0,0,1,51.84.77a2.88,2.88,0,0,1,2.21.48c.57.37,1.11.77,1.64,1.18s1,.86,1.52,1.31l.73.7a6.14,6.14,0,0,0,.68.53,6.32,6.32,0,0,1,1.61,1.4,6.86,6.86,0,0,1,1,1.84,10.65,10.65,0,0,1,.61,4,21.89,21.89,0,0,1-.5,4A8.05,8.05,0,0,1,56.23,22a12.63,12.63,0,0,1-3.94.76,16.86,16.86,0,0,1-2-.05l-1-.11a2.52,2.52,0,0,1-1.06-.39,8,8,0,0,1-2.85-3,14.54,14.54,0,0,1-1.49-3.75A39.06,39.06,0,0,1,42.89,7.66Z"/></g><g id="cloth"><path class="cls-2" d="M15.51,283.08a2.36,2.36,0,0,0,3-2.69l-1.53-9.22c-1-6-1-22,0-25l0-.09a2.38,2.38,0,0,1,3.94-.94l1,1c1,1,2,2,3,2s5-1,7,0l13.82,6.91a1.88,1.88,0,0,0,.39.16c.7.2,3,.77,3.79-.07a33.09,33.09,0,0,1,3.53-2.68,2.52,2.52,0,0,1,1-.39c1.86-.27,8.18-1.42,9.38-4.59a2.09,2.09,0,0,0,.11-.7,16.54,16.54,0,0,1,.77-5.06,2.28,2.28,0,0,1,.59-.93c.82-.8,2.91-2.8,5-4.42a2.35,2.35,0,0,1,3,.12c1.81,1.6,5.27,3.71,11,2.25a2.36,2.36,0,0,0,1.76-2.12c.28-3.71.6-12.81-2.27-17.46a2.39,2.39,0,0,0-3.48-.65c-1.68,1.3-3.8,2.65-4.81,3.27a2.3,2.3,0,0,1-1.25.36H56.93s-.86-3.45-5-.74a2.38,2.38,0,0,1-2.74-.14c-.3-.23-.58-.47-.8-.67a2.34,2.34,0,0,0-1.14-.58c-3.85-.73-23.07-4.4-26.82-4.83a2.31,2.31,0,0,0-1.41.28c-1,.58-2.52,2.16-3.79,6.53a2.39,2.39,0,0,1-1.4,1.54c-2,.81-6.14,2.95-7.76,7.2a2.19,2.19,0,0,0-.15.84c0,5.09.32,16,1.1,19.76a2.69,2.69,0,0,1,0,.57c-.14,4.21-.1,9.57,2.34,11.84a2.24,2.24,0,0,1,.68,1.41C10.47,269.34,9.24,281.21,15.51,283.08Z"/><path d="M15.52,283a2.25,2.25,0,0,0,2.37-.75,2.37,2.37,0,0,0,.52-1.19,4.19,4.19,0,0,0-.12-1.31l-.9-5.32c-.3-1.77-.64-3.54-.84-5.33s-.33-3.59-.41-5.39C16,260.15,15.9,256.55,16,253a51.88,51.88,0,0,1,.34-5.42,8.46,8.46,0,0,1,.26-1.37,2.73,2.73,0,0,1,3.63-1.91,3.29,3.29,0,0,1,1.22.87l.95.95a7.68,7.68,0,0,0,2,1.57,2,2,0,0,0,1.12.07l1.33-.19a19.11,19.11,0,0,1,2.74-.22,5.91,5.91,0,0,1,2.81.59l2.41,1.2,4.82,2.43,4.81,2.42,1.21.61a3.25,3.25,0,0,0,.56.25,3.37,3.37,0,0,0,.61.18,5.3,5.3,0,0,0,2.45.14,1.19,1.19,0,0,0,.42-.22c.18-.17.36-.33.53-.47.36-.3.72-.57,1.09-.84.75-.54,1.43-1,2.27-1.56a2.63,2.63,0,0,1,.73-.25l.67-.1c.44-.07.88-.15,1.31-.25a22.6,22.6,0,0,0,2.57-.68,8.66,8.66,0,0,0,4.38-2.66,2.43,2.43,0,0,0,.31-.54,1.39,1.39,0,0,0,.16-.56c0-.42,0-.9.06-1.34a18.91,18.91,0,0,1,.4-2.7,11.79,11.79,0,0,1,.39-1.32,2.83,2.83,0,0,1,.84-1.16c.65-.62,1.31-1.24,2-1.84s1.35-1.19,2-1.76a9.72,9.72,0,0,1,1.11-.83,2.41,2.41,0,0,1,1.39-.3,2.69,2.69,0,0,1,1.34.51,13.36,13.36,0,0,0,1,.85,10.48,10.48,0,0,0,2.32,1.27,11.22,11.22,0,0,0,5.23.66,16.22,16.22,0,0,0,2.61-.48,2.19,2.19,0,0,0,1.46-1.85c.13-1.77.18-3.57.15-5.36a45.51,45.51,0,0,0-.38-5.35,20.63,20.63,0,0,0-1.32-5.15,8.55,8.55,0,0,0-.57-1.18,2.35,2.35,0,0,0-.77-.95,2.11,2.11,0,0,0-2.25-.1c-1.39,1-2.91,2.11-4.42,3.07l-.57.36a2.86,2.86,0,0,1-.68.33,2.68,2.68,0,0,1-.75.13h-.68l-2.7,0-5.39,0-5.39,0h-4.3c0,.19,0-1.67,0-.88h1.06l-.44.56a2.11,2.11,0,0,0-.84-1.16,1.86,1.86,0,0,0-1.42-.21,4.8,4.8,0,0,0-1.53.61c-.26.15-.45.28-.8.47a2.77,2.77,0,0,1-1,.27,2.87,2.87,0,0,1-2-.64l-.72-.6a2,2,0,0,0-.62-.4,1.4,1.4,0,0,0-.35-.1l-.44-.09-.89-.16-1.78-.34-14.23-2.61c-2.38-.43-4.75-.86-7.13-1.24l-1.77-.28a2.37,2.37,0,0,0-1.49.07,5.89,5.89,0,0,0-2.16,2.42,17.87,17.87,0,0,0-1.36,3.24c-.09.3-.15.52-.28.89a2.85,2.85,0,0,1-.59.92,3.1,3.1,0,0,1-.89.64l-.83.36a14.18,14.18,0,0,0-5.47,4.23A10.54,10.54,0,0,0,6.94,230c-.14.25-.24.52-.36.78a1.72,1.72,0,0,0-.17.71l0,3.6q0,3.62.19,7.22c.1,2.41.2,4.82.46,7.2.07.59.15,1.18.25,1.77a11.72,11.72,0,0,1,0,1.87c0,1.2,0,2.4,0,3.6a18.18,18.18,0,0,0,.48,3.53,7,7,0,0,0,1.52,3.14,2.6,2.6,0,0,1,.89,1.65c.05.61.06,1.21.07,1.82,0,1.21,0,2.41,0,3.62a31.28,31.28,0,0,0,.86,7.15A10.55,10.55,0,0,0,12.69,281,5.47,5.47,0,0,0,15.52,283Zm0,.1a5.59,5.59,0,0,1-2.9-2.11,10.49,10.49,0,0,1-1.52-3.29,31.08,31.08,0,0,1-.93-7.19l-.1-3.61c0-.6,0-1.21-.1-1.8a2.3,2.3,0,0,0-.84-1.44,7.35,7.35,0,0,1-1.67-3.27,19.25,19.25,0,0,1-.57-3.61c-.09-1.21-.11-2.43-.1-3.64a12.23,12.23,0,0,0,0-1.74c-.12-.6-.22-1.21-.3-1.81-.3-2.41-.48-4.82-.61-7.24s-.22-4.83-.29-7.24l-.07-3.65a2.77,2.77,0,0,1,.23-1,8.36,8.36,0,0,1,.39-.86,10.32,10.32,0,0,1,1-1.62,15.09,15.09,0,0,1,5.84-4.55l.83-.37a2,2,0,0,0,.58-.41,3.13,3.13,0,0,0,.64-1.42,18.94,18.94,0,0,1,1.42-3.43A6.84,6.84,0,0,1,19,214.92a3.46,3.46,0,0,1,2.06-.15l1.8.27c2.39.39,4.77.81,7.14,1.24L44.25,219l1.77.34.89.18.45.08a3.45,3.45,0,0,1,.52.16,2.85,2.85,0,0,1,.89.58l.67.56a2,2,0,0,0,1.36.46,3,3,0,0,0,1.45-.62,5.79,5.79,0,0,1,1.82-.7,2.78,2.78,0,0,1,2.07.34,3,3,0,0,1,1.22,1.71l.17.56H55.87c0,.79,0-1.07,0-.88h1.6l2.7,0,5.39,0,5.39,0,2.7,0h.67a1.88,1.88,0,0,0,.57-.09,5.25,5.25,0,0,0,1.1-.6c1.54-1,3-1.94,4.48-3a2.65,2.65,0,0,1,2.84.16,2.78,2.78,0,0,1,.91,1.12,8.83,8.83,0,0,1,.6,1.24,21.66,21.66,0,0,1,1.3,5.29,44.36,44.36,0,0,1,.34,5.4c0,1.81,0,3.6-.2,5.41a2.53,2.53,0,0,1-1.72,2.14,16.68,16.68,0,0,1-2.69.48,12,12,0,0,1-5.37-.7,10.15,10.15,0,0,1-2.4-1.3c-.37-.25-.73-.57-1.06-.84a2.28,2.28,0,0,0-1.15-.43,2.08,2.08,0,0,0-1.2.26,9.33,9.33,0,0,0-1,.8c-.69.57-1.36,1.16-2,1.77s-1.31,1.21-2,1.84a2.49,2.49,0,0,0-.71,1,10.82,10.82,0,0,0-.35,1.27,16.74,16.74,0,0,0-.35,2.64c0,.45,0,.87,0,1.35a1.84,1.84,0,0,1-.19.73,3,3,0,0,1-.35.63,9.2,9.2,0,0,1-4.62,3,23.86,23.86,0,0,1-2.63.74c-.44.1-.89.19-1.33.27a3.56,3.56,0,0,0-1.2.31c-.68.44-1.45,1-2.15,1.53-.35.27-.7.54-1,.82-.17.14-.33.29-.48.44a2,2,0,0,1-.74.43,6,6,0,0,1-2.87-.1c-.23-.06-.44-.1-.69-.19a7.31,7.31,0,0,1-.67-.3l-1.2-.6-4.83-2.4-4.83-2.4L32,248.69a5,5,0,0,0-2.41-.53,18,18,0,0,0-2.63.19l-1.34.18a5.5,5.5,0,0,1-.74.05,2.47,2.47,0,0,1-.79-.19,7.89,7.89,0,0,1-2.22-1.76l-.95-1a2.52,2.52,0,0,0-.94-.71,2,2,0,0,0-2.12.41,3.7,3.7,0,0,0-.85,2.26,52.42,52.42,0,0,0-.44,5.34c-.16,3.58-.16,7.17-.06,10.76.05,1.79.14,3.59.31,5.37s.51,3.55.78,5.33l.87,5.32a4.75,4.75,0,0,1,.11,1.36,2.54,2.54,0,0,1-.56,1.25A2.38,2.38,0,0,1,15.49,283.13Z"/></g><g id="armsinner"><path d="M39.74,130c-1.58-1.93-3.17-3.85-4.84-5.7a6.09,6.09,0,0,1-1.19-1.47c-.21-.61-.36-1.21-.52-1.81l-.92-3.63A144.49,144.49,0,0,0,28,103.09a42.26,42.26,0,0,0-3.08-6.73,10.41,10.41,0,0,0-1-1.5l-.56-.72a2.83,2.83,0,0,1-.55-.93,2.94,2.94,0,0,1,.08-2.11,3.84,3.84,0,0,1,.49-.94c.09-.14.28-.3.31-.38a2.18,2.18,0,0,0,.2-.33c1.1-2.16,2-4.5,3-6.8s1.78-4.65,2.58-7a64.49,64.49,0,0,0,2.09-7.13,10,10,0,0,1,.68-1.82L32.94,65l1.48-3.44c1-2.29,1.95-4.59,2.84-6.91a7,7,0,0,0,.5-1.75,14.92,14.92,0,0,1,.53-1.83q.3-.89.63-1.77l.33-.87a3.76,3.76,0,0,1,.43-.88,2.49,2.49,0,0,1,.74-.67c.29-.18.58-.27.85-.42a8.22,8.22,0,0,0,1.51-1A7.12,7.12,0,0,0,44,44a7.82,7.82,0,0,0,.43-.81,6,6,0,0,1,.4-.87,2.74,2.74,0,0,1,.7-.7c.27-.17.52-.34.77-.52.5-.37,1-.76,1.45-1.16,1-.81,1.82-1.68,2.73-2.55a14,14,0,0,1,3-2.32A1.42,1.42,0,0,1,54,35a4.1,4.1,0,0,1,.49,0,2.93,2.93,0,0,1,1,.27,4.41,4.41,0,0,1,1.49,1.25,20.8,20.8,0,0,1,3,6.92c1.31,4.84,2.24,9.75,3.26,14.63.26,1.22.52,2.43.81,3.63a33.59,33.59,0,0,0,1.15,3.52l2.49,7.06,1.2,3.55c.19.61.39,1.19.55,1.84a3.6,3.6,0,0,1,.08.56,3.47,3.47,0,0,0,0,.42l.13.91.61,3.68a15.82,15.82,0,0,1,.24,1.94l0,1.88a45.59,45.59,0,0,1-.72,7.53,11.88,11.88,0,0,1-1.25,3.71,10,10,0,0,0-1.13,3.34,58.05,58.05,0,0,0-.77,7.37q-.09,1.86-.12,3.72a4.94,4.94,0,0,1-.1,1l-.16.91-.29,1.84a63.93,63.93,0,0,0-.8,7.39c0,.61,0,1.23,0,1.82l0,.46a2.53,2.53,0,0,1,0,.55,2.71,2.71,0,0,1-.33,1,4.92,4.92,0,0,1-.62.81l-.62.7-1.23,1.4-4.94,5.62-1.23,1.41A8.14,8.14,0,0,1,54.81,139a4.48,4.48,0,0,1-3.7.7,4.58,4.58,0,0,1-1.71-.85c-.5-.42-.9-.89-1.35-1.32q-1.32-1.32-2.7-2.58C43.52,133.28,41.61,131.7,39.74,130Zm.08-.06c1.85,1.63,3.81,3.21,5.65,4.89.92.84,1.84,1.69,2.73,2.56.45.43.87.91,1.34,1.28a4.2,4.2,0,0,0,1.63.76,4.16,4.16,0,0,0,3.42-.71,8,8,0,0,0,1.25-1.33L57,136l4.79-5.75L63,128.78a14.66,14.66,0,0,0,1.11-1.4,2,2,0,0,0,.21-.75,1.7,1.7,0,0,0,0-.39l0-.47c-.06-.65-.05-1.28-.05-1.92a69.67,69.67,0,0,1,.69-7.5l.27-1.85.15-.93a4.08,4.08,0,0,0,.08-.85c0-1.26,0-2.51.11-3.76a59.55,59.55,0,0,1,.77-7.51,11,11,0,0,1,1.26-3.7,11.06,11.06,0,0,0,1.1-3.36A49.86,49.86,0,0,0,69.38,87l0-1.85a17.79,17.79,0,0,0-.21-1.78l-.59-3.7-.13-.94a4.06,4.06,0,0,1,0-.51,2.2,2.2,0,0,0-.06-.37c-.13-.56-.33-1.17-.51-1.75l-1.16-3.55-2.44-7.07a34.43,34.43,0,0,1-1.11-3.61c-.29-1.23-.53-2.46-.77-3.68-1-4.9-1.81-9.82-3-14.64a20.29,20.29,0,0,0-2.78-6.79,3.94,3.94,0,0,0-1.32-1.16,2.2,2.2,0,0,0-.83-.24,3.4,3.4,0,0,0-.45,0,1.1,1.1,0,0,0-.38.09,13.91,13.91,0,0,0-2.9,2.24c-.89.85-1.8,1.73-2.76,2.54-.48.4-1,.79-1.47,1.16s-1.1.65-1.4,1.14a4.93,4.93,0,0,0-.38.83,8.52,8.52,0,0,1-.46.84A6.85,6.85,0,0,1,43,45.65a8.47,8.47,0,0,1-1.57,1.09c-.28.16-.59.27-.82.42a2.22,2.22,0,0,0-.64.58,8.82,8.82,0,0,0-.7,1.68c-.21.58-.42,1.17-.62,1.76A12.59,12.59,0,0,0,38.15,53a1.62,1.62,0,0,0,0,.2l0,.27c0,.18-.09.31-.13.47l-.3.89c-.86,2.36-1.79,4.67-2.72,7l-1.41,3.46L32.8,67a10.22,10.22,0,0,0-.61,1.69,61.72,61.72,0,0,1-2,7.26Q29,79.48,27.66,83a67.7,67.7,0,0,1-3,6.91,2.46,2.46,0,0,1-.29.46c-.14.18-.2.22-.28.34a2.7,2.7,0,0,0-.39.71,2.13,2.13,0,0,0-.1,1.54,2.19,2.19,0,0,0,.39.68l.59.75A12.66,12.66,0,0,1,25.61,96a39.09,39.09,0,0,1,3,6.92,149.41,149.41,0,0,1,3.92,14.47c.28,1.21.56,2.43.86,3.64.15.6.3,1.21.5,1.79A6.08,6.08,0,0,0,35,124.21C36.68,126.07,38.26,128,39.82,130Z"/></g><g id="head"><path d="M69.88,87.19a15.48,15.48,0,0,0-6.18-7.53,10,10,0,0,0-4.61-1.32,14.18,14.18,0,0,0-4.81.71,22.85,22.85,0,0,0-4.55,2,5,5,0,0,0-1,.66l-1,.8c-.65.53-1.27,1.09-1.87,1.67A31.61,31.61,0,0,0,39.69,92a23.4,23.4,0,0,0-2.8,9.43,27.67,27.67,0,0,0,1.25,9.76,19.86,19.86,0,0,0,.8,2.36c.31.76.57,1.55.91,2.31l1,2.28a4,4,0,0,1,.46,1.31c0,.49,0,.87,0,1.3,0,1.69,0,3.37,0,5.06,0,.85-.08,1.69-.17,2.53a11.82,11.82,0,0,1-.45,2.5l-.1,0a23.82,23.82,0,0,0,.21-5c0-1.68-.15-3.35-.25-5,0-.4,0-.86-.08-1.22a3.55,3.55,0,0,0-.42-1L39,116.24c-.38-.75-.65-1.56-1-2.35a20.15,20.15,0,0,1-.83-2.41A25.56,25.56,0,0,1,36,101.35a21.91,21.91,0,0,1,3.26-9.63,41.56,41.56,0,0,1,6.41-7.81l.9-.89.94-.85.93-.86a4.44,4.44,0,0,1,.51-.43c.18-.13.36-.23.54-.34A22.25,22.25,0,0,1,54,78.26a13.74,13.74,0,0,1,5.1-.8,10.81,10.81,0,0,1,5,1.54A14.45,14.45,0,0,1,70,87.16Z"/></g><g id="leginner"><path d="M63.19,359.23a60.08,60.08,0,0,1-3.1-12.85c-.12-1.1-.2-2.2-.23-3.32,0-.55,0-1.11,0-1.67l.05-.84c0-.28,0-.57,0-.77a9.51,9.51,0,0,0-.35-1.49c-.15-.53-.3-1.05-.47-1.57s-.34-1-.53-1.53A6.22,6.22,0,0,0,58,333.8a17.55,17.55,0,0,1-2.79-6.07,40.37,40.37,0,0,1-1.1-6.52l-1.27-13.13c-.46-4.38-.72-8.75-1.17-13.12l-1.29-13.11-.69-6.54c-.12-1.09-.25-2.18-.41-3.25s-.43-2.14-.57-3.25a112.18,112.18,0,0,1-.56-13.2h.1c.13,2.19.31,4.38.49,6.57s.41,4.36.75,6.51a110,110,0,0,1,1.92,13.05c.94,8.74,1.57,17.53,2,26.3.25,4.38.53,8.77,1.06,13.13a32.23,32.23,0,0,0,1.29,6.41,17.41,17.41,0,0,0,2.92,5.72,6.92,6.92,0,0,1,.77,1.58c.2.52.39,1.05.56,1.57s.34,1.06.5,1.59l.21.81a3.37,3.37,0,0,1,.16.91c0,.34,0,.6,0,.86l-.06.81c0,.54,0,1.08,0,1.62,0,1.09.07,2.17.17,3.26a80.09,80.09,0,0,0,2.43,12.88Z"/></g></g></svg>