<svg id="Layer_2" data-name="Layer 2" xmlns="http://www.w3.org/2000/svg" viewBox="0 0 354.38 559.91">
<defs><style>
.cls-1{fill:#eae0c8;}
.cls-2{fill: white; stroke:#000;stroke-miterlimit:10;}
.cls-2:hover{fill:#3e6dcc; transition: fill 0.2s ease-in-out;}
svg{cursor: pointer;}
</style></defs>
<title>pearIcon</title><g id="trace"><path d="M0,559.41A3.73,3.73,0,0,1,.09,559l.11-.37.22-.74.46-1.48.94-3q.95-2.94,2-5.86c1.36-3.89,2.81-7.76,4.39-11.57s3.25-7.59,5.16-11.25a71.65,71.65,0,0,1,6.5-10.56l0,.07c.67-1.64,1.45-3.22,2.23-4.79l2.4-4.69c.8-1.56,1.59-3.12,2.34-4.7a29.77,29.77,0,0,0,1.94-4.8l0,0v0c1.09-2.2,2.2-4.41,3.34-6.59s2.29-4.37,3.64-6.48l0,.08a176,176,0,0,1,9.67-19.93,62.09,62.09,0,0,1,6.28-9.18,3.13,3.13,0,0,0,.7-2.18,14.38,14.38,0,0,1,0-2.86,8.82,8.82,0,0,1,.81-2.83,10.39,10.39,0,0,1,1.63-2.39,2.37,2.37,0,0,0,.32-.46c.08-.16.14-.34.23-.58.16-.44.35-.88.55-1.32s.48-.87.58-1.18a2.39,2.39,0,0,0,.13-1.09,2.05,2.05,0,0,0-.13-.53l-.22-.67c-.16-.44-.28-.89-.42-1.34-.25-.9-.49-1.81-.68-2.72a38.86,38.86,0,0,1-.77-11.18A34,34,0,0,1,57,410.85a37.18,37.18,0,0,1,6-9.5l-.11.16,3-6v0l0-.07a13.09,13.09,0,0,0,1.83-6.24,8.28,8.28,0,0,1,.08-1,6.11,6.11,0,0,1,.25-1,12,12,0,0,1,.75-1.71,29.91,29.91,0,0,1,1.86-3.1c1.33-2,2.78-3.84,4.27-5.67l2.23-2.65a2.07,2.07,0,0,0,.4-1.15l-.06-1.7a47.76,47.76,0,0,1,1.85-14.16A43.57,43.57,0,0,1,82,350.37a41.5,41.5,0,0,1,3.8-6.11l0,.08a88.12,88.12,0,0,1,9.46-12.82c.9-1,1.82-1.95,2.79-2.88l.73-.69.68-.63a1.56,1.56,0,0,0,.43-1.09,2.54,2.54,0,0,0-.53-1.34l-1-1.72-1.94-3.43c-2.57-4.6-5.15-9.17-7.57-13.89L88.4,305a2.41,2.41,0,0,0-.41-.54,2.33,2.33,0,0,0-1.2-.63,1.86,1.86,0,0,0-.34-.05l-.48,0-1,0c-.64,0-1.27,0-1.9,0a12.58,12.58,0,0,0-6.89,1.94l.11-.1a5.07,5.07,0,0,1-1.53.94,12.38,12.38,0,0,1-1.45.49,24.75,24.75,0,0,1-2.86.61,46.15,46.15,0,0,1-5.72.49,59.45,59.45,0,0,1-11.38-.83,47,47,0,0,1-11-3.25,32,32,0,0,1-9.61-6.41l0,0,0,0a53.28,53.28,0,0,1-6.41-10.46,60.14,60.14,0,0,1-4-11.55c-.23-1-.44-2-.59-3-.09-.51-.14-1-.19-1.57s0-1.19-.1-1.37a20.62,20.62,0,0,0-.88-2.66q-.54-1.38-1.11-2.76c-1.54-3.7-3.1-7.41-4.55-11.16a177.53,177.53,0,0,1-7.38-23,104.79,104.79,0,0,1-3.12-24.08l.06.39a31.17,31.17,0,0,1-1.28-9,61,61,0,0,1,.57-8.87,73.35,73.35,0,0,1,1.72-8.69,47.19,47.19,0,0,1,3-8.43l-.14.57v-9l.09.48a58.15,58.15,0,0,1-2-6.27,53.39,53.39,0,0,1-1.22-6.44A37.43,37.43,0,0,1,5,144a23.35,23.35,0,0,1,1.39-6.64l0-.12.09-.13a83.18,83.18,0,0,0,4.28-7.2,26.94,26.94,0,0,0,1.63-3.72,18.11,18.11,0,0,1,.86-2.12c.17-.35.35-.7.56-1,.11-.17.21-.35.34-.53a5.21,5.21,0,0,1,.48-.59l-.29,1.48a24.84,24.84,0,0,1-1.12-3.64,26.8,26.8,0,0,1-.59-3.71,21.69,21.69,0,0,1,0-3.78,19.7,19.7,0,0,1,.66-3.78l0,.38a3.13,3.13,0,0,1,.46-1.52,8.64,8.64,0,0,1,.61-.92c.21-.28.42-.54.64-.79s.43-.48.68-.74l-.37,1.24a6.85,6.85,0,0,1-.07-1.72,8.29,8.29,0,0,1,.25-1.57A10.81,10.81,0,0,1,16.61,100a12.64,12.64,0,0,1,1.9-2.39c.35-.36.74-.66,1.11-1l1.19-.87-.61,1.15a16.85,16.85,0,0,1,.3-2.55c.15-.8.32-1.58.53-2.36a32.86,32.86,0,0,1,1.54-4.58A21.58,21.58,0,0,1,25,83,11.66,11.66,0,0,1,29,79.59l-.58.53c.44-.71.87-1.36,1.34-2s.94-1.3,1.46-1.93a17.76,17.76,0,0,1,3.62-3.5l-.48.54.37-.63.35-.52c.24-.35.48-.66.71-1q.72-1,1.47-1.89c1-1.22,2-2.43,3-3.61a73.61,73.61,0,0,1,6.68-6.78c.61-.54,1.26-1,1.93-1.54l1.06-.7.94-.6,3.85-2.61c2.61-1.74,5.27-3.42,8-5a101.13,101.13,0,0,1,17.22-7.81,89,89,0,0,1,18.47-4.21l-.9.44A36.93,36.93,0,0,0,101,32.51a14.79,14.79,0,0,1,2-2.45,11.66,11.66,0,0,1,2.69-1.94,15.56,15.56,0,0,1,3-1.09l2.78-.8q2.79-.8,5.59-1.52t5.65-1.37l1.43-.3a8.62,8.62,0,0,0,1.16-.33,7.71,7.71,0,0,0,2.08-1.16,7.44,7.44,0,0,0,1.61-1.75c.58-.81,1.15-1.65,1.8-2.42a44.15,44.15,0,0,1,4-4.39A47.24,47.24,0,0,1,155.35,1.48a51.61,51.61,0,0,1,23.58-.23H179l.11,0a16.68,16.68,0,0,0,3.46.62c1.24.12,2.5.18,3.77.22s2.56.06,3.85.06h2.42l.63,0c.42,0,.74.1,1.11.16a42.55,42.55,0,0,1,7.75,2.38,47.44,47.44,0,0,1,7.2,3.6,34.72,34.72,0,0,1,3.36,2.33c.54.43,1,.9,1.58,1.35l1.37,1.39a5.52,5.52,0,0,0,.63.45c.32.25.61.5.86.72a15.19,15.19,0,0,0,1.35,1.15A6.89,6.89,0,0,0,221.32,17c.56.12,1,.12,1.86.24a10,10,0,0,1,2.25.6c.78.31,1.28.61,1.91.92s1.17.64,1.76,1A72.09,72.09,0,0,1,235.79,24,93.16,93.16,0,0,1,247.7,34.43l2.71,2.89c.88,1,1.7,2,2.55,3,1.74,2,3.24,4.16,4.81,6.27A120.08,120.08,0,0,1,272.4,74.49a147.39,147.39,0,0,1,4.65,15l1,3.81.12.47.12.38c.08.26.14.5.24.78l.69,1.81,2.78,7.28c3.67,9.73,7.12,19.54,10.26,29.47s6,20,8.21,30.16c.27,1.27.58,2.54.82,3.83l.71,3.85c.53,2.56.86,5.17,1.23,7.76s.55,5.23.79,7.85c.15,1.3.14,2.63.16,4l.05,4,0-.28a41.43,41.43,0,0,0,1.86,6.47c.76,2.19,1.6,4.37,2.46,6.54,1.73,4.34,3.57,8.66,5.46,13l1.42,3.22c.48,1,1,2.21,1.42,3.3.88,2.21,1.72,4.42,2.52,6.66q2.4,6.69,4.37,13.52t3.45,13.81c.93,4.65,1.77,9.33,2.28,14.07.16,1.18.23,2.37.33,3.56l.28,3.47a10.47,10.47,0,0,0,.29,1.48c.07.25.15.48.24.72s.18.44.32.74c.49,1.13.91,2.27,1.31,3.42a72.82,72.82,0,0,1,3.07,14.06c.3,2.38.48,4.76.62,7.14l.14,3.51a19.63,19.63,0,0,0,.48,3.24,27.44,27.44,0,0,0,1,3.2c.4,1.12.79,2.25,1.16,3.38.73,2.27,1.4,4.57,1.94,6.91a56.53,56.53,0,0,1,1.25,7.13c.06.6.12,1.21.15,1.82l.06.89c0,.27,0,.53.06.8a13,13,0,0,0,.74,3.07,12.46,12.46,0,0,0,1.49,2.76,14.41,14.41,0,0,0,1,1.19l.14.15a1.35,1.35,0,0,1,.23.28,3.28,3.28,0,0,1,.17.34l0,.11.15.43.29.84c.75,2.25,1.45,4.51,2.12,6.79a143.62,143.62,0,0,1,5.66,27.91,58,58,0,0,1,.12,7.23,28.47,28.47,0,0,1-1.23,7.29,12.22,12.22,0,0,1-.69,1.79,7,7,0,0,1-1,1.79,7.08,7.08,0,0,1-1.55,1.49,6.25,6.25,0,0,1-.93.57l-.49.22-.43.17a20,20,0,0,1-3.63,1.08,13.85,13.85,0,0,1-1.95.22,8.9,8.9,0,0,1-1,0l-.54-.06a4.69,4.69,0,0,1-.66-.15l.43.07c-.07,0-.33,0-.51.07a4.47,4.47,0,0,0-.61.14,6.79,6.79,0,0,0-1.21.45,8.58,8.58,0,0,0-1.14.65c-.19.11-.37.25-.55.38s-.47.36-.71.51a9.88,9.88,0,0,1-3.24,1.28c-1.09.21-2.09.35-3.15.45a27.48,27.48,0,0,1-6.34-.11,17.66,17.66,0,0,1-6.19-2l-.28-.21s0,0-.1,0a1,1,0,0,0-.4,0,2.71,2.71,0,0,0-.57.13l-.17.06-.29.09a5.78,5.78,0,0,1-.57.12c-.17,0-.41,0-.53.05l-.39,0-.78.09a12.37,12.37,0,0,0-1.52.29,8.36,8.36,0,0,0-2.67,1.12,2.91,2.91,0,0,0-1.3,1.92,2,2,0,0,0,0,.61v.31c0,.11,0,.23.06.34l.13.67.25.69a8.14,8.14,0,0,0,.64,1.38l.38.72a8.44,8.44,0,0,1,.44.91,12.81,12.81,0,0,1,.85,3.64,25.05,25.05,0,0,1,.11,3.56,48,48,0,0,1-.78,6.92l-.16.86a5.69,5.69,0,0,1-.34,1.06,5.35,5.35,0,0,1-1.3,1.79,6.4,6.4,0,0,1-1.75,1.08c-.53.25-1.07.48-1.61.71a28,28,0,0,1-6.82,1.89,14.12,14.12,0,0,1-7.32-.78l.49.1c-1.53,0-2.9-.09-4.31,0a21.68,21.68,0,0,0-4.08.52c-2.62.59-4.9,2-5.49,4.43a9,9,0,0,0-.14,3.81,19.81,19.81,0,0,0,1.07,4c.23.65.5,1.3.79,1.95s.6,1.28.91,1.91l1.93,3.94c2.49,5.32,4.72,10.73,6.77,16.2,1.06,2.72,2,5.47,3,8.21l2.85,8.27q5.58,16.58,10.32,33.4c3.17,11.22,6.12,22.5,8.4,34l.25,1.26H233.5l-78-.2Zm.16-.12,311.42-.58-.13.16c-2.28-11.4-5.25-22.66-8.43-33.85s-6.62-22.31-10.34-33.34l-2.87-8.24c-1-2.73-1.95-5.48-3-8.18-2-5.45-4.27-10.83-6.74-16.09-1.24-2.62-2.68-5.17-3.7-7.91a20.73,20.73,0,0,1-1.13-4.24,10.34,10.34,0,0,1,.16-4.39,6.7,6.7,0,0,1,2.47-3.61,10.65,10.65,0,0,1,4-1.78,32.75,32.75,0,0,1,8.72-.54h.06a12.8,12.8,0,0,0,6.58.67,26.5,26.5,0,0,0,6.47-1.81c.52-.22,1-.44,1.55-.68a5.35,5.35,0,0,0,1.4-.85,4.08,4.08,0,0,0,.95-1.31,6.9,6.9,0,0,0,.4-1.61,47.21,47.21,0,0,0,.75-6.7,16.93,16.93,0,0,0-.86-6.61c-.22-.51-.49-1-.76-1.5a8.73,8.73,0,0,1-.72-1.55l-.3-.81-.16-.85c0-.14-.06-.28-.07-.43v-.43a3.17,3.17,0,0,1,.07-.87,4.36,4.36,0,0,1,1.88-2.85,9.45,9.45,0,0,1,3.15-1.35,19.43,19.43,0,0,1,3.37-.49c.52-.07,1-.36,1.64-.41a2,2,0,0,1,1.71.47l0,0a16.1,16.1,0,0,0,5.66,1.84,25.63,25.63,0,0,0,6,.08c2-.21,4.05-.41,5.72-1.51a10.3,10.3,0,0,1,5.54-2.43h.05a8.58,8.58,0,0,0,3.42-.06,18.43,18.43,0,0,0,3.35-1,6.08,6.08,0,0,0,3.62-3.47,13.34,13.34,0,0,0,.62-1.63,27.22,27.22,0,0,0,1.15-6.9,56.89,56.89,0,0,0-.13-7A142,142,0,0,0,347,357c-.66-2.26-1.37-4.5-2.11-6.73l-.29-.83-.14-.42,0-.1c0-.06,0,0,0,0l-.15-.16a13.09,13.09,0,0,1-2.86-4.5,14.22,14.22,0,0,1-.84-3.46c-.12-1.19-.13-2.35-.28-3.52a54.64,54.64,0,0,0-1.22-6.93c-.54-2.28-1.19-4.54-1.92-6.77q-.54-1.68-1.14-3.33a29.6,29.6,0,0,1-1.09-3.38,20.79,20.79,0,0,1-.52-3.51l-.15-3.53c-.14-2.35-.32-4.69-.62-7a70.72,70.72,0,0,0-3-13.73c-.38-1.11-.79-2.21-1.26-3.28a10.74,10.74,0,0,1-1-3.42c-.23-2.37-.34-4.7-.63-7-.5-4.67-1.34-9.3-2.27-13.91s-2.13-9.15-3.43-13.67-2.77-9-4.36-13.42q-1.19-3.32-2.51-6.59c-.85-2.18-1.9-4.29-2.83-6.46q-2.85-6.45-5.5-13c-.86-2.19-1.72-4.39-2.49-6.61a41.89,41.89,0,0,1-2-6.82h0v0c.16-10.36-1.57-20.65-3.76-30.76s-5.07-20.1-8.2-30-6.6-19.66-10.27-29.36l-2.78-7.26-.7-1.82c-.2-.62-.41-1.26-.56-1.89l-1-3.75a147.87,147.87,0,0,0-4.61-14.83,118.33,118.33,0,0,0-14.36-27.45c-1.54-2.08-3-4.21-4.71-6.16-.84-1-1.63-2-2.5-3l-2.65-2.84a92.14,92.14,0,0,0-11.65-10.23,71.54,71.54,0,0,0-6.5-4.22,38.35,38.35,0,0,0-3.43-1.77,8.24,8.24,0,0,0-1.83-.49c-.62-.09-1.29-.11-1.93-.25a8.79,8.79,0,0,1-3.63-1.53,16.92,16.92,0,0,1-1.5-1.26c-.24-.22-.49-.43-.74-.62a7.7,7.7,0,0,1-.79-.59,27.27,27.27,0,0,0-6-4.86,46.08,46.08,0,0,0-6.92-3.46A41.48,41.48,0,0,0,194,4.2c-5.08-.43-10.39.21-15.49-1.18h0a49.9,49.9,0,0,0-22.74.18A45.55,45.55,0,0,0,136,14.26a41.91,41.91,0,0,0-3.88,4.22c-.62.73-1.15,1.52-1.71,2.29a8.85,8.85,0,0,1-2,2.15,9.11,9.11,0,0,1-2.55,1.42A21.91,21.91,0,0,1,123,25q-2.8.62-5.59,1.34t-5.55,1.5l-2.77.8a12.66,12.66,0,0,0-2.67,1,10.55,10.55,0,0,0-4.07,3.86A35.59,35.59,0,0,1,98.7,38l0,.05H98.6a87.5,87.5,0,0,0-18.13,4.1,100.37,100.37,0,0,0-16.94,7.66c-2.7,1.53-5.33,3.19-7.91,4.92l-3.87,2.6c-.66.42-1.32.84-2,1.27S48.57,59.5,48,60a70.46,70.46,0,0,0-6.54,6.62c-1,1.16-2,2.35-3,3.55a33.24,33.24,0,0,0-2.72,3.74l0,0,0,0a16.46,16.46,0,0,0-3.28,3.18,37.67,37.67,0,0,0-2.67,3.76l0,0-.05,0a10,10,0,0,0-3.38,3A19.28,19.28,0,0,0,24,88a32.44,32.44,0,0,0-1.48,4.36,23.53,23.53,0,0,0-.79,4.52v.08l-.07,0-1.08.8c-.33.3-.69.57-1,.89a11.85,11.85,0,0,0-1.66,2.08,9.21,9.21,0,0,0-1,2.45,6.84,6.84,0,0,0-.17,2.62v.08l-.06.06a14,14,0,0,0-1.18,1.37,5.92,5.92,0,0,0-.49.74,1.76,1.76,0,0,0-.28.78v0a17.87,17.87,0,0,0-.61,3.48,20.93,20.93,0,0,0,0,3.54,25,25,0,0,0,1.59,6.88l0,.09-.07.08a12.41,12.41,0,0,0-1.88,3.72,26.83,26.83,0,0,1-1.73,3.92,83.49,83.49,0,0,1-4.37,7.34l0,0a22.12,22.12,0,0,0-1.3,6.18,36.54,36.54,0,0,0,.22,6.36,51.53,51.53,0,0,0,1.19,6.26,55.52,55.52,0,0,0,1.88,6.08l0,0v9.1a44.21,44.21,0,0,0-2.92,8.15,70.59,70.59,0,0,0-1.71,8.52,59.79,59.79,0,0,0-.56,8.66,29.68,29.68,0,0,0,1.19,8.55v0a103.66,103.66,0,0,0,3,23.77,176.72,176.72,0,0,0,7.29,22.87c1.45,3.74,3,7.44,4.53,11.14a44.15,44.15,0,0,1,2.06,5.68,32.74,32.74,0,0,0,.86,5.93,55.91,55.91,0,0,0,10.17,21.52h0a30.58,30.58,0,0,0,9.23,6.16,45.75,45.75,0,0,0,10.68,3.18,58.58,58.58,0,0,0,11.14.83,45,45,0,0,0,5.56-.47,22.8,22.8,0,0,0,2.73-.57,6.45,6.45,0,0,0,2.46-1.13h0a13.73,13.73,0,0,1,7.55-2.16,27.79,27.79,0,0,1,4,.1,3.48,3.48,0,0,1,1.78.95,5.74,5.74,0,0,1,1.07,1.7c2.39,4.67,5,9.26,7.52,13.85l1.94,3.44,1,1.71a9.29,9.29,0,0,1,.47.89,2.84,2.84,0,0,1,.21,1,2.74,2.74,0,0,1-.75,1.88l-1.45,1.35q-1.41,1.37-2.73,2.82a86.79,86.79,0,0,0-9.36,12.64h0a39.78,39.78,0,0,0-3.7,5.93,42.93,42.93,0,0,0-2.56,6.51,46.54,46.54,0,0,0-1.87,13.83c0,.59,0,1.15.06,1.76a3.15,3.15,0,0,1-.6,1.7l-2.28,2.69c-1.48,1.8-2.92,3.65-4.24,5.58a29.34,29.34,0,0,0-1.81,3,7,7,0,0,0-1,3.27,13.83,13.83,0,0,1-2,6.73v0l-3,6v0h0a36.29,36.29,0,0,0-5.88,9.25,33.18,33.18,0,0,0-2.63,10.64,38,38,0,0,0,.71,10.95c.18.9.42,1.79.66,2.68.13.43.25.88.4,1.31a7.26,7.26,0,0,1,.38,1.35,3.21,3.21,0,0,1-.17,1.41c-.17.46-.43.83-.61,1.25s-.38.84-.54,1.26a3.53,3.53,0,0,1-.67,1.25,8.45,8.45,0,0,0-2.3,4.84,13.93,13.93,0,0,0,0,2.74,3.76,3.76,0,0,1-.86,2.64,61.44,61.44,0,0,0-6.26,9.07,177.29,177.29,0,0,0-9.71,19.82h0c-1.33,2.06-2.48,4.24-3.63,6.41s-2.26,4.37-3.36,6.58v0a30.19,30.19,0,0,1-2,4.89c-.76,1.58-1.56,3.14-2.37,4.7l-2.41,4.67c-.79,1.57-1.57,3.14-2.23,4.76h0a71.51,71.51,0,0,0-6.5,10.48c-1.92,3.64-3.59,7.41-5.19,11.21S5.41,543.75,4,547.63q-1,2.91-2,5.85l-.95,2.94L.62,557.9l-.22.74L.29,559A1.38,1.38,0,0,1,.16,559.29Z"/></g><g id="wrap"><path d="M162.66,240.78a14.63,14.63,0,0,0,10.07,4.3,17.76,17.76,0,0,0,10.36-3.6,40,40,0,0,0,8-7.81c.58-.73,1.13-1.49,1.7-2.24l1.61-2.31.2-.29.13-.23a2.84,2.84,0,0,0,.19-.52,7.49,7.49,0,0,1,.6-1.49,3.57,3.57,0,0,1,1.24-1.38,2.31,2.31,0,0,1,1-.36A2.17,2.17,0,0,1,199,225l-.08,0c3,.93,6.47,1.25,9.14-.09a7.57,7.57,0,0,0,3.12-3.05,12.42,12.42,0,0,0,.83-2.15l.3-1.14a4.88,4.88,0,0,1,.59-1.54,3.91,3.91,0,0,1,1.25-1.28,6.51,6.51,0,0,1,1.45-.62,12.54,12.54,0,0,1,2.75-.46,7.76,7.76,0,0,0,1-.23l1.16-.35c.78-.26,1.54-.54,2.29-.86A25.54,25.54,0,0,0,230.9,208a20.47,20.47,0,0,0,1.61-1.75c.5-.61.92-1.28,1.37-1.93a18.26,18.26,0,0,0,1.87-4.3l.31-1.14c.11-.36.14-.75.36-1.39a4.63,4.63,0,0,1,1-1.62,4.47,4.47,0,0,1,1.63-1,4.64,4.64,0,0,1,3.65.21,4.36,4.36,0,0,1,1.5,1.21,6,6,0,0,1,.51.83,5.43,5.43,0,0,1,.31.91l.08.45a2.53,2.53,0,0,1,0,.4l.05.63.11,1.27.2,2.54.4,5.08.71,10.16c.41,6.79.85,13.55.78,20.46,0,.86,0,1.74-.11,2.64l-.12,2.44c0,1.65,0,3.31.07,5,.13,3.34.36,6.71.63,10.07.54,6.73,1.25,13.46,2,20.19l1.11,10.09.3,2.52.07.61.1.55.22,1.29c.27,1.72.48,3.44.6,5.2.06.86.08,1.83.08,2.65s0,1.65.07,2.48c.06,1.68.15,3.37.24,5,.2,3.37.43,6.74.72,10.1.14,1.67.3,3.35.49,5s.45,3.25.75,4.93l1.83,10c.29,1.7.57,3.37.72,5.2.05,1,0,1.77,0,2.64l0,2.52c.06,3.37.18,6.73.4,10.07a69.52,69.52,0,0,0,1.26,9.87,8.56,8.56,0,0,1,.12.88,5.47,5.47,0,0,1,0,.69v1.25l0,2.54.07,5.09c0,3.41,0,6.82-.17,10.25a48.71,48.71,0,0,1-.49,5.18,12.56,12.56,0,0,1-.25,1.31,9.82,9.82,0,0,1-.35,1.34l-.42,1.21c-.14.35-.2.74-.31,1.11a22.44,22.44,0,0,0,.44,9.59,33.59,33.59,0,0,1,.75,5.2,24.41,24.41,0,0,1-.15,5.26,15.13,15.13,0,0,1-.63,2.62,3,3,0,0,0-.19,1.06c0,.45-.12.88-.19,1.31a24.44,24.44,0,0,0-.62,4.91,7.84,7.84,0,0,0,1.46,4.42,5.66,5.66,0,0,0,.72.88,2.33,2.33,0,0,0,.91.47,2.7,2.7,0,0,0,1.06,0,4.32,4.32,0,0,0,.54-.14,7.87,7.87,0,0,1,3.33-.45,3.55,3.55,0,0,1,1.34.48,3.06,3.06,0,0,1,.55.42,2.83,2.83,0,0,0,.45.32,4,4,0,0,0,1.12.32l1.25.3a18.82,18.82,0,0,0,2.45.45,6.82,6.82,0,0,0,2.43-.16,13.18,13.18,0,0,0,2.26-1.07,5.66,5.66,0,0,1,5,.24l-.11.17a5.4,5.4,0,0,0-4.8-.14,13.15,13.15,0,0,1-2.29,1.12,6.93,6.93,0,0,1-2.56.22,17.88,17.88,0,0,1-2.52-.41l-1.24-.27a4.19,4.19,0,0,1-1.25-.35c-.4-.19-.69-.54-1-.73a3.14,3.14,0,0,0-1.15-.39,6.12,6.12,0,0,0-2.47.28c-.4.1-.78.3-1.22.38a3.21,3.21,0,0,1-1.31,0,2.88,2.88,0,0,1-1.18-.57,6.49,6.49,0,0,1-.85-1,8.55,8.55,0,0,1-1.68-4.79,25.3,25.3,0,0,1,.54-5.07c.06-.42.12-.83.15-1.25a4.76,4.76,0,0,1,.21-1.28,13,13,0,0,0,.55-2.45,23,23,0,0,0,.05-5,35.13,35.13,0,0,0-.78-5,23.58,23.58,0,0,1-.56-10.13c.17-.84.49-1.66.73-2.45a7,7,0,0,0,.31-1.22,10.38,10.38,0,0,0,.22-1.24,47.33,47.33,0,0,0,.43-5.05c.14-3.38.12-6.77.06-10.16l-.12-5.08-.06-2.55a18.62,18.62,0,0,0-.12-2.5,70,70,0,0,1-1.41-10.09c-.27-3.38-.41-6.77-.47-10.16-.05-1.69,0-3.41-.07-5.08s-.43-3.35-.72-5l-1.86-10A98.23,98.23,0,0,1,251.5,320c-.58-6.75-1-13.54-1.19-20.31-.12-1.68-.33-3.36-.6-5-.12-.83-.32-1.66-.41-2.51l-.3-2.53-1.15-10.1q-1.11-10.12-1.92-20.26c-.25-3.38-.48-6.77-.59-10.16-.07-1.7-.07-3.4-.05-5.1s.23-3.38.25-5.07c.09-6.77-.32-13.55-.7-20.31s-.87-13.56-1.48-20.26a2.85,2.85,0,0,0-3.77-2,2.6,2.6,0,0,0-1.64,1.64l-.67,2.44a20.32,20.32,0,0,1-2.09,4.66c-.49.7-1,1.42-1.51,2.07a20.69,20.69,0,0,1-1.75,1.87,27,27,0,0,1-8.6,5.41,23.51,23.51,0,0,1-4.9,1.48,11.55,11.55,0,0,0-2.48.39,5.7,5.7,0,0,0-1.14.47,2.62,2.62,0,0,0-.84.85,3.46,3.46,0,0,0-.44,1.13l-.34,1.24a12.48,12.48,0,0,1-1,2.38,8.61,8.61,0,0,1-3.67,3.5,10.65,10.65,0,0,1-5,1,17.16,17.16,0,0,1-5-.95h0a1.37,1.37,0,0,0-1.24.12,2.72,2.72,0,0,0-.9,1,6.55,6.55,0,0,0-.54,1.28,3.53,3.53,0,0,1-.67,1.29L193.5,232c-.59.75-1.16,1.51-1.77,2.24a40.68,40.68,0,0,1-8.3,7.8,18.28,18.28,0,0,1-10.71,3.49,15,15,0,0,1-10.22-4.58Z"/></g><g id="innerEar"><path d="M174.45,222.07a8.14,8.14,0,0,0,2.31-.36,7.65,7.65,0,0,0,2.08-1,9.27,9.27,0,0,0,1.7-1.55,18.57,18.57,0,0,0,1.36-1.84l0-.08.23-.15a10.51,10.51,0,0,1,2.61-1.14l.34-.1.16-.05c.07,0,.13,0,.1,0s0,0-.06-.06-.16,0-.2.14,0,.16,0,.18l-.24-.17a9,9,0,0,0-.92-.5,16.94,16.94,0,0,1-2.38-1.55,5.75,5.75,0,0,1-1.14-1.29,5.11,5.11,0,0,1-.45-.83l-.06-.12v0l0,0a.73.73,0,0,0,.43.21.66.66,0,0,0,.45-.08c.09-.1-.09,0-.19.13a1.74,1.74,0,0,0-.16.28l-.27.61-.56,1.2c-.39.79-.78,1.56-1.2,2.34l-.14.26-.08.06a1.7,1.7,0,0,1-.44.29,4,4,0,0,1-.37.17,5.4,5.4,0,0,1-.73.21,7,7,0,0,1-1.41.17,2.1,2.1,0,0,0-1.83.9,3,3,0,0,0-.4,1.1,3.79,3.79,0,0,0-.21,1.2A1.7,1.7,0,0,0,174.45,222.07Zm0,.2a2,2,0,0,1-1.86-1.66,5,5,0,0,1,.13-1.3,3.6,3.6,0,0,1,.35-1.26,2.77,2.77,0,0,1,2.12-1.45,5,5,0,0,0,2.28-.86l0,0c.31-.79.59-1.59.86-2.39l.39-1.21a7.23,7.23,0,0,1,.43-1.23,2.16,2.16,0,0,1,.95-1,1.13,1.13,0,0,1,1.37.28c.32.4.4.81.65,1.12a4.7,4.7,0,0,0,.83.9,16.08,16.08,0,0,0,2.07,1.42,7.57,7.57,0,0,1,1.07.74,1.82,1.82,0,0,1,.76,1.13,1.4,1.4,0,0,1-.51,1.29,1.31,1.31,0,0,1-.64.3l-.63.11a8.82,8.82,0,0,0-2.39.72l0,0a13.75,13.75,0,0,1-3.63,3.12A8.88,8.88,0,0,1,174.45,222.27Z"/></g><g id="lobe"><path d="M166.51,229.78a5.84,5.84,0,0,1,1.16-2.78,7.06,7.06,0,0,1,2.08-1.92,6.59,6.59,0,0,1,2.76-1,4.17,4.17,0,0,1,3.07.67v.2a8.26,8.26,0,0,0-2.49.61,14.32,14.32,0,0,0-2.29,1.21,24,24,0,0,0-2.14,1.48c-.68.54-1.36,1.09-2,1.67Z"/></g><g id="earring"><path class="cls-1" d="M172.58,248.85v7c0,1.65-2.05,3.31-2.76,3.83a3.14,3.14,0,0,0-.5.46c-1.88,2.14-11.19,17.79-1.62,26a3.33,3.33,0,0,0,1.84.8c8.73.81,18.08-.56,19-13.1,1-12-5.88-15.76-8.14-16.7a2.56,2.56,0,0,1-1.33-1.32A30,30,0,0,1,176.55,245a9.68,9.68,0,0,1-4.71.33A8.76,8.76,0,0,1,172.58,248.85Z"/><path d="M172.68,248.85l.06,6.42a3.49,3.49,0,0,1-.23,1.65,5.53,5.53,0,0,1-.87,1.41,11.65,11.65,0,0,1-1.16,1.17,6.64,6.64,0,0,0-1.11,1.06,27.14,27.14,0,0,0-2.89,5.62,30.21,30.21,0,0,0-1.7,6,17.58,17.58,0,0,0-.05,6,10.67,10.67,0,0,0,2.37,5.16,11.8,11.8,0,0,0,1,1l.53.46a1.47,1.47,0,0,0,.4.27,1.53,1.53,0,0,0,.39.14,3.4,3.4,0,0,0,.51.05c.52,0,1,.06,1.55.07a29.53,29.53,0,0,0,6-.4,12.86,12.86,0,0,0,5.13-2.12,10,10,0,0,0,3.23-4.31,11.9,11.9,0,0,0,.5-1.34l.37-1.41c.14-1,.35-2,.4-3a19.8,19.8,0,0,0-.19-6,12.51,12.51,0,0,0-7-9.26,3.09,3.09,0,0,1-1.29-1.48c-.2-.53-.37-1-.55-1.55-.34-1-.63-2.08-.88-3.13a24.92,24.92,0,0,1-.82-6.43l.26.17a7.28,7.28,0,0,1-2.39.45,11.45,11.45,0,0,1-2.41-.16l.14-.19A9,9,0,0,1,172.68,248.85Zm-.2,0a9,9,0,0,0-.73-3.47l-.08-.18.19,0a8.9,8.9,0,0,0,4.64-.33l.16-.06V245a24.57,24.57,0,0,0,1,6.3c.29,1,.63,2,1,3s.66,2.11,1.62,2.57a13.13,13.13,0,0,1,5.15,3.83,14.41,14.41,0,0,1,2.83,5.78,21.09,21.09,0,0,1,.53,6.43,29.28,29.28,0,0,1-.33,3.22l-.36,1.58a14.61,14.61,0,0,1-.51,1.54,11.64,11.64,0,0,1-3.81,5.19,13.65,13.65,0,0,1-6,2.47,27.27,27.27,0,0,1-6.44.31c-.54,0-1.08-.08-1.61-.12a3.58,3.58,0,0,1-1.61-.45,10.34,10.34,0,0,1-2.34-2.28,12.17,12.17,0,0,1-2.39-6,18.78,18.78,0,0,1,.37-6.43,30.46,30.46,0,0,1,2-6.11,30.09,30.09,0,0,1,3.19-5.6,6.87,6.87,0,0,1,1.2-1.1,10.8,10.8,0,0,0,1.15-1.09,5.15,5.15,0,0,0,.87-1.31,3.37,3.37,0,0,0,.22-1.53Z"/></g><path id="headband" class="cls-2" d="M242.58,186.85c-1-2.88-.08-18.64,0-24.33a4.18,4.18,0,0,0-.17-1.22c-1.9-6.65-6.58-36.47-7.62-45.22A4.71,4.71,0,0,0,233,113c-3.83-3-8.87-12.17-9.34-13a.67.67,0,0,0-.09-.14,99.5,99.5,0,0,0-14.9-16.89l-.1-.09c-27-29-73-42.95-81.95-44.95s-28,0-28,0C56,41.19,33.14,74.24,29.9,80.2A2.08,2.08,0,0,1,29,81c-4.78,1.87-6.71,9.6-7.22,13.93a2,2,0,0,1-.56,1.16c-5.32,5.34-4.37,6.19-4.54,8.9a2,2,0,0,1-.63,1.32c-3.64,3.6-3,8.9-2,12.22a2,2,0,0,0,3.24.86c4.12-4,13.78-11.84,24.33-9.58,13.37,2.86,21.26,6.64,22,7l.09.05c.83.47,13.75,7.77,18.75,8a2,2,0,0,1,.43.07c.76.22,3.26,1,3.71,2.48a1.83,1.83,0,0,0,.68,1,120.94,120.94,0,0,0,12.39,7.51c4,2,33,23,43,34,9.78,10.76,43.5,45.46,44.95,47l.1.09c.55.47,5.43,4.75,7.65,8.66a1.93,1.93,0,0,0,2.68.67h0a1.94,1.94,0,0,1,1.29-.26c2.82.41,13.56,1.42,13.38-7.31a2,2,0,0,1,.71-1.52,8,8,0,0,1,5.24-2.28c2,0,17.79-3.95,19-19.69a1.81,1.81,0,0,1,.14-.6c.58-1.33,3-6.83,3.88-7.71Z"/><g id="shoulder"><path d="M78.38,370.56q2.63-1.44,5.11-3.11a49.07,49.07,0,0,0,4.77-3.54,21,21,0,0,0,3.95-4.24c.26-.4.45-.8.68-1.21a10.25,10.25,0,0,1,.83-1.41,14.16,14.16,0,0,1,2.1-2.39,21.48,21.48,0,0,1,2.42-2c.43-.3.86-.59,1.29-.86a8,8,0,0,0,1.1-.8,7.18,7.18,0,0,0,.9-.93l.9-1.19q.93-1.2,1.95-2.37a25.9,25.9,0,0,1,2.21-2.24,10.89,10.89,0,0,1,1.33-1,6.14,6.14,0,0,1,.81-.45l.76-.32a36.55,36.55,0,0,0,5.05-2.77c.83-.52,1.66-1.06,2.47-1.61l.61-.41c.19-.14.47-.32.68-.45.46-.29.93-.55,1.41-.81a10.16,10.16,0,0,1,3.35-1.12l.52,0s0,0,0,0,.29-.08.5-.17c.38-.15.8-.36,1.22-.57a56.2,56.2,0,0,0,5-3c.81-.55,1.62-1.11,2.41-1.68l1.16-.87.56-.45.61-.49a9.14,9.14,0,0,1,3.23-1.64l.69-.19a5.31,5.31,0,0,0,.56-.2c.32-.13.8-.38,1.23-.59a55.28,55.28,0,0,0,5.08-2.83,21.89,21.89,0,0,0,2.24-1.63c.27-.23.78-.71,1.24-1a10,10,0,0,1,1.55-.94,11,11,0,0,1,1.61-.63c.21-.08.52-.17.81-.26l.74-.2,2.85-.8c1.9-.53,3.8-1.09,5.62-1.73.91-.32,1.82-.66,2.63-1l.59-.28a6.92,6.92,0,0,1,.82-.4,9.2,9.2,0,0,1,1.74-.54l3-.52,2.91-.57c1.93-.4,3.86-.84,5.77-1.33s3.82-1,5.67-1.61c.93-.3,1.84-.62,2.73-1,.45-.18.81-.35,1.42-.57a14.45,14.45,0,0,1,1.6-.51c1.91-.48,3.8-1,5.65-1.63.93-.3,1.84-.62,2.72-1,.44-.17.87-.36,1.27-.56l.6-.31c.24-.14.5-.28.76-.4a9,9,0,0,1,1.65-.61,8.74,8.74,0,0,1,.89-.17l.75-.1,3-.42c2-.28,4-.57,6-.78,1-.1,2-.2,3.05-.25s2.1,0,3.05,0c2,0,4-.1,6-.17l6-.25,1.49-.08.75,0,.69-.08c1-.15,2-.3,3-.37a31.66,31.66,0,0,1,6.08.16,30.11,30.11,0,0,1,5.88,1.38l-.06.19a30.7,30.7,0,0,0-11.83-1.07c-1,.1-2,.27-3,.46s-2,.2-3,.3l-6,.45c-2,.13-4,.25-6,.3a44,44,0,0,0-6,.4c-2,.25-4,.57-5.93.89l-3,.48a8,8,0,0,0-2.82.8,28.79,28.79,0,0,1-5.5,2.44c-1.89.65-3.82,1.21-5.76,1.73a21.29,21.29,0,0,0-2.79,1c-.93.38-1.88.72-2.83,1-1.9.63-3.83,1.18-5.77,1.68-3.87,1-7.81,1.86-11.74,2.52a8.32,8.32,0,0,0-1.39.44c-.44.19-.88.45-1.34.67-.91.43-1.85.79-2.8,1.13-1.89.68-3.81,1.26-5.73,1.82a52.47,52.47,0,0,0-5.71,1.72,10.17,10.17,0,0,0-2.4,1.7,21.18,21.18,0,0,1-2.46,1.76,58.61,58.61,0,0,1-5.27,2.9c-.46.22-.9.45-1.38.64a11.44,11.44,0,0,1-1.45.44,7.25,7.25,0,0,0-2.6,1.31c-1.55,1.26-3.2,2.42-4.87,3.52a57.27,57.27,0,0,1-5.17,3.08c-.45.22-.91.44-1.39.62a4.46,4.46,0,0,1-.73.24,5.79,5.79,0,0,1-.76.08,9,9,0,0,0-2.78.93,22.23,22.23,0,0,0-2.57,1.52q-1.26.81-2.55,1.59a40.34,40.34,0,0,1-5.34,2.78,7.19,7.19,0,0,0-2.52,1.5,23.24,23.24,0,0,0-2.13,2.08c-.68.73-1.32,1.49-1.95,2.27a13.44,13.44,0,0,1-2,2.25c-.78.66-1.7,1.09-2.5,1.67a23.24,23.24,0,0,0-2.36,1.83,13.46,13.46,0,0,0-2,2.17,8.44,8.44,0,0,0-.78,1.25c-.27.43-.5.88-.79,1.29a22,22,0,0,1-4.24,4.27,59.3,59.3,0,0,1-10.22,6.31Z"/></g></svg>