<svg id="guernica" xmlns="http://www.w3.org/2000/svg" viewBox="0 0 81.63 152.89"><title>picIcon</title><g id="full"><g id="outline"><path d="M71,141.24a89.49,89.49,0,0,0-5.88,7.66,1.05,1.05,0,0,0-.18.54,1.17,1.17,0,0,0,.21.52,3.94,3.94,0,0,0,.86.82,1.83,1.83,0,0,0,1,.45c.38,0,.8-.15,1.2-.16a2.92,2.92,0,0,1,2.28.72c.46.75,1.41.54,2.18.68,1.6.15,3.21.29,4.82.28a11.7,11.7,0,0,0,1.19-.07,2.14,2.14,0,0,0,1.09-.35,2.32,2.32,0,0,0,.32-1.1c.05-.4.07-.8.09-1.2a94.08,94.08,0,0,0-.43-9.64h0a5.2,5.2,0,0,0-.69-2.57,1.68,1.68,0,0,1-.32-.64c0-.25,0-.46,0-.69l-.09-1.37-.36-5.47-.72-10.94-.73-11c-.08-.91-.08-1.82-.2-2.71a10.19,10.19,0,0,0-.71-2.61,5.36,5.36,0,0,0-1.57-2.12,4.07,4.07,0,0,0-2.48-.78l0-.3a3.61,3.61,0,0,0,2.75-1.5,11.36,11.36,0,0,0,1.71-2.87,30.71,30.71,0,0,0,1.85-6.49c.42-2.22.66-4.48.93-6.73s.49-4.51.7-6.77c.4-4.51.69-9,.78-13.57v-.86c0-.36.1-.57.14-.87.09-.55.15-1.11.21-1.67.11-1.12.17-2.25.17-3.37a33.64,33.64,0,0,0-.64-6.72A25.13,25.13,0,0,0,69.71,31.35a31.36,31.36,0,0,0-6-3.09l-1.58-.6-1.62-.49c-.28-.1-.5-.15-.84-.27a1.54,1.54,0,0,1-.76-.71,1.74,1.74,0,0,1-.16-1,7.66,7.66,0,0,0,0-.83,46.26,46.26,0,0,0-.82-6.7c-.05-.26-.1-.6-.15-.8a.93.93,0,0,0-.38-.49.87.87,0,0,0-.6-.14,1.49,1.49,0,0,0-.64.31,29,29,0,0,0-2.71,2A26.79,26.79,0,0,0,51,20.83a8.3,8.3,0,0,0-1.86,2.65l-.6-.25c.52-1.07,1-2.16,1.48-3.27.1-.27.21-.55.3-.83a.88.88,0,0,0,0-.67.84.84,0,0,0-.16-.29l-.29-.37c-.18-.25-.36-.5-.52-.76s-.32-.53-.48-.79l-.22-.41a1.51,1.51,0,0,1-.18-.53c0-.22,0-.33,0-.43a.76.76,0,0,0-.13-.29.91.91,0,0,0-1.15-.29,1.17,1.17,0,0,0-.44.54,8,8,0,0,0-.59,1.62v-.08a2.61,2.61,0,0,1-.36,1.25,5.06,5.06,0,0,1-.73,1l-.84.89.25-1.22a17.37,17.37,0,0,0,.13-6.39,12.63,12.63,0,0,0-2.51-5.81A12.79,12.79,0,0,0,37,2.32,21.42,21.42,0,0,0,30.8.76H30a1.19,1.19,0,0,0-.6.13,1.19,1.19,0,0,0-.13.6c0,.28,0,.58,0,.88L28.84,2A2.35,2.35,0,0,1,30,2.38a7.59,7.59,0,0,1,.85.6A13,13,0,0,1,32.25,4.4a16.79,16.79,0,0,1,2.31,3.29,11.63,11.63,0,0,1,1.33,3.83,6.19,6.19,0,0,1-.71,4.07l0-.11a5.86,5.86,0,0,1-2.5,3.72,3.61,3.61,0,0,1-2.29.55l-2.12-.19c-1.42-.1-2.84-.18-4.25-.2-.71,0-1.41,0-2.11.05a6.2,6.2,0,0,0-1.93.35l-.05,0h0a14.3,14.3,0,0,0-2.68,1,4.73,4.73,0,0,0-2,1.74l-.13.25h-.26c-.28,0-.46,0-.82,0a1.7,1.7,0,0,1-.9-.4c-.41-.32-.81-.66-1.2-1a17.2,17.2,0,0,1-2.11-2.32,11.28,11.28,0,0,1-2.37-5.82A10,10,0,0,1,9,7.16a15.54,15.54,0,0,1,1.9-2.5l.54-.57a1.35,1.35,0,0,0,.3-.45,1,1,0,0,0-.27-.93l.57.08A28,28,0,0,0,3.9,10.12,16.53,16.53,0,0,0,1.47,15a13.52,13.52,0,0,0-.35,5.37,12.28,12.28,0,0,0,2,5,21.72,21.72,0,0,0,1.67,2.18c.3.35.62.68.94,1a4.3,4.3,0,0,0,.43.43,5.7,5.7,0,0,0,.55.27,21.7,21.7,0,0,0,2.55,1.05c.43.14.87.27,1.31.38l.69.15a1.61,1.61,0,0,1,.84.52,1.77,1.77,0,0,1,.41.85l.16.66c.13.43.26.87.43,1.29a9.48,9.48,0,0,0,1.26,2.35,6.21,6.21,0,0,0,1.91,1.74,4.35,4.35,0,0,0,.58.27,3.11,3.11,0,0,0,.61.2l.33.09a2,2,0,0,1,.45.16,1.76,1.76,0,0,1,.69.69,1.62,1.62,0,0,1,.19,1A3.53,3.53,0,0,1,19,41l-.1.34c-.14.46-.29.91-.44,1.36-.3.9-.62,1.78-.95,2.67-.65,1.76-1.34,3.51-2,5.26l-1.06,2.61a1.93,1.93,0,0,1-.48.72c-.14.17-.29.34-.43.52-.27.35-.53.73-.77,1.11a7.67,7.67,0,0,0-1.34,5A5.53,5.53,0,0,0,12.35,63a6.71,6.71,0,0,0,.81,1,5.65,5.65,0,0,0,1.1.59,7.76,7.76,0,0,0,1.27.38c.21,0,.43.08.65.11l.36,0a1.59,1.59,0,0,1,.47.14,1.71,1.71,0,0,1,1,1.55,1.61,1.61,0,0,1-.3.93,4,4,0,0,0-.35.51.37.37,0,0,0-.05.14c0-.09,0-.11,0-.07a1.52,1.52,0,0,0,.47.2,8.55,8.55,0,0,0,1.3.25c.91.11,1.84.15,2.76.17h.45v1.89h-.45a10.16,10.16,0,0,0-3.28.59,3.72,3.72,0,0,0-2.29,2A5.18,5.18,0,0,0,16,76.6a2.88,2.88,0,0,0,.78,1.26,1.1,1.1,0,0,0,.63.18l.86.07a38.18,38.18,0,0,0,6.93,0,9.25,9.25,0,0,0,3.23-.88A8.15,8.15,0,0,1,31.87,76a21.32,21.32,0,0,1,3.56-.2q.89,0,1.77.09l.88.08a4,4,0,0,1,.94.15,42.24,42.24,0,0,1,6.13,3.56A59.43,59.43,0,0,1,55.68,89a62.75,62.75,0,0,1,13.44,24.47c.32,1.12.65,2.25.9,3.4s.51,2.28.73,3.43a29.26,29.26,0,0,1,.47,3.49c.11,1.16.21,2.33.29,3.49.17,2.34.29,4.68.29,7,0,1.17,0,2.34-.13,3.51A12.33,12.33,0,0,1,71,141.24Zm-.09,0a11.66,11.66,0,0,0,.67-3.41c.09-1.17.12-2.33.11-3.5,0-2.34-.15-4.67-.33-7-.09-1.17-.2-2.33-.32-3.49a30.65,30.65,0,0,0-.49-3.46c-.22-1.15-.46-2.29-.75-3.42s-.59-2.26-.92-3.38A62.3,62.3,0,0,0,55.32,89.32a59.11,59.11,0,0,0-10.5-9.16,43.46,43.46,0,0,0-6-3.44,4.84,4.84,0,0,0-.79-.11l-.87-.07c-.57,0-1.15-.07-1.73-.07a19.69,19.69,0,0,0-3.44.21,7.6,7.6,0,0,0-3.15,1.13,9.7,9.7,0,0,1-3.49,1,39,39,0,0,1-7.08.1l-.89-.07a1.78,1.78,0,0,1-1-.32,3.55,3.55,0,0,1-1.08-1.66,6,6,0,0,1,.22-3.71,4.52,4.52,0,0,1,2.77-2.53,11,11,0,0,1,3.59-.68l-.45.45v-1l.45.45A24.91,24.91,0,0,1,19,69.68a8.67,8.67,0,0,1-1.46-.27,2.21,2.21,0,0,1-.81-.37.88.88,0,0,1-.34-.66,1.34,1.34,0,0,1,.13-.54,3.82,3.82,0,0,1,.43-.65.69.69,0,0,0,.12-.39.73.73,0,0,0-.44-.67.83.83,0,0,0-.21-.06,2.66,2.66,0,0,0-.34,0c-.25,0-.49-.07-.73-.12a9.12,9.12,0,0,1-1.44-.42,6.37,6.37,0,0,1-1.37-.74,7.07,7.07,0,0,1-1-1.17,6.62,6.62,0,0,1-1.11-2.81,8.72,8.72,0,0,1,1.48-5.67q.39-.62.84-1.2c.15-.19.3-.38.47-.56s.21-.21.3-.44l1.06-2.6c.69-1.74,1.38-3.49,2-5.24.32-.88.64-1.76.94-2.64q.22-.66.42-1.32l.1-.33.07-.27a.62.62,0,0,0-.07-.38.69.69,0,0,0-.5-.36l-.35-.1a3.67,3.67,0,0,1-.73-.24,4.32,4.32,0,0,1-.69-.32,7.09,7.09,0,0,1-2.23-2,10.79,10.79,0,0,1-1.39-2.59c-.18-.45-.32-.91-.46-1.38-.06-.23-.12-.47-.17-.7a.82.82,0,0,0-.19-.42.75.75,0,0,0-.34-.21l-.68-.14c-.47-.12-.93-.26-1.39-.41a25.6,25.6,0,0,1-2.66-1.09,6.81,6.81,0,0,1-.7-.36A6.13,6.13,0,0,1,5,29.22c-.33-.34-.66-.69-1-1a23.08,23.08,0,0,1-1.75-2.29A16.12,16.12,0,0,1,.91,23.32,12.68,12.68,0,0,1,.14,20.5,12.42,12.42,0,0,1,0,17.58a14.2,14.2,0,0,1,.47-2.87A17.14,17.14,0,0,1,3.1,9.55,28.88,28.88,0,0,1,11.61,2l.32-.19.24.27a2.06,2.06,0,0,1,.5.85,1.68,1.68,0,0,1,0,1,2.33,2.33,0,0,1-.53.82l-.52.54a14.51,14.51,0,0,0-1.8,2.35,9.07,9.07,0,0,0-1.47,5.54,10.47,10.47,0,0,0,2.17,5.36,16.69,16.69,0,0,0,2,2.2q.56.51,1.14,1a.79.79,0,0,0,.47.23c.14,0,.48,0,.71,0l-.39.24a4.15,4.15,0,0,1,1.08-1.26,7.29,7.29,0,0,1,1.33-.85A14,14,0,0,1,19.74,19l-.09,0a6.5,6.5,0,0,1,2.25-.44c.73,0,1.46,0,2.18,0,1.44,0,2.87.1,4.3.22l2.14.19a2.74,2.74,0,0,0,1.79-.44,5,5,0,0,0,2.14-3.21v-.06l0-.05a5.4,5.4,0,0,0,.62-3.54,10.85,10.85,0,0,0-1.24-3.57,16.33,16.33,0,0,0-2.2-3.15,11.38,11.38,0,0,0-1.36-1.33,3.38,3.38,0,0,0-1.47-.82l-.39,0V2.38c0-.3,0-.6,0-.92a1.66,1.66,0,0,1,.35-1.1A1.66,1.66,0,0,1,29.92,0h1a22.33,22.33,0,0,1,6.46,1.64,13.54,13.54,0,0,1,5.35,4,13.38,13.38,0,0,1,2.64,6.14,18.08,18.08,0,0,1-.15,6.68l-.59-.33a3,3,0,0,0,.91-1.75V16.3a7.74,7.74,0,0,1,.64-1.78,1.81,1.81,0,0,1,.71-.81,1.58,1.58,0,0,1,2,.5,1.32,1.32,0,0,1,.23.53c0,.19,0,.39,0,.47a.65.65,0,0,0,.11.31l.21.39c.15.26.3.52.46.77s.32.49.49.73l.27.34A1.52,1.52,0,0,1,51,19.34a9.07,9.07,0,0,1-.32.87c-.46,1.13-1,2.22-1.51,3.32l-.6-.25a9,9,0,0,1,2-2.9,25.31,25.31,0,0,1,2.54-2.32,30.75,30.75,0,0,1,2.77-2,2,2,0,0,1,.9-.4,1.53,1.53,0,0,1,1,.23,1.52,1.52,0,0,1,.63.84c.09.34.11.57.17.87a46.6,46.6,0,0,1,.82,6.8c0,.29,0,.58,0,.87a1.06,1.06,0,0,0,.09.68.86.86,0,0,0,.46.42c.19.08.52.17.78.25l1.63.51,1.61.61A32.49,32.49,0,0,1,70,30.87,25.79,25.79,0,0,1,81,47.71a33.88,33.88,0,0,1,.63,6.82A32.65,32.65,0,0,1,81.45,58c-.06.57-.13,1.14-.23,1.7,0,.27-.12.61-.13.81l0,.85c-.11,4.54-.42,9.08-.84,13.6q-.32,3.39-.73,6.77c-.29,2.26-.53,4.51-1,6.75A30.86,30.86,0,0,1,76.63,95a11.66,11.66,0,0,1-1.78,2.94,3.88,3.88,0,0,1-3,1.59l0-.3a4.31,4.31,0,0,1,2.65.86,5.35,5.35,0,0,1,1.65,2.23,10.53,10.53,0,0,1,.72,2.68c.12.92.11,1.84.19,2.75l.69,10.94.7,10.94.35,5.47.09,1.37c0,.22,0,.46,0,.67a1.43,1.43,0,0,0,.3.57,5.35,5.35,0,0,1,.7,2.67h0a91.88,91.88,0,0,1,.42,9.67c0,.4,0,.8-.09,1.21a2.43,2.43,0,0,1-.36,1.18,2.27,2.27,0,0,1-1.18.39,9.82,9.82,0,0,1-1.21.07c-1.62,0-3.23-.14-4.83-.29l-1.21-.11a1.39,1.39,0,0,1-1-.61,2.8,2.8,0,0,0-2.19-.68c-.4,0-.77.11-1.19.15a1.79,1.79,0,0,1-1.13-.48A3.69,3.69,0,0,1,65,150a1.13,1.13,0,0,1-.23-.58,1.1,1.1,0,0,1,.19-.6A84.86,84.86,0,0,1,70.87,141.2Z"/></g><g id="hornandear"><g id="earline1"><path d="M42.79,35.36c.84-2.19,1.72-4.36,2.66-6.51a26.51,26.51,0,0,1,1.48-3.2,12.49,12.49,0,0,1,2.13-2.84l.09.05c-.42,1.12-.85,2.19-1.34,3.25s-1.1,2.05-1.64,3.08L42.89,35.4Z"/></g><g id="hornlower1"><path d="M30.89,19.39a18.71,18.71,0,0,0-.61,7A3,3,0,0,0,32,28.91a4.1,4.1,0,0,0,3.1-.6,23.77,23.77,0,0,0,5.14-4.6c1.6-1.71,3.06-3.55,4.6-5.36l.08.06a33.38,33.38,0,0,1-3.93,6A18.55,18.55,0,0,1,35.43,29a4.77,4.77,0,0,1-3.69.5,2.72,2.72,0,0,1-1.44-1.31,5.08,5.08,0,0,1-.51-1.79,19.1,19.1,0,0,1,1-7.06Z"/></g><g id="minihornlower"><path d="M48.85,22.43a8.21,8.21,0,0,1-3.21.42A3.17,3.17,0,0,1,44,22.39a2,2,0,0,1-.89-1.52l.09,0a7.52,7.52,0,0,0,1.29.69,12.3,12.3,0,0,0,1.31.54,7.34,7.34,0,0,0,1.5.24,10.14,10.14,0,0,0,1.56,0Z"/></g><g id="earinner"><path d="M46.8,33.35q2.13-3.86,4.33-7.68c.74-1.27,1.48-2.54,2.26-3.79l.6-.94a.66.66,0,0,1,.42-.31.61.61,0,0,1,.55.14.66.66,0,0,1,.24.51v.28l0,2.2c0,2.94.17,5.88.1,8.81l0,.56a.77.77,0,0,1-.32.62.83.83,0,0,1-.34.13h-.14l-1.11.1c-.74,0-1.48.11-2.22.11S49.7,34.1,49,34a8.24,8.24,0,0,1-1.11-.16,2.13,2.13,0,0,1-1.05-.47l.08-.07a4.16,4.16,0,0,0,2.09.25c.72,0,1.45-.09,2.17-.18l2.17-.28L54.4,33l.12,0-.08,0a.17.17,0,0,0-.08.14l0-.55c-.07-2.93,0-5.87.1-8.81l0-2.2v-.28s0,0,0,0h0s.07-.07,0,0l-.61.9c-.82,1.22-1.6,2.46-2.39,3.7q-2.36,3.72-4.67,7.47Z"/></g><g id="earline2"><path d="M58.89,26.38a36.78,36.78,0,0,1,0,5.25,10.78,10.78,0,0,1-.37,2.64A5.76,5.76,0,0,1,58,35.53a1.88,1.88,0,0,1-1.1.89l0-.09A5.4,5.4,0,0,0,57.58,34c.14-.82.4-1.64.55-2.49.29-1.69.5-3.42.66-5.15Z"/></g><g id="wrinkle1"><path d="M44.84,37.33c1.19-.06,2.38-.08,3.58,0,.6,0,1.2.07,1.8.16a4.11,4.11,0,0,1,1.88.63,3,3,0,0,0,1.44.23c.57,0,1.15,0,1.73,0,1.17,0,2.35,0,3.56,0l0,.1a13.5,13.5,0,0,1-3.52.85,8.68,8.68,0,0,1-1.84,0,6.37,6.37,0,0,1-.94-.16,2.1,2.1,0,0,1-1-.48,3.92,3.92,0,0,0-1.45-.57c-.56-.13-1.14-.22-1.72-.3-1.17-.17-2.36-.29-3.54-.36Z"/></g><g id="hornlower2"><path d="M13.89,22.38a19.09,19.09,0,0,1-.28,4.94,6.63,6.63,0,0,1-.79,2.42,3.65,3.65,0,0,1-2,1.68l-.06-.08a10,10,0,0,0,1.13-2.06c.28-.7.66-1.4.89-2.16a18.48,18.48,0,0,0,.59-2.33c.16-.8.29-1.6.37-2.41Z"/></g><g id="wrinkle2"><path d="M15.83,23.33q3-.54,6-.95a21.54,21.54,0,0,1,3-.35,11.25,11.25,0,0,1,3,.3v.1a21.08,21.08,0,0,1-3,.59,27.27,27.27,0,0,1-3,.15l-6,.26Z"/></g></g><g id="eyes"><g id="eye2"><g id="eyebrow2"><path d="M41.8,46.35a7.88,7.88,0,0,1,3.55-2.89,12,12,0,0,1,4.55-.94,9.14,9.14,0,0,1,1.17,0,8.92,8.92,0,0,1,1.16.08c.4,0,.76.08,1.18.16a3.48,3.48,0,0,1,1.2.56,6.84,6.84,0,0,1,1.62,1.78,3.8,3.8,0,0,1,.66,2.28h-.1A6.58,6.58,0,0,0,54,44.14a2.42,2.42,0,0,0-.86-.37l-1.08-.19a10.07,10.07,0,0,0-1.1-.17,10.19,10.19,0,0,0-1.1-.09,11.38,11.38,0,0,0-4.37.6,7.73,7.73,0,0,0-3.65,2.48Z"/></g><g id="eye2-2" data-name="eye2"><path d="M42.79,49.39a6.89,6.89,0,0,1,1.32-2.08,6.93,6.93,0,0,1,4.3-2.25,9.36,9.36,0,0,1,2.48,0h0l.07,0a16.36,16.36,0,0,1,2.3,1.77,14.55,14.55,0,0,1,1,1.06,9,9,0,0,1,.89,1.23l.15.26-.23.23a12.1,12.1,0,0,1-2.86,2.08,8.72,8.72,0,0,1-1.64.68,5.49,5.49,0,0,1-1.81.29,6,6,0,0,1-3.41-1.07A11.34,11.34,0,0,1,42.79,49.39Zm.1,0a20,20,0,0,0,2.86,1.71,5.85,5.85,0,0,0,3.06.69,8.75,8.75,0,0,0,3-.91,12.09,12.09,0,0,0,2.71-1.78l-.08.49a7.12,7.12,0,0,0-.73-1.12,12.77,12.77,0,0,0-.92-1,14.72,14.72,0,0,0-2.14-1.79l.12,0a9.57,9.57,0,0,0-2.33-.12,6.5,6.5,0,0,0-2.25.58,6.43,6.43,0,0,0-1.93,1.34A7.66,7.66,0,0,0,42.89,49.37Z"/></g><g id="pupil2"><path d="M45.79,51.39a5.54,5.54,0,0,1-.14-2,3.91,3.91,0,0,1,.88-1.9,5.18,5.18,0,0,1,1.71-1.23A3.16,3.16,0,0,1,50.45,46a1.76,1.76,0,0,1,1,.74A2.29,2.29,0,0,1,51.82,48a4.1,4.1,0,0,1-.11,1.12,9.37,9.37,0,0,1-.36,1.05,3.1,3.1,0,0,1-.74.9,9.83,9.83,0,0,1-.83.61,4.22,4.22,0,0,1-1.93.79l0-.1a6.57,6.57,0,0,0,1.5-1.23l.67-.71a2.28,2.28,0,0,0,.45-.69c.35-1.07.77-2.56-.25-2.91a3.42,3.42,0,0,0-3.3,1A3.35,3.35,0,0,0,46,49.42a5.31,5.31,0,0,0-.06,1.95Z"/></g></g><g id="eye1"><g id="eye1-2" data-name="eye1"><path d="M20.79,40.39a6.89,6.89,0,0,1,1.32-2.08,6.93,6.93,0,0,1,4.3-2.25,9.36,9.36,0,0,1,2.48,0h.05l.07,0a16.36,16.36,0,0,1,2.3,1.77,14.55,14.55,0,0,1,1,1.06,9,9,0,0,1,.89,1.23l.15.26-.23.23a12.1,12.1,0,0,1-2.86,2.08,8.72,8.72,0,0,1-1.64.68,5.49,5.49,0,0,1-1.81.29,6,6,0,0,1-3.41-1.07A11.34,11.34,0,0,1,20.79,40.39Zm.1,0a20,20,0,0,0,2.86,1.71,5.85,5.85,0,0,0,3.06.69,8.75,8.75,0,0,0,3-.91,12.09,12.09,0,0,0,2.71-1.78l-.08.49a7.12,7.12,0,0,0-.73-1.12,12.77,12.77,0,0,0-.92-1,14.72,14.72,0,0,0-2.14-1.79l.12,0a9.57,9.57,0,0,0-2.33-.12,6.5,6.5,0,0,0-2.25.58,6.43,6.43,0,0,0-1.93,1.34A7.66,7.66,0,0,0,20.89,40.37Z"/></g><g id="pupil1"><path d="M23.79,42.39a5.54,5.54,0,0,1-.14-2,3.91,3.91,0,0,1,.88-1.9,5,5,0,0,1,1.71-1.23,3.22,3.22,0,0,1,2.21-.2,1.94,1.94,0,0,1,1,.74A2.43,2.43,0,0,1,29.82,39a4.68,4.68,0,0,1-.48,2.17,3.52,3.52,0,0,1-.73.9,8.15,8.15,0,0,1-.84.61,4.14,4.14,0,0,1-1.92.79l0-.1a6.31,6.31,0,0,0,1.5-1.23c.22-.23.46-.47.67-.71a2.48,2.48,0,0,0,.44-.71c.35-1,.79-2.56-.24-2.89a3.42,3.42,0,0,0-3.3,1A3.35,3.35,0,0,0,24,40.42a5.31,5.31,0,0,0-.06,1.95Z"/></g><g id="eyebrow1"><path d="M18.8,37.34a12.56,12.56,0,0,1,4.12-2.67,12.06,12.06,0,0,1,4.91-.81,5.28,5.28,0,0,1,1.31.18c.44.13.79.29,1.19.45a14.12,14.12,0,0,1,2.18,1.22,10.68,10.68,0,0,1,3.37,3.64l-.08.06A21.33,21.33,0,0,0,32,36.55c-.68-.41-1.37-.79-2.07-1.16-.35-.18-.73-.38-1-.51a4.57,4.57,0,0,0-1.08-.22,11.11,11.11,0,0,0-4.68.48,12.21,12.21,0,0,0-4.21,2.27Z"/></g></g></g><g id="nose"><g id="nosewrinkle1"><path d="M35.79,50.37a2.6,2.6,0,0,0-.57-1.84,4.78,4.78,0,0,0-1.51-1.24,11.48,11.48,0,0,0-3.79-1.18c-.65-.12-1.34-.15-2-.22-.25,0-.64,0-1,0l-1,0a28.42,28.42,0,0,1-4.09-.45v-.1a28.42,28.42,0,0,1,4.09-.45,18.53,18.53,0,0,1,2.1,0c.7.15,1.38.24,2,.43A12.08,12.08,0,0,1,34,46.87a5.07,5.07,0,0,1,1.5,1.49,2.8,2.8,0,0,1,.42,2Z"/></g><g id="nosewrinkle2"><path d="M32.8,50.41a13.53,13.53,0,0,0-2.42-1.6,13.86,13.86,0,0,0-2.65-1.1h0a15.51,15.51,0,0,0-1.95-.22c-.66,0-1.31,0-2,0s-1.3-.05-2,0-1.33,0-2,0l0-.1a9.44,9.44,0,0,1,4-.91,11,11,0,0,1,2.06.19,18.85,18.85,0,0,1,2,.43h0a13.76,13.76,0,0,1,4.93,3.3Z"/></g><g id="nosewrinkle3"><path d="M15.39,49.51q3.38-.25,6.78-.3a22.87,22.87,0,0,1,3.41.06,12.52,12.52,0,0,1,1.69.31,3.57,3.57,0,0,1,1.61.76l-.08.07a6.61,6.61,0,0,0-1.62-.13l-1.68,0c-1.11,0-2.23-.18-3.35-.25q-3.37-.23-6.76-.4Z"/></g><g id="nostril1"><path d="M18.88,51.38A12.48,12.48,0,0,0,20,56.3a5.21,5.21,0,0,1,.52,2.57,10.44,10.44,0,0,1-.41,2.59l0,.14-.15,0a7.6,7.6,0,0,1-4-.14,2.2,2.2,0,0,1-1.39-1.67,4.67,4.67,0,0,1,0-1,8.28,8.28,0,0,1,.09-1,6.23,6.23,0,0,1,.57-1.95,3.14,3.14,0,0,1,.28-.46,1.77,1.77,0,0,1,.19-.23l.17-.17.68-.67c.45-.45.9-.9,1.32-1.38a4.47,4.47,0,0,0,1-1.55Zm0,0a2,2,0,0,1-.3.94,7.82,7.82,0,0,1-.51.84c-.37.54-.77,1.05-1.19,1.55l-.64.73-.17.17-.1.15c-.07.12-.14.25-.2.38a7.38,7.38,0,0,0-.45,1.75,8.61,8.61,0,0,0-.07,1.81,1.48,1.48,0,0,0,.92,1.19,6.89,6.89,0,0,0,3.62.24l-.19.17a10.12,10.12,0,0,0,.47-2.45,5.19,5.19,0,0,0-.38-2.41,9.61,9.61,0,0,1-.7-2.5,16.87,16.87,0,0,1-.19-2.56Z"/></g><g id="nostril2"><path d="M32.81,60.36a8.73,8.73,0,0,0,1.6-4.5,4.1,4.1,0,0,0-.61-2.25,2.08,2.08,0,0,0-.91-.64,7.75,7.75,0,0,0-1.13-.35,5.34,5.34,0,0,0-4.48.7c-.13.11,0,0-.05-.06s-.11-.07,0,0l.15.05.59.19A10.59,10.59,0,0,1,29.1,54,4,4,0,0,1,31,55.71a2,2,0,0,1,.1.35l0,.18s0,0,0,.1a1.6,1.6,0,0,1,0,.21l-.29.56a11.73,11.73,0,0,1-.65,1.07A8.73,8.73,0,0,1,28.42,60a8.36,8.36,0,0,1-4.74,1.69h-.52a.52.52,0,0,1-.4-.28.53.53,0,0,1,.12-.63l.05,0,.22-.21c.29-.28.57-.57.84-.86.55-.59,1.07-1.21,1.55-1.84a6.27,6.27,0,0,0,1.08-2.08,23.33,23.33,0,0,0,.18-2.41h.08c0,.83.14,1.6.08,2.47a6.53,6.53,0,0,1-1,2.31,16.09,16.09,0,0,1-1.5,2c-.27.31-.54.62-.82.92l-.21.22-.06.06h0a.22.22,0,0,0,0-.22.24.24,0,0,0-.16-.11h.09l.3,0A8.19,8.19,0,0,0,28,59.44a8,8,0,0,0,1.64-1.65c.23-.32.45-.65.65-1,.1-.17.19-.35.28-.52a.06.06,0,0,0,0,.06v-.17a1.05,1.05,0,0,0-.06-.24,3.36,3.36,0,0,0-1.61-1.49A8.1,8.1,0,0,0,27.76,54l-.56-.21-.14,0s-.24-.09-.27-.21a.42.42,0,0,1,0-.39c.1-.14.12-.11.17-.16a5.77,5.77,0,0,1,4.87-.69,7.32,7.32,0,0,1,1.19.42,2.32,2.32,0,0,1,1,.78,4.27,4.27,0,0,1,.58,2.41,8.77,8.77,0,0,1-1.76,4.54Z"/></g><g id="noseconnector"><path d="M20.23,57.63a4.06,4.06,0,0,0,2.05-.11,2.31,2.31,0,0,0,1.42-1.3A5.43,5.43,0,0,1,25,54.45a5.22,5.22,0,0,1,1.86-1.09l0,0a15.88,15.88,0,0,0-1.53,1.41,8.51,8.51,0,0,0-1.27,1.6,2.62,2.62,0,0,1-1.7,1.35,4.3,4.3,0,0,1-2.14-.08Z"/></g><g id="wrinke3"><path d="M19.83,21.33c1.48-.36,3-.67,4.45-.94A13.32,13.32,0,0,1,26.53,20a6.82,6.82,0,0,1,2.31.29v.1a11.35,11.35,0,0,1-2.21.6,15.37,15.37,0,0,1-2.25.15c-1.51.1-3,.18-4.53.25Z"/></g></g><g id="mouth"><g id="mouthouter"><path d="M15.61,74.58a39,39,0,0,0,5.4.13,8,8,0,0,0,2.57-.48,10.58,10.58,0,0,1,4-1.15,1.79,1.79,0,0,0,.56-.15l.61-.27A18.49,18.49,0,0,0,31,71.35a5.92,5.92,0,0,0,1.81-1.74,1.42,1.42,0,0,0-.32-1.89l0,0,0-.08a2.49,2.49,0,0,0-.66-.85.38.38,0,0,0-.54,0L31,66.9h-.19a7.33,7.33,0,0,1-1.5-.21,4.3,4.3,0,0,1-1.4-.6,1.92,1.92,0,0,0-.51-.22,3.32,3.32,0,0,0-.61-.05l-1.39,0c-1.86-.08-3.73-.18-5.59-.35v-.1c1.86-.17,3.73-.27,5.59-.35l1.39,0a3.08,3.08,0,0,1,.79,0,2.8,2.8,0,0,1,.8.27,5,5,0,0,0,2.43.62l-.37.15a1.44,1.44,0,0,1,1-.39,1.4,1.4,0,0,1,.92.31,3.19,3.19,0,0,1,.93,1.23L33.18,67a7.47,7.47,0,0,1,.48.63,2.5,2.5,0,0,1,.27.81,2.33,2.33,0,0,1-.38,1.57A7,7,0,0,1,31.42,72,17.66,17.66,0,0,1,29,73.25l-.64.27a2.34,2.34,0,0,1-.75.17,11.71,11.71,0,0,0-1.31.16,10.72,10.72,0,0,0-2.52.81,8.38,8.38,0,0,1-2.74.39,37.78,37.78,0,0,1-5.42-.37Z"/></g><g id="tongue"><path d="M29.84,70.42c-1.32.28-2.66.51-4,.66a9.43,9.43,0,0,1-2.06.1,4.69,4.69,0,0,1-1-.2,1.78,1.78,0,0,1-.93-.57l.06-.06a6.54,6.54,0,0,0,1.93.09c.66,0,1.32,0,2,0,1.34,0,2.69-.07,4-.14Z"/></g><g id="mouthinner"><path d="M21.66,69.37a7.44,7.44,0,0,0,1.25-1.85,4.89,4.89,0,0,0,.41-2.14h0a2.31,2.31,0,0,1,.14,1.14,3.73,3.73,0,0,1-.39,1.09,6.64,6.64,0,0,1-1.42,1.78Z"/></g><g id="upperlip"><path d="M12.13,63.53c3-.19,6-.34,9.08-.47,1.51-.07,3-.2,4.53-.15.77,0,1.5,0,2.3.13a4.12,4.12,0,0,1,1.17.34c.35.17.77.56.68,1h-.1a.82.82,0,0,0-.74-.57A3.7,3.7,0,0,0,28,63.73c-.72.08-1.5.13-2.25.17-1.51.09-3,0-4.54,0-3,0-6.05-.13-9.07-.23Z"/></g></g></g></svg>