<?xml version="1.0" encoding="utf-8"?>
<!-- Generator: Adobe Illustrator 23.0.6, SVG Export Plug-In . SVG Version: 6.00 Build 0)  -->
<svg version="1.1" id="guernica" xmlns="http://www.w3.org/2000/svg" xmlns:xlink="http://www.w3.org/1999/xlink" x="0px" y="0px"
	 viewBox="0 0 81.6 152.9" style="enable-background:new 0 0 81.6 152.9;" xml:space="preserve">
<style type="text/css">
    .st0{fill:white;}
	.st0:hover{fill:#AA5E2B; transition: fill 0.2s ease-in-out;}
</style>
<title>picIcon</title>
<g id="full">
	<g id="mouth">
		<g id="upperlip">
			<g id="XMLID_1_">
				<g>
					<path class="st0" d="M32.7,50.3c-1.4-1.5-3.1-2.5-4.9-3.2c-0.7-0.2-1.3-0.3-2-0.4c-0.7-0.1-1.4-0.2-2.1-0.2
						c-1.4,0-2.8,0.3-4,0.9v0.1c0.7,0,1.3,0,2,0c0.7-0.1,1.3,0,2,0c0.7,0,1.3,0,2,0c0.6,0,1.3,0.1,1.9,0.2c0.9,0.3,1.8,0.6,2.6,1.1
						C31.2,49.2,32,49.8,32.7,50.3C32.7,50.4,32.8,50.4,32.7,50.3L32.7,50.3C32.8,50.4,32.7,50.4,32.7,50.3z M27.3,53.3
						c1.3-0.9,2.9-1.1,4.4-0.7c0.4,0.1,0.8,0.2,1.1,0.4c0.4,0.1,0.7,0.3,0.9,0.6c0.4,0.7,0.6,1.5,0.6,2.3c-0.1,1.6-0.7,3.2-1.6,4.5
						l0,0.1c1-1.3,1.6-2.9,1.8-4.5c0.1-0.8-0.1-1.7-0.6-2.4c-0.3-0.4-0.6-0.6-1-0.8c-0.4-0.2-0.8-0.3-1.2-0.4
						c-1.6-0.5-3.4-0.3-4.9,0.7c0,0.1-0.1,0-0.2,0.2c0,0.1-0.1,0.2-0.1,0.2c-0.6,0.2-1.2,0.6-1.7,1c-0.5,0.5-1,1.1-1.3,1.8
						c-0.3,0.6-0.8,1.1-1.4,1.3c-0.6,0.2-1.2,0.2-1.8,0.1c-0.1-0.5-0.2-0.9-0.4-1.4c-0.7-1.5-1.1-3.2-1.1-4.9h0h-0.1
						c0,0,0,0.1,0,0.1c-0.2,0.5-0.5,1-0.9,1.4c-0.4,0.5-0.9,0.9-1.3,1.4L15.9,55l-0.2,0.2c-0.1,0.1-0.1,0.1-0.2,0.2
						c-0.1,0.1-0.2,0.3-0.3,0.5c-0.3,0.6-0.5,1.3-0.6,2c-0.1,0.3-0.1,0.7-0.1,1c0,0.3,0,0.7,0,1c0.1,0.8,0.7,1.4,1.4,1.7
						c1.3,0.4,2.7,0.5,4,0.1h0.2v-0.1c0.2-0.8,0.4-1.7,0.4-2.6c0-0.4,0-0.8-0.1-1.2c0.6,0.1,1.3,0.1,1.9,0c0.7-0.2,1.4-0.7,1.7-1.4
						c0.4-0.6,0.8-1.1,1.3-1.6c0.4-0.4,0.9-0.8,1.4-1.3c0,0,0,0.1,0,0.1c0,0.7-0.1,1.5-0.2,2.2c-0.2,0.8-0.6,1.5-1.1,2.1
						c-0.5,0.6-1,1.3-1.6,1.8c-0.3,0.3-0.5,0.6-0.8,0.9l-0.2,0.2h-0.1c-0.2,0.2-0.2,0.4-0.1,0.6c0.1,0.2,0.2,0.3,0.4,0.3h0.5
						c1.7-0.1,3.4-0.6,4.7-1.7c0.7-0.5,1.3-1.1,1.7-1.8c0.2-0.3,0.5-0.7,0.6-1.1l0.3-0.6c0-0.1,0-0.1,0-0.2c0-0.1,0-0.1,0-0.1v-0.2
						c0-0.1-0.1-0.2-0.1-0.4c-0.4-0.8-1.1-1.4-1.9-1.7c-0.4-0.2-0.7-0.4-1.1-0.5L27.3,53.3L27.3,53.3z M28.9,36.1
						c-0.8-0.1-1.7-0.1-2.5,0c-1.7,0.2-3.2,1-4.3,2.3c-0.6,0.6-1,1.3-1.3,2.1c0.8,0.9,1.6,1.6,2.6,2.2c1,0.7,2.2,1.1,3.4,1.1
						c0.6,0,1.2-0.1,1.8-0.3c0.6-0.2,1.1-0.4,1.6-0.7c1-0.5,2-1.3,2.9-2.1l0.2-0.2l-0.1-0.3c-0.3-0.4-0.6-0.8-0.9-1.2
						c-0.3-0.4-0.7-0.7-1-1.1c-0.7-0.7-1.5-1.3-2.3-1.8H28.9L28.9,36.1z M54.3,47.9c-0.3-0.4-0.6-0.7-1-1.1
						c-0.7-0.7-1.5-1.3-2.3-1.8h-0.1c-0.8-0.1-1.7-0.1-2.5,0c-1.7,0.2-3.2,1-4.3,2.3c-0.6,0.6-1,1.3-1.3,2.1
						c0.7,0.9,1.6,1.6,2.6,2.2c1,0.7,2.2,1.1,3.4,1.1c0.6,0,1.2-0.1,1.8-0.3c0.6-0.2,1.1-0.4,1.6-0.7c1-0.5,2-1.3,2.9-2.1l0.2-0.2
						l-0.1-0.3C54.9,48.7,54.6,48.3,54.3,47.9z M58.9,31.6c0.1-1.8,0.1-3.5,0-5.3l-0.1,0c-0.2,1.7-0.4,3.5-0.7,5.1
						c-0.2,0.9-0.4,1.7-0.5,2.5c-0.1,0.8-0.3,1.6-0.7,2.3v0.1c0.5-0.1,0.9-0.5,1.1-0.9c0.2-0.4,0.4-0.8,0.5-1.3
						C58.8,33.4,58.9,32.5,58.9,31.6z M58.8,38.3c-1.2,0-2.4,0-3.6,0c-0.6,0-1.2,0-1.7,0c-0.5,0-1,0-1.4-0.2
						c-0.6-0.4-1.2-0.6-1.9-0.6c-0.6-0.1-1.2-0.2-1.8-0.2c-1.2-0.1-2.4-0.1-3.6,0l0,0.1c1.2,0.1,2.4,0.2,3.5,0.4
						c0.6,0.1,1.2,0.2,1.7,0.3c0.5,0.1,1,0.3,1.4,0.6c0.3,0.3,0.6,0.4,1,0.5c0.3,0.1,0.6,0.1,0.9,0.2c0.6,0.1,1.2,0.1,1.8,0
						c1.2-0.1,2.4-0.4,3.5-0.8V38.3z M55.3,33.1v-0.6c0.1-2.9-0.1-5.9-0.1-8.8v-2.2v-0.3c0-0.2-0.1-0.4-0.2-0.5
						c-0.1-0.1-0.3-0.2-0.5-0.1c-0.2,0-0.3,0.2-0.4,0.3l-0.6,0.9c-0.8,1.3-1.5,2.5-2.3,3.8c-1.5,2.5-2.9,5.1-4.3,7.7l0,0
						c0.3,0.3,0.7,0.4,1,0.5c0.4,0.1,0.7,0.1,1.1,0.2c0.7,0.1,1.4,0.1,2.2,0.1c0.7,0,1.5-0.1,2.2-0.1l1.1-0.1h0.1
						c0.1,0,0.2-0.1,0.3-0.1C55.2,33.6,55.3,33.4,55.3,33.1z M51,43.4c0.4,0,0.7,0.1,1.1,0.2l1.1,0.2c0.3,0.1,0.6,0.2,0.9,0.4
						c1.3,0.7,2.3,1.9,2.8,3.2h0.1c0-0.8-0.2-1.6-0.7-2.3c-0.4-0.7-1-1.3-1.6-1.8c-0.4-0.3-0.8-0.5-1.2-0.6
						c-0.4-0.1-0.8-0.2-1.2-0.2c-0.4,0-0.8-0.1-1.2-0.1c-0.4,0-0.8,0-1.2,0c-1.6,0-3.1,0.3-4.6,0.9c-1.4,0.6-2.7,1.6-3.5,2.9l0,0.1
						c1-1.2,2.2-2,3.7-2.5c1.4-0.5,2.9-0.7,4.4-0.6C50.2,43.3,50.6,43.4,51,43.4z M28.8,20.3c-0.8-0.2-1.5-0.3-2.3-0.3
						c-0.8,0.1-1.5,0.2-2.3,0.4c-1.5,0.3-3,0.6-4.5,0.9l0,0.1c1.5-0.1,3-0.1,4.5-0.3c0.8,0,1.5,0,2.3-0.1
						C27.4,20.9,28.1,20.7,28.8,20.3L28.8,20.3z M28,63.7c0.4,0,0.7,0,1,0.1c0.3,0,0.6,0.2,0.7,0.6h0.1c0.1-0.4-0.3-0.8-0.7-1
						c-0.4-0.2-0.8-0.3-1.2-0.3c-0.8-0.1-1.5-0.1-2.3-0.1c-1.5,0-3,0.1-4.5,0.2c-2.9,0.1-5.7,0.3-8.5,0.4c-0.1-0.2-0.3-0.3-0.4-0.5
						c-0.5-0.7-0.8-1.5-0.9-2.4c-0.2-1.8,0.3-3.5,1.3-5c0.2-0.4,0.5-0.8,0.8-1.1c0.1-0.2,0.3-0.3,0.4-0.5c0.2-0.2,0.4-0.5,0.5-0.7
						l1.1-2.6c0.1-0.3,0.2-0.7,0.4-1c2.1,0.1,4.2,0.2,6.3,0.4c1.1,0.1,2.2,0.3,3.4,0.3h1.7c0.5,0,1.1,0,1.6,0.1l0.1-0.1
						c-0.5-0.4-1-0.7-1.6-0.8c-0.6-0.1-1.1-0.3-1.7-0.3c-1.1-0.1-2.3-0.1-3.4-0.1c-2.1,0-4.2,0.1-6.2,0.3c0.5-1.4,1.1-2.7,1.6-4.1
						c0.3-0.9,0.6-1.8,0.9-2.7c0.2-0.5,0.3-0.9,0.4-1.4L19,41c0-0.1,0.1-0.2,0.1-0.3c0-0.4,0-0.7-0.2-1c-0.2-0.3-0.4-0.5-0.7-0.7
						c-0.1-0.1-0.3-0.1-0.4-0.2l-0.3-0.1c-0.2,0-0.4-0.1-0.6-0.2c-0.2-0.1-0.4-0.2-0.6-0.3c-0.8-0.4-1.4-1-1.9-1.7
						c-0.5-0.7-0.9-1.5-1.3-2.3c-0.2-0.4-0.3-0.9-0.4-1.3l-0.2-0.7c-0.1-0.3-0.2-0.6-0.4-0.9c-0.1-0.1-0.3-0.3-0.4-0.4
						c0.5-0.3,0.9-0.8,1.1-1.3c0.4-0.8,0.7-1.6,0.8-2.4c0.3-1.5,0.4-3.1,0.3-4.6c0,0,0.1,0,0.1,0c0.4,0,0.5,0,0.8,0h0.3l0.1-0.3
						c0.5-0.8,1.2-1.4,2-1.7c0.9-0.4,1.8-0.8,2.7-1h0c0.6-0.2,1.3-0.3,1.9-0.4c0.7,0,1.4,0,2.1,0c1.4,0,2.8,0.1,4.3,0.2l2.1,0.2
						c0.1,0,0.2,0,0.3,0c-0.7,2.1-1,4.4-0.9,6.6c0.1,0.6,0.2,1.2,0.5,1.8c0.3,0.6,0.8,1.1,1.4,1.3c1.3,0.3,2.6,0.2,3.7-0.5
						c2.1-1.1,4-2.7,5.6-4.6c0.8-1,1.5-2,2.2-3c0.1,0.4,0.4,0.8,0.8,1c0.5,0.3,1.1,0.5,1.6,0.5c1.1,0.1,2.2-0.1,3.2-0.4l0.1,0
						c-0.1,0.3-0.2,0.5-0.4,0.8l0,0c0,0,0,0,0,0l0,0c-0.7,0.7-1.2,1.5-1.7,2.4c-0.6,1-1.1,2.1-1.5,3.2c-0.9,2.1-1.8,4.3-2.7,6.5
						l0.1,0l3.3-6.2c0.5-1,1.2-2,1.6-3.1c0.4-0.9,0.8-1.8,1.1-2.7l0.2,0.1c0.2-0.3,0.3-0.7,0.5-1c0.4-0.6,0.8-1.2,1.4-1.7
						c0.8-0.8,1.6-1.6,2.5-2.3c0.9-0.7,1.8-1.4,2.7-2c0.2-0.2,0.4-0.3,0.6-0.3c0.2,0,0.4,0,0.6,0.1c0.2,0.1,0.3,0.3,0.4,0.5
						c0.1,0.2,0.1,0.5,0.2,0.8c0.4,2.2,0.7,4.5,0.8,6.7c0,0.3,0,0.5,0,0.8c0,0.3,0,0.7,0.2,1c0.2,0.3,0.4,0.6,0.8,0.7
						c0.3,0.1,0.6,0.2,0.8,0.3l1.6,0.5l1.6,0.6c2.1,0.8,4.1,1.9,6,3.1c5.7,3.8,9.6,9.7,10.8,16.4c0.4,2.2,0.6,4.5,0.6,6.7
						c0,1.1-0.1,2.3-0.2,3.4c-0.1,0.6-0.1,1.1-0.2,1.7c0,0.3-0.1,0.5-0.1,0.9v0.9c-0.1,4.6-0.4,9.1-0.8,13.6
						c-0.2,2.3-0.4,4.5-0.7,6.8c-0.3,2.3-0.5,4.5-0.9,6.7c-0.4,2.2-1,4.4-1.9,6.5c-0.4,1-1,2-1.7,2.9c-0.6,0.9-1.6,1.4-2.8,1.5v0
						c0,0,0,0,0,0v0.3c0.1,0,0.2,0,0.4,0c0.8,0,1.5,0.3,2.2,0.8c0.7,0.6,1.2,1.3,1.6,2.1c0.3,0.8,0.6,1.7,0.7,2.6
						c0.1,0.9,0.1,1.8,0.2,2.7l0.7,11l0.7,10.9l0.4,5.5l0.1,1.4c0,0.2,0,0.4,0,0.7c0.1,0.2,0.2,0.5,0.3,0.6c0.5,0.8,0.7,1.7,0.7,2.6
						c0.3,3.2,0.4,6.4,0.4,9.6c0,0.4,0,0.8-0.1,1.2c0,0.4-0.1,0.8-0.3,1.1c-0.3,0.2-0.7,0.3-1.1,0.3c-0.4,0-0.8,0.1-1.2,0.1
						c-1.6,0-3.2-0.1-4.8-0.3c-0.8-0.1-1.7,0.1-2.2-0.7c-0.6-0.5-1.4-0.8-2.3-0.7c-0.4,0-0.8,0.2-1.2,0.2c-0.4,0-0.7-0.2-1-0.4
						c-0.3-0.2-0.6-0.5-0.9-0.8c-0.1-0.2-0.2-0.3-0.2-0.5c0-0.2,0.1-0.4,0.2-0.5c1.8-2.7,3.8-5.2,5.9-7.7c0.4-1.1,0.6-2.3,0.7-3.5
						c0.1-1.2,0.1-2.3,0.1-3.5c0-2.3-0.1-4.7-0.3-7c-0.1-1.2-0.2-2.3-0.3-3.5c-0.1-1.2-0.2-2.3-0.5-3.5c-0.2-1.2-0.5-2.3-0.7-3.4
						c-0.3-1.2-0.6-2.3-0.9-3.4C66.5,104.4,61.9,96,55.7,89c-3.1-3.5-6.7-6.6-10.5-9.3c-1.9-1.4-4-2.6-6.1-3.6
						C38.7,76,38.4,76,38.1,76l-0.9-0.1c-0.6-0.1-1.2-0.1-1.8-0.1c-1.2,0-2.4,0-3.6,0.2c-1.2,0.1-2.4,0.6-3.4,1.2
						c-1,0.5-2.1,0.8-3.2,0.9c-2.3,0.2-4.6,0.2-6.9,0L17.4,78c-0.2,0-0.4-0.1-0.6-0.2c-0.4-0.3-0.6-0.8-0.8-1.3
						c-0.1-0.6-0.2-1.3-0.1-1.9c1.7,0.2,3.4,0.3,5.1,0.3c0.9,0,1.8-0.1,2.7-0.4c0.8-0.4,1.6-0.7,2.5-0.8c0.4-0.1,0.9-0.1,1.3-0.2
						c0.3,0,0.5-0.1,0.8-0.2l0.6-0.3c0.8-0.3,1.6-0.8,2.4-1.3c0.8-0.5,1.6-1.2,2.1-2c0.3-0.5,0.4-1,0.4-1.6c0-0.3-0.1-0.6-0.3-0.8
						c-0.1-0.2-0.3-0.4-0.5-0.6c-0.2-0.4-0.5-0.8-0.8-1c-0.3-0.2-0.6-0.3-0.9-0.3c-0.3,0-0.6,0.1-0.8,0.2c-0.8,0-1.6-0.2-2.3-0.6
						c-0.3-0.1-0.5-0.2-0.8-0.3c-0.3,0-0.5,0-0.8,0h-1.4c-1.9,0.1-3.7,0.2-5.6,0.4v0.1c1.2,0.1,2.3,0.2,3.5,0.3
						c0,0.6-0.1,1.2-0.4,1.8c-0.2,0.5-0.5,1-0.9,1.4h-0.2c-0.9,0-1.9-0.1-2.8-0.2c-0.4-0.1-0.9-0.1-1.3-0.3c-0.2,0-0.3-0.1-0.5-0.2
						c0,0,0-0.1,0-0.1c0.1-0.2,0.2-0.3,0.3-0.5c0.2-0.3,0.3-0.6,0.3-0.9c0-0.7-0.4-1.3-1-1.5c-0.1-0.1-0.3-0.1-0.5-0.1h-0.4
						c-0.2,0-0.4-0.1-0.7-0.1c-0.4-0.1-0.9-0.2-1.3-0.4c-0.4-0.2-0.8-0.3-1.1-0.6c-0.1-0.1-0.2-0.2-0.3-0.3c2.8,0.1,5.6,0.2,8.3,0.2
						c1.5,0,3,0.1,4.5,0C26.5,63.9,27.3,63.8,28,63.7z M27.8,22.4v-0.1c-1-0.2-2-0.3-3-0.3c-1,0-2,0.2-3,0.3c-2,0.3-4,0.6-6,1v0.1
						l6-0.3c1,0,2,0,3-0.1C25.8,22.9,26.9,22.7,27.8,22.4z M23.2,35.1c1.5-0.5,3.1-0.7,4.7-0.5c0.4,0,0.7,0.1,1.1,0.2
						c0.3,0.1,0.6,0.3,1,0.5c0.7,0.4,1.4,0.8,2.1,1.2c1.4,0.8,2.6,1.8,3.8,2.9l0.1-0.1c-0.8-1.5-2-2.7-3.4-3.6
						c-0.7-0.5-1.4-0.9-2.2-1.2c-0.4-0.2-0.8-0.3-1.2-0.5c-0.4-0.1-0.9-0.2-1.3-0.2c-1.7-0.1-3.4,0.2-4.9,0.8
						c-1.5,0.6-2.9,1.5-4.1,2.7l0.2,0.1C20.2,36.4,21.6,35.6,23.2,35.1z M27.9,45.9c0.7,0.1,1.4,0.1,2,0.2c1.3,0.2,2.6,0.6,3.8,1.2
						c0.6,0.3,1.1,0.7,1.5,1.2c0.4,0.5,0.6,1.2,0.6,1.8l0.1,0c0.1-0.7,0-1.4-0.4-2c-0.4-0.6-0.9-1.1-1.5-1.5c-1.2-0.8-2.6-1.3-4-1.5
						c-0.6-0.2-1.3-0.3-2-0.4c-0.7,0-1.4,0-2.1,0c-1.4,0-2.7,0.2-4.1,0.5v0.1c1.4,0.3,2.7,0.4,4.1,0.5h1
						C27.3,45.9,27.7,45.9,27.9,45.9z"/>
					<path d="M72.9,99.3c-0.2,0.1-0.4,0.1-0.7,0.2c-0.1,0-0.2,0-0.3,0v-0.3C72.2,99.2,72.6,99.3,72.9,99.3z"/>
					<path d="M71.9,99.5c0.1,0,0.2,0,0.3,0C72.1,99.5,72,99.5,71.9,99.5l0-0.3c0,0,0,0,0,0V99.5z"/>
					<path d="M58.9,26.4c0.1,1.8,0.1,3.5,0,5.3c0,0.9-0.1,1.8-0.4,2.6c-0.1,0.4-0.3,0.9-0.5,1.3c-0.2,0.4-0.6,0.8-1.1,0.9v-0.1
						c0.4-0.7,0.6-1.5,0.7-2.3c0.1-0.8,0.4-1.6,0.5-2.5C58.4,29.8,58.6,28.1,58.9,26.4L58.9,26.4z"/>
					<path d="M54.5,49.1l-0.1,0.5c0-0.1-0.1-0.2-0.2-0.3C54.4,49.2,54.4,49.2,54.5,49.1z"/>
					<path d="M54.4,33c0,0-0.1,0.1-0.1,0.1L54.4,33L54.4,33L54.4,33z"/>
					<path d="M81,47.7c0.4,2.3,0.7,4.5,0.6,6.8c0,1.2-0.1,2.3-0.2,3.5c-0.1,0.6-0.1,1.1-0.2,1.7c0,0.3-0.1,0.6-0.1,0.8v0.9
						c-0.1,4.5-0.4,9.1-0.8,13.6c-0.2,2.3-0.5,4.5-0.7,6.8c-0.3,2.3-0.5,4.5-1,6.8c-0.4,2.2-1,4.4-1.9,6.5c-0.4,1.1-1,2.1-1.8,2.9
						c-0.5,0.7-1.2,1.2-2,1.4c-0.3-0.1-0.7-0.1-1-0.1v0c1.1-0.1,2.1-0.6,2.8-1.5c0.7-0.9,1.3-1.8,1.7-2.9c0.9-2.1,1.5-4.3,1.9-6.5
						c0.4-2.2,0.7-4.5,0.9-6.7c0.3-2.3,0.5-4.5,0.7-6.8c0.4-4.5,0.7-9,0.8-13.6v-0.9c0-0.4,0.1-0.6,0.1-0.9c0.1-0.5,0.2-1.1,0.2-1.7
						c0.1-1.1,0.2-2.3,0.2-3.4c0-2.3-0.2-4.5-0.6-6.7c-1.2-6.7-5.1-12.6-10.8-16.4c-1.9-1.2-3.9-2.3-6-3.1l-1.6-0.6l-1.6-0.5
						c-0.3-0.1-0.5-0.1-0.8-0.3c-0.3-0.1-0.6-0.4-0.8-0.7c-0.2-0.3-0.2-0.7-0.2-1c0-0.3,0-0.6,0-0.8c-0.1-2.3-0.4-4.5-0.8-6.7
						c0-0.3-0.1-0.6-0.2-0.8c-0.1-0.2-0.2-0.4-0.4-0.5c-0.2-0.1-0.4-0.2-0.6-0.1c-0.2,0.1-0.5,0.2-0.6,0.3c-0.9,0.6-1.8,1.3-2.7,2
						c-0.9,0.7-1.7,1.5-2.5,2.3c-0.5,0.5-1,1.1-1.4,1.7c0.3-0.7,0.7-1.5,1-2.3c0.8-0.8,1.6-1.6,2.5-2.3c0.9-0.7,1.8-1.4,2.8-2
						c0.3-0.2,0.6-0.3,0.9-0.4c0.4,0,0.7,0,1,0.2c0.3,0.2,0.5,0.5,0.6,0.8c0.1,0.3,0.1,0.6,0.2,0.9c0.4,2.2,0.7,4.5,0.8,6.8
						c0,0.3,0,0.6,0,0.9c-0.1,0.2,0,0.5,0.1,0.7c0.1,0.2,0.3,0.3,0.5,0.4c0.2,0.1,0.5,0.2,0.8,0.3l1.6,0.5l1.6,0.6
						c2.1,0.8,4.1,1.9,6,3.1C75.8,34.8,79.8,40.8,81,47.7z"/>
					<path d="M49.1,23.5c0.1-0.3,0.3-0.6,0.5-0.9C49.5,22.9,49.3,23.2,49.1,23.5l-0.2,0c0,0,0,0,0,0L49.1,23.5z"/>
					<path d="M49.2,22.9c-0.1,0.2-0.1,0.4-0.2,0.5l-0.3-0.1C48.8,23.1,48.9,23,49.2,22.9L49.2,22.9z"/>
					<path d="M50.6,20.4C50.6,20.4,50.6,20.3,50.6,20.4c-0.2,0.7-0.6,1.4-0.9,2.2c-0.2,0.3-0.4,0.6-0.5,0.9l-0.2-0.1
						c0.1-0.2,0.1-0.4,0.2-0.5l-0.1-0.1c-0.2,0.1-0.3,0.3-0.4,0.5l0,0C49,22.2,49.7,21.2,50.6,20.4z"/>
					<path d="M48.6,23.3l0.3,0.1c0,0,0,0,0,0L48.6,23.3C48.6,23.3,48.6,23.3,48.6,23.3z"/>
					<path d="M48.6,23.3C48.6,23.3,48.6,23.3,48.6,23.3L48.6,23.3C48.6,23.3,48.6,23.3,48.6,23.3L48.6,23.3z"/>
					<path d="M53.5,38.3c0.6,0,1.1,0,1.7,0c1.2,0,2.3,0,3.6,0v0.1c-1.1,0.4-2.3,0.7-3.5,0.8c-0.6,0.1-1.2,0.1-1.8,0
						c-0.3,0-0.6-0.1-0.9-0.2c-0.4-0.1-0.7-0.2-1-0.5c-0.4-0.3-0.9-0.5-1.4-0.6c-0.6-0.1-1.1-0.2-1.7-0.3c-1.2-0.2-2.4-0.3-3.5-0.4
						l0-0.1c1.2-0.1,2.4-0.1,3.6,0c0.6,0,1.2,0.1,1.8,0.2c0.7,0,1.3,0.3,1.9,0.6C52.5,38.3,53,38.4,53.5,38.3z"/>
					<path d="M48.8,51.8c0.4,0,0.8-0.1,1.1-0.2c0,0-0.1,0.1-0.1,0.1c-0.6,0.4-1.2,0.7-1.9,0.8v-0.1c0.3-0.2,0.6-0.4,0.8-0.6
						C48.7,51.8,48.8,51.8,48.8,51.8z"/>
					<path d="M53.4,34c-0.7,0-1.5,0.1-2.2,0.1c-0.7,0-1.5,0-2.2-0.1c-0.4,0-0.7-0.1-1.1-0.2c-0.4-0.1-0.8-0.2-1-0.5l0.1-0.1
						c0.7,0.3,1.4,0.4,2.1,0.3c0.7,0,1.5-0.1,2.2-0.2l2.2-0.3l1-0.1v0.1c0-0.1,0-0.1,0.1-0.1h0h0v-0.4c-0.1-2.9,0-5.9,0.1-8.8v-2.2
						v-0.3l-0.6,0.9c-0.8,1.2-1.6,2.5-2.4,3.7c-1.6,2.5-3.1,5-4.7,7.4c1.4-2.6,2.9-5.1,4.3-7.7c0.7-1.3,1.5-2.5,2.3-3.8l0.6-0.9
						c0.1-0.2,0.2-0.3,0.4-0.3c0.2,0,0.4,0,0.5,0.1c0.2,0.1,0.2,0.3,0.2,0.5v0.3v2.2c0,2.9,0.2,5.9,0.1,8.8v0.6
						c0,0.3-0.1,0.5-0.3,0.6c-0.1,0.1-0.2,0.1-0.3,0.1h-0.1L53.4,34z"/>
					<path d="M50.7,17.8c0.4,0.4,0.5,1,0.3,1.6c-0.1,0.3-0.2,0.6-0.3,0.9c0,0,0,0.1,0,0.1c0,0,0,0.1-0.1,0.1c-0.8,0.8-1.5,1.8-2,2.9
						l0,0c0.1-0.3,0.2-0.5,0.4-0.8c0.4-0.8,0.8-1.6,1.1-2.5c0.1-0.3,0.2-0.5,0.3-0.8c0.1-0.2,0.1-0.5,0-0.7c0-0.1-0.1-0.2-0.2-0.3
						l-0.3-0.4c-0.2-0.3-0.4-0.5-0.5-0.8c-0.2-0.3-0.3-0.5-0.5-0.8l-0.2-0.4c-0.1-0.2-0.2-0.3-0.2-0.5c0-0.2,0-0.3,0-0.4
						c0-0.1-0.1-0.2-0.1-0.3c-0.3-0.4-0.8-0.5-1.2-0.3c-0.2,0.1-0.3,0.3-0.4,0.5c-0.3,0.5-0.5,1.1-0.6,1.6v-0.1
						c0,0.4-0.1,0.9-0.4,1.3c-0.2,0.3-0.3,0.6-0.6,0.8c0.1-0.6,0.2-1.3,0.3-1.9v0c0,0,0-0.1,0-0.1v-0.1c0.1-0.6,0.3-1.2,0.6-1.8
						c0.2-0.3,0.4-0.6,0.7-0.8c0.7-0.4,1.5-0.1,2,0.5c0.1,0.2,0.2,0.3,0.2,0.5c0,0.2,0,0.4,0,0.5c0,0.1,0,0.2,0.1,0.3l0.2,0.4
						c0.2,0.3,0.3,0.5,0.5,0.8s0.3,0.5,0.5,0.7L50.7,17.8z"/>
					<path d="M45.8,51.4c0-0.1,0-0.2-0.1-0.3c0,0,0,0,0,0c0.1,0,0.1,0.1,0.2,0.1c0,0.1,0,0.1,0,0.2L45.8,51.4z"/>
					<path d="M50.5,46c0.4,0.1,0.8,0.4,1,0.7c0.2,0.4,0.4,0.8,0.4,1.3c0,0.4,0,0.8-0.1,1.1c-0.1,0.4-0.2,0.7-0.4,1
						c-0.2,0.3-0.4,0.7-0.7,0.9c-0.2,0.2-0.4,0.3-0.7,0.5c0,0,0,0,0,0c-0.4,0.1-0.7,0.2-1.1,0.2c-0.1,0-0.1,0-0.2,0
						c0.2-0.2,0.5-0.4,0.7-0.7l0.7-0.7c0.2-0.2,0.3-0.4,0.5-0.7c0.3-1.1,0.8-2.6-0.3-2.9c-1.2-0.3-2.5,0.1-3.3,1
						c-0.4,0.4-0.8,1-0.9,1.6c-0.1,0.6-0.2,1.2-0.1,1.8c-0.1,0-0.1,0-0.2-0.1c0,0,0,0,0,0c-0.1-0.6-0.1-1.1-0.1-1.7
						c0.1-0.7,0.4-1.4,0.9-1.9c0.5-0.5,1.1-0.9,1.7-1.2C48.9,45.9,49.7,45.8,50.5,46z"/>
					<path d="M52.1,43.6c-0.4-0.1-0.7-0.1-1.1-0.2c-0.4,0-0.7-0.1-1.1-0.1c-1.5-0.1-3,0.1-4.4,0.6c-1.4,0.5-2.7,1.3-3.7,2.5l0-0.1
						c0.9-1.3,2.1-2.3,3.5-2.9c1.4-0.6,3-0.9,4.6-0.9c0.4,0,0.8,0,1.2,0c0.4,0,0.8,0,1.2,0.1c0.4,0,0.8,0.1,1.2,0.2
						c0.4,0.1,0.8,0.3,1.2,0.6c0.6,0.5,1.2,1.1,1.6,1.8c0.5,0.7,0.7,1.5,0.7,2.3h-0.1c-0.5-1.4-1.5-2.5-2.8-3.2
						c-0.3-0.2-0.5-0.3-0.9-0.4L52.1,43.6z"/>
					<path d="M47.3,22.3c0.5,0,1,0,1.6,0l0,0.1c-1,0.4-2.1,0.5-3.2,0.4c-0.6,0-1.1-0.2-1.6-0.5c-0.4-0.2-0.7-0.6-0.8-1
						c0.1-0.1,0.1-0.2,0.2-0.4c0.3,0.2,0.7,0.4,1.1,0.5c0.4,0.2,0.9,0.4,1.3,0.5C46.3,22.2,46.8,22.3,47.3,22.3z"/>
					<path d="M44.6,18.1c0.5-0.4,0.8-1,0.9-1.6c-0.1,0.6-0.2,1.3-0.3,1.9c0,0,0,0,0,0L44.6,18.1z"/>
					<path d="M45.2,18.5C45.2,18.5,45.2,18.5,45.2,18.5C45.2,18.5,45.2,18.5,45.2,18.5L45.2,18.5z"/>
					<path d="M44.8,18.4L44.8,18.4c-0.1,0.4-0.2,0.6-0.4,0.9l-0.2,0.3l0.1-0.6C44.5,18.7,44.7,18.5,44.8,18.4z"/>
					<path d="M47.8,26.1c-0.5,1.1-1.1,2-1.6,3.1l-3.3,6.2l-0.1,0c0.8-2.2,1.7-4.4,2.7-6.5c0.4-1.1,0.9-2.2,1.5-3.2
						c0.5-0.9,1-1.6,1.7-2.4l0.3,0.1C48.6,24.4,48.2,25.2,47.8,26.1z"/>
					<path d="M55.3,49.4l-0.2,0.2c-0.8,0.8-1.8,1.5-2.9,2.1c-0.5,0.3-1.1,0.5-1.6,0.7c-0.6,0.2-1.2,0.3-1.8,0.3
						c-1.2,0-2.4-0.4-3.4-1.1c-1-0.6-1.8-1.3-2.6-2.2c0.3-0.8,0.8-1.5,1.3-2.1c1.1-1.2,2.6-2,4.3-2.3c0.8-0.1,1.7-0.1,2.5,0H51
						c0.8,0.5,1.6,1.1,2.3,1.8c0.4,0.3,0.7,0.7,1,1.1c0.3,0.4,0.6,0.8,0.9,1.2L55.3,49.4z M52.8,47.5c-0.7-0.7-1.4-1.3-2.1-1.8h0.1
						c-0.8-0.1-1.5-0.2-2.3-0.1c-0.8,0.1-1.5,0.3-2.3,0.6c-0.7,0.3-1.4,0.8-1.9,1.3c-0.5,0.6-1,1.2-1.4,1.9v0
						c0.9,0.6,1.8,1.2,2.8,1.7c0,0.1,0,0.2,0.1,0.3l0.1,0c0-0.1,0-0.1,0-0.2c0.9,0.4,1.8,0.6,2.7,0.6c-0.3,0.2-0.5,0.4-0.8,0.6v0.1
						c0.7-0.1,1.4-0.4,1.9-0.8c0.1,0,0.1-0.1,0.1-0.1c0,0,0,0,0,0c0.7-0.2,1.3-0.4,1.9-0.7c0.9-0.4,1.7-1,2.5-1.6
						c0.1,0.1,0.1,0.2,0.2,0.3l0.1-0.5c-0.1,0.1-0.2,0.1-0.3,0.2c-0.2-0.3-0.4-0.6-0.6-0.8C53.4,48.1,53.1,47.8,52.8,47.5z"/>
					<path d="M43.4,21c-0.1,0.1-0.1,0.2-0.2,0.4c-0.1-0.2-0.1-0.3-0.1-0.5h0.1C43.3,20.9,43.4,21,43.4,21z"/>
					<path d="M32.8,50.4L32.8,50.4C32.8,50.4,32.7,50.4,32.8,50.4C32.7,50.4,32.8,50.4,32.8,50.4z"/>
					<path d="M32.5,40.1l-0.1,0.5c0-0.1-0.1-0.2-0.2-0.3C32.4,40.2,32.4,40.2,32.5,40.1z"/>
					<path d="M30.9,19.4c0,0.1-0.1,0.3-0.1,0.4c-0.1,0-0.1,0-0.1,0C30.7,19.6,30.7,19.5,30.9,19.4L30.9,19.4z"/>
					<path d="M30.8,65.9l-0.4,0.1c0.1-0.1,0.1-0.1,0.2-0.2C30.7,65.9,30.8,65.9,30.8,65.9z"/>
					<path d="M40.2,23.7c1.4-1.5,2.8-3.2,4.1-4.8l-0.1,0.6l0.2-0.3c-0.3,0.6-0.7,1.2-1,1.7c-0.1,0-0.2-0.1-0.2-0.1h-0.1
						c0,0.2,0,0.3,0.1,0.5c-0.7,1-1.4,2.1-2.2,3c-1.5,1.9-3.4,3.4-5.6,4.6c-1.1,0.7-2.4,0.8-3.7,0.5c-0.6-0.2-1.1-0.7-1.4-1.3
						c-0.3-0.6-0.4-1.2-0.5-1.8c-0.1-2.3,0.2-4.5,0.9-6.6c0,0,0.1,0,0.1,0c-0.6,2.1-0.7,4.4-0.5,6.6c0.1,1.1,0.7,2.1,1.7,2.5
						c1.1,0.2,2.2,0,3.1-0.6C37,27,38.8,25.5,40.2,23.7z"/>
					<path d="M29.3,2.1c0,0.1,0,0.2,0,0.3L28.8,2C29,2,29.1,2,29.3,2.1z"/>
					<path d="M27.3,53.3C27.3,53.3,27.3,53.3,27.3,53.3c-0.2,0.1,0,0-0.1,0L27.3,53.3z"/>
					<path d="M26.9,53.4c0,0.1,0,0.2,0,0.3c0,0-0.1-0.1-0.1-0.1C26.8,53.5,26.8,53.5,26.9,53.4C26.8,53.4,26.8,53.4,26.9,53.4
						L26.9,53.4z"/>
					<path d="M26.9,53.4C26.9,53.4,26.9,53.4,26.9,53.4L26.9,53.4C26.8,53.4,26.8,53.4,26.9,53.4z"/>
					<path d="M26.8,53.4L26.8,53.4L26.8,53.4C26.8,53.4,26.8,53.4,26.8,53.4C26.8,53.4,26.8,53.4,26.8,53.4z"/>
					<path d="M26.7,53.4C26.8,53.4,26.8,53.4,26.7,53.4C26.8,53.4,26.8,53.4,26.7,53.4C26.8,53.4,26.8,53.4,26.7,53.4
						C26.8,53.5,26.7,53.4,26.7,53.4z"/>
					<path d="M26.8,53.6c0,0,0-0.1,0-0.1c0,0,0,0,0,0C26.8,53.5,26.8,53.5,26.8,53.6z"/>
					<path d="M26.8,42.8c0.4,0,0.8-0.1,1.1-0.2c0,0-0.1,0.1-0.1,0.1c-0.6,0.4-1.2,0.7-1.9,0.8v-0.1c0.3-0.2,0.6-0.4,0.8-0.6
						C26.7,42.8,26.8,42.8,26.8,42.8z"/>
					<path d="M28.8,20.4c-0.7,0.3-1.5,0.5-2.2,0.6c-0.8,0.1-1.5,0.2-2.3,0.1c-1.5,0.1-3,0.2-4.5,0.3l0-0.1c1.5-0.4,3-0.7,4.5-0.9
						c0.7-0.2,1.5-0.3,2.3-0.4C27.3,20,28.1,20.1,28.8,20.4L28.8,20.4z"/>
					<path d="M23.8,42.4c0-0.1-0.1-0.2-0.1-0.3c0,0,0,0,0,0c0.1,0,0.1,0.1,0.2,0.1c0,0.1,0,0.1,0,0.2L23.8,42.4z"/>
					<path d="M28.2,37.8c-1.2-0.3-2.5,0.1-3.3,1c-0.5,0.4-0.8,1-0.9,1.6c-0.1,0.6-0.2,1.2-0.1,1.8c-0.1,0-0.1,0-0.2-0.1c0,0,0,0,0,0
						c-0.1-0.6-0.1-1.1-0.1-1.7c0.1-0.7,0.4-1.4,0.9-1.9c0.5-0.5,1.1-1,1.7-1.2c0.7-0.3,1.5-0.4,2.2-0.2c0.4,0.1,0.8,0.4,1,0.7
						c0.2,0.4,0.3,0.8,0.4,1.2c0,0.8-0.1,1.5-0.5,2.2c-0.2,0.3-0.4,0.6-0.7,0.9c-0.2,0.2-0.5,0.3-0.7,0.5c-0.4,0.1-0.7,0.2-1.1,0.2
						c0,0-0.1,0-0.1,0c0.2-0.2,0.5-0.4,0.7-0.7c0.2-0.2,0.5-0.5,0.7-0.7c0.2-0.2,0.3-0.5,0.4-0.7C28.8,39.7,29.3,38.2,28.2,37.8z"/>
					<path d="M23.4,61.1c0-0.1-0.1-0.1-0.2-0.1h0.1h0.3c0,0,0.1,0,0.1,0c0,0,0,0-0.1,0.1l-0.2,0.2l-0.1,0.1c0,0,0-0.1,0-0.1
						S23.4,61.2,23.4,61.1z"/>
					<path d="M23.4,65.7c0,0-0.1,0-0.1,0c0-0.1,0-0.2,0-0.3C23.4,65.5,23.4,65.6,23.4,65.7z"/>
					<path d="M29.8,70.4c-1.3,0.3-2.7,0.5-4,0.7c-0.7,0.1-1.4,0.1-2.1,0.1c-0.3,0-0.7-0.1-1-0.2c-0.2,0-0.3-0.1-0.5-0.2v-0.4
						c0.5,0.1,1,0.1,1.5,0c0.7,0,1.3,0,2,0c1.3,0,2.7-0.1,4-0.1V70.4z"/>
					<path d="M27.9,34.7c-1.6-0.2-3.2,0-4.7,0.5c-1.5,0.5-3,1.2-4.2,2.3l-0.2-0.1c1.2-1.2,2.6-2.1,4.1-2.7c1.6-0.6,3.2-0.9,4.9-0.8
						c0.4,0,0.9,0.1,1.3,0.2c0.4,0.1,0.8,0.3,1.2,0.5c0.8,0.3,1.5,0.8,2.2,1.2c1.4,0.9,2.6,2.2,3.4,3.6l-0.1,0.1
						c-1.2-1.1-2.4-2-3.8-2.9c-0.7-0.4-1.4-0.8-2.1-1.2c-0.4-0.2-0.7-0.4-1-0.5C28.6,34.8,28.2,34.7,27.9,34.7z"/>
					<path d="M23.4,65.7l0,0.5c0,0.1,0,0.2,0,0.3c-0.1,0.4-0.2,0.8-0.4,1.1c-0.3,0.5-0.6,0.9-0.9,1.3h-0.1c0.3-0.4,0.6-0.9,0.9-1.4
						c0.3-0.6,0.4-1.2,0.4-1.8C23.4,65.7,23.4,65.7,23.4,65.7z"/>
					<path d="M28,59.4c0.6-0.5,1.2-1,1.6-1.6c0.2-0.3,0.5-0.7,0.7-1c0.1-0.2,0.2-0.3,0.3-0.5c0,0,0,0,0,0v-0.1v-0.1
						c0-0.1,0-0.2-0.1-0.2c-0.4-0.7-0.9-1.2-1.6-1.5c-0.4-0.2-0.8-0.3-1.1-0.4l-0.6-0.2h-0.1c0,0-0.1,0-0.2-0.1c0-0.1,0-0.2,0-0.3h0
						c0,0,0,0,0,0c0,0,0,0-0.1,0h0c0,0,0,0-0.1,0c0-0.1,0-0.2,0.1-0.2c0.1-0.1,0.1-0.1,0.2-0.2c1.4-0.9,3.2-1.2,4.9-0.7
						c0.4,0.1,0.8,0.3,1.2,0.4c0.4,0.2,0.8,0.4,1,0.8c0.4,0.7,0.6,1.6,0.6,2.4c-0.1,1.6-0.8,3.2-1.8,4.5l0-0.1
						c0.9-1.3,1.5-2.9,1.6-4.5c0-0.8-0.2-1.6-0.6-2.3c-0.2-0.3-0.5-0.5-0.9-0.6c-0.4-0.2-0.7-0.3-1.1-0.4c-1.5-0.4-3.1-0.2-4.4,0.7
						l-0.1,0c0-0.1-0.1-0.1,0,0c0.1,0.1-0.1,0.2,0.1,0.1c0,0,0,0,0,0l0,0l0.6,0.2c0.4,0.1,0.8,0.3,1.1,0.5c0.8,0.3,1.5,1,1.9,1.7
						c0,0.1,0.1,0.2,0.1,0.4v0.2c0,0,0,0,0,0.1c0,0.1,0,0.1,0,0.2l-0.3,0.6c-0.2,0.4-0.4,0.7-0.6,1.1c-0.5,0.7-1.1,1.3-1.7,1.8
						c-1.4,1-3,1.6-4.7,1.7h-0.5c-0.2,0-0.3-0.1-0.4-0.3c-0.1-0.2-0.1-0.5,0.1-0.6h0.1l0.2-0.2c0.3-0.3,0.6-0.6,0.8-0.9
						c0.6-0.6,1.1-1.2,1.6-1.8c0.5-0.6,0.8-1.3,1.1-2.1c0.1-0.7,0.1-1.5,0.2-2.2c0,0,0,0.1,0.1,0.1c0,0.7,0.1,1.4,0.1,2.1
						c-0.2,0.8-0.5,1.6-1,2.3c-0.4,0.7-0.9,1.4-1.5,2c-0.3,0.3-0.5,0.6-0.8,0.9c0,0-0.1,0-0.1,0h-0.3h-0.1c0.1,0,0.1,0.1,0.2,0.1
						c0,0,0,0.1,0,0.1s0,0.1,0,0.1l0.1-0.1l0.2-0.2c0,0,0,0,0.1-0.1C25.3,60.9,26.7,60.4,28,59.4z"/>
					<path d="M22.3,70.4v0.4c-0.2-0.1-0.3-0.2-0.4-0.4l0.1-0.1C22,70.4,22.2,70.4,22.3,70.4z"/>
					<path d="M29,63.8c-0.3-0.1-0.7-0.1-1-0.1c-0.7,0.1-1.5,0.1-2.3,0.2c-1.5,0.1-3,0-4.5,0c-2.8,0-5.5-0.1-8.3-0.2
						c-0.1-0.1-0.1-0.1-0.2-0.2c2.8-0.2,5.6-0.3,8.5-0.4c1.5-0.1,3-0.2,4.5-0.2c0.8,0,1.5,0,2.3,0.1c0.4,0,0.8,0.2,1.2,0.3
						c0.4,0.2,0.8,0.6,0.7,1h-0.1C29.7,64.1,29.4,63.8,29,63.8z"/>
					<path d="M22.1,68.9L22.1,68.9c-0.1,0.2-0.2,0.3-0.4,0.5l0,0C21.8,69.2,21.9,69.1,22.1,68.9z"/>
					<path d="M27.7,47.7c-0.6-0.1-1.3-0.2-1.9-0.2c-0.7,0-1.3,0-2,0c-0.7,0-1.3-0.1-2,0c-0.7,0-1.3,0-2,0v-0.1
						c1.3-0.6,2.6-0.9,4-0.9c0.7,0,1.4,0.1,2.1,0.2c0.7,0.1,1.3,0.3,2,0.4c1.8,0.7,3.5,1.8,4.9,3.2c-0.7-0.6-1.5-1.1-2.3-1.5
						C29.5,48.3,28.6,48,27.7,47.7z"/>
					<path d="M25.9,44.9c0.7,0,1.4,0,2.1,0c0.7,0.2,1.4,0.2,2,0.4c1.4,0.3,2.8,0.8,4,1.5c0.6,0.4,1.1,0.9,1.5,1.5
						c0.4,0.6,0.5,1.3,0.4,2l-0.1,0c0-0.7-0.2-1.3-0.6-1.8c-0.4-0.5-0.9-0.9-1.5-1.2c-1.2-0.6-2.5-1-3.8-1.2c-0.6-0.1-1.3-0.2-2-0.2
						c-0.3,0-0.6,0-1,0h-1c-1.4,0-2.7-0.2-4.1-0.5v-0.1C23.2,45.1,24.5,44.9,25.9,44.9z"/>
					<path d="M27.8,22.4c-1,0.3-2,0.5-3,0.6c-1,0.1-2,0.2-3,0.1l-6,0.3v-0.1c2-0.4,4-0.7,6-1c1-0.2,2-0.3,3-0.3c1,0,2,0.1,3,0.3
						V22.4z"/>
					<path d="M21.9,69.9l-0.4,0.4V70C21.6,69.9,21.7,69.9,21.9,69.9z"/>
					<path d="M21.4,69.8v-0.4l0.4,0.4C21.7,69.8,21.6,69.8,21.4,69.8z"/>
					<path d="M26.8,53.5c-0.6,0.5-1,0.9-1.4,1.3c-0.5,0.5-0.9,1-1.3,1.6c-0.3,0.7-1,1.2-1.7,1.4c-0.6,0.1-1.3,0.1-1.9,0c0,0,0,0,0,0
						c0.6,0.1,1.3,0,1.8-0.1c0.6-0.2,1.2-0.7,1.4-1.3c0.3-0.7,0.8-1.3,1.3-1.8C25.5,54,26.1,53.6,26.8,53.5
						C26.7,53.4,26.8,53.5,26.8,53.5z"/>
					<path d="M26.4,36.1c0.8-0.1,1.7-0.1,2.5,0h0.1H29c0.8,0.5,1.6,1.1,2.3,1.8c0.4,0.3,0.7,0.7,1,1.1c0.3,0.4,0.6,0.8,0.9,1.2
						l0.1,0.3l-0.2,0.2c-0.8,0.8-1.8,1.5-2.9,2.1c-0.5,0.3-1.1,0.5-1.6,0.7c-0.6,0.2-1.2,0.3-1.8,0.3c-1.2,0-2.4-0.4-3.4-1.1
						c-1-0.6-1.9-1.3-2.6-2.2c0.3-0.8,0.8-1.5,1.3-2.1C23.2,37.1,24.8,36.3,26.4,36.1z M27.9,42.6c0.7-0.2,1.3-0.4,1.9-0.7
						c0.9-0.4,1.7-1,2.5-1.6c0.1,0.1,0.1,0.2,0.2,0.3l0.1-0.5c-0.1,0.1-0.2,0.1-0.3,0.2c-0.2-0.3-0.4-0.6-0.6-0.8
						c-0.3-0.4-0.6-0.7-0.9-1c-0.7-0.7-1.4-1.3-2.1-1.8h0.1c-0.8-0.1-1.6-0.2-2.3-0.1c-0.8,0.1-1.5,0.3-2.3,0.6
						c-0.7,0.3-1.4,0.8-1.9,1.3c-0.6,0.6-1,1.2-1.4,1.9v0c0.9,0.6,1.8,1.2,2.8,1.7c0,0.1,0,0.2,0.1,0.3l0.1,0c0-0.1,0-0.1,0-0.2
						c0.9,0.4,1.8,0.6,2.8,0.6c-0.3,0.2-0.5,0.4-0.8,0.6v0.1c0.7-0.1,1.4-0.4,1.9-0.8C27.8,42.7,27.9,42.6,27.9,42.6z"/>
					<path d="M29.3,66.7c-0.5-0.1-1-0.3-1.4-0.6c-0.2-0.1-0.3-0.2-0.5-0.2c-0.2,0-0.4-0.1-0.6-0.1h-1.4c-0.6,0-1.3-0.1-2-0.1
						c0-0.1-0.1-0.2-0.1-0.4c0,0.1,0,0.2,0,0.3c-1.2-0.1-2.3-0.1-3.5-0.3v-0.1c1.9-0.2,3.7-0.3,5.6-0.4h1.4c0.3,0,0.5,0,0.8,0
						c0.3,0.1,0.5,0.1,0.8,0.3c0.7,0.4,1.5,0.6,2.3,0.6c-0.1,0-0.1,0.1-0.2,0.2l0.4-0.1c0,0-0.1,0-0.2,0c0.2-0.2,0.5-0.2,0.8-0.2
						c0.3,0,0.7,0.1,0.9,0.3c0.4,0.3,0.6,0.6,0.8,1c0.2,0.2,0.3,0.4,0.5,0.6c0.1,0.3,0.2,0.5,0.3,0.8c0.1,0.5-0.1,1.1-0.4,1.6
						c-0.6,0.8-1.3,1.5-2.1,2c-0.8,0.5-1.6,0.9-2.4,1.3l-0.6,0.3c-0.2,0.1-0.5,0.2-0.8,0.2c-0.4,0-0.9,0.1-1.3,0.2
						c-0.9,0.2-1.7,0.4-2.5,0.8c-0.9,0.3-1.8,0.4-2.7,0.4c-1.7,0-3.4-0.1-5.1-0.3c0,0,0-0.1,0-0.1c1.7,0.2,3.4,0.2,5.1,0.1
						c0.9,0,1.8-0.2,2.6-0.5c1.2-0.6,2.6-1,4-1.2c0.2,0,0.4-0.1,0.6-0.2l0.6-0.3c0.8-0.4,1.5-0.8,2.3-1.3c0.7-0.4,1.3-1,1.8-1.7
						c0.4-0.6,0.3-1.4-0.3-1.9v-0.1c-0.2-0.3-0.4-0.6-0.7-0.8c-0.1-0.2-0.4-0.2-0.5,0L31,66.9h-0.2C30.3,66.9,29.8,66.8,29.3,66.7z"
						/>
					<path d="M20.4,57.7C20.5,57.7,20.5,57.7,20.4,57.7c-0.1,0-0.1,0-0.2,0l0,0C20.3,57.7,20.4,57.7,20.4,57.7z"/>
					<path d="M19.8,61.1l-0.2,0.2c0,0,0-0.1,0-0.1C19.7,61.2,19.7,61.1,19.8,61.1z"/>
					<path d="M18.9,51.4L18.9,51.4c0,0.1,0,0.3-0.1,0.4c0-0.1,0-0.2,0-0.3C18.8,51.5,18.9,51.4,18.9,51.4z"/>
					<path d="M18.9,51.4c0,0,0,0.1-0.1,0.1C18.8,51.5,18.8,51.4,18.9,51.4L18.9,51.4z"/>
					<path d="M17.3,68.3C17.3,68.3,17.3,68.3,17.3,68.3C17.3,68.3,17.3,68.3,17.3,68.3C17.3,68.3,17.3,68.3,17.3,68.3z"/>
					<path d="M27.3,49.6c0.6,0.1,1.1,0.4,1.6,0.8l-0.1,0.1c-0.5-0.1-1.1-0.2-1.6-0.1h-1.7c-1.1,0-2.2-0.2-3.4-0.3
						c-2.1-0.1-4.2-0.3-6.3-0.4c0-0.1,0.1-0.1,0.1-0.2c2.1-0.2,4.1-0.2,6.2-0.3c1.1-0.1,2.3,0,3.4,0.1
						C26.1,49.3,26.7,49.4,27.3,49.6z"/>
					<path d="M15.9,49.5c0,0.1-0.1,0.1-0.1,0.2c-0.2,0-0.3,0-0.5,0v-0.1C15.6,49.5,15.8,49.5,15.9,49.5z"/>
					<path d="M15.9,74.6c0,0,0,0.1,0,0.1c-0.1,0-0.2,0-0.3,0l0-0.1C15.7,74.6,15.8,74.6,15.9,74.6z"/>
					<path d="M20,61.6c-1.3,0.3-2.7,0.3-4-0.1c-0.7-0.3-1.3-0.9-1.4-1.7c0-0.3,0-0.7,0-1c0-0.3,0-0.7,0.1-1c0.1-0.7,0.3-1.3,0.6-2
						c0.1-0.2,0.2-0.3,0.3-0.5c0.1-0.1,0.1-0.2,0.2-0.2l0.2-0.2l0.7-0.7c0.5-0.5,0.9-0.9,1.3-1.4c0.4-0.4,0.7-0.9,0.9-1.4
						c0,0.1,0,0.2,0,0.3c0,0.2-0.1,0.4-0.2,0.5c-0.1,0.3-0.3,0.6-0.5,0.8c-0.4,0.5-0.8,1-1.2,1.5l-0.6,0.7l-0.2,0.2L16,55.8
						c-0.1,0.1-0.1,0.3-0.2,0.4c-0.2,0.6-0.4,1.2-0.5,1.8c-0.1,0.6-0.1,1.2-0.1,1.8c0.1,0.5,0.4,1,0.9,1.2c1.1,0.4,2.3,0.5,3.5,0.3
						c0,0,0,0.1,0,0.1l0.2-0.2c-0.1,0-0.1,0-0.2,0c0.2-0.7,0.4-1.5,0.4-2.3c0.1-0.8-0.1-1.6-0.4-2.4c-0.4-0.8-0.6-1.6-0.7-2.5
						c-0.1-0.7-0.2-1.4-0.2-2.1c0-0.1,0.1-0.3,0.1-0.4c0,1.7,0.4,3.4,1.1,4.9c0.2,0.4,0.4,0.9,0.4,1.4c-0.1,0-0.1,0-0.2,0l0,0
						c0.1,0,0.2,0,0.2,0.1c0.1,0.4,0.1,0.8,0.1,1.2c0,0.9-0.2,1.8-0.4,2.6v0.1H20z"/>
					<path d="M14.6,22c0.1,0,0.2,0,0.2,0l-0.4,0.2C14.5,22.1,14.5,22,14.6,22z"/>
					<path d="M13.9,22.4c0,0.1,0,0.2,0,0.3c-0.1,0-0.1,0-0.2,0c0-0.1,0-0.2,0-0.3H13.9z"/>
					<path d="M12.9,63.7c-0.3,0-0.5,0-0.8,0l0-0.1c0.2,0,0.4,0,0.6,0C12.8,63.6,12.8,63.6,12.9,63.7z"/>
					<path d="M12,2.8c-0.1,0.1-0.2,0.2-0.4,0.2c-0.1-0.1-0.1-0.2-0.2-0.3L12,2.8z"/>
					<path d="M13.9,22.7c0.1,1.5,0,3.1-0.3,4.6c-0.1,0.9-0.4,1.7-0.8,2.4c-0.3,0.5-0.7,0.9-1.1,1.3c-0.1-0.1-0.3-0.1-0.4-0.2l-0.1,0
						c0.3-0.5,0.6-1,0.8-1.5c0.3-0.7,0.7-1.4,0.9-2.2c0.3-0.8,0.4-1.5,0.6-2.3c0.1-0.7,0.3-1.4,0.3-2.1
						C13.8,22.7,13.8,22.7,13.9,22.7z"/>
					<path d="M10.8,31.3c0.1-0.2,0.3-0.4,0.4-0.5l0.1,0c0.1,0,0.3,0.1,0.4,0.2C11.4,31.2,11.1,31.3,10.8,31.3L10.8,31.3z"/>
					<path d="M79.2,137.7c0.5,0.8,0.7,1.7,0.7,2.7c0.3,2.9,0.4,5.9,0.4,8.8c0,0.3,0,0.6,0,0.9c0,0.4,0,0.8-0.1,1.2
						c0,0.4-0.1,0.8-0.4,1.2c-0.3,0.2-0.8,0.4-1.2,0.4c-0.4,0.1-0.8,0.1-1.2,0.1c-1.6,0-3.2-0.1-4.8-0.3l-1.2-0.1
						c-0.4-0.1-0.8-0.3-1-0.6c-0.6-0.5-1.4-0.8-2.2-0.7c-0.4,0-0.8,0.1-1.2,0.1c-0.4,0-0.8-0.2-1.1-0.5c-0.4-0.2-0.7-0.5-0.9-0.9
						c-0.1-0.2-0.2-0.4-0.2-0.6c0-0.2,0.1-0.4,0.2-0.6c1.8-2.7,3.8-5.2,5.9-7.6l0,0c0.4-1.1,0.6-2.3,0.7-3.4
						c0.1-1.2,0.1-2.3,0.1-3.5c0-2.3-0.2-4.7-0.3-7c-0.1-1.2-0.2-2.3-0.3-3.5c-0.1-1.2-0.3-2.3-0.5-3.5c-0.2-1.1-0.5-2.3-0.8-3.4
						c-0.3-1.1-0.6-2.3-0.9-3.4c-2.6-9-7.3-17.3-13.6-24.3c-3.1-3.5-6.7-6.5-10.5-9.2c-1.9-1.3-3.9-2.5-6-3.4
						c-0.3-0.1-0.5-0.1-0.8-0.1l-0.9-0.1c-0.6,0-1.2-0.1-1.7-0.1c-1.2,0-2.3,0-3.4,0.2c-1.1,0.1-2.2,0.5-3.1,1.1
						c-1.1,0.6-2.3,0.9-3.5,1c-2.4,0.3-4.7,0.3-7.1,0.1l-0.9-0.1c-0.4,0-0.7-0.1-1-0.3c-0.5-0.4-0.9-1-1.1-1.7
						c-0.3-1.2-0.2-2.5,0.2-3.7c0.5-1.2,1.5-2.1,2.8-2.5c1-0.4,2.1-0.6,3.1-0.7v0.4l0.4-0.4c-0.1,0-0.3,0-0.4,0v-0.1
						c0.1,0,0.3,0,0.4,0l-0.4-0.4v0.4c-0.8,0-1.6-0.1-2.4-0.2c-0.5-0.1-1-0.1-1.5-0.3c-0.3-0.1-0.6-0.2-0.8-0.4
						c-0.2-0.2-0.3-0.4-0.3-0.7c0-0.2,0.1-0.4,0.1-0.5c0.1-0.2,0.3-0.4,0.4-0.6c0.1-0.1,0.1-0.3,0.1-0.4c0-0.3-0.2-0.6-0.4-0.7
						c-0.1,0-0.1,0-0.2-0.1c-0.1,0-0.2,0-0.3,0c-0.3,0-0.5-0.1-0.7-0.1c-0.5-0.1-1-0.2-1.4-0.4c-0.5-0.2-0.9-0.4-1.4-0.7
						c-0.4-0.3-0.7-0.7-1-1.2c-0.6-0.8-1-1.8-1.1-2.8c-0.2-2,0.3-4,1.5-5.7c0.3-0.4,0.5-0.8,0.8-1.2c0.1-0.2,0.3-0.4,0.5-0.6
						s0.2-0.2,0.3-0.4l1.1-2.6c0.7-1.7,1.4-3.5,2-5.2c0.3-0.9,0.6-1.8,0.9-2.6c0.1-0.4,0.3-0.9,0.4-1.3l0.1-0.3l0.1-0.3
						c0-0.1,0-0.3-0.1-0.4c-0.1-0.2-0.3-0.3-0.5-0.4l-0.4-0.1c-0.3,0-0.5-0.1-0.7-0.2c-0.2-0.1-0.5-0.2-0.7-0.3
						c-0.9-0.5-1.6-1.2-2.2-2c-0.6-0.8-1.1-1.7-1.4-2.6c-0.2-0.5-0.3-0.9-0.5-1.4c-0.1-0.2-0.1-0.5-0.2-0.7c0-0.2-0.1-0.3-0.2-0.4
						c-0.1-0.1-0.2-0.2-0.3-0.2l-0.7-0.1c-0.5-0.1-0.9-0.3-1.4-0.4C8,31,7.1,30.6,6.3,30.2C6,30.1,5.8,30,5.6,29.8
						c-0.2-0.2-0.4-0.4-0.6-0.6c-0.3-0.3-0.7-0.7-1-1c-0.6-0.7-1.2-1.5-1.8-2.3c-0.5-0.8-1-1.7-1.3-2.6c-0.4-0.9-0.6-1.9-0.8-2.8
						c-0.2-1-0.2-1.9-0.1-2.9c0.1-1,0.2-1.9,0.5-2.9c0.6-1.9,1.5-3.6,2.6-5.2C5.4,6.5,8.3,3.9,11.6,2l0.3-0.2l0.2,0.3
						c0.2,0.2,0.4,0.5,0.5,0.9c0.1,0.3,0.1,0.7,0,1c-0.1,0.3-0.3,0.6-0.5,0.8l-0.5,0.5C10.9,6,10.3,6.8,9.8,7.6
						c-1.1,1.6-1.6,3.6-1.5,5.5c0.2,1.9,1,3.8,2.2,5.4c0.6,0.8,1.3,1.5,2,2.2c0.4,0.3,0.8,0.7,1.1,1c0.1,0.1,0.3,0.2,0.5,0.2
						c0.1,0,0.3,0,0.5,0c-0.1,0.1-0.1,0.2-0.2,0.2l0.4-0.2c-0.1,0-0.2,0-0.2,0c0.3-0.4,0.6-0.7,0.9-1c0.4-0.3,0.9-0.6,1.3-0.9
						c0.9-0.5,1.9-0.8,2.9-1.1h-0.1c0.7-0.3,1.5-0.4,2.3-0.4c0.7,0,1.5,0,2.2,0c1.4,0,2.9,0.1,4.3,0.2l2.1,0.2
						c0.6,0.1,1.3-0.1,1.8-0.4c1.1-0.7,1.9-1.9,2.1-3.2v-0.1v-0.1c0.6-1.1,0.8-2.3,0.6-3.5c-0.2-1.3-0.6-2.5-1.2-3.6
						c-0.6-1.1-1.4-2.2-2.2-3.2c-0.4-0.5-0.9-0.9-1.4-1.3c-0.4-0.4-0.9-0.7-1.5-0.8h-0.4V2.4c0-0.3,0-0.6,0-0.9
						c0-0.4,0.1-0.8,0.4-1.1C29.1,0.1,29.5,0,29.9,0h1c2.2,0.2,4.4,0.8,6.5,1.6c2.1,0.9,3.9,2.2,5.3,4c1.4,1.8,2.3,3.9,2.6,6.1
						c0.3,1.6,0.3,3.1,0.2,4.7v0c-0.1,0.6-0.4,1.2-0.9,1.6l0.6,0.3c0,0.1-0.1,0.1-0.1,0.2l-0.6,0.6c0.1-0.3,0.3-0.6,0.4-0.9
						l-0.1-0.1c-0.2,0.2-0.3,0.4-0.5,0.6l0.1-0.6c0.4-2.1,0.5-4.3,0.1-6.4c-0.3-2.1-1.2-4.1-2.5-5.8c-1.4-1.7-3.1-3-5.1-3.8
						c-2-0.8-4.1-1.3-6.2-1.6H30c-0.2,0-0.4,0-0.6,0.1c-0.1,0.2-0.1,0.4-0.1,0.6c0,0.2,0,0.4,0,0.6C29.1,2,29,2,28.8,2l0.4,0.4
						c0-0.1,0-0.2,0-0.3c0.3,0,0.5,0.2,0.7,0.3c0.3,0.2,0.6,0.4,0.9,0.6c0.5,0.4,1,0.9,1.4,1.4c0.9,1,1.7,2.1,2.3,3.3
						c0.7,1.2,1.1,2.5,1.3,3.8c0.2,1.4,0,2.8-0.7,4.1v-0.1c-0.3,1.5-1.2,2.9-2.5,3.7c-0.6,0.4-1.2,0.6-1.9,0.6
						c0-0.1,0.1-0.3,0.1-0.4l-0.1,0c-0.1,0.1-0.1,0.3-0.1,0.4c-0.1,0-0.2,0-0.3,0l-2.1-0.2c-1.4-0.1-2.8-0.2-4.3-0.2
						c-0.7,0-1.4,0-2.1,0c-0.7,0-1.3,0.1-1.9,0.4h0c-0.9,0.2-1.8,0.6-2.7,1c-0.8,0.4-1.5,1-2,1.7l-0.1,0.3h-0.3c-0.3,0-0.5,0-0.8,0
						c0,0-0.1,0-0.1,0c0-0.1,0-0.2,0-0.3h-0.2c0,0.1,0,0.2,0,0.3c-0.2-0.1-0.4-0.2-0.6-0.3c-0.4-0.3-0.8-0.7-1.2-1
						c-0.8-0.7-1.5-1.5-2.1-2.3c-1.3-1.7-2.2-3.7-2.4-5.8C7.3,11.1,7.8,9,9,7.2c0.6-0.9,1.2-1.7,1.9-2.5l0.5-0.6
						c0.1-0.1,0.2-0.3,0.3-0.5c0.1-0.2,0-0.4-0.1-0.6c0.1-0.1,0.2-0.2,0.4-0.2l-0.6-0.1c0.1,0.1,0.2,0.2,0.2,0.3
						c-3,1.8-5.7,4.3-7.8,7.1C2.8,11.6,2,13.3,1.5,15c-0.5,1.8-0.6,3.6-0.4,5.4c0.3,1.8,1,3.5,2,5c0.5,0.8,1.1,1.5,1.7,2.2
						c0.3,0.4,0.6,0.7,0.9,1C5.9,28.7,6,28.9,6.2,29c0.2,0.1,0.4,0.2,0.6,0.3c0.8,0.4,1.7,0.8,2.6,1c0.4,0.1,0.9,0.3,1.3,0.4
						l0.6,0.1c-0.1,0.2-0.2,0.4-0.4,0.5l0.1,0.1c0.3-0.1,0.6-0.3,0.9-0.4c0.2,0.1,0.3,0.2,0.4,0.4c0.2,0.2,0.3,0.5,0.4,0.9l0.2,0.7
						c0.1,0.4,0.3,0.9,0.4,1.3c0.3,0.8,0.7,1.6,1.3,2.3c0.5,0.7,1.2,1.3,1.9,1.7c0.2,0.1,0.4,0.2,0.6,0.3c0.2,0.1,0.4,0.2,0.6,0.2
						l0.3,0.1c0.2,0,0.3,0.1,0.4,0.2c0.3,0.2,0.5,0.4,0.7,0.7c0.2,0.3,0.2,0.6,0.2,1c0,0.1-0.1,0.2-0.1,0.3l-0.1,0.3
						c-0.1,0.5-0.3,0.9-0.4,1.4c-0.3,0.9-0.6,1.8-0.9,2.7c-0.5,1.4-1,2.7-1.6,4.1c-0.2,0-0.4,0-0.6,0v0.1c0.2,0,0.3,0,0.5,0
						c-0.1,0.3-0.3,0.7-0.4,1l-1.1,2.6c-0.1,0.3-0.3,0.5-0.5,0.7c-0.1,0.2-0.3,0.3-0.4,0.5c-0.3,0.4-0.5,0.7-0.8,1.1
						c-1,1.5-1.5,3.2-1.3,5c0.1,0.9,0.4,1.7,0.9,2.4c0.1,0.2,0.2,0.3,0.4,0.5c-0.2,0-0.4,0-0.6,0l0,0.1c0.3,0,0.5,0,0.8,0
						c0.1,0.1,0.2,0.2,0.3,0.3c0.3,0.2,0.7,0.4,1.1,0.6c0.4,0.2,0.8,0.3,1.3,0.4c0.2,0,0.4,0.1,0.7,0.1h0.4c0.2,0,0.3,0.1,0.5,0.1
						c0.6,0.3,1,0.9,1,1.5c0,0.3-0.1,0.7-0.3,0.9c-0.1,0.2-0.3,0.3-0.3,0.5c0,0,0,0.1,0,0.1c0,0,0,0,0,0c0,0,0,0,0,0.1
						c0,0,0,0,0-0.1c0.1,0.1,0.3,0.2,0.5,0.2c0.4,0.1,0.9,0.2,1.3,0.3c0.9,0.1,1.8,0.1,2.8,0.2h0.2c-0.1,0.2-0.3,0.3-0.4,0.5l0,0
						c0.2-0.2,0.3-0.3,0.5-0.5h0.2v1.5c-0.1,0-0.3,0-0.4-0.1l-0.1,0.1c0.1,0.1,0.3,0.3,0.4,0.4v0h-0.5c-1.1,0-2.2,0.2-3.3,0.6
						c-1,0.3-1.9,1-2.3,2c-0.2,0.4-0.3,0.8-0.3,1.2c-0.1,0-0.2,0-0.3,0l0,0.1c0.1,0,0.2,0,0.3,0c-0.1,0.6-0.1,1.3,0.1,1.9
						c0.1,0.5,0.4,0.9,0.8,1.3c0.2,0.1,0.4,0.2,0.6,0.2l0.9,0.1c2.3,0.2,4.6,0.2,6.9,0c1.1-0.1,2.2-0.4,3.2-0.9
						c1-0.7,2.2-1.1,3.4-1.2c1.2-0.2,2.4-0.2,3.6-0.2c0.6,0,1.2,0,1.8,0.1l0.9,0.1c0.3,0,0.6,0.1,0.9,0.2c2.1,1,4.2,2.2,6.1,3.6
						c3.9,2.7,7.4,5.8,10.5,9.3c6.3,7,10.8,15.4,13.4,24.5c0.3,1.1,0.6,2.3,0.9,3.4c0.3,1.1,0.5,2.3,0.7,3.4
						c0.2,1.1,0.4,2.3,0.5,3.5c0.1,1.2,0.2,2.3,0.3,3.5c0.2,2.3,0.3,4.7,0.3,7c0,1.2,0,2.3-0.1,3.5c-0.1,1.2-0.3,2.3-0.7,3.5
						c-2.1,2.4-4.1,5-5.9,7.7c-0.1,0.2-0.2,0.4-0.2,0.5c0,0.2,0.1,0.4,0.2,0.5c0.2,0.3,0.5,0.6,0.9,0.8c0.3,0.3,0.6,0.4,1,0.4
						c0.4,0,0.8-0.1,1.2-0.2c0.8-0.1,1.7,0.2,2.3,0.7c0.5,0.8,1.4,0.5,2.2,0.7c1.6,0.1,3.2,0.3,4.8,0.3c0.4,0,0.8,0,1.2-0.1
						c0.4,0,0.8-0.1,1.1-0.3c0.2-0.3,0.3-0.7,0.3-1.1c0.1-0.4,0.1-0.8,0.1-1.2c0-3.2-0.1-6.4-0.4-9.6c0-0.9-0.2-1.8-0.7-2.6
						c-0.1-0.2-0.3-0.4-0.3-0.6c0-0.3,0-0.5,0-0.7l-0.1-1.4l-0.4-5.5l-0.7-10.9l-0.7-11c-0.1-0.9-0.1-1.8-0.2-2.7
						c-0.1-0.9-0.4-1.8-0.7-2.6c-0.3-0.8-0.9-1.6-1.6-2.1c-0.6-0.5-1.4-0.7-2.2-0.8c0.2,0,0.5-0.1,0.7-0.2c0.6,0.1,1.1,0.4,1.6,0.8
						c0.7,0.6,1.3,1.4,1.7,2.2c0.4,0.9,0.6,1.8,0.7,2.7c0.1,0.9,0.1,1.8,0.2,2.8l0.7,10.9l0.7,10.9l0.4,5.5l0.1,1.4
						c0,0.2,0,0.5,0,0.7C78.9,137.4,79.1,137.6,79.2,137.7z"/>
				</g>
				<g>
				</g>
			</g>
		</g>
	</g>
</g>
</svg>
