<svg id="dali" xmlns="http://www.w3.org/2000/svg" viewBox="0 0 175 121"><defs><style>.cls-1{fill:#876544;}.cls-2{fill:#6b4f30;}.cls-3{fill:#5ecce5;}.cls-4{fill:#88d3ea;}.cls-5{fill:#2d2d2d;}.cls-6{fill:none;stroke:#e8e85b;stroke-miterlimit:10;stroke-width:6px;}</style></defs><title>sdIcon</title><polygon id="deskUpper" class="cls-1" points="0 0 175 0 175 36 0 88 0 0"/><polygon id="deskLower" class="cls-2" points="0 121 0 88 175 36 175 121 0 121"/><path id="clockUpper" class="cls-3" d="M43,47c-5.78,2.52,12,0,25,25,13.4,4.84,6,27,.33,29.89C82.26,99.32,114.75,91.6,117.85,80c3.71-13.88,4.64-34.75,1.55-37.32-4-3.28-34.05-12.87-46.42-11.58S43,47,43,47Z"/><path id="clockLower" class="cls-4" d="M121.5,55.1l-53.24,14S69,88.25,67,94.67c-.36,6.69,1.08,5.2,9.33,8.57,7.83,3.21,44.49-12.08,44.62-19.85C122.48,75.6,123,57.61,121.5,55.1Z"/><path id="hands" class="cls-5" d="M83.13,58.22a2.82,2.82,0,0,1,2,3c-.6,4.72-.88,14.11.34,16.54S98.16,85.4,100.7,74s3.81-20.3,0-24.1-9-7.91-15.22-6.35C80.4,44.8,71.38,54.69,83.13,58.22Z"/><path id="rim" class="cls-6" d="M66,66l2,28.32a9.16,9.16,0,0,1,0,1.17c-.2,1.86,3.2,5.08,11.07,6.51,11,2,42-3,42-26-1-23.88,11-42-34-45-.51,0-3.24.1-3.75.14C71.89,32.07,21.48,43.31,51.5,54.5,61.93,58,59.4,56.72,63,60,64.19,61.08,66,64.39,66,66Z"/></svg>