<?xml version="1.0" encoding="utf-8"?>
<!-- Generator: Adobe Illustrator 23.0.6, SVG Export Plug-In . SVG Version: 6.00 Build 0)  -->
<svg version="1.1" id="dali" xmlns="http://www.w3.org/2000/svg" xmlns:xlink="http://www.w3.org/1999/xlink" x="0px" y="0px"
	 viewBox="0 0 175 121" style="enable-background:new 0 0 175 121;" xml:space="preserve">
<style type="text/css">
	.st0{fill:#876544;}
	.st1{fill:#6B4F30;}
    .st2{fill:white; stroke: black; stroke-width: 3px;}
	.st2:hover{fill:#51D0E5; transition: fill 0.2s ease-in-out;}
	.st3{fill:#2D2D2D;}
	.st4{fill:none;stroke:#E8E85B;stroke-width:6;stroke-miterlimit:10;}
	svg{cursor: pointer;}
</style>
<title>sdIcon</title>
<polygon id="deskUpper" class="st0" points="0,0 175,0 175,36 0,88 "/>
<polygon id="deskLower" class="st1" points="0,121 0,88 175,36 175,121 "/>
<path id="clockUpper" class="st2" d="M45.2,45.8c-3.1,2.4,8.4,6.1,16.6,9c4.3,1.5,4.9,5.6,7.2,9.4c0.2,0.3,0.3,10.7,0.3,10.7
	c0.7,0.3,1.1,20.2,0.9,20.6c-0.5,0.8,6.8,2.8,11.8,3.6c3.3,0.5,4.6,0,5.5,0c2.4,0.1,7.6-0.4,11.4-1.6c3.1-1,5-2.7,6.7-3.3
	c9.5-3.7,11.6-11.8,12.3-14.2c1.6-13,2.2-31.8-2.1-38c-9.7-5.4-12.6-6-26.4-7.8c-5.7-0.8-11.8,1.5-15.5,1.8
	c-11.7,1.2-23.4,6.5-25.2,8C48.5,44.1,45.3,45.8,45.2,45.8z"/>
<path id="hands" class="st3" d="M83.1,58.2c1.3,0.4,2.1,1.6,2,3c-0.6,4.7-0.9,14.1,0.3,16.5s12.7,7.6,15.2-3.8s3.8-20.3,0-24.1
	s-9-7.9-15.2-6.3C80.4,44.8,71.4,54.7,83.1,58.2z"/>
<path id="rim" class="st4" d="M66,66l2,28.3c0,0.4,0,0.8,0,1.2c-0.2,1.9,3.2,5.1,11.1,6.5c11,2,42-3,42-26c-1-23.9,11-42-34-45
	c-0.5,0-3.2,0.1-3.8,0.1c-11.4,0.9-61.8,12.2-31.8,23.4C61.9,58,59.4,56.7,63,60C64.2,61.1,66,64.4,66,66z"/>
</svg>
