<svg id="afternoon" xmlns="http://www.w3.org/2000/svg" viewBox="0 0 512 475.02">
<defs><style>
.cls-1{fill:#4596d8;}
.cls-2{fill:#e8e8e8;}
.cls-3{fill:#e0e0e0;}
.cls-3,.cls-4,.cls-5,.cls-6{stroke:#000;stroke-miterlimit:10;}
.cls-4{fill:#c5e1ef;}
.cls-5{fill:#caccca;}
.cls-6{fill:#70c480;}
.cls-7{fill:white; stroke: black;}
.cls-7:hover{fill:#0fbc30; transition: fill 0.2s ease-in-out;}
.cls-8{fill:#9b6121;}
.cls-9{fill:#562f15;}
.cls-10{fill:#07a521;}
.cls-11{fill:#666;}
.cls-12{fill:#e5e185;}
.cls-13{fill:#eab932;}
.cls-14{fill:#3b9dff;}
svg{cursor: pointer;}
</style></defs>

<title>seuIcon</title><g id="full"><path id="lake" class="cls-1" d="M0,369.49s69.52-18.43,190.83-12.17,177.65,7,217.56-1.3S512,350,512,350V475s-1-12.7-29.71-13.2H29.71S2.61,461.36,0,475Z"/><path id="wave3" class="cls-2" d="M427.8,372.86h52.59a7.67,7.67,0,0,1,7.67,7.67h0a7.66,7.66,0,0,1-7.67,7.67H427.8a7.66,7.66,0,0,1-7.67-7.67h0A7.67,7.67,0,0,1,427.8,372.86Z"/><g id="boat"><polygon id="sailSml" class="cls-3" points="335.38 333.44 358.55 375.84 335.38 375.84 335.38 333.44"/><path id="sailLrg" class="cls-4" d="M335.38,325.55s-3.45-1.48-4.93,6.41-17.26,43.88-17.26,43.88h22.19Z"/><rect id="middle" class="cls-5" x="313.19" y="375.84" width="45.36" height="5.92"/><path id="base" class="cls-6" d="M307.27,381.75s-3.94,1-2,4.44c0,0,4.44,6.9,6.9,6.9h48.32s5.43-4.93,5.92-5.91,3-3.95,0-5.43Z"/></g><path id="wave2" class="cls-2" d="M171.45,412.37h40.68a5.93,5.93,0,0,1,5.93,5.93h0a5.92,5.92,0,0,1-5.93,5.93H171.45a5.93,5.93,0,0,1-5.93-5.93h0A5.94,5.94,0,0,1,171.45,412.37Z"/><path id="wave1" class="cls-2" d="M14.51,380.72h36A5.25,5.25,0,0,1,55.71,386h0a5.25,5.25,0,0,1-5.24,5.24h-36A5.25,5.25,0,0,1,9.26,386h0A5.25,5.25,0,0,1,14.51,380.72Z"/><g id="tree3"><path id="leaves3" class="cls-7" d="M113.45,369.18H53.85a22.27,22.27,0,0,1-22.21-24l10.54-136A22.29,22.29,0,0,1,64.4,188.6H114a22.29,22.29,0,0,1,22.22,20.56l3.91,50.51h-3.62a16.25,16.25,0,0,0-16.2,15l-3.85,49.76-1-.08Z"/><g id="branch3"><polygon id="branchlower3" class="cls-8" points="111.7 320.62 119.11 328.03 94.43 352.71 94.43 450.35 83.94 450.35 83.94 327.08 59.27 302.4 66.68 294.99 83.94 312.25 83.94 280.25 94.43 280.25 94.43 292.44 111.7 275.19 119.11 282.6 94.43 307.27 94.43 337.88 111.7 320.62"/><polygon id="branchupper3" class="cls-9" points="111.7 320.62 119.11 328.03 94.43 352.71 94.43 376.51 83.94 376.51 83.94 327.08 59.27 302.4 66.68 294.99 83.94 312.25 83.94 280.25 94.43 280.25 94.43 292.44 111.7 275.19 119.11 282.6 94.43 307.27 94.43 337.88 111.7 320.62"/></g></g><g id="tree2"><path id="leaves2" class="cls-7" d="M194.78,382.27a16.2,16.2,0,0,1-14.5,8.94H128.8a16.21,16.21,0,0,1-16.18-17.49l.35-4.54,3.47-44.77,3.85-49.76a16.25,16.25,0,0,1,16.2-15H172.6a16.23,16.23,0,0,1,16.18,15l7.69,99.07A16,16,0,0,1,194.78,382.27Z"/><g id="branch2"><polygon id="branchlower2" class="cls-8" points="173.34 346.94 159.79 354.69 159.79 450.35 149.3 450.35 149.3 354.77 134.88 346.32 140.19 337.28 149.3 342.62 149.3 326.44 159.79 326.44 159.79 342.61 168.14 337.83 173.34 346.94"/><polygon id="branchupper2" class="cls-9" points="173.34 346.94 159.79 354.69 159.79 373.01 149.3 373.01 149.3 354.77 134.88 346.32 140.19 337.28 149.3 342.62 149.3 326.44 159.79 326.44 159.79 342.61 168.14 337.83 173.34 346.94"/></g></g><g id="tree1"><path id="leaves1" class="cls-7" d="M446.85,369.18H411.51a22.29,22.29,0,0,1-22.22-24l10.55-136a22.3,22.3,0,0,1,22.22-20.57h49.58a22.27,22.27,0,0,1,22.21,20.57l10.55,136a22.29,22.29,0,0,1-22.22,24Z"/><g id="branch1"><polygon id="branchlower1" class="cls-8" points="476.76 302.4 452.09 327.08 452.09 450.35 441.6 450.35 441.6 352.71 416.93 328.03 424.34 320.62 441.6 337.88 441.6 307.27 416.93 282.6 424.34 275.19 441.6 292.44 441.6 280.25 452.09 280.25 452.09 312.25 469.36 294.99 476.76 302.4"/><polygon id="branchupper1" class="cls-9" points="476.76 302.4 452.09 327.08 452.09 382.33 441.6 382.33 441.6 352.71 416.93 328.03 424.34 320.62 441.6 337.88 441.6 307.27 416.93 282.6 424.34 275.19 441.6 292.44 441.6 280.25 452.09 280.25 452.09 312.25 469.36 294.99 476.76 302.4"/></g></g><g id="grass"><path id="grassupper" class="cls-7" d="M512,475H0a29.62,29.62,0,0,1,3.63-14.24A30.28,30.28,0,0,1,8.7,454a29.6,29.6,0,0,1,21-8.7H482.29A29.68,29.68,0,0,1,512,475Z"/><path id="grasslower" class="cls-10" d="M512,475H0a29.62,29.62,0,0,1,3.63-14.24H508.37A29.62,29.62,0,0,1,512,475Z"/></g><path id="bird" class="cls-11" d="M416.89,69.78c-.62.74-1.21,1.51-1.76,2.3a28.24,28.24,0,0,0-4-4.77c-7.38-6.94-17.43-10.51-27.43-7.79a60.22,60.22,0,0,1,8.84,3.74,34.75,34.75,0,0,1,10.37,9,30.78,30.78,0,0,1,6.34,16.43c0,.48-.18,1.71.07,2.11,0,0,0,0,0,0s0,.23,0,.34A5.88,5.88,0,0,0,416.43,97c3.06-.68,4.47-3.32,4.49-6.19a31.25,31.25,0,0,0,.37-4,32.82,32.82,0,0,1,17.25-23.92,77.61,77.61,0,0,1,8.06-3.33C435.54,56.44,424.1,61.23,416.89,69.78Z"/><circle id="sunOuter" class="cls-12" cx="161.56" cy="63.64" r="63.64"/><path id="suninner" class="cls-13" d="M161.57,11.78a51.87,51.87,0,1,1-51.86,51.86A51.85,51.85,0,0,1,161.57,11.78Z"/><path id="clouds" class="cls-14" d="M303.17,110.7a17.9,17.9,0,0,1-12.67,30.57H187.12a17.92,17.92,0,0,1,0-35.83H161.2a17.91,17.91,0,1,1,0-35.81h61.74a17.91,17.91,0,1,1,0,35.81H290.5A17.83,17.83,0,0,1,303.17,110.7Z"/></g></svg>