<svg id="snIcon" xmlns="http://www.w3.org/2000/svg" viewBox="0 0 137 137"><defs><style>
.cls-1{fill:#e2d429;}
.cls-2{fill:white;stroke:black;stroke-miterlimit:10;stroke-width:1px;}
.cls-2:hover{fill: #ff8e00; stroke-width:0.5px; transition: fill 0.2s ease-in-out;}
.cls-3{fill:#db5f1b;}
</style></defs>
<title>snIcon</title><circle id="glow" class="cls-1" cx="68.5" cy="68.5" r="68.5"/><path id="venus" class="cls-2" d="M43.68,121.41a57.48,57.48,0,0,1-28.43-76c9.09-19.95,32.34-34.29,54.26-35,1,0,3.72.53,4.06,1.45S71.81,14.35,71.05,15C64.77,20.12,55.9,27.38,52.51,34.8a52.88,52.88,0,0,0,26.16,70c7.5,3.42,20.47,1.12,28.67.85,1,0,2,2.93,1.43,3.7a24.31,24.31,0,0,1-2.52,3.22C89.19,126.51,63.75,130.55,43.68,121.41Z"/><path id="star1" class="cls-3" d="M97.69,24l-5.9,6,1.7,8.24L86,34.45l-7.31,4.16,1.26-8.31L73.7,24.63,82,23.26l3.46-7.67,3.87,7.47Z"/><path id="star2" class="cls-3" d="M71,58.18l4.43,3.74L81,60.31l-2.18,5.36,3.25,4.79-5.78-.41-3.55,4.57L71.34,69,65.9,67,70.81,64Z"/><path id="star3" class="cls-3" d="M103.45,80.21l.14,5.79,4.9,3.09L103,91l-1.43,5.61L98.08,92l-5.78.37,3.28-4.77-2.13-5.38L99,83.91Z"/></svg>