<svg id="teresa" xmlns="http://www.w3.org/2000/svg" viewBox="0 0 608.93 613">
<defs><style>
.cls-1{fill:white;stroke:black;stroke-miterlimit:10;stroke-width:2px;}
#full:hover > #outline{fill: #b5b5b5; transition: fill 0.2s ease-in-out;}
</style></defs>
<title>stIcon</title><g id="full"><path id="winginner" class="cls-1" d="M165.46,225.5a26.39,26.39,0,0,1,1-7,28.4,28.4,0,0,1,2.85-5.76,1.24,1.24,0,0,0,.18-.53c.21-1.82,1.28-11.65.58-15.69a1.32,1.32,0,0,0-.41-.66,2.39,2.39,0,0,1-.46-1.15,1.3,1.3,0,0,0-2.15-.67,12.25,12.25,0,0,1-5.09,3c-3.75.94-8.38,1.87-13.06.34a1.29,1.29,0,0,0-1.44.46,15.49,15.49,0,0,1-3.06,2.89,1.31,1.31,0,0,0-.51.86c-.21,1.83.47,9.45-1.93,9.45h-1s-1.06-.52-1-1c.21-1.74.82-4.5,1.39-7A1.29,1.29,0,0,0,140,201.4a5.57,5.57,0,0,1-3-.4,3,3,0,0,1-1.7-.74,1.3,1.3,0,0,0-.75-.27,7.56,7.56,0,0,1-3.31-.79,1.27,1.27,0,0,0-.74-.2h-3.28a1.14,1.14,0,0,1-.44-.08c-1.07-.39-5.78-2.26-5.78-4.92,0-3,6-12,6-12s1-2,0-2a5.53,5.53,0,0,0-2.48,1.51,1.3,1.3,0,0,1-1.14.29A2,2,0,0,0,121,183c-1,2-5,6-5,12v8.38a1.28,1.28,0,0,1-.47,1c-1.25,1-4.53,3.81-4.53,4.62,0,1,8.37,1,11.66-.79a1.26,1.26,0,0,1,.78-.18c3.16.41,16.86,4.27,23.5,9.92l.12.11a9.79,9.79,0,0,1,1.74,2.22,1.3,1.3,0,0,1-.86,1.86l-.22.07a.81.81,0,0,0-.35,1.24A58,58,0,0,1,151,230a14.56,14.56,0,0,0,1.7,2.67,1.27,1.27,0,0,1,.3.83v4.34a1.17,1.17,0,0,1,0,.32,40.76,40.76,0,0,1-1.85,5.62,1,1,0,0,0-.12.42c-.14,2.37-2.37,14.28-4.23,18.51a1.28,1.28,0,0,1-2.1.39,16.18,16.18,0,0,1-1.49-1.86,1.42,1.42,0,0,0-.43-.38c-1.15-.61-5.74-3.24-5.74-5.86a13.08,13.08,0,0,1,.64-4.09,1.29,1.29,0,0,0-.51-1.49l-1.27-.85a1.29,1.29,0,0,0-1.59.12c-.65.58-1.69,1.47-3,2.43a1.3,1.3,0,0,0-.16,2L135,257c1,1,2.87,1,4.81,4.63a1.33,1.33,0,0,0,.54.56c2,1.15,4.65,4,4.65,6.81a11.69,11.69,0,0,1-1.52,5.18,1.56,1.56,0,0,1-1.38.82H141s-1,1,1,1c.89,0,4.17.8,5.58,2.39a1.39,1.39,0,0,0,1.49.42A4.91,4.91,0,0,0,152,274a12.46,12.46,0,0,1,2-5.95l.06-.11c.45-.94,6.32-12.94,15-12.94s9,0,10.86-3.72a1.35,1.35,0,0,0,.14-.59V245.1a1.34,1.34,0,0,1,0-.2c.12-.73,1-5.36,3.57-7.23a1.28,1.28,0,0,0,0-2.06c-1.27-1-3.36-1.87-7.07-.77a1.26,1.26,0,0,1-1-.08C172.84,233.36,165,228.78,165.46,225.5Z"/><path id="outline" class="cls-1" d="M573,460c1-4,4-9.95,4-13a.15.15,0,0,1,0-.07c.9-2.65,7.57-17.58,9.48-21.84a4.09,4.09,0,0,0,.3-2.39c-.56-3.31-2.17-12.12-3.79-13.74s-1.31-7.47-1.13-10.39a.74.74,0,0,1,1.26-.47l2.41,2.4a.74.74,0,0,0,1.26-.58c-.23-2.71-.5-7.27.2-8,.93-.93,8.82-14,18.81-17.43a3.24,3.24,0,0,0,2.1-3.69,79,79,0,0,0-2.75-9.43.7.7,0,0,0-.62-.47c-1.24-.09-4.54-.54-4.54-3,0-3-1-4-1-4s-4.52-6.32-5-11.24a3.54,3.54,0,0,0-.66-1.74,67,67,0,0,0-5.35-6l0-.06c-.37-.68-6.05-11.07-8-14s-6-7-8-10a46.34,46.34,0,0,0-5-5.95.32.32,0,0,1-.08-.12,41.39,41.39,0,0,1-3-13.35,3.4,3.4,0,0,0-.22-1.15c-1.69-4.28-10.11-22-11.63-25.11a.74.74,0,0,1,0-.65c1.1-2.19,3.79-7.42,5.68-8.58a.55.55,0,0,0,.23-.25c.88-2.28-.07-10.84-.07-10.84s-1-14,0-16,2-13,1-15-3.63-2.87-4-3l-.06,0c-.31-.21-3-2-3-3s-9-9-10-9-14-13-14-14-4-4-7-4-9,7-12,7-24,11-29,19c-.83.83-1.66,3.71-1.92,4.68a.66.66,0,0,1-.37.43A10.85,10.85,0,0,0,473,216c-1.64,2.45-2.6,2.9-2.9,3a.46.46,0,0,0-.21.13c-.89.9-7,7.11-7.89,9.89-1,3-2,3-2,3s-8,6-1,14a1.39,1.39,0,0,1,0,2c-1,1-7.81,14.61-9,18.83a.51.51,0,0,1-.21.31c-1.21.94-6.55,3.78-9.25,6.75a3.91,3.91,0,0,0,0,5.15c2.22,2.63,5.74,6.64,4.59,9.65a.7.7,0,0,0,0,.6,13.76,13.76,0,0,0,3.42,3.42.67.67,0,0,1,.24.79c-.46,1.21-1.72,4.22-3.1,4.58a.71.71,0,0,1-.8-.48c-.7-1.79-5.83-3-6.87,5a.66.66,0,0,1-.39.53c-2.17,1-6.76,1.9-8.66,2.85s-7.49.08-8,0h-.06c-.54-.21-8-3.1-10-6s-3-3-3-3-1,1-1-4.69a.92.92,0,0,0-.2-.54A16.05,16.05,0,0,1,405,288a36.74,36.74,0,0,0-22-21c-3.8-.95-6.7-4.61-7-5l-.05,0c-.51-.44-8.12-7-12.95-8h0c-3-1-20-12-24-20l0,0c-2-3-14.58-15.58-18.79-17.89a.71.71,0,0,1-.31-.31l-.8-1.6a.72.72,0,0,1-.07-.38c.09-1.13.2-7-7-8.81a21.45,21.45,0,0,0-5.45-1,.73.73,0,0,1-.68-.63A2.94,2.94,0,0,1,308,200c1.67,0,.55-2.08.14-2.78a.74.74,0,0,1-.1-.5c.23-1.32,1.32-7,4-8.72.77-.77.35-3.33.12-4.46a.71.71,0,0,1,.39-.77c1.27-.6,4.49-2.36,4.49-4.77,0-2.16-2.07-3.28-3.23-3.74a.73.73,0,0,1-.36-1,13.83,13.83,0,0,1,1.27-1.88.72.72,0,0,0,.05-.84,3.41,3.41,0,0,0-1.28-1.36.76.76,0,0,1-.34-.75c.2-1.19.57-3.86.12-5a.78.78,0,0,1,.05-.73,9.16,9.16,0,0,0-1.16-11.52.73.73,0,0,1-.16-.3A26.59,26.59,0,0,0,308,143l0-.06c-.18-.42-2-4.61-4.61-5.82a.72.72,0,0,1-.42-.51c-.21-1.2-1.18-4.26-1.68-5.77a.72.72,0,0,1,.7-.93,5.66,5.66,0,0,1,5.91,4.51.73.73,0,0,0,.66.59c1,.07,2.26-.17,1.47-5.89a1,1,0,0,0-.08-.29,30.65,30.65,0,0,0-5.85-8.76.62.62,0,0,0-.21-.15c-1-.38-7.88-3.1-7.88-5s0-4,9.61.81a.89.89,0,0,0,.78,0c2.46-1.21,2.6-5.33,2.61-5.8a.22.22,0,0,0,0-.08c-.2-.94-4.12-19-9.94-24.9a.45.45,0,0,0-.13-.1c-1.78-1-3.54-4.25-3.87-6.34a.72.72,0,0,0-.72-.62H291c-1,0,0,2-4,3-2.85.71-3.67,1.42-3.9,1.77a.82.82,0,0,1-.51.32c-1,.22-3.79.71-4.59-.09-1.49,0-3-1.66-3.64-2.51a.71.71,0,0,1,0-.91,11.65,11.65,0,0,0,2.48-3.79.7.7,0,0,1,.84-.52c2.44.67,7.29.13,7.29-5.27V67.12a.91.91,0,0,1,0-.23,27.29,27.29,0,0,0,.94-3.5.61.61,0,0,1,.37-.48C287.35,62.41,289,60,289,60s2.66-3.55,3-5.64a.78.78,0,0,1,.51-.55c2-.62,5.09.09,5.48.18,0,0,.05,0,.07,0,.41.23,5,2.71,6-3,1.9,0,2.9-3.63,2.13-6.56a.86.86,0,0,1,.19-.78,6.41,6.41,0,0,0,1.64-3.28.76.76,0,0,1,.4-.55c1.14-.58,4.47-2.66,3.64-6.83-.76-3.79-3.81-2.41-5.25-1.52a.71.71,0,0,1-1-.34c-.74-1.91-2.93-6.43-7.48-8.06a.59.59,0,0,1-.32-.28c-1-2-2.9-6.46-7.34-7.67a.71.71,0,0,1-.55-.7C290.05,11.8,290.18,5,281,4h-.16a5.92,5.92,0,0,0-5.52,3.77.71.71,0,0,1-1.24.12c-1.46-2.06-4.31-6-9.05-6.87l-.23,0A12,12,0,0,0,260,2l-.07,0c-.55.18-6.16,1.89-10,0a14.43,14.43,0,0,0-10.72.86.8.8,0,0,1-.57.05c-2.94-.81-8.25.07-9.56,1.84a.68.68,0,0,1-.42.29c-1.4.24-7.74,1.58-9.64,6.7a.75.75,0,0,1-.33.39c-2.23,1.31-9.22,7.56-9.73,12.33a.72.72,0,0,1-.51.62c-2,.64-5.2,5-4.61,9.41a.71.71,0,0,1-.35.73c-2.12,1.12-10.8,6.32-1.26,12.35a.76.76,0,0,1,.21,1.1c-2.7,3.43-10.71,11.39-4.89,17a.69.69,0,0,1,.15.79c-.77,1.53-3,6.71,0,9.34a.75.75,0,0,1,.27.55c0,2.08.26,6.79,4.75,6.78a.7.7,0,0,1,.59,1.06C201.45,87.38,196,96.18,192,97c-4.58.92-15.88,8.55-17.74,11.36a.71.71,0,0,1-1,.17c-2.64-1.88-8.76-7.73-13.26-9.53-5-2-13-8-14-13a64.68,64.68,0,0,0-3-7,.24.24,0,0,1,0-.09c-.12-.83-1.92-12.93-1-18.79a.44.44,0,0,0,0-.3C139.75,55.79,130.85,47,122,47c-4.94,0-29.37-2-30,7.63a.72.72,0,0,1-.34.58C88.08,57.38,75,63.12,72,68.88a.42.42,0,0,1-.17.18c-2,1.12-6.39,7.26-7.7,9.58a.63.63,0,0,1-.63.32c-1.84-.25-7.6-1.19-8.55,5.93a.66.66,0,0,1-.06.2A41.26,41.26,0,0,0,52,94l0,.07c-.38.77-6.89,14.14-6,23.84a.52.52,0,0,1-.05.24c-2,4-7.57,14.38,1.37,15.8a.75.75,0,0,1,.65.81c-.09,1-.32,2.22-.39,3.23a.73.73,0,0,1-1.23.5l-41-38.23A1.93,1.93,0,0,0,2,101.51c0,1.09.64,2.57,3,4.49l9.4,8.46a.73.73,0,0,1,0,1.1A5.38,5.38,0,0,1,12,117c-1,0-7,2-8,6a18.52,18.52,0,0,0-.07,7.68.68.68,0,0,1-.12.55C3.26,131.88,2,134,2,138c0,3.64.53,5.16.82,5.72a.59.59,0,0,1,0,.59C1.76,145.83-2,152.58,6,157a59.23,59.23,0,0,1,6,4s17.72,13.29,28.14,18.19a.72.72,0,0,1-.05,1.32c-2,.79-4.63,2.71-2.28,7.14a1,1,0,0,1,.07.73,7.24,7.24,0,0,0,0,4.36.75.75,0,0,1,0,.53c-.73,1.7-4.41,10.82.12,11.73a3.43,3.43,0,0,1,2.67,1.48.68.68,0,0,1-.06.88c-1.12,1.14-4.17,4.92-2.68,11.34a.86.86,0,0,1-.07.57A72.43,72.43,0,0,1,34,226a3.57,3.57,0,0,0-.42,1.69.79.79,0,0,1-.35.8c-2.08,1.41-7.51,5.82-5.34,12.2a.7.7,0,0,1-.07.58C27,242.46,24,247.25,24,249c0,2-1,2-1,2s-2.87,3.82-3,6.8a.49.49,0,0,1-.14.34c-2,2.05-6.23,8.17-1.73,9.65a.75.75,0,0,1,.46,1l-1.46,2.92a.72.72,0,0,0,0,.64,3.39,3.39,0,0,0,1.33,1.3.66.66,0,0,1,.24.89c-1.21,2.06-3.94,5.82-3.06,7.86a.72.72,0,0,1-.22.91c-2.69,1.75-9.46,8.08-.67,14.46a1.07,1.07,0,0,0,.6.19A14.3,14.3,0,0,0,21,297s2.29-.77,3.54-.29a3.88,3.88,0,0,0,2,.16c2.45-.35,6.24-1.51,7.31-4.39a.7.7,0,0,1,.65-.48c2,0,5.3-.22,5.49-2.76a.59.59,0,0,1,.17-.4c2-1.88,5.62-3.81,7.63-7.44a.73.73,0,0,1,.66-.39A41,41,0,0,1,54,282s1.95,1,3-2.86a.58.58,0,0,1,.13-.23c.57-.59,3.71-3.88,3.9-5.74a.46.46,0,0,1,.13-.29c1.7-1.83,4.67-7.5,5.59-9.32a.67.67,0,0,1,1-.24,4.24,4.24,0,0,1,1.11,1.39.86.86,0,0,0,.58.44C73.27,265.69,89,250,89,249s-1-2,0-3a1.29,1.29,0,0,1,1.7-.22.77.77,0,0,0,.72,0c1.79-.88,8.82-5.4,10.57-22.77a.14.14,0,0,0,0-.09c-.08-.46-.72-4.84,3.82-5a.59.59,0,0,1,.34.1,54,54,0,0,0,7.75,3.86.65.65,0,0,0,.2,0c1,.09,9.38.76,11.67-1.72a.77.77,0,0,1,.59-.28,21,21,0,0,1,4.31.88.64.64,0,0,1,.41.42c.27,1,1.35,4.16,4.18,4.63a.68.68,0,0,1,.57.88c-.47,1.55-1.65,4.36-.83,5.18s2.54-1.34,2.92-1.88a.48.48,0,0,1,.23-.19c.47-.2,2-.77,2.85.07s6.45,4.89,7.74,5.81a.59.59,0,0,1,.25.44c.06,1.28-2.24,4.24-4,7.75-.7,1.41-1.9,3.31-2.55,4.31a.89.89,0,0,1-1.4.12c-.66-.72-.85-2.26,2.83-5.31a.61.61,0,0,0,.18-.27c.28-.79,1.42-4.33-1.64-3a.68.68,0,0,1-.78-.18c-1.23-1.38-3.9-4.68-6.59-5.6l-.11,0c-2.13,0-13,1.06-16.94,8-.93,1.86-.13,4.59,0,5a.28.28,0,0,1,0,.09c0,.46-.13,4.08-2,5.95s-1,4.87.88,5a.42.42,0,0,1,.24.07A3.6,3.6,0,0,1,119,261c0,1.89,7.17,2,9.63,1.15a.65.65,0,0,1,.68.18c1.08,1.2,4.69,5.57,4.69,10.67,0,6,0,10,6,13,3,1.49,3.74,3,3.93,3.65a.74.74,0,0,0,.51.49c2.08.63,10.92,2.78,13.56-5.14,2.31-6.94,2.25-9.12,2.1-9.76a.63.63,0,0,1,.08-.5c.58-.92,2.27-4,0-6.55a.67.67,0,0,1-.18-.44,34.47,34.47,0,0,1,.92-6.41.61.61,0,0,1,.39-.45,7.62,7.62,0,0,0,2.41-1.33.72.72,0,0,1,1-.13,3.54,3.54,0,0,1,1.27,2.16.76.76,0,0,0,.45.56c1.28.53,5.25,2.46,5.58,6.34a.77.77,0,0,0,.5.69,16.21,16.21,0,0,0,8.3.87.71.71,0,0,0,.37-.2c.52-.54,1.25-2.8,2-4a.42.42,0,0,1,.79.24c-.25,3.2-.9,9.76-1.88,11.86a.62.62,0,0,1-.1.16c-1,1.22-2.94,8-2.94,10.93a12.57,12.57,0,0,1-2,6s0,0,0,.07c-.25.87-4.87,17.08-2,25.86a.71.71,0,0,1,0,.21v1.59a.7.7,0,0,1-.2.5c-.5.54-1.8,2-1.8,2.8,0,.63-.78,1.25-1.37,1.63a.72.72,0,0,0-.2,1c1.18,1.72,4.36,6.59,4.56,9.13a.59.59,0,0,0,.19.41,14.69,14.69,0,0,0,4.59,2.75.67.67,0,0,1,.36.3c.58,1,2.87,5.16,2.87,7.78,0,3,1,11.92,2,15a.22.22,0,0,1,0,.08c0,2.08,0,12,1,14l5,10s0,1-2-1c-1.52-1.52-3.77-.15-4,1.77a.61.61,0,0,1-.17.39,41.1,41.1,0,0,1-3.56,2.65.6.6,0,0,1-.55.07c-1-.37-4.42-.75-2.75,12a.75.75,0,0,1,0,.3,54,54,0,0,0-1.91,7.23.72.72,0,0,1-.68.65c-2.42.11-10.94.85-14.36,6-3.86,4.82-8.64,11.5-9,12l0,.06c-.37.63-7.06,12-10,13s-15.35,14.3-16,15l0,0c-.68.48-12.84,9.06-14,15.85a.85.85,0,0,1-.09.24C112,475.47,103,489.05,103,490s-3,4-3,4-6.92,5.93.86,12.87a.62.62,0,0,1,.18.3c1,4,1.12,10.78,11.92,8.84l.08,0a67.51,67.51,0,0,0,11.84-3.93.77.77,0,0,1,.26-.07c1.47-.09,14-.81,15.86,2,1.53,2.29,4.81,8.67,6.27,11.55a1.65,1.65,0,0,1-.7,2.21c-1,.56-5.65,4-9.57,6.24-3.56,2-6.46,2.83-7.16,3.33a2.12,2.12,0,0,1-1.64.34c-1.54-.31-4.36-.3-5.19-7.58l0-.17c-1-4-6-6.92-6-6.92s-2.93-2-2,10.53a1,1,0,0,1-.26.78c-2.15,2.32-7.29,9.15-7.68,9.66l0,.06c-.48.84-11.07,19-15,22-3,2-10,10-10,10h0s-4.59,4.59-5,5.85a.7.7,0,0,1-.25.33C74.81,583.57,64,589,64,589s-16.9,8,4.8,22.87a.83.83,0,0,0,.43.13h398.5a.74.74,0,0,0,.48-.17,8.36,8.36,0,0,0,2.83-7.61.63.63,0,0,1,.08-.44c1.57-2.61,12.33-15.87.14-24.6a.59.59,0,0,1-.26-.49c.06-7,2.07-17.7,7.92-24.6a.67.67,0,0,0,.12-.2c1.91-4.94,1.94-16.33.1-20.58a.91.91,0,0,1,0-.65c.72-2.28.91-3.95,2-5a.71.71,0,0,1,1.19.34c.91,3.91,1.82,13.1,2.73,14s1.9,5.51,2,6c0,0,0,0,0,.08a8.26,8.26,0,0,0,2.6,3.73.78.78,0,0,1,.36.73c-.24,2.09-1.59,5.5,3,5.5,4.46,0,1.75-5.58,1.12-6.78a.71.71,0,0,1-.07-.45c.15-.85.49-3.82-1.77-5.56a.71.71,0,0,1-.27-.57c.08-2.34.8-8.63-1.87-12.45a.71.71,0,0,1-.14-.43,31.51,31.51,0,0,1,.24-3.47.73.73,0,0,1,1.45,0c1,5.1,3,13.41,6.31,16.76,1,1,3,13,8,15,2.71.68,2.67-1.86,2.36-3.56a.71.71,0,0,1,1-.77c2,.88,5.37,1.91,4.65-1.67a11.46,11.46,0,0,0-2-4l0,0c-.26-.46-3.07-5.55-2.45-8.08a.73.73,0,0,1,1.05-.49c1.76.94,6,1.7,4.5-4.09a1.05,1.05,0,0,1,0-.61,14.5,14.5,0,0,1,2.78-4.58.47.47,0,0,0,.14-.29c.15-1.18,1.07-7.92,2-8.83s1-14.3,1-15.85a.5.5,0,0,1,.07-.27c.45-.79,2.93-5.34,2.93-9.88,0-5,1-11-1-13s0-17,2-19c1-1,7.93,3,10,8.91a.51.51,0,0,0,.09.16c3,3.07,9.06,12.86,27.85,7.95A.85.85,0,0,0,563,482c3.39-1.69,6.05-2.63,7.37.25a.73.73,0,0,0,1.35-.08C573,478,573,470.06,573,465,573,459,574,457,573,460Z"/><path id="arminner" class="cls-1" d="M366,386s-8,1-11.74,1.66l-1.81-1.05c-1.47-4-5.76-15.42-9.1-19.24-.07-.31-.12-.54-.18-.85.79-2.9,4.33-8,3.83-7.52h0c-.19-.34-2.54-3.3-2-5s-6.57-10.17-8-12h0c0-.12,2-4.17,0-8s1-14,1-14h0s-2-13-3-15c-.71-1.43-3-4.9-4.18-6.76a6.77,6.77,0,0,1-1-2.69c-.57-3.69-2.08-13.39-3.78-16.55-2-3.7-11-14.28-11-16h0l3-2h0c.34-.39,32.09,16.9,43,20h0a41.72,41.72,0,0,1,5,10h0s.91,8.22,3.61,12.44l.31,1.49c-.54,3.77-3.4,12.59,2.08,18.07,2,3,8,7,8,7h0a1.42,1.42,0,0,1,1.39,1.73C379,342.26,370.25,380,366,386Z"/><path id="arrowline" class="cls-1" d="M44,141s-28.41-25.17-30.21-27.08"/><path id="knuckle" class="cls-1" d="M3.46,130.5"/></g></svg>