<svg id="thinker" xmlns="http://www.w3.org/2000/svg" viewBox="0 0 75.16 112.79"><title>thinkIcon</title><g id="full"><g id="rightleg"><path d="M29.61,96.29a2.74,2.74,0,0,1-.77,2.19,6.41,6.41,0,0,1-1.95,1.36,15.86,15.86,0,0,1-4.5,1.37h-.05a2,2,0,0,1-1.07-.32,1.75,1.75,0,0,1-.71-.9,3.48,3.48,0,0,1,0-1.95,10.31,10.31,0,0,1,.62-1.64c.12-.26.25-.51.38-.76A2.34,2.34,0,0,0,21.8,95,11.63,11.63,0,0,0,22,89c-.07-.23-.15-.45-.24-.67l-.15-.31a1.4,1.4,0,0,0-.16-.23c-.28-.38-.64-.79-1-1.19-.71-.79-1.45-1.58-2.19-2.36l-4.46-4.73c-3-3.15-6-6.24-8.94-9.44L2.63,67.74c-.2-.21-.36-.37-.58-.62a4.89,4.89,0,0,1-.49-.77,13.85,13.85,0,0,1-.71-1.51A10.61,10.61,0,0,1,0,61.6a4,4,0,0,1,.21-1.68,2.56,2.56,0,0,1,1.09-1.27l.06.08A2.83,2.83,0,0,0,.31,61.57a10.17,10.17,0,0,0,1,3.07c.77,2.08,2.6,3.39,4.07,5q4.59,4.6,9.12,9.28C16,80.46,17.49,82,19,83.61c.74.8,1.47,1.6,2.19,2.42.35.41.71.82,1,1.26a4.45,4.45,0,0,1,.67,1.51,11.93,11.93,0,0,1-.3,6.46,7.39,7.39,0,0,1-.71,1.47,9.53,9.53,0,0,0-.61,1.49,2.78,2.78,0,0,0-.07,1.56,1.26,1.26,0,0,0,1.18.85h0a16.9,16.9,0,0,0,4.42-1.13,6.23,6.23,0,0,0,1.91-1.2,2.51,2.51,0,0,0,.85-2Z"/></g><g id="leftleg"><path d="M15.37,59.65a87.37,87.37,0,0,1,10.47,8.26,53.29,53.29,0,0,1,4.59,4.9,28.25,28.25,0,0,1,3.72,5.68,14.53,14.53,0,0,1,1.17,3.28,9.3,9.3,0,0,1,.15,3.57,3.85,3.85,0,0,1-.66,1.89,3.9,3.9,0,0,1-.7.75l-.65.55c-.86.72-1.71,1.41-2.51,2.13A12.14,12.14,0,0,0,28.85,93a3.36,3.36,0,0,0-.58,1.23,1,1,0,0,0-.05.29c0,.08,0,.23,0,.26a.41.41,0,0,0,.1.26,1.78,1.78,0,0,0,1,.39,7.92,7.92,0,0,0,1.48.08,20.21,20.21,0,0,0,3.16-.39l.78-.15a1.87,1.87,0,0,0,.53-.2l1.38-.84c.93-.59,1.85-1.19,2.74-1.81A38.94,38.94,0,0,0,44.42,88c.38-.38.72-.77,1.06-1.16l.45-.61a2.32,2.32,0,0,0,.24-.53,2.06,2.06,0,0,0,0-1.18,2,2,0,0,0-.27-.54,1.37,1.37,0,0,0-.18-.24l-.27-.29c-.36-.37-.75-.73-1.15-1.08a16.46,16.46,0,0,1-1.35-1.13,3.88,3.88,0,0,1-.58-.87L42,79.6l-.67-1.53c-.89-2-1.72-4.11-2.48-6.21s-1.39-4.25-2.06-6.35a30.75,30.75,0,0,0-2.44-6.09,9.2,9.2,0,0,0-2-2.53,5,5,0,0,0-3-1.15v-.1a5.09,5.09,0,0,1,3.11,1.09,9.36,9.36,0,0,1,2.17,2.52,32.06,32.06,0,0,1,2.67,6.09c.72,2.1,1.37,4.22,2.17,6.28s1.66,4.11,2.57,6.13l.7,1.51a5.32,5.32,0,0,0,.82,1.41c.81.71,1.74,1.37,2.5,2.18a3.08,3.08,0,0,1,1,3.09,4.25,4.25,0,0,1-.84,1.46,16.28,16.28,0,0,1-1.12,1.24,40,40,0,0,1-5.16,4.21c-.9.64-1.83,1.25-2.76,1.85l-1.42.88a5,5,0,0,1-1.62.48,20.45,20.45,0,0,1-3.31.37,8.62,8.62,0,0,1-1.68-.1,2.52,2.52,0,0,1-1.53-.72A1.8,1.8,0,0,1,27.35,94a4.63,4.63,0,0,1,.72-1.52A13.21,13.21,0,0,1,30.34,90c.83-.74,1.7-1.43,2.56-2.13a6.68,6.68,0,0,0,1.19-1.12,3,3,0,0,0,.52-1.52,8.78,8.78,0,0,0-.11-3.27,13.92,13.92,0,0,0-1.06-3.13,27.16,27.16,0,0,0-3.53-5.59,53.38,53.38,0,0,0-4.44-4.94,87.24,87.24,0,0,0-10.16-8.55Z"/></g><g id="stone"><path d="M73.3,101.66A8.78,8.78,0,0,0,74.42,100a2.73,2.73,0,0,0,.39-1.8c-.3-1.17-2-1.05-3.26-1.57a9.33,9.33,0,0,1-1.94-.93,6,6,0,0,1-.9-.69A3.3,3.3,0,0,1,68,94a3.35,3.35,0,0,1-.29-1.2l0-1-.06-2,0-2,0-1a2.26,2.26,0,0,0-.15-.73,2.59,2.59,0,0,0-.42-.66l-.65-.76c-.44-.5-.89-1-1.35-1.42l-.17-.15c-.07-.07-.16-.14-.23-.22a4.11,4.11,0,0,1-.42-.5A3.55,3.55,0,0,1,63.62,81a4,4,0,0,1-.13-1.23v-1l0-4.09,0-4.1,0-2a3.34,3.34,0,0,0,0-.83,2,2,0,0,0-.28-.67,2.09,2.09,0,0,0-.5-.53c-.2-.15-.53-.35-.79-.52-.57-.34-1.14-.67-1.73-1a18.78,18.78,0,0,0-3.65-1.39,13.48,13.48,0,0,0-3.89-.31c-1.36,0-2.72.09-4.08.14l-8.19.27v-.1q4.08-.37,8.16-.69c1.36-.1,2.72-.2,4.08-.27a14,14,0,0,1,4.09.2,17.46,17.46,0,0,1,3.87,1.37c.62.3,1.22.63,1.8,1a4.41,4.41,0,0,1,1.6,1.31,3.22,3.22,0,0,1,.5,2V78.77a10.24,10.24,0,0,0,.09,2,3.08,3.08,0,0,0,1.1,1.63,19.87,19.87,0,0,1,1.4,1.5,7.19,7.19,0,0,1,1.19,1.68,5.52,5.52,0,0,1,.21,2v4.09a4.94,4.94,0,0,0,.21,2A3.18,3.18,0,0,0,70,95.19a9.3,9.3,0,0,0,1.8.93c.63.27,1.28.41,1.94.63a1.9,1.9,0,0,1,1.44,1.37,3,3,0,0,1-.51,2,8.94,8.94,0,0,1-1.25,1.63Z"/></g><g id="leftarm"><path d="M32.37,16.73a4.65,4.65,0,0,0-.64,1.76,11.09,11.09,0,0,0-.18,1.89A2.8,2.8,0,0,0,32.21,22a3.55,3.55,0,0,1,1.09,1.69c.39,1.43-.52,2.81-1.21,3.75a2.7,2.7,0,0,0-.34,1.65l.05,1.93,0,1a3,3,0,0,0,.1.82,8.92,8.92,0,0,1,.43,2A5,5,0,0,1,32.13,37a3.4,3.4,0,0,1-1.39,1.78,5.85,5.85,0,0,1-.94.47,2.43,2.43,0,0,0-.68.45c-.51.4-1,.79-1.55,1.18-1.05.77-2.12,1.52-3.25,2.2a19.57,19.57,0,0,1-1.75,1,4.18,4.18,0,0,1-1,.37l-.95.21a16.58,16.58,0,0,0-3.32,1.51,62.8,62.8,0,0,0-6.35,4.2,14.9,14.9,0,0,0-4.38,5.65,5.44,5.44,0,0,0-.33,1.61,2.36,2.36,0,0,0,.34,1.36,5.56,5.56,0,0,0,2.6,2,14.32,14.32,0,0,0,1.7.61l.44.11.33.06a2.21,2.21,0,0,0,.68-.05,1.76,1.76,0,0,0,1.36-2c0-.09-.05-.3-.06-.5a4.28,4.28,0,0,1,0-.62,3.6,3.6,0,0,1,.12-.64c0-.1.07-.21.11-.31l.11-.23a12.6,12.6,0,0,1,1-1.81,12.32,12.32,0,0,1,2.72-3.08A16.17,16.17,0,0,1,25,49.27a23.05,23.05,0,0,1,4-.34,2,2,0,0,0,.76-.07,6.53,6.53,0,0,0,.81-.28c.56-.24,1.12-.52,1.67-.81,1.11-.6,2.2-1.26,3.28-1.94l1.6-1a2.3,2.3,0,0,0,.95-1.18c.4-1.2.78-2.43,1.12-3.65.17-.61.33-1.23.46-1.84.06-.31.12-.61.16-.91s0-.3,0-.44,0-.36.07-.53a28.89,28.89,0,0,1,1.15-3.76c.43-1.22.88-2.43,1.34-3.63q1.39-3.6,2.87-7.17l.1,0Q44,25.31,42.72,29a62.31,62.31,0,0,0-2.27,7.35,18.26,18.26,0,0,1-.68,3.8c-.32,1.25-.69,2.48-1.07,3.71a3,3,0,0,1-1.18,1.54l-1.6,1.07c-1.08.71-2.17,1.39-3.29,2-.56.32-1.14.61-1.73.88a4.24,4.24,0,0,1-1.89.45,22.25,22.25,0,0,0-3.82.35,15.17,15.17,0,0,0-7,3A11.45,11.45,0,0,0,15.72,56a11.83,11.83,0,0,0-.89,1.69,2.75,2.75,0,0,0-.21,1.83,2.84,2.84,0,0,1-.46,1.9,2.75,2.75,0,0,1-1.61,1.1,3.49,3.49,0,0,1-2-.11,16.67,16.67,0,0,1-1.84-.64,6.46,6.46,0,0,1-3-2.37,4.4,4.4,0,0,1-.06-3.8,11.92,11.92,0,0,1,2-3.32,19.18,19.18,0,0,1,2.74-2.74,65.86,65.86,0,0,1,6.47-4.22,16.86,16.86,0,0,1,3.53-1.56,9.13,9.13,0,0,0,3.54-1.4C25,41.71,26.1,41,27.15,40.25c.52-.38,1-.76,1.55-1.15a8.71,8.71,0,0,1,1.69-.92,3.37,3.37,0,0,0,1.36-3.32A8,8,0,0,0,31.38,33a8.45,8.45,0,0,1-.1-1.94V29.12a3.16,3.16,0,0,1,.45-1.87,9.29,9.29,0,0,0,1-1.62A2.92,2.92,0,0,0,33,23.79a3.36,3.36,0,0,0-1-1.6,3,3,0,0,1-.67-1.81,11.2,11.2,0,0,1,.24-1.92,4.55,4.55,0,0,1,.72-1.8Z"/></g><g id="rightarm"><path d="M24.37,35.65a3.76,3.76,0,0,1,1.49.38,5.24,5.24,0,0,1,1.19.76A5.34,5.34,0,0,1,28,37.86a5.26,5.26,0,0,1,.35.67,1.76,1.76,0,0,1,.15.88l-.1,0a6.32,6.32,0,0,0-.93-.94l-1.06-.89-2.08-1.82Z"/></g><g id="righthand"><path d="M15.29,41.69A17.76,17.76,0,0,0,13,35.2a17.49,17.49,0,0,0-2-2.76,14.3,14.3,0,0,1-1.22-1.39,3.35,3.35,0,0,1-.45-1c-.09-.3-.17-.59-.24-.89a27.36,27.36,0,0,1-.53-3.58,9,9,0,0,1,0-1,4.24,4.24,0,0,1,.24-1.11,3.79,3.79,0,0,1,1.36-1.73,7.56,7.56,0,0,1,3.64-1.48,8,8,0,0,1,3.86.62l-.11,0a6.2,6.2,0,0,1,2.67,1.37,3.2,3.2,0,0,1,.92,1.44,3,3,0,0,1,0,1.74,4,4,0,0,1-.73,1.42,9.76,9.76,0,0,1-.93,1,2.1,2.1,0,0,0-.47.85,1.51,1.51,0,0,0-.07.48c0,.2,0,.41,0,.61a12.61,12.61,0,0,0,1.35,4.8,16.06,16.06,0,0,0,3.06,4.12l-.06.08a15.09,15.09,0,0,1-3.41-4,12.43,12.43,0,0,1-1.64-5,4.49,4.49,0,0,1,0-1.32,2.86,2.86,0,0,1,.58-1.2,4.92,4.92,0,0,0,1.45-2.1,2.27,2.27,0,0,0,0-1.24,2.37,2.37,0,0,0-.7-1,5.2,5.2,0,0,0-2.28-1.12h0a7.15,7.15,0,0,0-3.39-.51,6.53,6.53,0,0,0-3.19,1.26,2.81,2.81,0,0,0-1.06,1.3,3.48,3.48,0,0,0-.15,1.7A25.57,25.57,0,0,0,10,29a5.33,5.33,0,0,0,.52,1.64c.31.47.74.89,1.11,1.35a18.42,18.42,0,0,1,1.92,2.95,16.59,16.59,0,0,1,1.87,6.75Z"/></g><g id="chin"><path d="M22.39,10.69a11.11,11.11,0,0,1,.31,3.23,13.89,13.89,0,0,1-.46,3.2,10,10,0,0,1-1.33,3.05,4.94,4.94,0,0,1-1.19,1.27,2.46,2.46,0,0,1-1.65.52l0-.1a3.64,3.64,0,0,0,2.17-2.06,14.44,14.44,0,0,0,1.06-2.93,34,34,0,0,0,1-6.18Z"/></g><g id="backandhead"><path d="M10.3,19.72a71.11,71.11,0,0,1-4.54-5.54c-.35-.49-.69-1-1-1.52A5.35,5.35,0,0,1,4,10.91,6.89,6.89,0,0,1,4.11,9a13.71,13.71,0,0,1,.38-1.8A10.19,10.19,0,0,1,8.61,1.11,7.32,7.32,0,0,1,12.29,0,11.43,11.43,0,0,1,16,.52c.6.17,1.18.39,1.76.61.29.11.56.25.85.38l.42.19a3.38,3.38,0,0,1,.48.27,3.94,3.94,0,0,1,.81.76l.56.68c.37.44.76.88,1.16,1.3a25.77,25.77,0,0,0,2.51,2.4c.22.18.44.36.67.52a1.65,1.65,0,0,0,.55.3l.31.07.42.06.86.09a51.36,51.36,0,0,0,7,0c1.18-.06,2.36-.14,3.54-.25a4.94,4.94,0,0,1,1,0,3.43,3.43,0,0,1,1.13.29,4.06,4.06,0,0,1,.92.56c.25.18.52.35.75.55A36.8,36.8,0,0,1,51,20.58a47,47,0,0,1,4.78,13.66L56.13,36c.08.6.14,1.2.22,1.8.12,1.2.33,2.39.35,3.59l.17,3.6-.07,3.59a49,49,0,0,1-.67,7.16,38.53,38.53,0,0,1-1.74,7l-.1,0a38.72,38.72,0,0,0,1.53-7,49.89,49.89,0,0,0,.46-7.12V45l-.23-3.57c0-1.19-.27-2.36-.41-3.54-.08-.59-.15-1.18-.25-1.77L55,34.39A48.09,48.09,0,0,0,50.21,21a36.05,36.05,0,0,0-9-10.92,9.23,9.23,0,0,0-1.46-1A3.16,3.16,0,0,0,38,8.91q-1.78.16-3.57.24a53.47,53.47,0,0,1-7.16-.09,11.15,11.15,0,0,1-1.78-.28,4.82,4.82,0,0,1-1.51-1A27.58,27.58,0,0,1,21.43,5.3c-.4-.44-.8-.89-1.18-1.35a7.35,7.35,0,0,0-1.19-1.29,17.13,17.13,0,0,0-3.26-1.4,8.33,8.33,0,0,0-6.86.41A9.74,9.74,0,0,0,5,7.37a11.37,11.37,0,0,0-.56,3.49,5.06,5.06,0,0,0,.65,1.63c.29.51.61,1,.94,1.51a70.34,70.34,0,0,0,4.36,5.66Z"/></g><g id="underline1"><path d="M21.34,107.64c2.12-.19,4.25-.27,6.37-.41l6.38-.24c4.25-.14,8.5-.13,12.75-.2s8.5.06,12.75.2l6.37.24c2.13.14,4.25.22,6.38.41v.1l-25.5.05-25.5-.05Z"/></g><g id="underline2"><path d="M21.34,112.64c2.12-.19,4.25-.27,6.37-.41l6.38-.24c4.25-.14,8.5-.13,12.75-.2s8.5.06,12.75.2l6.37.24c2.13.14,4.25.22,6.38.41v.1l-25.5.05-25.5-.05Z"/></g></g></svg>