<?xml version="1.0" encoding="utf-8"?>
<!-- Generator: Adobe Illustrator 23.0.6, SVG Export Plug-In . SVG Version: 6.00 Build 0)  -->
<svg version="1.1" id="scream" xmlns="http://www.w3.org/2000/svg" xmlns:xlink="http://www.w3.org/1999/xlink" x="0px" y="0px"
	 viewBox="0 0 416 496" style="enable-background:new 0 0 416 496;" xml:space="preserve">
<style type="text/css">
	.st0{fill: white;}
	.st0:hover{fill:#EAB081; transition: fill 0.2s ease-in-out;}
</style>
<title>tsIcon</title>
<g id="full">
	<g id="XMLID_1_">
		<g>
			<path class="st0" d="M247.1,313.5c0,0,0,0.1,0,0.1l-35,75.8c-1.5,3.2-6.7,3.2-8.2,0l-35-75.8c0-0.1,0-0.2,0.1-0.2
				c0,0,0.1,0,0.1,0c25.2,8.8,52.6,8.8,77.7,0l0.1,0C246.9,313.4,247,313.4,247.1,313.5z"/>
			<path d="M416,365.6v130.2c0,0.1-0.1,0.2-0.2,0.2H0.2c-0.1,0-0.2-0.1-0.2-0.2V365.6c0-15.8,5.4-31.1,15.3-43.5
				c6.6-8.2,15.1-14.8,24.6-19.3c0.1,0,0.1-0.1,0.1-0.1v-52.4c0,0,0-0.1,0-0.1c-15.7-27-24-57.6-24-88.8v-6c0-19,3-37.8,9-55.8
				l1.2-3.4C31,81.7,44.5,72,59.7,72h1c6.4,0,12.7,1.8,18.2,5.2c0,0,0,0,0,0c0.1,0,0.2,0,0.2-0.1c23.8-47.2,72-77,124.9-77.1h8
				c52.9,0.1,101.1,29.9,124.9,77.1c0,0,0,0,0,0c0,0.1,0.1,0.1,0.2,0.1c5.5-3.4,11.8-5.2,18.2-5.2h1c15.2,0,28.7,9.7,33.5,24.2
				l1.1,3.4c6,18,9.1,36.8,9.1,55.8v6c0,31.2-8.3,61.8-24,88.8c0,0,0,0.1,0,0.1v52.4c0,0.1,0,0.1,0.1,0.1c9.6,4.5,18,11.1,24.7,19.3
				C410.6,334.5,416,349.8,416,365.6z M400,480V365.6c0-12.2-4.2-24-11.8-33.5c-2.2-2.7-4.7-5.3-7.4-7.5c-4.4-3.7-10.9-3.3-15,0.8
				L312,379.3c0,0,0,0.1,0,0.1v68.4c0,0.1-0.1,0.2-0.2,0.2h-15.7c-0.1,0-0.2-0.1-0.2-0.2v-70.5c0,0,0,0,0,0l-0.4-1.2
				c-7.9-23.6-12.8-48-14.7-72.8c-0.1-0.8-0.3-1.5-0.7-2.1c-1.4-2.1-4.1-2.7-6.2-1.3c-1.4,0.9-2.8,1.8-4.2,2.7c0,0-0.1,0.1-0.1,0.1
				l-43.1,93.5c-2,4.4-5.6,8-10,10c-10.3,4.7-22.4,0.2-27.2-10l-43.1-93.5c0,0,0-0.1-0.1-0.1c-1.4-0.8-2.7-1.7-4.1-2.6
				c-0.6-0.4-1.4-0.7-2.1-0.7c-2.5-0.2-4.7,1.7-4.9,4.2c-0.9,12.4-2.6,24.6-5.1,36.8c-2.5,12.1-5.6,24.1-9.6,35.9
				c-0.3,0.8-0.4,1.6-0.4,2.5v21.3c0,0.1-0.1,0.2-0.2,0.2h-15.7c-0.1,0-0.2-0.1-0.2-0.2v-17.7c0-1.8-0.7-3.5-2-4.8l-51.2-51.2
				c-4.6-4.6-11.9-4.9-16.8-0.6c-2.3,2-4.4,4.2-6.3,6.6c-7.6,9.5-11.7,21.3-11.8,33.5v114.2c0,0.1,0.1,0.2,0.2,0.2h82.9
				c2.7,0,4.9-2.2,4.9-4.9v-58.9c0-0.1,0.1-0.2,0.2-0.2h15.7c0.1,0,0.2,0.1,0.2,0.2v58.2c0,3.1,2.5,5.6,5.6,5.6H291c2.8,0,5-2.2,5-5
				v-10.8c0-0.1,0.1-0.2,0.2-0.2h15.7c0.1,0,0.2,0.1,0.2,0.2v10c0,3.2,2.6,5.8,5.8,5.8H400z M384,161.3v-6c0-17.2-2.8-34.4-8.2-50.7
				l-1.1-3.4c-2.6-7.9-10-13.2-18.3-13.2h-1c-4.3,0-8.4,1.5-11.8,4.1c-0.1,0.1-0.1,0.1-0.1,0.2c12.5,34,11.2,71.5-3.5,104.5
				l-23.3,52.6c-4.7,10.6-11,20.4-18.6,29.2c-1.3,1.5-2,3.4-2,5.4c0.3,23,3.4,45.9,9.2,68.1c0.2,0.9,0.7,1.8,1.4,2.4
				c2.1,2.1,5.4,2.1,7.5,0l43.7-43.7c1.4-1.4,2.2-3.3,2.2-5.3V248c0-1.5,0.4-2.9,1.1-4.1C376.1,218.9,384,190.4,384,161.3z
				 M335.9,145.9C339.2,74.9,281.4,16,210.4,16h-4.7c-71,0-128.8,58.9-125.5,129.9c0.7,15.3,4.3,30.4,10.6,44.5l23.4,52.7
				c10.3,23.3,28.9,41.9,52.2,52.2c51.9,23,112.6-0.3,135.6-52.2l23.4-52.7C331.6,176.3,335.2,161.2,335.9,145.9z M247.1,313.6
				c0,0,0-0.1,0-0.1c0-0.1-0.1-0.1-0.2-0.1l-0.1,0c-25.2,8.8-52.6,8.8-77.7,0c0,0-0.1,0-0.1,0c-0.1,0-0.1,0.1-0.1,0.2l35,75.8
				c1.5,3.2,6.7,3.2,8.2,0L247.1,313.6z M119.9,283.3c0-1.6-0.6-3.1-1.6-4.2c-7.8-8.9-14.1-18.8-18.9-29.6L76,196.8
				c-14.8-33.1-16-70.5-3.5-104.5c0-0.1,0-0.1,0-0.2C69.1,89.5,65,88,60.7,88h-1c-8.3,0-15.7,5.3-18.3,13.2l-1.1,3.4
				C34.8,121,32,138.1,32,155.4v6c0,29.1,7.9,57.6,22.8,82.5l0.2,0.3c0.7,1.1,1,2.3,1,3.5v56.6c0,2.8,1.1,5.5,3.1,7.5l42.6,42.6
				c0.7,0.7,1.6,1.2,2.5,1.4c2.9,0.7,5.8-1,6.6-3.9C116.6,329.5,119.7,306.5,119.9,283.3z"/>
			<path class="st0" d="M210.4,16c71,0,128.8,58.9,125.5,129.9c-0.7,15.3-4.3,30.4-10.5,44.5L301.9,243
				c-23,51.9-83.8,75.3-135.6,52.2c-23.3-10.3-41.9-28.9-52.2-52.2l-23.4-52.7c-6.3-14-9.9-29.1-10.6-44.5
				C76.8,74.9,134.6,16,205.6,16H210.4z M319.8,139.6c2-22-14.2-41.5-36.2-43.5c-22-2-41.5,14.2-43.5,36.2c-0.2,2.4-0.2,4.9,0,7.3
				c1.8,19.2,17,34.4,36.2,36.2C298.4,177.9,317.8,161.6,319.8,139.6z M232,248c0-22.8-10.3-40-24-40s-24,17.2-24,40s10.3,40,24,40
				S232,270.8,232,248z M216,176v-48c0-4.4-3.6-8-8-8s-8,3.6-8,8v48c0,2.2,0.9,4.2,2.3,5.7c1.4,1.4,3.4,2.3,5.7,2.3
				C212.4,184,216,180.4,216,176z M175.8,139.6c2-22-14.2-41.5-36.2-43.5c-22-2-41.5,14.2-43.5,36.2c-0.2,2.4-0.2,4.9,0,7.3
				c1.8,19.2,17,34.4,36.2,36.2C154.4,177.9,173.8,161.6,175.8,139.6z"/>
			<path d="M283.6,96.2c22,2,38.2,21.5,36.2,43.5c-2,22-21.5,38.2-43.5,36.2c-19.2-1.8-34.4-17-36.2-36.2c-0.2-2.4-0.2-4.9,0-7.3
				C242.2,110.4,261.6,94.2,283.6,96.2z M281.9,159.9c13.2-1.1,23.1-12.6,22-25.8c-1.1-13.2-12.6-23.1-25.9-22
				c-11.7,0.9-21.1,10.3-22,22c-0.1,1.3-0.1,2.6,0,3.8C257.1,151.1,268.6,161,281.9,159.9z"/>
			<path d="M280,128c4.4,0,8,3.6,8,8c0,2.2-0.9,4.2-2.3,5.7c-1.5,1.4-3.5,2.3-5.7,2.3s-4.2-0.9-5.7-2.3c-1.4-1.4-2.3-3.4-2.3-5.7
				s0.9-4.2,2.3-5.7C275.8,128.9,277.8,128,280,128z"/>
			<path d="M208,208c13.7,0,24,17.2,24,40s-10.3,40-24,40s-24-17.2-24-40S194.3,208,208,208z M216,248c0-15.5-6-24-8-24s-8,8.5-8,24
				s6,24,8,24S216,263.5,216,248z"/>
			<path d="M216,128v48c0,4.4-3.6,8-8,8c-2.2,0-4.2-0.9-5.7-2.3c-1.4-1.4-2.3-3.4-2.3-5.7v-48c0-4.4,3.6-8,8-8S216,123.6,216,128z"
				/>
			<path d="M139.6,96.2c22,2,38.2,21.5,36.2,43.5s-21.5,38.2-43.5,36.2c-19.2-1.8-34.4-17-36.2-36.2c-0.2-2.4-0.2-4.9,0-7.3
				C98.2,110.4,117.6,94.2,139.6,96.2z M137.9,159.9c13.2-1.1,23.1-12.6,22-25.8c-1.1-13.2-12.6-23.1-25.9-22
				c-11.7,0.9-21.1,10.3-22,22c-0.1,1.3-0.1,2.6,0,3.8C113.1,151.1,124.6,161,137.9,159.9z"/>
			<path d="M136,128c4.4,0,8,3.6,8,8c0,2.2-0.9,4.2-2.3,5.7c-1.4,1.4-3.4,2.3-5.7,2.3s-4.2-0.9-5.7-2.3c-1.4-1.4-2.3-3.4-2.3-5.7
				s0.9-4.2,2.3-5.7C131.8,128.9,133.8,128,136,128z"/>
		</g>
		<g>
		</g>
	</g>
</g>
</svg>
