<svg id="scream" xmlns="http://www.w3.org/2000/svg" viewBox="0 0 416 496"><title>tsIcon</title><g id="full"><g id="face"><path id="mouth" d="M208,288c13.68,0,24-17.19,24-40s-10.32-40-24-40-24,17.19-24,40S194.32,288,208,288Zm0-64c2,0,8,8.51,8,24s-6,24-8,24-8-8.51-8-24S206,224,208,224Z"/><g id="eye2"><path id="eyeball2" d="M276.35,175.84a40,40,0,1,0-36.19-36.19A40,40,0,0,0,276.35,175.84ZM278,112.08a24,24,0,1,1-22,22A24,24,0,0,1,278,112.08Z"/><rect id="pupil2" x="272" y="128" width="16" height="16" rx="8"/></g><g id="eye1"><path id="eyeball1" d="M132.35,175.84a40,40,0,1,0-36.19-36.19A40,40,0,0,0,132.35,175.84ZM134,112.08a24,24,0,1,1-22,22A24,24,0,0,1,134,112.08Z"/><rect id="pupil1" x="128" y="128" width="16" height="16" rx="8"/></g><rect id="nose" x="200" y="120" width="16" height="64" rx="8"/></g><path id="outline" d="M400.75,322.13a69.47,69.47,0,0,0-24.66-19.3.19.19,0,0,1-.09-.15V250.24a.29.29,0,0,1,0-.09,176.37,176.37,0,0,0,24-88.79v-6a176.21,176.21,0,0,0-9.06-55.8l-1.13-3.39A35.25,35.25,0,0,0,356.31,72h-1a34.84,34.84,0,0,0-18.18,5.16.16.16,0,0,1-.23-.07A140,140,0,0,0,212,0h-8A140,140,0,0,0,79.1,77.09a.16.16,0,0,1-.23.07A34.84,34.84,0,0,0,60.69,72h-1A35.27,35.27,0,0,0,26.18,96.15L25,99.54a176.7,176.7,0,0,0-9,55.79v6a176.44,176.44,0,0,0,24,88.8.19.19,0,0,1,0,.08v52.44a.17.17,0,0,1-.09.15,69.23,69.23,0,0,0-24.65,19.3A69.86,69.86,0,0,0,0,365.61V495.83a.18.18,0,0,0,.17.17H415.83a.18.18,0,0,0,.17-.17V365.61A69.86,69.86,0,0,0,400.75,322.13ZM339.94,196.84a138.73,138.73,0,0,0,3.53-104.52.18.18,0,0,1,.06-.19A19,19,0,0,1,355.31,88h1a19.29,19.29,0,0,1,18.33,13.21l1.13,3.39A160.28,160.28,0,0,1,384,155.33v6a160.37,160.37,0,0,1-22.86,82.53h0A8.1,8.1,0,0,0,360,248V305.6a7.48,7.48,0,0,1-2.18,5.27L314.1,354.59a5.31,5.31,0,0,1-8.89-2.46A286.78,286.78,0,0,1,296.05,284a8.08,8.08,0,0,1,2-5.4,117.82,117.82,0,0,0,18.55-29.17ZM205.63,16h4.74c71,0,128.8,58.92,125.49,129.88a122.69,122.69,0,0,1-10.55,44.46L301.93,243a102.78,102.78,0,0,1-187.86,0L90.69,190.34a122.69,122.69,0,0,1-10.55-44.46C76.83,74.92,134.59,16,205.63,16Zm41.23,297.38a.17.17,0,0,1,.2.23l-35,75.78c-1.47,3.17-6.71,3.18-8.17,0l-35-75.77a.17.17,0,0,1,.2-.23,117.34,117.34,0,0,0,77.71,0ZM32,161.35v-6a160.55,160.55,0,0,1,8.22-50.73l1.14-3.39A19.29,19.29,0,0,1,59.69,88h1a19.09,19.09,0,0,1,11.79,4.13.16.16,0,0,1,0,.19,138.85,138.85,0,0,0,3.53,104.52l23.39,52.61a117.77,117.77,0,0,0,18.93,29.6,6.43,6.43,0,0,1,1.59,4.24,287.54,287.54,0,0,1-9.12,68.64,5.42,5.42,0,0,1-9.09,2.51L59.11,311.8A10.62,10.62,0,0,1,56,304.29v-56.6a6.8,6.8,0,0,0-1-3.54l-.15-.26A160.44,160.44,0,0,1,32,161.35ZM400,480H317.79a5.79,5.79,0,0,1-5.79-5.79v-10a.18.18,0,0,0-.17-.17H296.17a.18.18,0,0,0-.17.17V475a5,5,0,0,1-5,5H125.63a5.63,5.63,0,0,1-5.63-5.63v-58.2a.18.18,0,0,0-.17-.17H104.17a.18.18,0,0,0-.17.17v58.9A4.93,4.93,0,0,1,99.07,480H16.17a.18.18,0,0,1-.17-.17V365.61a53.73,53.73,0,0,1,11.75-33.49A52.85,52.85,0,0,1,34,325.54a12.3,12.3,0,0,1,16.8.59l51.2,51.2a6.76,6.76,0,0,1,2,4.78v17.72a.17.17,0,0,0,.17.17h15.66a.18.18,0,0,0,.17-.17V378.57a7.89,7.89,0,0,1,.41-2.5h0a302.64,302.64,0,0,0,14.65-72.62,4.55,4.55,0,0,1,7-3.5c1.35.88,2.71,1.75,4.09,2.58a.16.16,0,0,1,.06.08l43.15,93.47a20.49,20.49,0,0,0,37.22,0l43.14-93.48a.27.27,0,0,1,.07-.08c1.41-.86,2.8-1.74,4.18-2.66a4.5,4.5,0,0,1,6.93,3.45,302.14,302.14,0,0,0,14.66,72.75l.39,1.19a.11.11,0,0,1,0,.05v70.52a.18.18,0,0,0,.17.17h15.66a.18.18,0,0,0,.17-.17V379.38a.18.18,0,0,1,.05-.12l53.87-53.87a11.14,11.14,0,0,1,15-.78,52.79,52.79,0,0,1,7.36,7.51A53.8,53.8,0,0,1,400,365.61Z"/></g></svg>