<svg id="venus" xmlns="http://www.w3.org/2000/svg" viewBox="0 0 412.8 499.96">
<defs><style>
    #oyster:hover {fill: pink; transition: fill 0.2s ease-in-out;}
</style></defs>
<title>venusIcon</title><g id="oyster"><g id="shell10"><path d="M154,322.52c.42-.42.87-.77,1.31-1.16l1.35-1c.91-.68,1.85-1.26,2.79-1.84a45.63,45.63,0,0,1,5.86-2.91,43.88,43.88,0,0,1,6.28-2c1.11-.25,2.22-.45,3.47-.61a17.72,17.72,0,0,1,4.58.06l-1.06-.1,1.78.07,1.7.12c1.12.15,2.22.27,3.29.47a50.17,50.17,0,0,1,6.34,1.57,49.07,49.07,0,0,1,6.1,2.39c1,.49,2,1,3,1.57l1.45.89c.48.34,1,.64,1.43,1l-.1.59c-2.08-.31-4.16-.59-6.24-.86s-4.15-.58-6.23-.84-4.16-.49-6.25-.67-4.17-.33-6.23-.32h-.12a22.83,22.83,0,0,0-6,.28c-2,.29-4.08.69-6.12,1.1s-4.06.89-6.09,1.37-4,.94-6.07,1.45Z"/></g><g id="shell9"><path d="M292.55,342a56,56,0,0,1,10.84-2,52.74,52.74,0,0,1,11.27.23,22.38,22.38,0,0,1,6.21,1.75,10.68,10.68,0,0,1,3.65,2.64,10.46,10.46,0,0,1,.91,1.22,12.78,12.78,0,0,1,.74,1.59,10.55,10.55,0,0,1,.37,1.81,7.29,7.29,0,0,1,0,1.75,4.82,4.82,0,0,1-.13.83l-.2.71c-.08.23-.16.47-.25.7a2.92,2.92,0,0,1-.27.61,19.24,19.24,0,0,1-1,1.79l-1.5,2.2L320,362.19a203.71,203.71,0,0,1-13.45,16.52,121.13,121.13,0,0,1-15.77,14.78l-.48-.36,6.14-8.64,6.22-8.59,12.44-17.17,3.15-4.27,1.58-2.13a9.65,9.65,0,0,0,.67-1.05,3,3,0,0,0,.22-.53,1.4,1.4,0,0,0,.14-.55,2.35,2.35,0,0,0-.6-2,6.37,6.37,0,0,0-1.93-1.47,21,21,0,0,0-4.85-1.77,72.3,72.3,0,0,0-10.39-1.66c-3.5-.36-7-.58-10.55-.66Z"/></g><g id="shell8"><path d="M336.69,357.05a69.91,69.91,0,0,1,12,4.43c1.92.94,3.81,1.95,5.7,3.06a37.93,37.93,0,0,1,5.52,4,17.94,17.94,0,0,1,2.74,2.94,11.35,11.35,0,0,1,.65,1c.22.43.42.84.61,1.31a10.93,10.93,0,0,1,.43,1.75c0,.36.05.73.05,1.09,0,.19,0,.37,0,.55s-.07.41-.11.61a9.81,9.81,0,0,1-.33,1.21,7.84,7.84,0,0,1-.55,1.08,8.63,8.63,0,0,1-.67,1q-.34.36-.72.72l-.38.33-.27.24-.3.24-.59.5-2.38,2c-1.6,1.32-3.22,2.59-4.83,3.89l-4.9,3.78c-6.6,5-13.36,9.68-20.44,14a157.09,157.09,0,0,1-22.17,11.77l-.36-.48,9.82-7.59,9.87-7.52,19.75-15,9.94-7.43,2.48-1.86c.39-.31.89-.63,1.19-.92a1.37,1.37,0,0,0,.41-.46A1.28,1.28,0,0,0,359,377l.08-.28a3.54,3.54,0,0,0-.73-2.53,15.23,15.23,0,0,0-1.87-2.34,63.32,63.32,0,0,0-9.59-7.68c-3.39-2.33-6.9-4.54-10.47-6.6Z"/></g><g id="shell7"><path d="M371.77,386.1a104.13,104.13,0,0,1,13.05,11.15c4,4.15,7.89,8.42,11,13.9a25.94,25.94,0,0,1,2.07,4.59,14.21,14.21,0,0,1,.62,2.91,10.65,10.65,0,0,1-.22,3.7,8.84,8.84,0,0,1-2.22,4,9.72,9.72,0,0,1-3.51,2.28,13.54,13.54,0,0,1-1.66.51l-1.13.28-2,.48c-2.63.67-5.32,1.34-8,2.07l-8.09,2.1c-10.83,2.78-21.72,5.43-32.72,7.66-2.76.54-5.49,1.19-8.27,1.67L322.4,445c-2.79.43-5.56.94-8.36,1.35l-4.19.63c-1.41.19-2.8.4-4.17.65l-.26-.54c2.67-1.1,5.33-1.86,8-2.73l8.06-2.47c5.39-1.6,10.79-3.14,16.19-4.68q16.21-4.57,32.51-8.88c5.45-1.37,10.9-2.74,16.41-3.92,1.35-.3,2.83-.52,4-.9a3.7,3.7,0,0,0,2.5-2.52,7.73,7.73,0,0,0-.19-3.89,23,23,0,0,0-1.46-3.84,80.21,80.21,0,0,0-9.2-13.94c-3.45-4.41-7.12-8.67-10.95-12.75Z"/></g><g id="shell6"><path d="M395.85,440.28a32.24,32.24,0,0,1,1.21,6.78,34.3,34.3,0,0,1-.13,7,31.24,31.24,0,0,1-.58,3.55,34.54,34.54,0,0,1-1.05,3.52,25.11,25.11,0,0,1-3.55,6.72,26,26,0,0,1-12.71,9,39.49,39.49,0,0,1-14.94,1.67l.45,0c-6.27.14-12.55,0-18.84-.4-3.14-.25-6.29-.49-9.44-.9a94.2,94.2,0,0,1-9.51-1.57c-5.8-1.35-11.81-2.29-17.81-3.09a118,118,0,0,0-18.33-1l-.14-.58A74.51,74.51,0,0,1,309,469.09a134.29,134.29,0,0,1,18.57,1.53A177.15,177.15,0,0,0,346,472.29q9.25.4,18.54.45h.05a36.56,36.56,0,0,0,13-1,22.88,22.88,0,0,0,5.94-2.57,21.91,21.91,0,0,0,4.92-4.19,27.89,27.89,0,0,0,5.7-11.62,42.51,42.51,0,0,0,1.11-13.06Z"/></g><g id="shell5"><path d="M231.52,497.61a46.8,46.8,0,0,1-13.73,2.32,70,70,0,0,1-13.43-.88,64.51,64.51,0,0,1-13.1-3.53,43.38,43.38,0,0,1-6.32-3.09,23.68,23.68,0,0,1-3-2.09,10.88,10.88,0,0,1-2.57-2.79l.34-.48a23.83,23.83,0,0,0,6.1,2.25q3.19.85,6.44,1.51c4.33.89,8.69,1.62,13.06,2.29s8.73,1.41,13.11,2L231.58,497Z"/></g><g id="shell4"><path d="M205.65,473.59a150.81,150.81,0,0,1-26.73,8.13,195.47,195.47,0,0,1-27.84,3.75,190.09,190.09,0,0,1-28.23-.33c-4.7-.4-9.39-1-14.07-1.72-2.33-.37-4.66-.83-7-1.24s-4.62-1-6.93-1.56a189.9,189.9,0,0,1-27-8.83c-2.21-.84-4.38-1.92-6.57-2.89s-4.24-2.11-6.34-3.19-4.16-2.18-6.2-3.3-4.12-2.21-6.16-3.37-4.09-2.29-6.11-3.51l-3-1.79-3-1.89a109.45,109.45,0,0,1-11.8-8.42A59.85,59.85,0,0,1,8,432.54,66.15,66.15,0,0,1,.78,419.39l-.32-.76-.08-.75a95.38,95.38,0,0,1-.33-12.11c.05-2,.13-3.94.23-5.9S.51,396,.68,394l.81-10,7.32,6.67c3.66,3.34,7.58,6.68,11.49,9.91s7.85,6.48,11.87,9.61,8.09,6.19,12.22,9.17,8.28,5.94,12.53,8.74,8.54,5.56,12.92,8.14,8.8,5.15,13.35,7.44A143.9,143.9,0,0,0,111.61,455l-.12.59a132.11,132.11,0,0,1-29.31-9.69A241.31,241.31,0,0,1,55,431.31c-8.79-5.38-17.29-11.22-25.59-17.32S13,401.47,5.22,394.68l.83-.33c-.24,3.81-.38,7.64-.42,11.47a103.62,103.62,0,0,0,.45,11.43l0-.16a60.42,60.42,0,0,0,6.68,12,54.08,54.08,0,0,0,9.59,9.77c1.76,1.48,3.65,2.79,5.5,4.15s3.8,2.61,5.76,3.82l2.92,1.85,3,1.78c2,1.2,4,2.33,6,3.48s4,2.26,6.05,3.37,4.06,2.22,6.1,3.29c4,2.25,8.23,4.15,12.45,6a184.15,184.15,0,0,0,26.13,9A198.64,198.64,0,0,0,151,481.93a208.62,208.62,0,0,0,27.56-2.5q6.84-1.08,13.59-2.64A134.66,134.66,0,0,0,205.45,473Z"/></g><g id="shell3"><path d="M11.26,375.25a35.26,35.26,0,0,1,1.17-8.07,26.86,26.86,0,0,1,3.4-7.89,15.38,15.38,0,0,1,3.33-3.55,11.06,11.06,0,0,1,5.11-2.16,11.61,11.61,0,0,1,5.57.55,16.51,16.51,0,0,1,2.4,1c.74.38,1.43.8,2.13,1.22l1.91,1.36L38,359.15c1.06,1,2.16,2.14,3,3s1.8,1.8,2.68,2.72l2.75,2.69c1.8,1.81,3.68,3.61,5.53,5.4s3.73,3.6,5.58,5.41c7.45,7.23,14.94,14.5,22.17,22.08a307.47,307.47,0,0,1,21,23.66l-.38.46q-6-5.06-12-10.18T76.55,404c-7.83-7-15.59-14.05-23.16-21.32-3.74-3.68-7.47-7.37-11.07-11.2l-2.69-2.88L37,365.62c-.87-1-1.73-1.95-2.61-2.89L33,361.39l-1.48-1.22c-.53-.36-1.05-.73-1.59-1.06a12.64,12.64,0,0,0-1.7-.82,7.86,7.86,0,0,0-3.63-.6,7.29,7.29,0,0,0-3.47,1.17,13.45,13.45,0,0,0-2.82,2.52,27.29,27.29,0,0,0-4,6.62,46.72,46.72,0,0,0-2.51,7.37Z"/></g><g id="shell2"><path d="M43.37,344.07a54.81,54.81,0,0,1,11.15-9.8c4.24-2.67,8.86-5.18,14.74-5.83.74-.08,1.51-.09,2.27-.12a22,22,0,0,1,2.39.2,13.74,13.74,0,0,1,2.44.59c.4.15.81.27,1.21.44l1.18.59A16.06,16.06,0,0,1,81,331.59a21.58,21.58,0,0,1,1.89,1.81c.52.66,1.07,1.33,1.52,2s.84,1.4,1.19,2.11.62,1.42.9,2.14l.63,1.54c.43,1,.78,2.06,1.29,3.09l1.38,3.13c.48,1.05,1,2.08,1.5,3.13,4,8.37,8.43,16.74,12.58,25.3s8.4,17.16,11.94,26.28l-.5.34q-8.11-11.87-15.53-24.17c-4.92-8.22-9.73-16.52-13.9-25.17-.51-1.09-1-2.16-1.52-3.26l-1.42-3.32c-.49-1.1-.86-2.25-1.29-3.38L81,341.49l-.63-1.62a10.81,10.81,0,0,0-4.34-5.15,12.08,12.08,0,0,0-6.62-1.51c-4.68.21-9.22,1.94-13.48,4a78.18,78.18,0,0,0-12.22,7.36Z"/></g><g id="shell1"><path d="M94.52,326a143.71,143.71,0,0,1,20.29-6.42c3.34-.87,6.77-1.62,9.82-2.47l1-.31.25-.07.12,0,0,0a.3.3,0,0,1,.11-.06h0l.24-.11a6.26,6.26,0,0,1,1.53-.45,6.41,6.41,0,0,1,1.75,0,4.19,4.19,0,0,1,.75.17c.23.07.46.15.68.24a6.67,6.67,0,0,1,.6.3l.42.26a6.29,6.29,0,0,1,.72.56c.16.15.32.3.47.46a8.76,8.76,0,0,1,1.05,1.42c.14.21.21.36.31.54l.25.48a25,25,0,0,1,1.19,3.17c.29,1,.55,1.87.77,2.78.43,1.82.8,3.58,1.12,5.35s.6,3.51.82,5.26c.48,3.5.84,7,1.11,10.47s.4,7,.62,10.44c0,1.75.17,3.46.28,5.19,0,.86.13,1.71.25,2.55a7.2,7.2,0,0,0,.62,2.39l-.38.46a6.29,6.29,0,0,1-1.52-2.29,24.82,24.82,0,0,1-1-2.48c-.56-1.68-1-3.37-1.45-5.08-.82-3.41-1.51-6.85-2.18-10.28-1.36-6.87-2.51-13.79-4.16-20.54a30.81,30.81,0,0,0-1.51-4.91,3.89,3.89,0,0,0-.58-1,.89.89,0,0,0-.2-.18s0,0,0,0a2,2,0,0,0-.31.11,17.4,17.4,0,0,1-2.63.74c-3.46.73-6.93,1.21-10.4,1.68s-7,.88-10.43,1.26-7,.69-10.46,1Z"/></g></g><g id="body"><g id="leftLeg"><path d="M212.72,451.06c3.05,1.77,6.11,3.53,9.1,5.41s6,3.77,8.88,5.77,5.81,4.07,8.65,6.27c1.43,1.1,2.82,2.26,4.19,3.54a28.7,28.7,0,0,1,2.05,2.07c.34.39.68.8,1,1.28l.51.79c.19.35.36.72.52,1.09l-1.89-2a6.62,6.62,0,0,0,3.39.06,3.2,3.2,0,0,0,1.11-.61,2,2,0,0,0,.55-.78,5.33,5.33,0,0,0,.12-3,14.06,14.06,0,0,0-.49-2c-.23-.7-.54-1.43-.8-2.14l.42.82c-1.14-1.55-2.3-3.08-3.53-4.55s-2.51-2.91-3.79-4.31-2.63-2.76-4-4c-.68-.65-1.38-1.28-2.09-1.88l-1-.88c-.33-.27-.74-.59-1-.75l-.9-.64-.53-1.08c-.2-.39-.26-.56-.35-.76s-.16-.41-.22-.58c-.13-.37-.26-.74-.35-1.08-.22-.7-.37-1.37-.52-2a31,31,0,0,1-.54-4,41.18,41.18,0,0,1,.18-7.63,60,60,0,0,1,3.66-14.14l.63-1.68.72-1.64c.48-1.08.92-2.2,1.46-3.24l3.08-6.12c2-3.84,3.86-7.77,5.68-11.74s3.49-8,5.09-12.13c.82-2,1.59-4.09,2.36-6.15l2.33-6.18c1.51-4.14,3-8.3,4.29-12.48q1-3.14,1.92-6.26l.88-3.1.4-1.51.31-1.37.19-.82.08-.19a44,44,0,0,1,5-8.29c.46-.63.94-1.25,1.43-1.87l1.35-1.65c.87-1.1,1.72-2.24,2.58-3.37,3.43-4.54,6.69-9.26,9.69-14.14a150.73,150.73,0,0,0,8.36-15l.95-1.93c.31-.65.58-1.32.87-2,.57-1.33,1.2-2.63,1.67-4s1.1-2.68,1.56-4.05l1.36-4.14.58.12a96.09,96.09,0,0,1-5,16.75,143.37,143.37,0,0,1-7.45,15.82c-2.79,5.12-5.85,10.09-9.12,14.92-.82,1.2-1.65,2.4-2.51,3.58s-1.77,2.31-2.57,3.51a41.48,41.48,0,0,0-4.19,7.53l0-.11a121.61,121.61,0,0,1-3.27,13.06q-1.91,6.44-4.06,12.78c-2.89,8.47-6.07,16.83-9.64,25-1.84,4.08-3.68,8.17-5.8,12.12l-3.07,5.93c-.52,1-.92,2-1.39,3l-.68,1.52-.6,1.55a54.19,54.19,0,0,0-3.44,12.78,34.52,34.52,0,0,0-.31,6.58,19.86,19.86,0,0,0,1.26,6.34l-.15-.18A57.11,57.11,0,0,1,242.4,451q2.16,2.14,4.16,4.43c1.32,1.54,2.62,3.09,3.84,4.71s2.39,3.27,3.52,4.94l0,.05,0,0c.27.87.6,1.73.84,2.61a18.93,18.93,0,0,1,.52,2.72,9.11,9.11,0,0,1-.82,5.51,6.75,6.75,0,0,1-4.57,3.21,10.26,10.26,0,0,1-5.54-.52l-.16-.07-.07-.18a8.08,8.08,0,0,0-1.31-2.09c-.55-.67-1.13-1.31-1.74-1.93-1.21-1.25-2.5-2.43-3.8-3.59-2.62-2.32-5.34-4.53-8.09-6.7-5.5-4.33-11.14-8.51-16.85-12.56Z"/></g><g id="leftArmOuter"><path d="M269.79,272.07a50.57,50.57,0,0,0,7.09,2.4,42.33,42.33,0,0,0,7.21,1.41,31.74,31.74,0,0,0,7,0,18.23,18.23,0,0,0,6.14-2.11l-1.44,1.66q1.41-5.16,3-10.31.79-2.58,1.65-5.14c.59-1.71,1.23-3.41,1.89-5.11s1.37-3.4,2.18-5.12c.4-.86.84-1.73,1.31-2.62l.85-1.39.78-1.17c2-3,4-5.77,5.78-8.67s3.44-5.83,5-8.83c.71-1.52,1.48-3,2.11-4.57l1-2.3.92-2.33a84,84,0,0,0,5-19.29l0,1.21c-.82-9.46-2.41-19.15-4.09-28.8-.77-4.85-1.61-9.7-2.45-14.56l-1.28-7.29-1.16-7.34c-.38-2.45-.76-4.91-1.11-7.39-.17-1.24-.36-2.47-.51-3.74s-.3-2.51-.39-3.84c-.05-.65-.11-1.28-.11-2.06a18.82,18.82,0,0,1,0-2.14l.08-1,.1-1,.21-1.83a35.88,35.88,0,0,0,.23-6.82,19.65,19.65,0,0,0-1.46-6.43l-.3-.79-.39-.75-.78-1.52-.95-1.45a12.68,12.68,0,0,0-1-1.44,31.1,31.1,0,0,0-2.28-2.73c-.84-.86-1.63-1.78-2.56-2.56l-1.34-1.24a16,16,0,0,0-1.39-1.2l-2.89-2.3.3-.52a51.15,51.15,0,0,1,11.69,9.17,13.66,13.66,0,0,1,1.21,1.43l1.15,1.48,1,1.6.5.79.4.85a22.45,22.45,0,0,1,2.25,7.14,36.65,36.65,0,0,1,.24,7.47c-.05,1.24-.15,2.47-.16,3.69a13.63,13.63,0,0,0,.07,1.81c0,.6.11,1.21.19,1.82.68,4.86,1.68,9.71,2.63,14.55,1.95,9.68,4,19.35,5.81,29.07s3.55,19.46,4.47,29.34v.13A90.33,90.33,0,0,1,327.58,220l-1,2.47-1.11,2.43c-.71,1.63-1.57,3.19-2.37,4.77-1.69,3.13-3.5,6.19-5.48,9.14s-4.09,5.81-6.19,8.64c-.53.71-1,1.42-1.49,2.15s-.87,1.51-1.27,2.29c-.81,1.56-1.56,3.16-2.26,4.77-2.83,6.46-5.23,13.12-7.49,19.81l-.05.15-.14.07a21.31,21.31,0,0,1-7.43,1.88,31.8,31.8,0,0,1-7.61-.59,45.23,45.23,0,0,1-7.3-2.14,50.12,50.12,0,0,1-6.89-3.21Z"/></g><g id="hairShoulder"><path d="M338.63,98a31.64,31.64,0,0,1,11.64,2.43,32.5,32.5,0,0,1,5.48,3.07,20.9,20.9,0,0,1,4.81,4.77c.33.5.67,1,1,1.52s.58,1.08.85,1.63l.66,1.76c.18.6.32,1.21.48,1.83a20,20,0,0,1,0,7.43,23.23,23.23,0,0,1-.94,3.42A26.06,26.06,0,0,1,361.3,129c-.49,1-1.08,1.92-1.62,2.88s-1.19,1.77-1.82,2.63l.48-.75c-.88,1.6-1.72,3.23-2.64,4.82s-1.84,3.19-2.84,4.75-2,3.13-3.14,4.65-2.29,3-3.53,4.52c-.66.74-1.29,1.46-2,2.17l-1.07,1.05c-.36.34-.77.66-1.16,1a31.35,31.35,0,0,1-4.9,3.35l-4.8,2.55c-1.59.85-3.15,1.79-4.8,2.69l-.44-.41a70.44,70.44,0,0,1,8-7.32,34.8,34.8,0,0,0,7.26-7.82c2.05-2.94,3.86-6.06,5.63-9.19l2.58-4.75L353,131l0,0,0,0a27.19,27.19,0,0,0,4.91-9.73,15.22,15.22,0,0,0,.25-5.38,13.53,13.53,0,0,0-1.83-5,23.48,23.48,0,0,0-7.87-7.54,43,43,0,0,0-10.06-4.65Z"/></g><g id="hairLongUpper"><path d="M390.64,240.59a30.65,30.65,0,0,1-22.52,4.21,31,31,0,0,1-3.06-.86,26.66,26.66,0,0,1-3-1.29,24,24,0,0,1-5.4-3.73,28.64,28.64,0,0,1-7.17-10.64l0-.13-.09-.27c-1-3.16-2.06-6.33-3.35-9.42-.58-1.58-1.32-3.08-2-4.65-.33-.78-.74-1.52-1.08-2.29s-.71-1.56-1.11-2.31c-1.51-3.06-3.1-6.14-4.9-9.15s-3.62-6.08-5.6-9.21l.38-.47a64.12,64.12,0,0,1,7.69,7.59,80.78,80.78,0,0,1,11.73,18.09,81.12,81.12,0,0,1,3.94,10.07v0a25.41,25.41,0,0,0,5.57,8.78,21.71,21.71,0,0,0,8.89,5.34A31,31,0,0,0,380,241.57,40.81,40.81,0,0,0,390.46,240Z"/></g><g id="hairLongLower"><path d="M412.3,289.47A65.28,65.28,0,0,0,400.62,281,48.66,48.66,0,0,0,388,276c-.53-.14-1.07-.25-1.61-.34s-1.07-.21-1.62-.26c-1.07-.18-2.15-.29-3.23-.39a43.52,43.52,0,0,0-6.46.07c-.53.06-1.07.12-1.61.16l-1.6.24-3.73.54-1.94.25c-.64.07-1.3.11-1.95.16-1.3.08-2.6.23-3.91.24a63.77,63.77,0,0,1-15.77-1.46,46.84,46.84,0,0,1-14.92-6A17.18,17.18,0,0,1,328,268l-1.65-1.19a35.83,35.83,0,0,1-3.08-2.68,37.41,37.41,0,0,1-2.72-3.06c-.41-.54-.84-1.06-1.23-1.61s-.75-1.14-1.1-1.72a19.26,19.26,0,0,1-.95-1.8c-.28-.6-.61-1.24-.83-1.8-.46-1.14-.95-2.25-1.39-3.4s-.94-2.26-1.45-3.35a16.78,16.78,0,0,0-.78-1.59c-.13-.23-.34-.49-.37-.56s0,0,.06,0a.37.37,0,0,0,.15-.08c.08-.09,0-.12,0-.09a.87.87,0,0,0-.09.33l-.59.1a1.55,1.55,0,0,1,0-.57.63.63,0,0,1,.22-.39.55.55,0,0,1,.5-.06,2.57,2.57,0,0,1,.85.65,17.94,17.94,0,0,1,1.18,1.46c.74,1,1.41,2,2.07,3.07s1.31,2.09,1.94,3.15c.31.53.66,1,1,1.52a13.67,13.67,0,0,0,1.06,1.47A33.36,33.36,0,0,0,331.93,265a49.2,49.2,0,0,0,13.74,4.64,67.42,67.42,0,0,0,14.54,1c1.22,0,2.43-.14,3.65-.2.61,0,1.22-.06,1.82-.12l1.82-.21,3.65-.43,1.85-.21,1.86-.11a43,43,0,0,1,7.44.34,42,42,0,0,1,7.25,1.72,47.26,47.26,0,0,1,23.25,17.74Z"/></g><g id="rightLeg"><path d="M229.85,198.31q.41,8.28,1,16.55c.37,5.51.78,11,1.41,16.46.32,2.74.71,5.39,1.21,8.07a46.51,46.51,0,0,1,.8,8.63,68.26,68.26,0,0,1-.52,8.58,67.34,67.34,0,0,1-1.57,8.53l.11-.54c-.34,5.19-.64,10.44-.87,15.66s-.41,10.46-.5,15.68q-.06,3.92-.07,7.83c0,2.6,0,5.2,0,7.79.1,5.18.31,10.36.82,15.39l.29,2.86-2.8,1.37c-.45.22-1.14.59-1.73.92s-1.21.7-1.81,1.07c-1.2.74-2.38,1.55-3.53,2.39a56.18,56.18,0,0,0-6.51,5.5,52,52,0,0,0-10,13.38,45.33,45.33,0,0,0-4.74,15.79c-.09.68-.11,1.38-.17,2.07s-.1,1.38-.1,2.08l0,2.11v2.33c0,1.55,0,3.1,0,4.66l-.11,4.69a143.12,143.12,0,0,1-1.91,19,72,72,0,0,1-5.88,18.8A58,58,0,0,1,181,442.22,77,77,0,0,1,165.21,454l2.63-3.77a5.67,5.67,0,0,0,1.11,4.46,6.7,6.7,0,0,0,4.35,2.42l-2.2.15c.7-.21,1.39-.43,2-.67a20,20,0,0,0,1.86-.81,12.36,12.36,0,0,0,1.56-.93,6,6,0,0,0,.57-.45l.19-.17,0,0-.17.24.38-.5c4.84-5.58,9.7-11.07,14.69-16.52,2.51-2.71,5-5.4,7.66-8.06.64-.67,1.32-1.34,2-2s1.33-1.33,2-2,1.39-1.32,2.19-2l.57-.5a7.85,7.85,0,0,1,.64-.53l1.46-1.09-2.15,3.41c.54-3.68,1.12-7.6,1.8-11.4s1.46-7.64,2.32-11.44a152.12,152.12,0,0,1,6.94-22.47c.35-.92.74-1.84,1.15-2.74l1.22-2.72c.84-1.81,1.8-3.57,2.71-5.35l1.55-2.6c.53-.86,1-1.75,1.62-2.57,1.16-1.64,2.42-3.42,3.44-4.8a171.56,171.56,0,0,0,11.72-18.95c3.59-6.62,6.92-13.41,10.06-20.3s6.23-13.81,9-20.85A159.37,159.37,0,0,0,267.3,277l.67-2.84.81-2.8a44.44,44.44,0,0,1,2.18-5.42,26.33,26.33,0,0,1,3.05-5,13.13,13.13,0,0,1,4.42-3.88l.24.56a12.4,12.4,0,0,0-3.95,3.82,25.32,25.32,0,0,0-2.71,4.95,48.82,48.82,0,0,0-3.12,10.89,161.78,161.78,0,0,1-6.4,22q-3.84,10.78-8.33,21.31c-3,7-6.16,14-9.63,20.76A161,161,0,0,1,233,361.06c-1.11,1.57-2.16,3.13-3.23,4.69a27,27,0,0,0-1.47,2.43l-1.41,2.46c-.83,1.7-1.71,3.38-2.48,5.12l-1.11,2.62c-.38.86-.74,1.74-1.05,2.64-5.38,14.22-8.22,29.27-10.15,44.36l0,.2-.19.15a25.07,25.07,0,0,0-2.07,1.69c-.68.6-1.34,1.23-2,1.86-1.31,1.26-2.58,2.57-3.84,3.89-2.54,2.63-5,5.33-7.46,8q-7.36,8.15-14.5,16.47l0-.05a9.37,9.37,0,0,1-2,1.91,17,17,0,0,1-2.3,1.4,22.93,22.93,0,0,1-2.44,1.08c-.83.32-1.68.59-2.52.84l-.12,0-.12,0a12.6,12.6,0,0,1-8.17-4.58,11.65,11.65,0,0,1-2.33-9.08l.05-.27.24-.14A75,75,0,0,0,176.81,438a52.33,52.33,0,0,0,10.58-14.62,66,66,0,0,0,5.47-17.29,139.43,139.43,0,0,0,1.92-18.15l.16-4.57c.05-1.53,0-3,.07-4.58a79.21,79.21,0,0,1,.45-9.21A50.77,50.77,0,0,1,201,352a56.06,56.06,0,0,1,11.25-14.58,62.33,62.33,0,0,1,7.16-5.82,54.83,54.83,0,0,1,8-4.68l-.26.45c-.43-5.26-.54-10.54-.54-15.8s.17-10.53.39-15.79c.46-10.51,1.22-21,2.22-31.49v-.07A67.64,67.64,0,0,0,231.73,248a44.06,44.06,0,0,0-.47-8.2c-.42-2.74-.72-5.51-.94-8.27-.43-5.52-.65-11-.82-16.58s-.24-11.06-.25-16.59Z"/></g><g id="leftHand"><path d="M257.3,248.14a18.06,18.06,0,0,1,3.06-9.72,21.76,21.76,0,0,1,7.33-7.06,18.35,18.35,0,0,1,10.58-2.61,14.27,14.27,0,0,1,5.4,1.55,11.29,11.29,0,0,1,2.25,1.62,9.37,9.37,0,0,1,1.75,2.11l-.24.55a17.76,17.76,0,0,0-8.58-1.08,21.7,21.7,0,0,0-8.13,3,36.81,36.81,0,0,0-7,5.32q-1.6,1.53-3.07,3.2a41.85,41.85,0,0,0-2.84,3.42Z"/></g><g id="leftArmInner"><path d="M299.84,156.25a213.59,213.59,0,0,1,9.46,22.2l1.1,2.71c.36.88.69,1.8,1.06,2.63s.74,1.62,1.07,2.35a2.2,2.2,0,0,1,.21.32l.3.52a12.32,12.32,0,0,1,1.07,2.27,12.75,12.75,0,0,1,.62,2.35,17.43,17.43,0,0,1,.17,2.25,18.7,18.7,0,0,1-.43,4.13,24.25,24.25,0,0,1-1.15,3.68c-.24.59-.49,1.15-.79,1.76l-.76,1.4a41.53,41.53,0,0,0-2.21,4.78,37,37,0,0,0-1.61,4.87,22.7,22.7,0,0,0-.68,4.68l0,.56,0,1,0,1.1,0,.54-.1.48-.4,1.91c-.18.59-.38,1.14-.57,1.71-1.55,4.47-4,7.89-6.54,11.23a56.08,56.08,0,0,1-8.77,8.79l-.48-.36a103.67,103.67,0,0,0,6.44-10c1-1.74,1.91-3.49,2.72-5.29.44-.89.76-1.83,1.14-2.73l.47-1.4a10.33,10.33,0,0,0,.42-1.41c.11-.47.24-.95.34-1.42l.18-1.44a7.5,7.5,0,0,0,0-1.42c0-.46,0-1-.07-1.49a24.42,24.42,0,0,1,.41-6.1,42.29,42.29,0,0,1,4.1-11.39,18.87,18.87,0,0,0,2.23-5.37,12,12,0,0,0,.38-2.84,8,8,0,0,0-.38-2.77,7.6,7.6,0,0,0-.55-1.28l-.69-1.39c-.37-.94-.75-1.89-1.05-2.85-.64-1.91-1.18-3.84-1.72-5.77-1.06-3.86-2-7.74-2.92-11.63s-1.72-7.81-2.52-11.73Z"/></g><g id="rightArm"><path d="M287.68,134.58c-2.1,1.28-4.23,2.5-6.41,3.67a73.32,73.32,0,0,1-6.76,3.18c-1.16.48-2.36.91-3.62,1.29a19.35,19.35,0,0,1-2,.47c-.72.09-1.49.18-2.05.2l-7.33.46,1.41-.43c-.34.29-.85.76-1.25,1.17s-.83.89-1.22,1.36a20.77,20.77,0,0,0-2.06,2.94A15.67,15.67,0,0,0,255,152c-.09.26-.15.54-.22.81l-.12.43-.26.79a16.74,16.74,0,0,1-1.15,2.39,55.45,55.45,0,0,1-5.13,7.19c-1.82,2.19-3.71,4.29-5.65,6.34a153.49,153.49,0,0,1-12.27,11.64,97.16,97.16,0,0,1-14.14,10A31.64,31.64,0,0,1,207,195.3a12.5,12.5,0,0,1-6.88-.45,19.6,19.6,0,0,1-1.78-.88,18,18,0,0,1-1.56-1.16c-.44-.43-.87-.87-1.28-1.32s-.66-.91-1-1.38a19.51,19.51,0,0,1-2.2-5.34,34,34,0,0,1-.78-4.88,57.4,57.4,0,0,1,0-9.09,99.35,99.35,0,0,1,2.93-17,139,139,0,0,1,5.16-16.31l.13-.36.16-.28c1.2-2.18,2.47-4.33,3.87-6.47.71-1.08,1.43-2.15,2.25-3.25.41-.55.85-1.11,1.34-1.69.26-.29.52-.6.84-.92s.34-.34.58-.55.2-.19.4-.35l.28-.21.25-.17.13-.08a4.19,4.19,0,0,1,.42-.24l-1.8,1.53c2.22-3,4.43-6.09,6.5-9.18,1-1.55,2-3.13,3-4.67a47.88,47.88,0,0,0,2.56-4.56,10.7,10.7,0,0,0,.44-1c.09-.25.27-.7.23-.64l0,0,0,0h0v-.15c0-.44.1-.87.17-1.31,0-.2.07-.45.12-.62l.15-.48.31-.94a5.43,5.43,0,0,1,.35-.87l.37-.81.38-.79.43-.73c.28-.48.55-1,.85-1.44l.94-1.34a35.52,35.52,0,0,1,9.2-8.82A38.29,38.29,0,0,1,246,80.87l3.06-.64c1-.15,2.05-.22,3.08-.32.51,0,1-.12,1.53-.13l1.54,0c1,0,2,0,3.05.09l3,.37,2.71.38a5.28,5.28,0,0,0,4.23-1.16,5.85,5.85,0,0,0,1.36-2,12.54,12.54,0,0,0,.87-2.55,44.53,44.53,0,0,0,.78-5.64h.6a45.18,45.18,0,0,1-.25,5.8,10.26,10.26,0,0,1-2.14,5.46,6.25,6.25,0,0,1-2.5,1.68,10.41,10.41,0,0,1-1.46.37c-.49,0-1,.1-1.49.11-2-.09-3.83-.24-5.76-.36-.95,0-1.9.08-2.85.11l-1.43.06c-.47,0-.94.14-1.41.21-.94.15-1.88.27-2.81.46L247,84a34.75,34.75,0,0,0-10.12,5.13A33.34,33.34,0,0,0,229,97.27l-.77,1.19c-.25.4-.46.82-.69,1.24A12.25,12.25,0,0,0,227,101c-.16.44-.4.86-.51,1.3a8.33,8.33,0,0,0-.35,1.32l-.18,1.42a12.55,12.55,0,0,1-.89,2.86A77.56,77.56,0,0,1,219.41,118c-2.07,3.26-4.21,6.45-6.45,9.6l0,0-.14.1a5.15,5.15,0,0,0-.54.5l-.57.65c-.37.46-.73.93-1.07,1.42-.7,1-1.34,2-2,3-1.26,2-2.45,4.13-3.6,6.25l0-.07a133.45,133.45,0,0,0-4.79,15.66,109.21,109.21,0,0,0-2.73,16.12,50.19,50.19,0,0,0-.09,8.13,17.74,17.74,0,0,0,2,7.63,5.65,5.65,0,0,0,2.77,2.44,7,7,0,0,0,3.77.2,27.21,27.21,0,0,0,7.49-2.89A92.47,92.47,0,0,0,227,177.62c4.27-3.42,8.38-7.05,12.29-10.88,2-1.91,3.85-3.88,5.68-5.91a53.18,53.18,0,0,0,5.05-6.4,12.88,12.88,0,0,0,.94-1.75c.23-.55.43-1.29.67-1.93a19.88,19.88,0,0,1,1.93-3.72,22.75,22.75,0,0,1,5.76-6l.08-.07h.12l7.33,0a21.63,21.63,0,0,0,7.06-1.33A109.07,109.07,0,0,0,287.42,134Z"/></g><g id="headHair"><path d="M286.82,58.45A24.16,24.16,0,0,1,281.7,66a16.21,16.21,0,0,1-8.52,4.5,17.13,17.13,0,0,1-9.85-1.55,28.51,28.51,0,0,1-4.26-2.4l-1.92-1.45-1.81-1.54-.6-.52-.28-1.22c-.57-2.58-1.34-5.32-2.05-8.07s-1.39-5.56-1.95-8.41a79.91,79.91,0,0,1-1.85-17.76A40.54,40.54,0,0,1,250,18.07a26,26,0,0,1,4.66-9.29,21.88,21.88,0,0,1,8.66-6.47A32.38,32.38,0,0,1,273.21.05l.53,0,.61.1c1.4.21,2.79.43,4.2.71s2.83.61,4.27,1a40.64,40.64,0,0,1,4.44,1.49,23.32,23.32,0,0,1,2.39,1.15,13.4,13.4,0,0,1,1.35.86c.23.17.48.36.77.61.13.11.3.27.47.44l.28.31a6,6,0,0,1,.52.67l-1.81-1.7-.1,0h0l.05,0,.17.08.41.15a7.17,7.17,0,0,0,.89.21A4.41,4.41,0,0,0,294.34,6a4.43,4.43,0,0,0,1.58-.69,7.8,7.8,0,0,0,.81-.61c.27-.24.53-.55.81-.81l1.27-1.16.78-.3a26.14,26.14,0,0,1,5.58-1.5,23.06,23.06,0,0,1,6.06-.12,17.51,17.51,0,0,1,6.21,2,17.45,17.45,0,0,1,4.95,4.3A26.17,26.17,0,0,1,324.1,9.7c.43.89.9,1.78,1.24,2.66l.87,2.53c.09.19.13.39.22.59s.17.42.29.62a8.27,8.27,0,0,0,1.82,2.26,11,11,0,0,0,1.27.94c.23.14.46.28.69.4l.33.17c.07,0,.26.12.17.09l-2.41-.13c.78-.13,1.31-.19,1.94-.25s1.21-.11,1.8-.15c1.2-.07,2.38-.08,3.57-.07A45.75,45.75,0,0,1,343,20,36.29,36.29,0,0,1,350,22a31.53,31.53,0,0,1,6.45,3.45l.27.17.09.09a50,50,0,0,1,4.48,4.71c.69.84,1.36,1.71,2,2.63.31.46.62.93.91,1.42.15.24.29.5.43.76s.26.48.45.89l.24.7c-.06-.2,0,0,0,0a1.94,1.94,0,0,0,.05.2,4.29,4.29,0,0,0,.94,1.46,7.86,7.86,0,0,0,2.32,1.65A22.35,22.35,0,0,0,375,41.84c2.36.39,4.76.66,7.18.85s4.87.34,7.3.32l.08.6c-2.45.28-4.9.4-7.36.45s-4.91,0-7.36-.2a24,24,0,0,1-7.28-1.37,11,11,0,0,1-3.25-1.91,6.74,6.74,0,0,1-2.16-3.2l0,.1A21.46,21.46,0,0,0,360.58,35c-.61-.79-1.26-1.55-1.93-2.28a45.88,45.88,0,0,0-4.36-4.12l0,0a29,29,0,0,0-5.75-2.71,33,33,0,0,0-6.21-1.45,42.51,42.51,0,0,0-6.38-.36,40.42,40.42,0,0,0-6.34.64l-.14,0-.11-.05a14.4,14.4,0,0,1-7.26-6,12.42,12.42,0,0,1-1-2.19l-.79-2.13c-.29-.69-.67-1.34-1-2s-.81-1.25-1.27-1.83a11.5,11.5,0,0,0-1.55-1.57,9.16,9.16,0,0,0-.87-.67l-.94-.58a12.25,12.25,0,0,0-4.19-1.3,18.49,18.49,0,0,0-8.77,1.33l.22-.15c-.44.44-.85.92-1.31,1.34a12.68,12.68,0,0,1-1.49,1.16,10.24,10.24,0,0,1-3.47,1.55,10.08,10.08,0,0,1-3.79.21,10.88,10.88,0,0,1-3.67-1.11l-.06,0-.14-.16a4.26,4.26,0,0,0-.59-.52,8.85,8.85,0,0,0-.79-.5,17.34,17.34,0,0,0-1.73-.85,36,36,0,0,0-3.71-1.27,70.06,70.06,0,0,0-7.77-1.64h.13a26.53,26.53,0,0,0-8.06,1.75,16.82,16.82,0,0,0-6.6,4.75,20.45,20.45,0,0,0-3.82,7.25,36.16,36.16,0,0,0-1.39,8.22,78.63,78.63,0,0,0,1.1,16.76c.85,5.58,2.16,11,3.11,16.65l-.1-.22a28.55,28.55,0,0,0,6.87,5.28,13.61,13.61,0,0,0,16-1.52,23.83,23.83,0,0,0,5.54-6.62Z"/></g><g id="hairLower"><path d="M388.35,80.54A31.64,31.64,0,0,0,383.1,79a45.8,45.8,0,0,0-5.25-.76c-1.75-.09-3.46-.23-5.18-.15s-3.43.18-5.12.33l1.67-.36-4.74,2.78c-.78.44-1.55.9-2.28,1.35l-1,.66-.42.29-.13.1s0,0,0,0l.07,0,.1-.07.05,0,.25-.23-1,.75a14.23,14.23,0,0,1-1.3.73c-.39.2-.77.38-1.16.55a20.26,20.26,0,0,1-2.36.87,22.37,22.37,0,0,1-5.1.83,18.28,18.28,0,0,1-10.29-2.91c-.75-.48-1.4-1.05-2.09-1.58s-1.22-1.18-1.82-1.77l-.44-.46-.3-.35-.6-.71-1.22-1.42c-.83-.94-1.68-1.91-2.52-2.91s-1.7-2-2.52-3-1.66-2.11-2.45-3.24-1.51-2.29-2.24-3.45-1.41-2.37-2-3.61-1.14-2.53-1.68-3.8a39.42,39.42,0,0,1-2.75-16l.58-.13a57.31,57.31,0,0,0,5.47,14.28,61.29,61.29,0,0,0,4.17,6.42c1.55,2,3.21,4,4.93,5.88s3.52,3.74,5.28,5.63c.89.92,1.75,1.93,2.63,2.82.46.42.87.9,1.35,1.28s1,.78,1.49,1.1a12.9,12.9,0,0,0,7,2,15.73,15.73,0,0,0,7.12-1.84l-.1.08a4.21,4.21,0,0,1,.67-.47l.62-.37,1.26-.67c.83-.43,1.68-.84,2.52-1.24,1.69-.8,3.4-1.57,5.11-2.32l.1,0h.1c.93,0,1.87,0,2.8.1s1.87.12,2.79.26a41.27,41.27,0,0,1,5.51,1.08,35.37,35.37,0,0,1,5.27,1.93,23.32,23.32,0,0,1,4.83,2.89Z"/></g><g id="hairCurl"><path d="M299.81,62.16c3.3,1.22,5.9,2.27,8.23,3a25.9,25.9,0,0,0,12.22,1c2.47-.29,5.26-.93,8.82-1.33l.41.44-1.63,1.51-1.72,1.4a26.39,26.39,0,0,1-3.82,2.31,16.91,16.91,0,0,1-8.75,1.88,16.51,16.51,0,0,1-8.33-3.28,23.61,23.61,0,0,1-3.32-3,24,24,0,0,1-2.63-3.61Z"/></g><g id="leftHand-2" data-name="leftHand"><path d="M277.58,116.61c-3,1.42-6,2.45-8.95,3.58s-5.88,2.1-8.62,3.12a40.08,40.08,0,0,0-3.74,1.63,4.48,4.48,0,0,0-1,.71s.05,0,.06,0a1.15,1.15,0,0,0,.3-.29l-.93,1.23c-1.1,1.39-2.16,2.55-3.22,3.76l-3.27,3.44a160.12,160.12,0,0,1-13.95,12.62c-2.43,2-5,3.82-7.55,5.68-1.32.88-2.6,1.81-3.93,2.68-.66.43-1.35.87-2,1.32l-1,.66-.94.69-.54-.26.66-1,.73-.93c.48-.64,1-1.22,1.51-1.82,1-1.2,2.08-2.36,3.13-3.52,2.13-2.3,4.31-4.55,6.48-6.81l13.1-13.46c2.19-2.23,4.41-4.45,6.49-6.74l.73-.87a4.69,4.69,0,0,1,1-.9,11.25,11.25,0,0,1,2.2-1.09,34.14,34.14,0,0,1,4.57-1.36A127.88,127.88,0,0,1,277.52,116Z"/></g></g></svg>