<svg id="wave" xmlns="http://www.w3.org/2000/svg" viewBox="0 0 512 429.01">
<defs><style>
.cls-1{fill:#e8faff;}
#waveupperinner{fill: white; stroke: black; stroke-width: 0.2px;}
#waveupperinner:hover{fill:#00c3ff; transition: fill 0.2s ease-in-out;}
svg{cursor: pointer;}
#wavelowerinner{fill:#00c3ff;}
.cls-3{fill:#00aaf0;}</style></defs>
<title>waveIcon</title><g id="full"><path id="foamupper" class="cls-1" d="M213.42,7.66C151.91,15.33,62.73,77,22,148.34c65.41-26.2,218.65-55.41,223.62-54.48l49.73-24.67S301.67-3.35,213.42,7.66Z"/><g id="waveupperinner"><path class="cls-2" d="M511.86,357.56l.14,63.38-216,0L58.25,338.78l-7.53-43,118-38.87c14.49,19,33.36,36.89,56.58,53.1a8,8,0,0,0,11.13-2,8.06,8.06,0,0,0-2-11.18c-34.2-23.87-58.25-51.6-71.64-81A8.42,8.42,0,0,1,166.6,205a7.76,7.76,0,0,1,10.69,3.67c37.82,78.38,166.93,138.63,243.9,163.52a8,8,0,0,0,4.9-15.28C319.9,322.58,192,250.55,183.11,176.86c-4.29-35.44-.08-73.5,62.76-100.53L256,77.43l20.53,26s-43.13,4.85-58.45,38.63C176.2,234.4,367.54,332.69,498.69,354.81,506.32,356.09,511.86,357.56,511.86,357.56Z"/><path class="cls-2" d="M426.09,356.92a8,8,0,1,1-4.9,15.28c-77-24.89-206.08-85.14-243.9-163.52A7.76,7.76,0,0,0,166.6,205a8.42,8.42,0,0,0-3.77,10.8c13.39,29.37,37.44,57.1,71.64,81a8.06,8.06,0,0,1,2,11.18,8,8,0,0,1-11.13,2c-23.22-16.21-42.09-34.12-56.58-53.1l-118,38.87-5.83-33.27Q43,261,41.2,259.28c-.39-.37-.77-.75-1.15-1.13C7.16,224.76,25.42,151,96.18,171.51c17.61,5.09,30.4,1.46,37.13-5.43a21,21,0,0,0,1.4-1.59,17.58,17.58,0,0,0,2.54-18.11c-.16-.38-.34-.76-.53-1.14s-.39-.75-.61-1.12c-.32-.55-.68-1.1-1.07-1.64l-.4-.54a21.85,21.85,0,0,0-1.82-2.08,26.69,26.69,0,0,0-4.66-3.79h0a21.06,21.06,0,0,0-2.24-1.28c-.41-.21-.82-.41-1.25-.59-10.53-4.64-28.31-5-48.8-.55l92.26-65.8,77.75,8.48c-62.84,27-67.05,65.09-62.76,100.53C192,250.55,319.9,322.58,426.09,356.92Z"/><path class="cls-2" d="M247.72,75.54l-1.85.79-77.75-8.48-92.26,65.8c-5.16,1.13-10.5,2.57-15.93,4.33-.58.19-1.12.42-1.69.62L100,99.73A142.94,142.94,0,0,1,238.65,67.42Z"/><path class="cls-2" d="M136.72,145.24c.19.38.37.76.53,1.14C137.08,146,136.91,145.62,136.72,145.24Z"/><path class="cls-2" d="M136.11,144.12c.22.37.42.75.61,1.12C136.53,144.87,136.33,144.5,136.11,144.12Z"/><path class="cls-2" d="M135,142.48c.39.54.75,1.09,1.07,1.64C135.78,143.57,135.43,143,135,142.48Z"/><path class="cls-2" d="M134.71,164.49a21,21,0,0,1-1.4,1.59A19,19,0,0,0,134.71,164.49Z"/><path class="cls-2" d="M134.64,141.94a25.08,25.08,0,0,0-1.82-2.08A21.85,21.85,0,0,1,134.64,141.94Z"/><path class="cls-2" d="M125.91,134.79a21.06,21.06,0,0,1,2.24,1.28A25.2,25.2,0,0,0,125.91,134.79Z"/><path class="cls-2" d="M124.66,134.2c-10.56-4.62-28.43-4.93-49-.41l.19-.14C96.35,129.16,114.13,129.56,124.66,134.2Z"/><path class="cls-2" d="M40.05,258.15c.38.38.76.76,1.15,1.13C40.81,258.91,40.42,258.53,40.05,258.15Z"/></g><path id="wavelowerinner" class="cls-2" d="M142.14,277.19s96,133.1,361.68,135.73a8.05,8.05,0,0,1,8,8h0a8,8,0,0,1-8,8.07H180.11c-36.17,0-85.26-16.05-115.9-56.18-25.63-33.58-16-96.31-16-96.31Z"/><path id="watershadelower" class="cls-3" d="M504.18,413h-240c-64.94,0-111.39-22.2-141.31-51.49-11-10.81-3-29.71,12.44-29.63h.15c14.75,0,28.93-9.8,35.59-25.12-19.82-17.2-28.76-29.53-28.76-29.53l-93.92-.67s-9.65,62.73,16,96.31C95,413,144.12,429,180.29,429H504a8,8,0,0,0,.21-16.05Z"/><g id="watershadeupper"><path id="watershade1" class="cls-3" d="M111.26,173.83a55.89,55.89,0,0,1-15.08-2.32c-74-21.4-90.58,60.2-51.29,91l5.83,33.28,79.62-26.23c-3.52-8-6.92-16.39-10.18-25.1C110.23,217.82,108.26,194.37,111.26,173.83Z"/><path id="watershade2" class="cls-3" d="M191.7,59.82a106.39,106.39,0,0,0-69.56,25.92l-59.6,51.49c25.87-7.93,49.07-8.57,61.84-3,27.29-51,83.71-74.39,83.71-74.39Z"/></g><path id="foamlower" class="cls-1" d="M32.9,283.88c-11.43,47.38,31.31,88.95,31.31,88.95s-22.86-39.92-5.49-68.72c11.49-19.06,35-23.08,61.44,4.51,20.18,21,47.87-8.74,35.06-31.26,11.58,2.15,23.47-2,24.89-12.88C185.33,224.66,53.55,198.27,32.9,283.88Z"/><path id="outline" d="M505.47,350c-49.28-6.4-109.75-26.19-161.75-52.94-56.67-29.15-97.85-63.16-116-95.76-11.82-21.28-13.51-41.53-5-60.2,5.41-11.89,15.32-20.36,29.44-25.16a73.46,73.46,0,0,1,18.34-3.66c.65.93,1.31,1.87,1.94,2.82,6.16,9.23,14.92,14.18,24.69,14.18a30.9,30.9,0,0,0,6.8-.77c14.55-3.28,26.7-16.51,28.88-31.45,2.27-15.58-6.32-30.07-23.57-39.76-1.91-1.07-3.83-2.09-5.77-3.08-1.29-6.32-6.82-26.58-26.53-40.55C257.83.06,231.56-3.4,198.87,3.35c-44.2,9.13-87.82,35-133.35,79.22A7.5,7.5,0,0,0,76,93.34C119.38,51.2,160.58,26.57,201.9,18c28.33-5.85,50.6-3.26,66.2,7.68A51.53,51.53,0,0,1,285,46.07q-4.23-1.55-8.47-2.81a7.5,7.5,0,0,0-4.3,14.37,146.76,146.76,0,0,1,29.71,12.71C313.81,77,319.36,85.49,318,94.85c-1.27,8.75-8.89,17.08-17.33,19-6.33,1.43-11.62-1-15.71-7.09-14-21.07-33.48-37.95-54.71-47.52a105.75,105.75,0,0,0-15.47-5.59,134.21,134.21,0,0,1,27.15-1.32,7.5,7.5,0,1,0,.84-15c-41-2.29-84.77,13.25-126.59,44.91a311.91,311.91,0,0,0-49.35,46.57A190.26,190.26,0,0,0,33.54,141c6-7.84,13.37-16.84,21.89-26.33a7.5,7.5,0,1,0-11.16-10C17.21,134.81,2,159.55,1.12,161.07a7.5,7.5,0,0,0,10.75,10C32.1,156.59,56.05,146,79.32,141.36c14.58-2.93,35-4.19,44.35,1.89,6.24,4,8.63,9.81,6.23,15.06-3.22,7.09-14.42,11.95-32.15,6.84-18.22-5.25-34.48-5.22-48.31.09a52.38,52.38,0,0,0-28.32,25.67,62.23,62.23,0,0,0-5.28,39.78,58.72,58.72,0,0,0,17,31.54,82.54,82.54,0,0,0-7.9,20.58c-5.15,21.25-.94,44.64,12.17,67.65a138,138,0,0,0,21.29,28.35A7.5,7.5,0,1,0,68.83,368c-.4-.39-39.66-39-29.32-81.69,5-20.74,17.37-35.5,36.72-43.88,16.2-7,36.81-8.93,56.54-5.26,23.64,4.41,41.06,16.27,39.64,27-.36,2.76-1.38,4.69-3.12,5.89-2.2,1.52-5.67,1.92-9.26,1.07l-.66-.12a40.25,40.25,0,0,0-10.18-9.6A7.5,7.5,0,0,0,140.87,274c9.33,6.22,10.45,13.66,9.74,18.81-1,7.07-6.06,13.63-12.1,15.6-4.68,1.53-9.18.09-13.38-4.27-16.62-17.24-37.12-24.75-53.51-19.6A28.11,28.11,0,0,0,51.7,307.62,7.5,7.5,0,1,0,66.51,310a13.27,13.27,0,0,1,9.61-11.17c13.07-4.11,28.75,5.89,38.21,15.7,6,6.2,13.2,9.45,20.63,9.45a26.39,26.39,0,0,0,8.2-1.33,32.91,32.91,0,0,0,18.31-15.77c7,7.44,19,18.65,37.63,31.24,29.55,20,82.46,47.59,166.66,65.81a7.23,7.23,0,0,0,1.59.17,7.5,7.5,0,0,0,1.58-14.83c-81.19-17.57-132.07-43.92-160.46-62.93C178,305.88,166.22,289.35,166,289c-.08-.12-.17-.23-.26-.34,0-.71-.09-1.42-.17-2.12a24.28,24.28,0,0,0,12.25-4.09c5.28-3.64,8.55-9.27,9.48-16.28,1.38-10.48-3.93-20.76-14.93-28.92-9.22-6.83-22.3-12.09-36.84-14.8-33.13-6.17-71.45.91-94,27.22-12.43-13.29-15.66-34.91-7-52,4.67-9.23,19.79-29.46,59.09-18.13,26.33,7.58,44.06-2.09,50-15,5.53-12.14.81-25.76-11.74-33.88-8.83-5.71-23.38-7.87-40.72-6.23A305.88,305.88,0,0,1,125.53,94a243.7,243.7,0,0,1,38-23.68l.13-.05c19.23-7.42,40.13-6.51,60.44,2.65a112.84,112.84,0,0,1,35.29,25.66c-15.16,2.81-38.84,11.19-50.27,36.29-10.59,23.24-8.72,48,5.54,73.7,41.92,75.45,185.9,142.92,288.9,156.29a8,8,0,0,0,1,.06,7.5,7.5,0,0,0,1-14.93Z"/></g></svg>